<svg width="30" height="31" viewBox="0 0 30 31" fill="none" xmlns="http://www.w3.org/2000/svg">
<path d="M11.25 3.875H5C4.30964 3.875 3.75 4.4533 3.75 5.16667V14.2083C3.75 14.9217 4.30964 15.5 5 15.5H11.25C11.9404 15.5 12.5 14.9217 12.5 14.2083V5.16667C12.5 4.4533 11.9404 3.875 11.25 3.875Z" stroke="#00CBCC" stroke-width="3" stroke-linecap="round" stroke-linejoin="round"/>
<path d="M25 3.875H18.75C18.0596 3.875 17.5 4.4533 17.5 5.16667V9.04167C17.5 9.75503 18.0596 10.3333 18.75 10.3333H25C25.6904 10.3333 26.25 9.75503 26.25 9.04167V5.16667C26.25 4.4533 25.6904 3.875 25 3.875Z" stroke="#00CBCC" stroke-width="3" stroke-linecap="round" stroke-linejoin="round"/>
<path d="M25 15.5H18.75C18.0596 15.5 17.5 16.0783 17.5 16.7917V25.8333C17.5 26.5467 18.0596 27.125 18.75 27.125H25C25.6904 27.125 26.25 26.5467 26.25 25.8333V16.7917C26.25 16.0783 25.6904 15.5 25 15.5Z" stroke="#00CBCC" stroke-width="3" stroke-linecap="round" stroke-linejoin="round"/>
<path d="M11.25 20.6667H5C4.30964 20.6667 3.75 21.245 3.75 21.9583V25.8333C3.75 26.5467 4.30964 27.125 5 27.125H11.25C11.9404 27.125 12.5 26.5467 12.5 25.8333V21.9583C12.5 21.245 11.9404 20.6667 11.25 20.6667Z" stroke="#00CBCC" stroke-width="3" stroke-linecap="round" stroke-linejoin="round"/>
</svg>
