<svg width="209" height="187" viewBox="0 0 209 187" fill="none" xmlns="http://www.w3.org/2000/svg">
<path d="M196.882 89.1227C194.819 104.756 186.841 122.933 170.907 131.284C146.832 143.903 148.847 163.312 101.856 171.75C94.5299 173.066 87.5769 173.62 81.0206 173.511C77.496 173.453 74.0847 173.198 70.7942 172.765C40.9289 168.862 20.8307 150.287 13.4572 127.866C3.7537 98.3781 23.1293 79.0726 35.9715 67.4412C48.8141 55.8098 58.2199 19.5677 104.342 10.9477C111.375 9.63612 118.567 8.96704 125.756 9.12748C142.166 9.48764 160.066 14.3093 172.451 24.3721C173.381 25.1283 174.285 25.9122 175.167 26.7201C192.381 42.5294 199.696 67.8088 196.882 89.1227Z" fill="#00CBCC"/>
<path opacity="0.7" d="M196.882 89.1227C194.819 104.756 186.841 122.933 170.907 131.284C146.832 143.903 148.847 163.312 101.856 171.75C94.5299 173.066 87.5769 173.62 81.0206 173.511C77.496 173.453 74.0847 173.198 70.7942 172.765C40.929 168.862 20.8307 150.287 13.4572 127.866C3.7537 98.3781 23.1293 79.0726 35.9715 67.4412C48.8141 55.8098 58.2199 19.5677 104.342 10.9477C111.375 9.63612 118.567 8.96704 125.756 9.12748C142.166 9.48764 160.066 14.3093 172.451 24.3721C173.381 25.1283 174.285 25.9122 175.167 26.7201C192.381 42.5294 199.696 67.8088 196.882 89.1227Z" fill="white"/>
<path d="M193.862 105.815H200.208" stroke="#263238" stroke-miterlimit="10" stroke-linecap="round" stroke-linejoin="round"/>
<path d="M9.4458 105.815H191.016" stroke="#263238" stroke-miterlimit="10" stroke-linecap="round" stroke-linejoin="round"/>
<path d="M184.114 62.0223V59.0946L180.98 58.6937C180.689 57.2594 180.065 55.9291 179.18 54.7708L181.086 52.4965L178.772 50.4264L176.239 52.1255C174.949 51.3263 173.467 50.76 171.867 50.4911L171.417 47.6764H168.145L167.697 50.4803C166.094 50.7406 164.607 51.2986 163.312 52.0907L160.77 50.3856L158.457 52.4557L160.356 54.7218C159.463 55.876 158.83 57.2022 158.529 58.6346L155.383 59.037V61.9647L158.517 62.3656C158.808 63.7999 159.432 65.1302 160.317 66.2885L158.411 68.5628L160.725 70.6329L163.258 68.9338C164.548 69.733 166.03 70.2993 167.63 70.5682L168.08 73.3825H171.352L171.8 70.5787C173.403 70.3184 174.89 69.7603 176.185 68.9686L178.727 70.6736L181.04 68.6036L179.141 66.3375C180.034 65.1833 180.667 63.8568 180.968 62.4247L184.114 62.0223ZM169.748 67.6274C165.367 67.6274 161.815 64.4495 161.815 60.5296C161.815 56.6098 165.367 53.4319 169.748 53.4319C174.129 53.4319 177.681 56.6098 177.681 60.5296C177.681 64.4495 174.129 67.6274 169.748 67.6274Z" stroke="#263238" stroke-miterlimit="10"/>
<path d="M193.184 79.4911V77.3974L190.942 77.1105C190.734 76.085 190.289 75.1336 189.655 74.3052L191.018 72.679L189.364 71.1987L187.552 72.4139C186.63 71.8424 185.57 71.4373 184.425 71.2451L184.103 69.2322H181.763L181.443 71.2372C180.297 71.4235 179.233 71.8222 178.307 72.3888L176.49 71.1696L174.836 72.6499L176.194 74.2704C175.555 75.0958 175.102 76.0443 174.887 77.0683L172.638 77.3563V79.4499L174.879 79.7368C175.087 80.7623 175.533 81.7137 176.166 82.5421L174.803 84.1683L176.458 85.6486L178.269 84.4335C179.192 85.0049 180.252 85.41 181.396 85.6022L181.718 87.6151H184.058L184.378 85.6101C185.525 85.4238 186.588 85.0251 187.514 84.4585L189.331 85.6778L190.986 84.1975L189.628 82.5769C190.266 81.7515 190.719 80.803 190.934 79.779L193.184 79.4911ZM182.91 83.4996C179.777 83.4996 177.237 81.2272 177.237 78.4237C177.237 75.6202 179.777 73.3477 182.91 73.3477C186.044 73.3477 188.584 75.6202 188.584 78.4237C188.584 81.2272 186.044 83.4996 182.91 83.4996Z" stroke="#263238" stroke-miterlimit="10"/>
<path d="M27.8042 78.0508V80.7223L30.6637 81.0884C30.9292 82.397 31.4981 83.6111 32.3061 84.668L30.5672 86.7433L32.6785 88.6324L34.9896 87.0821C36.1667 87.8114 37.5194 88.3283 38.9798 88.5737L39.3903 91.1419H42.3761L42.7853 88.5834C44.2479 88.3459 45.6047 87.8369 46.786 87.1139L49.1055 88.6698L51.2168 86.7807L49.4842 84.7129C50.2993 83.6597 50.877 82.4494 51.1512 81.1427L54.0216 80.7754V78.1039L51.162 77.7378C50.8966 76.4291 50.3277 75.2151 49.5197 74.1582L51.2586 72.0829L49.1473 70.1938L46.8362 71.744C45.6591 71.0147 44.3064 70.4979 42.8459 70.2525L42.4355 67.6843H39.4497L39.0409 70.2428C37.5783 70.4803 36.2215 70.9893 35.0402 71.7122L32.7207 70.1564L30.6094 72.0455L32.342 74.1133C31.5269 75.1665 30.9492 76.3768 30.675 77.6835L27.8042 78.0508ZM40.9131 72.936C44.9108 72.936 48.152 75.8356 48.152 79.4129C48.152 82.9898 44.9113 85.8898 40.9131 85.8898C36.9149 85.8898 33.6742 82.9902 33.6742 79.4129C33.6742 75.8356 36.9149 72.936 40.9131 72.936Z" stroke="#263238" stroke-miterlimit="10"/>
<path d="M20.4175 63.5082V65.1377L22.1618 65.361C22.324 66.1591 22.6709 66.8996 23.1637 67.5444L22.1029 68.8104L23.3907 69.9627L24.8006 69.0168C25.5188 69.4615 26.3439 69.7771 27.2346 69.9264L27.485 71.4931H29.3063L29.5558 69.9324C30.4478 69.7873 31.2754 69.4768 31.9961 69.0359L33.411 69.9851L34.6989 68.8328L33.6417 67.5713C34.1387 66.9288 34.4911 66.1905 34.6583 65.3935L36.4093 65.1695V63.54L34.665 63.3167C34.5028 62.5182 34.1559 61.778 33.6635 61.1333L34.7244 59.8673L33.4365 58.715L32.0266 59.6608C31.3085 59.2161 30.4833 58.9005 29.5926 58.7513L29.3422 57.1846H27.521L27.2714 58.7453C26.379 58.89 25.5518 59.2008 24.8311 59.6414L23.4162 58.6922L22.1284 59.8445L23.1855 61.106C22.6885 61.7485 22.3361 62.4868 22.1689 63.2838L20.4175 63.5082ZM28.4138 60.3883C30.8524 60.3883 32.8296 62.1569 32.8296 64.3392C32.8296 66.5211 30.8528 68.2898 28.4138 68.2898C25.9752 68.2898 23.9981 66.5211 23.9981 64.3392C23.9981 62.1569 25.9752 60.3883 28.4138 60.3883Z" stroke="#263238" stroke-miterlimit="10"/>
<path d="M90.5786 33.7714V36.0095L92.9742 36.3161C93.1965 37.4123 93.6731 38.4292 94.3498 39.3149L92.8931 41.0532L94.6616 42.6356L96.5978 41.3371C97.5839 41.9478 98.7171 42.3809 99.9406 42.5862L100.285 44.7375H102.786L103.129 42.5941C104.354 42.3951 105.49 41.9688 106.48 41.3633L108.423 42.6667L110.192 41.0843L108.74 39.3519C109.422 38.4696 109.907 37.4557 110.136 36.361L112.54 36.0532V33.8152L110.145 33.5085C109.922 32.4123 109.446 31.3954 108.769 30.5098L110.226 28.7714L108.457 27.189L106.521 28.4876C105.535 27.8768 104.402 27.4437 103.178 27.2384L102.834 25.0872H100.333L99.9903 27.2306C98.7651 27.4295 97.6286 27.8559 96.6388 28.4614L94.6959 27.158L92.9274 28.7404L94.3791 30.4728C93.6965 31.355 93.2124 32.3689 92.9829 33.4633L90.5786 33.7714ZM101.559 29.4869C104.908 29.4869 107.623 31.916 107.623 34.9125C107.623 37.909 104.908 40.3381 101.559 40.3381C98.2105 40.3381 95.4955 37.909 95.4955 34.9125C95.4955 31.916 98.2105 29.4869 101.559 29.4869Z" stroke="#263238" stroke-miterlimit="10"/>
<path d="M166.354 108.24H44.6992V36.6397C44.6992 34.9933 46.1911 33.6585 48.0311 33.6585H163.022C164.863 33.6585 166.354 34.9933 166.354 36.6397L166.354 108.24Z" fill="#263238" stroke="#263238" stroke-miterlimit="10" stroke-linecap="round" stroke-linejoin="round"/>
<path d="M184.602 141.211H26.4507L44.6989 108.24H166.354L184.602 141.211Z" fill="white" stroke="#263238" stroke-miterlimit="10" stroke-linecap="round" stroke-linejoin="round"/>
<path d="M158.985 39.564H52.0679V102.335H158.985V39.564Z" fill="#E3F4F4" stroke="#263238" stroke-miterlimit="10" stroke-linecap="round" stroke-linejoin="round"/>
<path d="M100.452 118.677L100.663 114.659H94.235L93.8091 118.677H100.452Z" fill="#263238" stroke="white" stroke-miterlimit="10" stroke-linecap="round" stroke-linejoin="round"/>
<path d="M113.738 118.677L113.519 114.659H107.09L107.095 118.677H113.738Z" fill="#263238" stroke="white" stroke-miterlimit="10" stroke-linecap="round" stroke-linejoin="round"/>
<path d="M148.336 122.973H155.209L153.595 118.677H146.953L148.336 122.973Z" fill="#263238" stroke="white" stroke-miterlimit="10" stroke-linecap="round" stroke-linejoin="round"/>
<path d="M93.8089 118.677L94.2348 114.659H87.8064L87.166 118.677H93.8089Z" fill="#263238" stroke="white" stroke-miterlimit="10" stroke-linecap="round" stroke-linejoin="round"/>
<path d="M80.5232 118.677L81.3788 114.659H74.9504L73.8799 118.677H80.5232Z" fill="#263238" stroke="white" stroke-miterlimit="10" stroke-linecap="round" stroke-linejoin="round"/>
<path d="M140.31 118.677L139.23 114.659H132.803L133.666 118.677H140.31Z" fill="#263238" stroke="white" stroke-miterlimit="10" stroke-linecap="round" stroke-linejoin="round"/>
<path d="M146.953 118.677L145.658 114.659H139.23L140.31 118.677H146.953Z" fill="#263238" stroke="white" stroke-miterlimit="10" stroke-linecap="round" stroke-linejoin="round"/>
<path d="M73.8797 118.677L74.9502 114.659H68.5226L67.2368 118.677H73.8797Z" fill="#263238" stroke="white" stroke-miterlimit="10" stroke-linecap="round" stroke-linejoin="round"/>
<path d="M120.381 118.677L119.947 114.659H113.519L113.738 118.677H120.381Z" fill="#263238" stroke="white" stroke-miterlimit="10" stroke-linecap="round" stroke-linejoin="round"/>
<path d="M153.595 118.677L152.086 114.659H145.658L146.952 118.677H153.595Z" fill="#263238" stroke="white" stroke-miterlimit="10" stroke-linecap="round" stroke-linejoin="round"/>
<path d="M133.667 118.677L132.803 114.659H126.375L127.024 118.677H133.667Z" fill="#263238" stroke="white" stroke-miterlimit="10" stroke-linecap="round" stroke-linejoin="round"/>
<path d="M127.023 118.677L126.375 114.659H119.946L120.381 118.677H127.023Z" fill="#263238" stroke="white" stroke-miterlimit="10" stroke-linecap="round" stroke-linejoin="round"/>
<path d="M107.095 118.677L107.09 114.659H100.663L100.452 118.677H107.095Z" fill="#263238" stroke="white" stroke-miterlimit="10" stroke-linecap="round" stroke-linejoin="round"/>
<path d="M60.5942 118.677H53.9514L52.1172 122.973H58.9895L60.5942 118.677Z" fill="#263238" stroke="white" stroke-miterlimit="10" stroke-linecap="round" stroke-linejoin="round"/>
<path d="M62.0946 114.659H55.6666L53.9512 118.677H60.594L62.0946 114.659Z" fill="#263238" stroke="white" stroke-miterlimit="10" stroke-linecap="round" stroke-linejoin="round"/>
<path d="M67.2371 118.677L68.5229 114.659H62.0949L60.5942 118.677H67.2371Z" fill="#263238" stroke="white" stroke-miterlimit="10" stroke-linecap="round" stroke-linejoin="round"/>
<path d="M50.1513 127.576L48.0396 132.522H55.4231L57.2702 127.576H50.1513Z" fill="#263238" stroke="white" stroke-miterlimit="10" stroke-linecap="round" stroke-linejoin="round"/>
<path d="M58.9896 122.973H52.1172L50.1514 127.576H57.2703L58.9896 122.973Z" fill="#263238" stroke="white" stroke-miterlimit="10" stroke-linecap="round" stroke-linejoin="round"/>
<path d="M57.27 127.576L55.4229 132.522H62.8064L64.389 127.576H57.27Z" fill="#263238" stroke="white" stroke-miterlimit="10" stroke-linecap="round" stroke-linejoin="round"/>
<path d="M87.1658 118.677L87.8062 114.659H81.3786L80.5229 118.677H87.1658Z" fill="#263238" stroke="white" stroke-miterlimit="10" stroke-linecap="round" stroke-linejoin="round"/>
<path d="M86.4807 122.973L87.1658 118.677H80.5229L79.6079 122.973H86.4807Z" fill="#263238" stroke="white" stroke-miterlimit="10" stroke-linecap="round" stroke-linejoin="round"/>
<path d="M79.6081 122.973L80.5231 118.677H73.8798L72.7354 122.973H79.6081Z" fill="#263238" stroke="white" stroke-miterlimit="10" stroke-linecap="round" stroke-linejoin="round"/>
<path d="M93.3537 122.973L93.8089 118.677H87.1661L86.481 122.973H93.3537Z" fill="#263238" stroke="white" stroke-miterlimit="10" stroke-linecap="round" stroke-linejoin="round"/>
<path d="M67.2368 118.677H60.594L58.9893 122.973H65.8624L67.2368 118.677Z" fill="#263238" stroke="white" stroke-miterlimit="10" stroke-linecap="round" stroke-linejoin="round"/>
<path d="M149.818 127.576H156.938L155.209 122.973H148.336L149.818 127.576Z" fill="#263238" stroke="white" stroke-miterlimit="10" stroke-linecap="round" stroke-linejoin="round"/>
<path d="M72.7355 122.973L73.88 118.677H67.2372L65.8628 122.973H72.7355Z" fill="#263238" stroke="white" stroke-miterlimit="10" stroke-linecap="round" stroke-linejoin="round"/>
<path d="M58.9893 122.973L57.27 127.576H64.389L65.8624 122.973H58.9893Z" fill="#263238" stroke="white" stroke-miterlimit="10" stroke-linecap="round" stroke-linejoin="round"/>
<path d="M134.59 122.973L133.666 118.677H127.023L127.717 122.973H134.59Z" fill="#263238" stroke="white" stroke-miterlimit="10" stroke-linecap="round" stroke-linejoin="round"/>
<path d="M127.718 122.973L127.024 118.677H120.381L120.845 122.973H127.718Z" fill="#263238" stroke="white" stroke-miterlimit="10" stroke-linecap="round" stroke-linejoin="round"/>
<path d="M148.336 122.973L146.952 118.677H140.31L141.463 122.973H148.336Z" fill="#263238" stroke="white" stroke-miterlimit="10" stroke-linecap="round" stroke-linejoin="round"/>
<path d="M107.099 122.973L107.095 118.677H100.452L100.227 122.973H107.099Z" fill="#263238" stroke="white" stroke-miterlimit="10" stroke-linecap="round" stroke-linejoin="round"/>
<path d="M120.845 122.973L120.381 118.677H113.738L113.972 122.973H120.845Z" fill="#263238" stroke="white" stroke-miterlimit="10" stroke-linecap="round" stroke-linejoin="round"/>
<path d="M113.972 122.973L113.738 118.677H107.095L107.099 122.973H113.972Z" fill="#263238" stroke="white" stroke-miterlimit="10" stroke-linecap="round" stroke-linejoin="round"/>
<path d="M100.226 122.973L100.452 118.677H93.8087L93.3535 122.973H100.226Z" fill="#263238" stroke="white" stroke-miterlimit="10" stroke-linecap="round" stroke-linejoin="round"/>
<path d="M120.845 122.973L121.342 127.576H128.461L127.717 122.973H120.845Z" fill="#263238" stroke="white" stroke-miterlimit="10" stroke-linecap="round" stroke-linejoin="round"/>
<path d="M127.717 122.973L128.461 127.576H135.58L134.59 122.973H127.717Z" fill="#263238" stroke="white" stroke-miterlimit="10" stroke-linecap="round" stroke-linejoin="round"/>
<path d="M65.8626 122.973L64.3892 127.576H71.5085L72.7354 122.973H65.8626Z" fill="#263238" stroke="white" stroke-miterlimit="10" stroke-linecap="round" stroke-linejoin="round"/>
<path d="M134.59 122.973L135.581 127.576H142.7L141.463 122.973H134.59Z" fill="#263238" stroke="white" stroke-miterlimit="10" stroke-linecap="round" stroke-linejoin="round"/>
<path d="M107.099 122.973L107.104 127.576H114.223L113.972 122.973H107.099Z" fill="#263238" stroke="white" stroke-miterlimit="10" stroke-linecap="round" stroke-linejoin="round"/>
<path d="M141.463 122.973L142.699 127.576H149.818L148.336 122.973H141.463Z" fill="#263238" stroke="white" stroke-miterlimit="10" stroke-linecap="round" stroke-linejoin="round"/>
<path d="M113.972 122.973L114.223 127.576H121.342L120.845 122.973H113.972Z" fill="#263238" stroke="white" stroke-miterlimit="10" stroke-linecap="round" stroke-linejoin="round"/>
<path d="M79.6081 122.973L78.6274 127.576H85.7464L86.4808 122.973H79.6081Z" fill="#263238" stroke="white" stroke-miterlimit="10" stroke-linecap="round" stroke-linejoin="round"/>
<path d="M72.7356 122.973L71.5088 127.576H78.6277L79.6084 122.973H72.7356Z" fill="#263238" stroke="white" stroke-miterlimit="10" stroke-linecap="round" stroke-linejoin="round"/>
<path d="M100.226 122.973L99.9849 127.576H107.104L107.099 122.973H100.226Z" fill="#263238" stroke="white" stroke-miterlimit="10" stroke-linecap="round" stroke-linejoin="round"/>
<path d="M93.3535 122.973L92.8657 127.576H99.9847L100.226 122.973H93.3535Z" fill="#263238" stroke="white" stroke-miterlimit="10" stroke-linecap="round" stroke-linejoin="round"/>
<path d="M86.481 122.973L85.7466 127.576H92.866L93.3538 122.973H86.481Z" fill="#263238" stroke="white" stroke-miterlimit="10" stroke-linecap="round" stroke-linejoin="round"/>
<path d="M141.463 122.973L140.31 118.677H133.667L134.59 122.973H141.463Z" fill="#263238" stroke="white" stroke-miterlimit="10" stroke-linecap="round" stroke-linejoin="round"/>
<path d="M62.095 114.659L63.6307 110.547H57.423L55.667 114.659H62.095Z" fill="#263238" stroke="white" stroke-miterlimit="10" stroke-linecap="round" stroke-linejoin="round"/>
<path d="M55.6669 114.659H49.7334L47.8193 118.677H53.9514L55.6669 114.659Z" fill="#263238" stroke="white" stroke-miterlimit="10" stroke-linecap="round" stroke-linejoin="round"/>
<path d="M57.4229 110.547H51.6921L49.7334 114.659H55.6669L57.4229 110.547Z" fill="#263238" stroke="white" stroke-miterlimit="10" stroke-linecap="round" stroke-linejoin="round"/>
<path d="M53.9515 118.677H47.8195L45.7729 122.973H52.1174L53.9515 118.677Z" fill="#263238" stroke="white" stroke-miterlimit="10" stroke-linecap="round" stroke-linejoin="round"/>
<path d="M52.1172 122.973H45.7728L43.5796 127.576H50.1514L52.1172 122.973Z" fill="#263238" stroke="white" stroke-miterlimit="10" stroke-linecap="round" stroke-linejoin="round"/>
<path d="M50.1513 127.576H43.5795L41.2236 132.522H48.0395L50.1513 127.576Z" fill="#263238" stroke="white" stroke-miterlimit="10" stroke-linecap="round" stroke-linejoin="round"/>
<path d="M160.238 118.677L162.082 122.973H168.161L166.115 118.677H160.238Z" fill="#263238" stroke="white" stroke-miterlimit="10" stroke-linecap="round" stroke-linejoin="round"/>
<path d="M164.057 127.576H170.354L168.161 122.973H162.082L164.057 127.576Z" fill="#263238" stroke="white" stroke-miterlimit="10" stroke-linecap="round" stroke-linejoin="round"/>
<path d="M166.179 132.522H172.71L170.354 127.576H164.057L166.179 132.522Z" fill="#263238" stroke="white" stroke-miterlimit="10" stroke-linecap="round" stroke-linejoin="round"/>
<path d="M113.519 114.659L113.295 110.547H107.086L107.091 114.659H113.519Z" fill="#263238" stroke="white" stroke-miterlimit="10" stroke-linecap="round" stroke-linejoin="round"/>
<path d="M160.238 118.677H166.115L164.201 114.659H158.515L160.238 118.677Z" fill="#263238" stroke="white" stroke-miterlimit="10" stroke-linecap="round" stroke-linejoin="round"/>
<path d="M156.938 127.576H164.057L162.082 122.973H155.209L156.938 127.576Z" fill="#263238" stroke="white" stroke-miterlimit="10" stroke-linecap="round" stroke-linejoin="round"/>
<path d="M68.5227 114.659L69.8382 110.547H63.6305L62.0947 114.659H68.5227Z" fill="#263238" stroke="white" stroke-miterlimit="10" stroke-linecap="round" stroke-linejoin="round"/>
<path d="M152.086 114.659L153.595 118.677H160.238L158.514 114.659H152.086Z" fill="#263238" stroke="white" stroke-miterlimit="10" stroke-linecap="round" stroke-linejoin="round"/>
<path d="M164.201 114.659L162.242 110.547H156.75L158.514 114.659H164.201Z" fill="#263238" stroke="white" stroke-miterlimit="10" stroke-linecap="round" stroke-linejoin="round"/>
<path d="M158.515 114.659L156.75 110.547H150.542L152.087 114.659H158.515Z" fill="#263238" stroke="white" stroke-miterlimit="10" stroke-linecap="round" stroke-linejoin="round"/>
<path d="M135.581 127.576L136.644 132.522H144.028L142.7 127.576H135.581Z" fill="#263238" stroke="white" stroke-miterlimit="10" stroke-linecap="round" stroke-linejoin="round"/>
<path d="M158.795 132.522H166.179L164.056 127.576H156.938L158.795 132.522Z" fill="#263238" stroke="white" stroke-miterlimit="10" stroke-linecap="round" stroke-linejoin="round"/>
<path d="M152.086 114.659L150.542 110.547H144.334L145.658 114.659H152.086Z" fill="#263238" stroke="white" stroke-miterlimit="10" stroke-linecap="round" stroke-linejoin="round"/>
<path d="M149.818 127.576L151.411 132.522H158.795L156.938 127.576H149.818Z" fill="#263238" stroke="white" stroke-miterlimit="10" stroke-linecap="round" stroke-linejoin="round"/>
<path d="M142.699 127.576L144.027 132.522H151.411L149.818 127.576H142.699Z" fill="#263238" stroke="white" stroke-miterlimit="10" stroke-linecap="round" stroke-linejoin="round"/>
<path d="M155.209 122.973H162.081L160.238 118.677H153.595L155.209 122.973Z" fill="#263238" stroke="white" stroke-miterlimit="10" stroke-linecap="round" stroke-linejoin="round"/>
<path d="M94.2346 114.659L94.6701 110.547H88.4624L87.8062 114.659H94.2346Z" fill="#263238" stroke="white" stroke-miterlimit="10" stroke-linecap="round" stroke-linejoin="round"/>
<path d="M145.658 114.659L144.334 110.547H138.126L139.23 114.659H145.658Z" fill="#263238" stroke="white" stroke-miterlimit="10" stroke-linecap="round" stroke-linejoin="round"/>
<path d="M87.8065 114.659L88.4627 110.547H82.2546L81.3789 114.659H87.8065Z" fill="#263238" stroke="white" stroke-miterlimit="10" stroke-linecap="round" stroke-linejoin="round"/>
<path d="M107.09 114.659L107.086 110.547H100.878L100.663 114.659H107.09Z" fill="#263238" stroke="white" stroke-miterlimit="10" stroke-linecap="round" stroke-linejoin="round"/>
<path d="M81.3786 114.659L82.2543 110.547H76.0462L74.9502 114.659H81.3786Z" fill="#263238" stroke="white" stroke-miterlimit="10" stroke-linecap="round" stroke-linejoin="round"/>
<path d="M74.9505 114.659L76.0465 110.547H69.8384L68.5229 114.659H74.9505Z" fill="#263238" stroke="white" stroke-miterlimit="10" stroke-linecap="round" stroke-linejoin="round"/>
<path d="M100.663 114.659L100.879 110.547H94.6704L94.2349 114.659H100.663Z" fill="#263238" stroke="white" stroke-miterlimit="10" stroke-linecap="round" stroke-linejoin="round"/>
<path d="M139.231 114.659L138.127 110.547H131.918L132.803 114.659H139.231Z" fill="#263238" stroke="white" stroke-miterlimit="10" stroke-linecap="round" stroke-linejoin="round"/>
<path d="M132.803 114.659L131.918 110.547H125.71L126.375 114.659H132.803Z" fill="#263238" stroke="white" stroke-miterlimit="10" stroke-linecap="round" stroke-linejoin="round"/>
<path d="M119.946 114.659L119.503 110.547H113.294L113.519 114.659H119.946Z" fill="#263238" stroke="white" stroke-miterlimit="10" stroke-linecap="round" stroke-linejoin="round"/>
<path d="M135.58 127.576H128.461H121.342H114.223H107.104H99.9848H92.8659H85.7465H78.6275H71.5086H64.3892L62.8066 132.522H70.1902H77.5742H84.9577H92.3417H99.7252H107.109H114.493H121.876H129.26H136.644L135.58 127.576Z" fill="#263238" stroke="white" stroke-miterlimit="10" stroke-linecap="round" stroke-linejoin="round"/>
<path d="M126.375 114.659L125.71 110.547H119.502L119.946 114.659H126.375Z" fill="#263238" stroke="white" stroke-miterlimit="10" stroke-linecap="round" stroke-linejoin="round"/>
<path d="M184.674 141.211H26.4507V143.22H184.674V141.211Z" fill="#263238" stroke="#263238" stroke-miterlimit="10" stroke-linecap="round" stroke-linejoin="round"/>
<path d="M58.9609 44.5143H65.8538" stroke="#263238" stroke-width="3" stroke-miterlimit="10" stroke-linecap="round" stroke-linejoin="round"/>
<path d="M58.9609 47.6813H84.856" stroke="white" stroke-width="3" stroke-miterlimit="10" stroke-linecap="round" stroke-linejoin="round"/>
<path d="M99.0146 47.6813H124.91" stroke="white" stroke-width="3" stroke-miterlimit="10" stroke-linecap="round" stroke-linejoin="round"/>
<path d="M86.5327 47.6813H96.7792" stroke="#263238" stroke-width="3" stroke-miterlimit="10" stroke-linecap="round" stroke-linejoin="round"/>
<path d="M58.9609 50.8483H73.8647" stroke="#263238" stroke-width="3" stroke-miterlimit="10" stroke-linecap="round" stroke-linejoin="round"/>
<path d="M75.7275 50.8483H90.6313" stroke="#263238" stroke-width="3" stroke-miterlimit="10" stroke-linecap="round" stroke-linejoin="round"/>
<path d="M92.4941 50.8483H107.398" stroke="#263238" stroke-width="3" stroke-miterlimit="10" stroke-linecap="round" stroke-linejoin="round"/>
<path d="M109.261 50.8483H115.595" stroke="#263238" stroke-width="3" stroke-miterlimit="10" stroke-linecap="round" stroke-linejoin="round"/>
<path d="M67.7168 44.5143H74.6096" stroke="#263238" stroke-width="3" stroke-miterlimit="10" stroke-linecap="round" stroke-linejoin="round"/>
<path d="M108.702 44.5143H115.595" stroke="#263238" stroke-width="3" stroke-miterlimit="10" stroke-linecap="round" stroke-linejoin="round"/>
<path d="M99.5732 44.5143H106.466" stroke="white" stroke-width="3" stroke-miterlimit="10" stroke-linecap="round" stroke-linejoin="round"/>
<path d="M76.4727 44.5143H96.5927" stroke="#263238" stroke-width="3" stroke-miterlimit="10" stroke-linecap="round" stroke-linejoin="round"/>
<path d="M58.9609 63.8497H65.8538" stroke="#263238" stroke-width="3" stroke-miterlimit="10" stroke-linecap="round" stroke-linejoin="round"/>
<path d="M58.9609 67.0167H84.856" stroke="white" stroke-width="3" stroke-miterlimit="10" stroke-linecap="round" stroke-linejoin="round"/>
<path d="M99.0146 67.0167H124.91" stroke="#263238" stroke-width="3" stroke-miterlimit="10" stroke-linecap="round" stroke-linejoin="round"/>
<path d="M86.5327 67.0167H96.7792" stroke="#263238" stroke-width="3" stroke-miterlimit="10" stroke-linecap="round" stroke-linejoin="round"/>
<path d="M58.9609 70.1841H73.8647" stroke="#263238" stroke-width="3" stroke-miterlimit="10" stroke-linecap="round" stroke-linejoin="round"/>
<path d="M75.7275 70.1841H90.6313" stroke="#263238" stroke-width="3" stroke-miterlimit="10" stroke-linecap="round" stroke-linejoin="round"/>
<path d="M92.4941 70.1841H107.398" stroke="white" stroke-width="3" stroke-miterlimit="10" stroke-linecap="round" stroke-linejoin="round"/>
<path d="M109.261 70.1841H115.595" stroke="#263238" stroke-width="3" stroke-miterlimit="10" stroke-linecap="round" stroke-linejoin="round"/>
<path d="M67.7168 63.8497H74.6096" stroke="#263238" stroke-width="3" stroke-miterlimit="10" stroke-linecap="round" stroke-linejoin="round"/>
<path d="M108.702 63.8497H115.595" stroke="#263238" stroke-width="3" stroke-miterlimit="10" stroke-linecap="round" stroke-linejoin="round"/>
<path d="M99.5732 63.8497H106.466" stroke="white" stroke-width="3" stroke-miterlimit="10" stroke-linecap="round" stroke-linejoin="round"/>
<path d="M76.4727 63.8497H96.5927" stroke="#263238" stroke-width="3" stroke-miterlimit="10" stroke-linecap="round" stroke-linejoin="round"/>
<path d="M58.9609 92.3533H65.8538" stroke="#263238" stroke-width="3" stroke-miterlimit="10" stroke-linecap="round" stroke-linejoin="round"/>
<path d="M58.9609 95.5204H84.856" stroke="white" stroke-width="3" stroke-miterlimit="10" stroke-linecap="round" stroke-linejoin="round"/>
<path d="M99.0146 95.5204H124.91" stroke="#263238" stroke-width="3" stroke-miterlimit="10" stroke-linecap="round" stroke-linejoin="round"/>
<path d="M86.5327 95.5204H96.7792" stroke="#263238" stroke-width="3" stroke-miterlimit="10" stroke-linecap="round" stroke-linejoin="round"/>
<path d="M58.9609 98.6874H73.8647" stroke="#263238" stroke-width="3" stroke-miterlimit="10" stroke-linecap="round" stroke-linejoin="round"/>
<path d="M75.7275 98.6874H90.6313" stroke="#263238" stroke-width="3" stroke-miterlimit="10" stroke-linecap="round" stroke-linejoin="round"/>
<path d="M92.4941 98.6874H107.398" stroke="white" stroke-width="3" stroke-miterlimit="10" stroke-linecap="round" stroke-linejoin="round"/>
<path d="M109.261 98.6874H115.595" stroke="#263238" stroke-width="3" stroke-miterlimit="10" stroke-linecap="round" stroke-linejoin="round"/>
<path d="M67.7168 92.3533H74.6096" stroke="#263238" stroke-width="3" stroke-miterlimit="10" stroke-linecap="round" stroke-linejoin="round"/>
<path d="M108.702 92.3533H115.595" stroke="#263238" stroke-width="3" stroke-miterlimit="10" stroke-linecap="round" stroke-linejoin="round"/>
<path d="M99.5732 92.3533H106.466" stroke="white" stroke-width="3" stroke-miterlimit="10" stroke-linecap="round" stroke-linejoin="round"/>
<path d="M76.4727 92.3533H96.5927" stroke="#263238" stroke-width="3" stroke-miterlimit="10" stroke-linecap="round" stroke-linejoin="round"/>
<path d="M97.71 54.1821H104.603" stroke="#263238" stroke-width="3" stroke-miterlimit="10" stroke-linecap="round" stroke-linejoin="round"/>
<path d="M88.5815 54.1821H95.4744" stroke="#263238" stroke-width="3" stroke-miterlimit="10" stroke-linecap="round" stroke-linejoin="round"/>
<path d="M65.481 54.1821H85.601" stroke="#263238" stroke-width="3" stroke-miterlimit="10" stroke-linecap="round" stroke-linejoin="round"/>
<path d="M97.71 59.8494H104.603" stroke="#263238" stroke-width="3" stroke-miterlimit="10" stroke-linecap="round" stroke-linejoin="round"/>
<path d="M88.5815 59.8494H95.4744" stroke="#263238" stroke-width="3" stroke-miterlimit="10" stroke-linecap="round" stroke-linejoin="round"/>
<path d="M65.481 59.8494H85.601" stroke="white" stroke-width="3" stroke-miterlimit="10" stroke-linecap="round" stroke-linejoin="round"/>
<path d="M72.3738 57.0156H65.481" stroke="#263238" stroke-width="3" stroke-miterlimit="10" stroke-linecap="round" stroke-linejoin="round"/>
<path d="M81.5026 57.0156H74.6094" stroke="#263238" stroke-width="3" stroke-miterlimit="10" stroke-linecap="round" stroke-linejoin="round"/>
<path d="M104.603 57.0156H84.4834" stroke="white" stroke-width="3" stroke-miterlimit="10" stroke-linecap="round" stroke-linejoin="round"/>
<path d="M97.71 74.0176H104.603" stroke="#263238" stroke-width="3" stroke-miterlimit="10" stroke-linecap="round" stroke-linejoin="round"/>
<path d="M88.5815 74.0176H95.4744" stroke="#263238" stroke-width="3" stroke-miterlimit="10" stroke-linecap="round" stroke-linejoin="round"/>
<path d="M65.481 74.0176H85.601" stroke="#263238" stroke-width="3" stroke-miterlimit="10" stroke-linecap="round" stroke-linejoin="round"/>
<path d="M97.71 79.6852H104.603" stroke="#263238" stroke-width="3" stroke-miterlimit="10" stroke-linecap="round" stroke-linejoin="round"/>
<path d="M88.5815 79.6852H95.4744" stroke="#263238" stroke-width="3" stroke-miterlimit="10" stroke-linecap="round" stroke-linejoin="round"/>
<path d="M65.481 79.6852H85.601" stroke="white" stroke-width="3" stroke-miterlimit="10" stroke-linecap="round" stroke-linejoin="round"/>
<path d="M72.3738 76.8514H65.481" stroke="#263238" stroke-width="3" stroke-miterlimit="10" stroke-linecap="round" stroke-linejoin="round"/>
<path d="M81.5026 76.8514H74.6094" stroke="#263238" stroke-width="3" stroke-miterlimit="10" stroke-linecap="round" stroke-linejoin="round"/>
<path d="M104.603 76.8514H84.4834" stroke="white" stroke-width="3" stroke-miterlimit="10" stroke-linecap="round" stroke-linejoin="round"/>
<path d="M72.3738 83.0187H65.481" stroke="#263238" stroke-width="3" stroke-miterlimit="10" stroke-linecap="round" stroke-linejoin="round"/>
<path d="M81.5026 83.0187H74.6094" stroke="#263238" stroke-width="3" stroke-miterlimit="10" stroke-linecap="round" stroke-linejoin="round"/>
<path d="M104.603 83.0187H84.4834" stroke="white" stroke-width="3" stroke-miterlimit="10" stroke-linecap="round" stroke-linejoin="round"/>
<path d="M72.3738 88.6863H65.481" stroke="#263238" stroke-width="3" stroke-miterlimit="10" stroke-linecap="round" stroke-linejoin="round"/>
<path d="M81.5026 88.6863H74.6094" stroke="#263238" stroke-width="3" stroke-miterlimit="10" stroke-linecap="round" stroke-linejoin="round"/>
<path d="M104.603 88.6863H84.4834" stroke="white" stroke-width="3" stroke-miterlimit="10" stroke-linecap="round" stroke-linejoin="round"/>
<path d="M97.71 85.8525H104.603" stroke="#263238" stroke-width="3" stroke-miterlimit="10" stroke-linecap="round" stroke-linejoin="round"/>
<path d="M88.5815 85.8525H95.4744" stroke="#263238" stroke-width="3" stroke-miterlimit="10" stroke-linecap="round" stroke-linejoin="round"/>
<path d="M65.481 85.8525H85.601" stroke="white" stroke-width="3" stroke-miterlimit="10" stroke-linecap="round" stroke-linejoin="round"/>
<path d="M56.4039 43.4143H54.2031V45.3591H56.4039V43.4143Z" fill="#263238"/>
<path d="M56.4039 46.6094H54.2031V48.5542H56.4039V46.6094Z" fill="#263238"/>
<path d="M56.4039 49.8045H54.2031V51.7493H56.4039V49.8045Z" fill="#263238"/>
<path d="M56.4039 52.9999H54.2031V54.9447H56.4039V52.9999Z" fill="#263238"/>
<path d="M56.4039 56.195H54.2031V58.1398H56.4039V56.195Z" fill="#263238"/>
<path d="M56.4039 59.3901H54.2031V61.3349H56.4039V59.3901Z" fill="#263238"/>
<path d="M56.4039 62.5852H54.2031V64.53H56.4039V62.5852Z" fill="#263238"/>
<path d="M56.4039 65.7802H54.2031V67.725H56.4039V65.7802Z" fill="#263238"/>
<path d="M56.4039 68.9757H54.2031V70.9205H56.4039V68.9757Z" fill="#263238"/>
<path d="M56.4039 72.1708H54.2031V74.1156H56.4039V72.1708Z" fill="#263238"/>
<path d="M56.4039 75.3658H54.2031V77.3106H56.4039V75.3658Z" fill="#263238"/>
<path d="M56.4039 78.561H54.2031V80.5058H56.4039V78.561Z" fill="#263238"/>
<path d="M56.4039 81.756H54.2031V83.7008H56.4039V81.756Z" fill="#263238"/>
<path d="M56.4039 84.9515H54.2031V86.8963H56.4039V84.9515Z" fill="#263238"/>
<path d="M56.4039 88.1466H54.2031V90.0914H56.4039V88.1466Z" fill="#263238"/>
<path d="M56.4039 91.3417H54.2031V93.2865H56.4039V91.3417Z" fill="#263238"/>
<path d="M56.4039 94.5367H54.2031V96.4815H56.4039V94.5367Z" fill="#263238"/>
<path d="M56.4039 97.7318H54.2031V99.6766H56.4039V97.7318Z" fill="#263238"/>
<path d="M158.856 8.47522C145.653 8.47522 134.949 18.0519 134.949 29.8654C134.949 35.9433 137.787 41.4242 142.336 45.3187L138.934 51.0009L147.278 48.5796C150.709 50.2824 154.655 51.2556 158.856 51.2556C172.06 51.2556 182.763 41.6789 182.763 29.8654C182.763 18.0522 172.059 8.47522 158.856 8.47522Z" fill="#263238" stroke="#263238" stroke-miterlimit="10" stroke-linecap="round" stroke-linejoin="round"/>
<path d="M157.718 6.94742C144.514 6.94742 133.811 16.5241 133.811 28.3376C133.811 34.4155 136.649 39.8968 141.198 43.7909L137.795 49.4731L146.139 47.0518C149.57 48.7546 153.516 49.7278 157.718 49.7278C170.921 49.7278 181.624 40.1511 181.624 28.3376C181.624 16.5241 170.921 6.94742 157.718 6.94742Z" fill="white" stroke="#263238" stroke-miterlimit="10" stroke-linecap="round" stroke-linejoin="round"/>
<path d="M149.713 37.1528L140.526 31.3476V28.2722L149.713 22.4093V25.5132L143.128 29.7955L149.713 34.0778V37.1528Z" fill="#00CBCC"/>
<path d="M152.507 38.1876L159.509 14.9084H162.497L155.462 38.1873L152.507 38.1876Z" fill="#00CBCC"/>
<path d="M165.291 37.1528V34.0778L171.907 29.7667L165.291 25.5132V22.4093L174.51 28.2434V31.3184L165.291 37.1528Z" fill="#00CBCC"/>
<path d="M150.851 35.8797L141.665 30.0741V26.9991L150.851 21.1362V24.2401L144.266 28.5224L150.851 32.8047V35.8797Z" fill="#263238"/>
<path d="M153.645 36.9142L160.647 13.6353H163.635L156.6 36.9142H153.645Z" fill="#263238"/>
<path d="M166.429 35.8797V32.8047L173.046 28.4936L166.429 24.2401V21.1362L175.648 26.9703V30.0453L166.429 35.8797Z" fill="#263238"/>
<path d="M139.542 143.44L154.018 154.132C154.018 154.132 154.872 156.169 156.864 158.461C158.856 160.753 182.194 169.411 182.194 169.411L186.178 170.429L142.634 141.145L139.542 143.44Z" fill="#263238" stroke="#263238" stroke-miterlimit="10" stroke-linecap="round" stroke-linejoin="round"/>
<path d="M167.733 134.947C167.733 134.947 163.85 130.7 162.124 127.997C160.398 125.295 157.953 118.989 156.083 115.257C154.214 111.525 151.481 110.367 148.173 109.209C144.865 108.051 143.57 108.308 143.57 109.08C143.57 109.852 144.865 111.268 144.865 111.268L139.255 112.169C139.255 112.169 136.954 111.011 135.516 111.397C134.077 111.783 131.344 114.228 131.344 114.228C131.344 114.228 128.468 113.327 126.742 113.713C125.016 114.099 120.27 116.158 118.256 117.059C116.243 117.96 114.085 118.089 114.229 118.861C114.373 119.633 116.386 120.919 118.256 120.662C120.126 120.405 123.29 119.375 125.304 119.375C127.318 119.375 128.324 119.761 129.331 120.405C130.338 121.048 134.509 126.325 135.084 126.968C135.659 127.611 136.235 130.185 136.235 130.185C136.235 130.185 133.699 129.216 132.117 127.929C130.535 126.642 128.271 123.623 125.682 123.366C123.093 123.109 120.27 125.166 121.708 126.196C123.146 127.225 124.585 127.869 125.591 129.027C126.598 130.185 128.18 133.66 130.913 137.392C133.646 141.124 139.542 143.44 139.542 143.44L151.768 147.944C151.768 147.944 154.932 141.252 160.829 139.451C166.726 137.649 168.452 136.877 168.452 136.877L167.733 134.947Z" fill="#EEC1BB" stroke="#263238" stroke-miterlimit="10" stroke-linecap="round" stroke-linejoin="round"/>
<path d="M114.229 118.86C114.229 118.86 115.631 118.541 116.035 118.42C116.438 118.3 116.91 117.939 116.91 117.939" stroke="#263238" stroke-miterlimit="10" stroke-linecap="round" stroke-linejoin="round"/>
<path d="M131.344 114.227C131.344 114.227 137.97 117.543 139.839 118.444C140.608 118.814 142.429 119.576 142.991 121.264C143.655 123.258 144.997 124.34 144.997 124.34" stroke="#263238" stroke-miterlimit="10" stroke-linecap="round" stroke-linejoin="round"/>
<path d="M139.255 112.168C139.255 112.168 145.727 116.672 146.159 116.801C146.59 116.93 148.172 117.058 148.891 118.217C149.61 119.375 150.33 120.662 150.33 120.662" stroke="#263238" stroke-miterlimit="10" stroke-linecap="round" stroke-linejoin="round"/>
<path d="M144.864 111.268C144.864 111.268 147.165 110.882 148.029 112.426C148.892 113.97 152.631 117.702 152.631 117.702" stroke="#263238" stroke-miterlimit="10" stroke-linecap="round" stroke-linejoin="round"/>
<path d="M124.297 127.869C124.297 127.869 126.023 127.097 125.159 125.939C124.297 124.78 122.57 124.78 122.57 124.78" stroke="#263238" stroke-miterlimit="10" stroke-linecap="round" stroke-linejoin="round"/>
<path d="M167.446 133.273C167.446 133.273 159.679 135.075 154.789 139.965C149.898 144.856 149.898 148.974 150.33 149.617C150.761 150.261 160.11 154.765 160.11 154.765C160.11 154.765 165.863 144.856 169.89 142.411C173.917 139.965 176.794 139.322 176.794 139.322C176.794 139.322 169.602 135.204 169.315 134.689C169.028 134.174 168.453 132.887 167.446 133.273Z" fill="#00CBCC" stroke="#263238" stroke-miterlimit="10" stroke-linecap="round" stroke-linejoin="round"/>
<path d="M189.308 172.009C189.308 172.009 181.397 168.406 179.527 167.505C177.658 166.604 164.857 160.427 164.857 160.427C164.857 160.427 163.275 160.041 162.411 159.655C161.549 159.269 160.254 159.398 159.679 156.695C159.103 153.993 160.542 148.588 167.014 143.183C173.486 137.778 177.514 138.035 177.514 138.035C177.514 138.035 180.247 137.778 180.966 138.292C181.685 138.807 181.829 140.351 182.548 140.609C183.267 140.866 203.169 146.203 203.169 146.203" fill="#00CBCC"/>
<path d="M189.308 172.009C189.308 172.009 181.397 168.406 179.527 167.505C177.658 166.604 164.857 160.427 164.857 160.427C164.857 160.427 163.275 160.041 162.411 159.655C161.549 159.269 160.254 159.398 159.679 156.695C159.103 153.993 160.542 148.588 167.014 143.183C173.486 137.778 177.514 138.035 177.514 138.035C177.514 138.035 180.247 137.778 180.966 138.292C181.685 138.807 181.829 140.351 182.548 140.609C183.267 140.866 203.169 146.203 203.169 146.203" stroke="#263238" stroke-miterlimit="10" stroke-linecap="round" stroke-linejoin="round"/>
<path d="M166.726 152.191C166.726 152.191 165.863 156.052 167.877 159.269" stroke="#263238" stroke-miterlimit="10" stroke-linecap="round" stroke-linejoin="round"/>
<path d="M168.74 157.21C168.74 157.21 167.877 157.467 170.178 160.813" stroke="#263238" stroke-miterlimit="10" stroke-linecap="round" stroke-linejoin="round"/>
<path d="M80.1083 132.083C80.1083 132.083 70.6289 142.164 67.7832 144.201C64.937 146.238 62.3759 147.511 62.3759 147.511L52.1303 156.678C52.1303 156.678 52.415 157.951 49.5688 159.48C46.7227 161.007 41.0307 162.79 39.6079 163.299C38.185 163.809 22.5317 170.174 22.5317 170.174L80.1083 132.083Z" fill="#263238" stroke="#263238" stroke-miterlimit="10" stroke-linecap="round" stroke-linejoin="round"/>
<path d="M93.863 116.655C92.8665 116.922 89.2783 116.744 89.2783 116.744C89.2783 116.744 87.0855 115.228 85.9891 114.336C84.8927 113.445 82.1021 108.183 80.7068 107.915C79.3115 107.648 73.4311 110.68 73.4311 110.68C73.4311 110.68 68.6471 108.807 67.4508 108.986C66.2545 109.164 62.3675 112.285 62.3675 112.285C62.3675 112.285 56.9853 111.572 55.9888 112.999C54.9923 114.426 53.3972 118.974 51.8025 121.827C50.2079 124.681 44.4269 132.261 44.4269 132.261L43.6294 133.242C43.6294 133.242 44.8253 133.599 48.5133 135.293C52.2009 136.988 58.0817 145.014 58.0817 145.014C58.0817 145.014 66.2545 141.625 70.8395 139.752C75.4242 137.88 79.1122 133.777 80.1087 132.083C81.1052 130.389 82.7998 128.783 84.8927 127.267C86.9856 125.751 90.873 125.127 91.77 124.057C92.6671 122.987 91.1719 121.382 91.1719 121.382C91.1719 121.382 92.2683 120.846 92.7665 120.49C93.2648 120.133 95.2582 119.152 95.4576 118.082C95.657 117.012 94.8595 116.387 93.863 116.655ZM78.5136 125.216L80.4075 120.044C81.2051 120.579 84.6933 121.738 84.6933 121.738C82.401 122.273 78.5136 125.216 78.5136 125.216Z" fill="#EEC1BB" stroke="#EEC1BB" stroke-miterlimit="10" stroke-linecap="round" stroke-linejoin="round"/>
<path d="M58.5802 118.171C58.5802 118.171 58.2813 116.655 58.4807 116.12C58.6801 115.585 62.3677 112.285 62.3677 112.285" stroke="#263238" stroke-miterlimit="10" stroke-linecap="round" stroke-linejoin="round"/>
<path d="M61.7695 119.955L62.5667 117.636L73.4309 110.68" stroke="#263238" stroke-miterlimit="10" stroke-linecap="round" stroke-linejoin="round"/>
<path d="M67.1514 121.649C67.1514 121.649 67.5501 119.42 68.0484 119.063C68.5467 118.706 72.3341 117.903 72.3341 117.903C72.3341 117.903 78.1151 113.445 79.1116 113.445C80.1081 113.445 87.3842 116.922 89.2778 116.744" stroke="#263238" stroke-miterlimit="10" stroke-linecap="round" stroke-linejoin="round"/>
<path d="M92.4674 117.101C92.4674 117.101 91.1695 117.105 91.8672 117.818C92.5648 118.531 94.06 118.175 94.7576 117.996" stroke="#263238" stroke-miterlimit="10" stroke-linecap="round" stroke-linejoin="round"/>
<path d="M84.6934 121.738C84.6934 121.738 88.2815 119.865 91.1719 121.381" stroke="#263238" stroke-miterlimit="10" stroke-linecap="round" stroke-linejoin="round"/>
<path d="M90.2747 121.917L88.2812 122.541C88.2812 122.541 89.0788 123.968 89.1783 124.503C89.2778 125.038 89.2778 125.038 89.2778 125.038" stroke="#263238" stroke-miterlimit="10" stroke-linecap="round" stroke-linejoin="round"/>
<path d="M78.5138 125.216L76.7197 128.783" stroke="#263238" stroke-miterlimit="10" stroke-linecap="round" stroke-linejoin="round"/>
<path d="M31.1709 139.039C31.1709 139.039 37.4501 135.382 39.7424 133.866C42.0347 132.35 43.231 132.618 44.4269 132.261C45.6228 131.904 51.6032 133.509 55.59 137.968C59.5769 142.427 59.1782 145.727 58.6799 146.618C58.1816 147.51 45.6233 154.288 45.6233 154.288C45.6233 154.288 43.8292 147.867 38.5469 144.032C33.2638 140.198 31.1709 139.039 31.1709 139.039Z" fill="#00CBCC" stroke="#263238" stroke-miterlimit="10" stroke-linecap="round" stroke-linejoin="round"/>
<path d="M6.0542 149.708C6.0542 149.708 17.6863 143.348 19.625 142.304C21.5637 141.259 23.8083 139.836 23.8083 139.836C23.8083 139.836 24.4207 137.083 27.3797 136.988C30.3387 136.893 33.1958 137.937 37.0731 139.836C40.9505 141.734 45.7462 148.663 46.2562 151.416C46.7661 154.169 47.7865 155.023 46.9706 156.827C46.1542 158.63 43.0932 158.725 42.4808 158.725C41.8684 158.725 40.4401 159.864 40.4401 159.864L18.6046 172.584" fill="#00CBCC"/>
<path d="M6.0542 149.708C6.0542 149.708 17.6863 143.348 19.625 142.304C21.5637 141.259 23.8083 139.836 23.8083 139.836C23.8083 139.836 24.4207 137.083 27.3797 136.988C30.3387 136.893 33.1958 137.937 37.0731 139.836C40.9505 141.734 45.7462 148.663 46.2562 151.416C46.7661 154.169 47.7865 155.023 46.9705 156.827C46.1542 158.63 43.0932 158.725 42.4808 158.725C41.8684 158.725 40.4401 159.864 40.4401 159.864L18.6046 172.584" stroke="#263238" stroke-miterlimit="10" stroke-linecap="round" stroke-linejoin="round"/>
<path d="M42.1468 153.892C42.1468 153.892 43.0597 154.499 41.2339 157.047" stroke="#263238" stroke-miterlimit="10" stroke-linecap="round" stroke-linejoin="round"/>
<path d="M40.8429 155.105C40.8429 155.105 40.7124 157.774 37.9741 160.201" stroke="#263238" stroke-miterlimit="10" stroke-linecap="round" stroke-linejoin="round"/>
</svg>
