<svg width="142" height="142" viewBox="0 0 142 142" fill="none" xmlns="http://www.w3.org/2000/svg">
<g clip-path="url(#clip0_308_549)">
<path d="M149.889 0H0V142H149.889V0Z" fill="#C4C4FF"/>
<path d="M68.1358 127.839C87.7433 127.839 103.638 125.85 103.638 123.397C103.638 120.944 87.7433 118.956 68.1358 118.956C48.5283 118.956 32.6333 120.944 32.6333 123.397C32.6333 125.85 48.5283 127.839 68.1358 127.839Z" fill="#A4A4F7"/>
<path d="M106.135 93.2661C105.972 96.2098 103.405 99.4276 99.6197 98.8776C97.6803 98.5955 96.1852 96.7801 96.5026 94.7559C96.5867 94.2198 96.7987 93.6697 97.1622 93.1305C98.8416 90.6386 101.462 92.9606 103.535 92.3793C105.229 91.9026 105.11 89.7925 105.11 89.7925C105.11 89.7925 105.951 91.1 106.115 92.5741C106.139 92.8018 106.148 93.0338 106.135 93.2661Z" fill="#7C7C7C"/>
<g opacity="0.4">
<path d="M105.501 90.7157C105.501 90.7157 105.631 93.0409 103.764 93.567C101.48 94.2075 98.5911 91.6489 96.7401 94.3941C96.6514 94.527 96.5698 94.6597 96.4971 94.7942C96.4989 94.7808 96.5005 94.769 96.5023 94.7555C96.5877 94.2193 96.7988 93.6694 97.1625 93.13C98.8412 90.6384 101.462 92.9602 103.535 92.3802C105.23 91.9027 105.111 89.7927 105.111 89.7927C105.111 89.7927 105.501 90.3979 105.801 91.2503C105.631 90.9157 105.501 90.7157 105.501 90.7157Z" fill="white"/>
</g>
<path d="M106.135 93.2661C105.972 96.2098 103.405 99.4276 99.6197 98.8775C97.6803 98.5955 96.1852 96.7801 96.5026 94.7559C96.9418 94.0545 97.6803 93.3128 98.8121 93.439C100.656 93.6447 100.888 95.7968 101.715 96.1474C103.204 96.7785 105.727 95.2045 106.115 92.5741C106.139 92.8018 106.148 93.0338 106.135 93.2661Z" fill="#6C6C6C"/>
<path d="M100.469 99.7169C100.149 99.7169 99.8242 99.6932 99.4959 99.6456C98.015 99.4304 96.6974 98.4649 96.057 97.1256C95.3819 95.7138 95.5331 94.1052 96.4714 92.7122C97.8315 90.6935 99.7951 91.1344 101.229 91.4564C102.001 91.6298 102.731 91.7937 103.302 91.6335C104.346 91.3402 104.293 89.8482 104.292 89.8332C104.272 89.4776 104.509 89.1548 104.868 89.0496C105.227 88.9443 105.616 89.0836 105.812 89.3876C105.863 89.4671 107.063 91.358 106.955 93.3068C106.847 95.259 105.81 97.2191 104.25 98.4221C103.14 99.2771 101.849 99.7169 100.469 99.7169ZM99.3179 92.7289C98.7152 92.7289 98.2662 92.9372 97.8545 93.5484C96.9859 94.8376 97.2918 95.9412 97.5515 96.4842C97.9655 97.3502 98.8058 97.9728 99.7445 98.109C101.352 98.3428 102.519 97.7525 103.214 97.2164C104.426 96.282 105.232 94.7527 105.317 93.2253C105.336 92.8717 105.293 92.5115 105.216 92.1685C104.885 92.5906 104.418 92.9414 103.768 93.1237C102.778 93.402 101.754 93.1717 100.85 92.9688C100.238 92.8312 99.7401 92.7289 99.3179 92.7289Z" fill="#371A45"/>
<path d="M98.8356 96.0586C97.4721 97.1214 97.5724 98.8216 96.8783 100.751C96.7105 101.217 96.4966 101.697 96.2038 102.183C93.197 107.194 86.5449 104.732 86.5449 104.732L87.6223 101.033C89.3462 102.389 90.8315 102.63 92.0603 102.152C93.6904 101.516 94.8731 99.6163 95.5721 97.3691C96.1363 95.5537 97.2681 94.9755 98.3126 94.8743C99.0133 94.8072 99.3802 95.6348 98.8356 96.0586Z" fill="#C2C6D2"/>
<g opacity="0.4">
<path d="M99.0618 95.751C97.9367 95.3579 96.9359 96.3546 96.2758 98.0642C95.4222 100.263 94.1126 102.086 92.4408 102.62C91.3779 102.958 90.1659 102.773 88.835 101.827C90.0523 102.464 91.1294 102.514 92.0593 102.151C93.6901 101.516 94.8737 99.6159 95.5712 97.37C96.1357 95.5541 97.2678 94.9759 98.313 94.875C98.8667 94.8212 99.2109 95.3273 99.0618 95.751Z" fill="white"/>
</g>
<path d="M96.8778 100.751C96.7102 101.217 96.4962 101.697 96.2035 102.183C93.1966 107.194 86.5444 104.732 86.5444 104.732L87.622 101.033C89.3457 102.389 90.8311 102.63 92.06 102.152C93.2459 102.663 95.376 103.11 96.8778 100.751Z" fill="#A8AFC1"/>
<path d="M90.1037 106.121C88.6023 106.121 87.2102 105.813 86.2466 105.456C85.8246 105.3 85.6162 104.849 85.7811 104.45C85.9458 104.05 86.421 103.853 86.8428 104.008C87.0939 104.1 92.8775 106.154 95.4899 101.799C96.1015 100.779 96.3376 99.7951 96.566 98.8432C96.8446 97.6822 97.109 96.5796 98.0181 95.714C97.2303 95.921 96.6852 96.5382 96.358 97.5891C95.4422 100.529 93.898 102.448 92.0099 102.992C90.465 103.437 88.8128 102.979 87.0985 101.63C86.7499 101.356 86.7021 100.866 86.9915 100.536C87.2811 100.206 87.7984 100.16 88.1467 100.435C89.4099 101.429 90.549 101.789 91.5323 101.505C92.8556 101.124 94.0408 99.5362 94.7843 97.1493C95.5052 94.8343 97.0558 94.2141 98.2296 94.1014C98.9067 94.0358 99.5372 94.3913 99.7985 94.985C100.059 95.5771 99.8818 96.2497 99.3575 96.6586C98.6381 97.2196 98.4401 98.0451 98.166 99.1877C97.9231 100.2 97.6478 101.348 96.9164 102.567C95.2727 105.307 92.544 106.121 90.1037 106.121Z" fill="#371A45"/>
<path d="M61.6243 72.1924L59.4503 76.2321L59.2111 76.6759L56.1432 82.3737C52.0293 83.8779 39.9374 82.2216 38.5068 73.457C38.5068 73.457 38.5222 73.2999 38.5597 73.0279C38.753 71.6711 39.5323 67.4336 41.9472 65.2946C43.4273 63.9816 47.1138 64.7863 48.3718 64.7863C52.0908 64.7863 52.6361 65.9634 52.6361 65.9634C52.6361 65.9634 52.6755 66.467 52.9163 67.1876C53.5385 69.0528 55.5092 72.3768 61.6243 72.1924Z" fill="#C2C6D2"/>
<path d="M61.624 72.1924L59.45 76.2321C54.7054 74.3248 51.7881 71.7455 52.0444 69.1613C52.1146 68.4586 52.4136 67.7979 52.916 67.1876C53.5382 69.0528 55.5088 72.3768 61.624 72.1924Z" fill="#A8AFC1"/>
<path d="M92.8742 74.655C91.3753 76.6743 87.7126 78.1703 82.8962 78.8568L80.2573 74.1062C80.2573 74.1062 86.8256 72.9437 92.8742 74.655Z" fill="#A8AFC1"/>
<path d="M86.2065 78.2124C82.3864 79.1824 77.4062 79.5369 72.0259 79.0575C66.0286 78.5234 60.7234 77.0596 57.0864 75.1473L64.1143 63.2157L85.9005 70.2347C85.3622 72.9938 85.6167 75.6233 86.2065 78.2124Z" fill="#A8AFC1"/>
<path d="M59.2111 76.6759L56.1432 82.3737C52.0293 83.878 39.9374 82.2216 38.5068 73.457C38.5068 73.457 38.5222 73.2999 38.5598 73.0279C40.0775 75.4809 42.7419 77.9712 47.3977 78.6787C53.9829 79.6795 57.5038 78.036 59.2111 76.6759Z" fill="#A8AFC1"/>
<path d="M52.6699 83.6442C49.8468 83.6442 46.4122 82.9554 43.575 81.4005C40.2687 79.5884 38.2355 76.8826 37.6952 73.5757C37.685 73.5129 37.6828 73.4491 37.689 73.3857C37.7123 73.1454 38.295 67.4663 41.386 64.7272C42.8044 63.4703 45.495 63.7427 47.2756 63.9231C47.7333 63.9694 48.1286 64.0094 48.3715 64.0094C52.3192 64.0094 53.2083 65.2653 53.3868 65.6502C53.4242 65.7308 53.4468 65.8169 53.4538 65.9047C53.474 66.1361 54.0469 71.6437 61.5973 71.415C62.0501 71.401 62.429 71.738 62.4435 72.1669C62.458 72.5959 62.1027 72.9548 61.6498 72.9685C61.476 72.9738 61.3038 72.9764 61.1361 72.9764C53.4212 72.9772 52.0623 67.5224 51.8525 66.273C51.6327 66.0861 50.8008 65.5638 48.3715 65.5638C48.0411 65.5638 47.6056 65.5197 47.1012 65.4686C45.7083 65.3276 43.3767 65.0915 42.5067 65.8624C40.0662 68.025 39.4188 72.7195 39.3332 73.4362C39.8242 76.2558 41.5274 78.4824 44.3967 80.055C48.5248 82.3176 53.6994 82.4347 55.8472 81.6491C56.2702 81.4948 56.7448 81.694 56.908 82.0944C57.0711 82.4949 56.8607 82.9448 56.438 83.0993C55.4679 83.4539 54.1532 83.6442 52.6699 83.6442Z" fill="#371A45"/>
<path d="M67.4698 106.274C62.469 113.316 62.0502 121.467 59.731 123.347C58.4713 124.367 55.2617 124.428 52.9423 124.386C50.1735 124.338 46.6766 123.525 45.9127 122.367C45.7264 122.085 45.67 121.503 45.7128 120.678C45.8853 117.414 47.6423 110.374 49.278 103.457C50.2469 99.3458 51.175 95.2785 51.7032 92.0709L67.4698 106.274Z" fill="#C2C6D2"/>
<path d="M67.4698 106.274C62.469 113.316 62.0502 121.467 59.731 123.347C58.4713 124.367 55.2617 124.428 52.9423 124.386C50.1735 124.338 46.6766 123.525 45.9127 122.367C45.7264 122.085 45.67 121.503 45.7128 120.678C46.1399 121.661 47.668 123.499 53.1285 123.386C60.5478 123.233 59.8642 114.266 59.4524 113.023C58.7533 110.908 52.163 109.514 49.2779 103.457C50.2469 99.3458 51.175 95.2784 51.7031 92.0708L67.4698 106.274Z" fill="#A8AFC1"/>
<path d="M53.8922 125.173C53.5646 125.173 53.2414 125.169 52.9262 125.164C50.526 125.121 46.3104 124.436 45.2162 122.779C44.2993 121.391 45.3262 116.528 47.8879 105.761C49.0558 100.853 50.2633 95.7773 50.8926 91.9505C50.9623 91.5263 51.3813 91.236 51.8294 91.3022C52.277 91.3682 52.5834 91.7656 52.5137 92.1897C51.876 96.068 50.6623 101.169 49.4885 106.103C48.5606 110.003 47.6842 113.686 47.1199 116.627C46.2955 120.925 46.5217 121.796 46.6107 121.961C47.0836 122.676 49.9613 123.556 52.9571 123.61C56.3258 123.67 58.4246 123.383 59.1975 122.756C60.0382 122.075 60.6981 120.003 61.4623 117.605C62.5599 114.159 63.9259 109.872 66.7891 105.841C67.0421 105.485 67.5519 105.39 67.9277 105.63C68.3036 105.87 68.4032 106.352 68.1504 106.709C65.4251 110.545 64.0988 114.708 63.0331 118.054C62.1255 120.902 61.4699 122.96 60.264 123.937C58.9841 124.975 56.3222 125.173 53.8922 125.173Z" fill="#371A45"/>
<path d="M45.8216 119.491C46.3802 119.29 47.092 119.279 47.6541 119.657C48.7498 120.395 48.4527 122.29 48.2784 123.144C48.2186 123.371 48.1912 123.515 48.1912 123.515C48.1912 123.515 48.2306 123.374 48.2784 123.144C48.5091 122.264 49.2363 120.403 50.7506 120.61C52.319 120.824 52.7891 122.929 52.6506 124.378C49.9341 124.281 46.6502 123.484 45.912 122.367C45.6472 121.966 45.6421 120.946 45.8216 119.491Z" fill="white"/>
<path d="M52.6511 124.961C52.6432 124.961 52.6355 124.961 52.6276 124.96C50.3595 124.879 46.3891 124.187 45.3906 122.677C45.1624 122.331 44.9361 121.649 45.2105 119.423C45.2371 119.207 45.3887 119.023 45.6034 118.946C46.4431 118.644 47.3429 118.732 48.0105 119.182C48.494 119.508 48.8118 120 48.9626 120.653C49.4613 120.192 50.0867 119.93 50.8385 120.033C52.899 120.314 53.4177 122.817 53.2635 124.43C53.2347 124.732 52.9679 124.961 52.6511 124.961ZM48.8861 123.245C49.8266 123.494 50.9373 123.681 52.0557 123.762C52.0252 122.645 51.6217 121.318 50.6629 121.187C49.551 121.036 48.9859 122.883 48.8861 123.245ZM46.3878 119.951C46.2132 121.62 46.3933 121.997 46.4338 122.058C46.6187 122.338 47.0755 122.616 47.707 122.866C47.9698 121.456 47.826 120.488 47.2975 120.132C46.9918 119.926 46.6464 119.915 46.3878 119.951Z" fill="#371A45"/>
<path d="M56.7711 75.684C50.3649 84.306 46.9937 93.1464 50.0669 102.04C52.2417 108.333 61.6644 110.345 64.3715 110.774C72.1571 112.009 85.0739 110.384 88.5895 102.267C93.93 89.9367 83.784 81.0909 85.9015 70.2347L64.1148 63.2151" fill="#C2C6D2"/>
<path d="M86.2065 78.2124C82.3864 79.1824 77.4062 79.5369 72.0259 79.0575C66.0286 78.5234 60.7234 77.0596 57.0864 75.1473L64.1143 63.2157L85.9005 70.2347C85.3622 72.9938 85.6167 75.6233 86.2065 78.2124Z" fill="#A8AFC1"/>
<path d="M88.5889 102.267C85.0734 110.384 72.1575 112.009 64.3707 110.774C61.6635 110.345 52.2411 108.334 50.0669 102.04C49.5543 100.557 49.2211 99.0739 49.0518 97.5955C51.2361 103.876 59.6671 106.64 62.347 107.194C71.1849 109.023 83.0035 106.072 86.5191 97.9551C91.2671 86.9948 83.7778 78.7873 83.5418 69.4753L85.9005 70.2348C83.7829 81.0914 93.93 89.9368 88.5889 102.267Z" fill="#A8AFC1"/>
<path d="M61.3371 109.801C61.6719 109.853 62.0076 109.898 62.3425 109.941C62.6757 109.99 63.0093 110.034 63.3428 110.072C63.6758 110.112 64.0069 110.156 64.3379 110.188C64.5036 110.199 64.667 110.232 64.8313 110.253C64.9964 110.274 65.1605 110.298 65.326 110.317C66.6475 110.476 67.9856 110.543 69.3226 110.537C70.6599 110.532 71.9968 110.448 73.3225 110.293C74.648 110.139 75.9626 109.907 77.2483 109.585C78.5341 109.265 79.7911 108.854 80.9916 108.338C82.1919 107.824 83.3305 107.192 84.3561 106.434C84.8665 106.053 85.3481 105.641 85.7922 105.197C86.2348 104.753 86.6358 104.274 86.9922 103.768C87.3497 103.263 87.6511 102.724 87.9057 102.167C88.1577 101.598 88.3921 101.004 88.5897 100.41C88.9825 99.2159 89.2619 97.9902 89.3951 96.7473C89.5303 95.505 89.535 94.2487 89.4166 92.9976C89.1862 90.4906 88.4969 88.0221 87.7094 85.5673C86.9258 83.1095 86.0312 80.6453 85.4672 78.0606C85.1852 76.7706 84.986 75.4517 84.9293 74.1174C84.8678 72.7837 84.9702 71.4364 85.2309 70.118L85.6797 70.8435L80.2406 69.0677C78.431 68.4663 76.6188 67.8718 74.8129 67.26C73.0051 66.6535 71.2008 66.0373 69.3991 65.4138C68.4975 65.1037 67.5982 64.7877 66.6999 64.469C65.8009 64.1518 64.9016 63.8357 64.0063 63.509C63.8371 63.4472 63.7529 63.2674 63.818 63.1074C63.8798 62.9552 64.0551 62.876 64.2172 62.9211C65.1373 63.1792 66.0536 63.4481 66.9701 63.7159C67.8874 63.9823 68.8036 64.2512 69.7178 64.5259C71.5472 65.0725 73.374 65.6261 75.1972 66.1896C77.0223 66.7477 78.8414 67.3234 80.6627 67.8919L86.1168 69.6261L86.6705 69.8021L86.5656 70.3517C86.0991 72.7987 86.2715 75.3246 86.8173 77.7967C87.3594 80.2743 88.2117 82.715 88.9941 85.2015C89.7755 87.6852 90.4914 90.2416 90.726 92.8898C90.8437 94.2109 90.8489 95.5483 90.7062 96.8752C90.5673 98.2025 90.2725 99.5144 89.857 100.786C89.6465 101.424 89.4054 102.042 89.1316 102.664C88.8472 103.291 88.5083 103.899 88.1086 104.468C87.3147 105.61 86.3083 106.605 85.1872 107.438C84.0633 108.27 82.8321 108.951 81.5507 109.502C80.27 110.057 78.9372 110.482 77.5857 110.812C74.8801 111.469 72.0983 111.761 69.3223 111.749C67.9338 111.742 66.5447 111.659 65.1637 111.479C64.8187 111.431 64.4725 111.391 64.1305 111.318C63.7903 111.239 63.4526 111.158 63.1191 111.063C62.7863 110.966 62.4559 110.865 62.1279 110.758C61.8013 110.645 61.4785 110.523 61.1578 110.399C60.9894 110.333 60.9087 110.151 60.9779 109.991C61.0372 109.854 61.1889 109.778 61.3371 109.801Z" fill="#371A45"/>
<path d="M55.5051 78.0152C54.2864 80.0362 53.1495 82.0913 52.2048 84.2156C51.2588 86.3375 50.4988 88.5264 50.0371 90.7673C49.5822 93.0063 49.4339 95.3005 49.7026 97.5584C49.8347 98.6869 50.0628 99.8048 50.3825 100.9C50.4551 101.176 50.5547 101.444 50.6393 101.717C50.7262 101.989 50.8142 102.236 50.9059 102.498L51.5016 104.083C51.5645 104.251 51.4722 104.434 51.2959 104.494C51.1798 104.533 51.0562 104.509 50.9674 104.44L50.9618 104.435C50.8335 104.336 50.7196 104.225 50.6087 104.11C50.4969 103.996 50.3855 103.88 50.2904 103.753C50.1897 103.629 50.0969 103.5 50.012 103.367C49.9236 103.235 49.8414 103.099 49.7698 102.958C49.6194 102.682 49.4921 102.381 49.401 102.093C49.311 101.805 49.2063 101.521 49.1288 101.23C48.7896 100.073 48.5469 98.8885 48.4058 97.6939C48.1207 95.3029 48.2701 92.8762 48.754 90.5288C49.2476 88.1802 50.0877 85.9154 51.1515 83.7697C52.2194 81.6242 53.5046 79.5902 54.9539 77.6793C55.0596 77.5398 55.2645 77.5079 55.4119 77.6082C55.5491 77.7017 55.5867 77.8789 55.5051 78.0152Z" fill="#371A45"/>
<path d="M90.6078 122.017C90.5616 122.259 90.4966 122.448 90.4078 122.579C89.0147 124.642 79.3994 125.102 77.5006 123.004C75.1299 120.385 74.2224 114.074 72.3698 109.007C72.1236 108.335 76.7435 109.389 81.5221 106.732C86.3008 104.077 89.7308 90.5602 89.7308 90.5602C90.7325 96.4215 89.642 101.843 89.4301 105.618C89.4164 105.863 89.4062 106.098 89.4011 106.328C89.2985 110.596 91.1119 119.378 90.6078 122.017Z" fill="#C2C6D2"/>
<path d="M90.6078 122.017C90.5616 122.259 90.4966 122.448 90.4078 122.579C89.0147 124.642 79.3994 125.102 77.5006 123.004C75.1299 120.385 74.2224 114.074 72.3698 109.007C72.1236 108.335 76.7435 109.389 81.5221 106.732C86.3008 104.077 89.7308 90.5602 89.7308 90.5602C90.7325 96.4215 89.642 101.843 89.4301 105.618C88.5449 106.565 86.2484 108.661 82.1417 110.167C78.5803 111.472 76.752 115.224 78.0385 118.63C78.5229 119.913 79.2283 121.073 80.2538 121.805C82.8809 123.682 88.1484 123.42 90.6078 122.017Z" fill="#A8AFC1"/>
<path d="M90.3778 90.4611C90.8084 92.9855 90.8754 95.5453 90.7401 98.0696C90.6747 99.3325 90.5605 100.589 90.4338 101.837C90.309 103.084 90.1672 104.324 90.0919 105.548C90.0529 106.162 90.0429 106.756 90.0657 107.367C90.0867 107.977 90.1293 108.592 90.1823 109.208C90.2887 110.441 90.4342 111.678 90.5848 112.917C90.7359 114.157 90.8952 115.399 91.0375 116.648C91.1765 117.898 91.312 119.149 91.3471 120.439C91.3545 120.762 91.3533 121.088 91.3335 121.424C91.3236 121.593 91.3089 121.763 91.2827 121.94C91.2563 122.118 91.2232 122.299 91.1566 122.501C91.1204 122.604 91.0809 122.709 91.0118 122.828L90.9582 122.916L90.9061 122.987C90.8713 123.036 90.8346 123.08 90.7968 123.121C90.6463 123.289 90.4836 123.422 90.3198 123.538C89.9911 123.764 89.6556 123.923 89.3207 124.058C88.65 124.323 87.9763 124.492 87.3015 124.625C86.6264 124.755 85.95 124.844 85.2722 124.903C83.9166 125.017 82.5562 125.025 81.19 124.889C80.507 124.819 79.822 124.711 79.1358 124.527C78.7928 124.435 78.4489 124.318 78.1065 124.165C77.7659 124.008 77.4199 123.815 77.106 123.513C77.0685 123.475 77.0265 123.433 76.9939 123.397L76.9074 123.296C76.8507 123.228 76.7904 123.161 76.7371 123.092C76.6319 122.953 76.5229 122.815 76.4295 122.672C76.2317 122.389 76.0653 122.097 75.9022 121.804C75.5876 121.216 75.3257 120.617 75.0903 120.016C74.6233 118.81 74.2501 117.596 73.8801 116.388C73.7035 115.782 73.5253 115.179 73.3695 114.571C73.2101 113.964 73.0657 113.356 72.9182 112.75L72.0596 109.108L72.0592 109.107C72.0196 108.939 72.1315 108.772 72.3093 108.734C72.4623 108.702 72.6144 108.776 72.679 108.905C73.2545 110.052 73.7066 111.244 74.1102 112.442C74.3102 113.041 74.503 113.641 74.6803 114.243C74.8613 114.844 75.02 115.449 75.1907 116.049C75.518 117.252 75.8734 118.443 76.3196 119.584C76.5424 120.154 76.7872 120.712 77.0694 121.239C77.2148 121.499 77.3619 121.758 77.5293 121.996C77.6089 122.119 77.6987 122.23 77.7849 122.346C77.8288 122.403 77.8767 122.455 77.9219 122.509L77.9907 122.591L78.0458 122.647C78.1954 122.793 78.421 122.931 78.6727 123.045C78.9274 123.158 79.206 123.255 79.4976 123.333C80.081 123.49 80.7026 123.59 81.3305 123.655C82.5893 123.78 83.8805 123.774 85.1523 123.666C85.7883 123.611 86.4208 123.527 87.0387 123.408C87.655 123.288 88.2625 123.131 88.8103 122.914C89.0818 122.806 89.3377 122.679 89.5434 122.537C89.644 122.466 89.7312 122.392 89.7935 122.321C89.8639 122.237 89.8682 122.232 89.9069 122.126C89.9718 121.926 90.0088 121.638 90.0248 121.354C90.0417 121.066 90.0433 120.767 90.0363 120.465C90.0042 119.255 89.8719 118.016 89.7341 116.781C89.5932 115.544 89.4341 114.304 89.2825 113.06C89.1313 111.816 88.9844 110.568 88.8756 109.309C88.8216 108.679 88.7773 108.046 88.7555 107.407C88.7311 106.769 88.7423 106.111 88.7831 105.478C88.8616 104.205 89.0048 102.959 89.1288 101.718C89.2548 100.477 89.3668 99.2419 89.4308 98.0079C89.563 95.5419 89.4957 93.0746 89.0837 90.6596C89.0257 90.3212 89.2683 90.0021 89.6256 89.947C89.983 89.8923 90.3198 90.1225 90.3778 90.4611Z" fill="#371A45"/>
<path d="M90.6765 119.975C90.627 119.951 90.5757 119.93 90.5229 119.915C88.6844 119.388 88.9747 122.939 88.9747 122.939C88.9747 122.939 88.4725 120.538 86.9161 120.903C85.3579 121.267 85.438 123.586 85.438 123.586C85.438 123.586 85.2314 121.372 83.528 121.539C82.2876 121.66 81.8741 123.358 81.7373 124.315C85.199 124.572 89.5114 123.91 90.4082 122.579C90.6748 122.183 90.7345 121.239 90.6765 119.975Z" fill="white"/>
<path d="M83.1725 124.947C82.6458 124.947 82.1447 124.93 81.6887 124.896C81.52 124.883 81.3642 124.805 81.258 124.681C81.1518 124.556 81.1044 124.395 81.1272 124.236C81.4122 122.242 82.2422 121.079 83.4643 120.959C84.0397 120.902 84.5663 121.047 84.989 121.378C85.0787 121.448 85.1608 121.524 85.2361 121.604C85.5165 121.035 85.9854 120.52 86.7682 120.337C87.2683 120.22 87.7572 120.293 88.1816 120.548C88.3062 120.624 88.4207 120.712 88.5258 120.809C88.6603 120.32 88.886 119.865 89.2588 119.581C89.5361 119.37 90.0112 119.159 90.7009 119.357C90.784 119.38 90.87 119.414 90.9596 119.458C91.1549 119.554 91.2812 119.742 91.2907 119.95C91.363 121.526 91.2541 122.406 90.9267 122.893C89.9261 124.377 86.145 124.947 83.1725 124.947ZM82.4645 123.772C83.2601 123.802 84.0664 123.786 84.8412 123.73C84.8332 123.7 84.8276 123.669 84.8247 123.637C84.7983 123.373 84.635 122.61 84.2038 122.276C84.0343 122.144 83.8392 122.094 83.5908 122.118C82.9612 122.18 82.6276 123.086 82.4645 123.772ZM87.2287 121.448C87.1764 121.448 87.1217 121.455 87.0632 121.468C86.0265 121.711 86.052 123.55 86.0525 123.568C86.0529 123.581 86.0529 123.594 86.0523 123.607C86.9361 123.49 87.7397 123.321 88.3875 123.114C88.3808 123.094 88.3751 123.073 88.3708 123.052C88.3067 122.752 88.0123 121.827 87.5199 121.531C87.4262 121.475 87.3324 121.448 87.2287 121.448ZM90.077 120.461C90.055 120.47 90.0406 120.481 90.0298 120.49C89.6876 120.75 89.5553 121.774 89.572 122.573C89.7106 122.475 89.8177 122.372 89.8892 122.266C89.9438 122.184 90.1062 121.824 90.077 120.461Z" fill="#371A45"/>
<path d="M102.664 85.3773C97.1555 89.4786 87.5176 87.1793 87.5176 87.1793L87.4697 87.0919L80.2573 74.1062C80.2573 74.1062 98.1586 70.9391 102.071 82.7592C102.336 83.5605 102.537 84.4316 102.664 85.3773Z" fill="#C2C6D2"/>
<path d="M92.8742 74.655C91.3753 76.6743 87.7126 78.1703 82.8962 78.8568L80.2573 74.1062C80.2573 74.1062 86.8256 72.9437 92.8742 74.655Z" fill="#A8AFC1"/>
<path d="M102.664 85.3773C97.155 89.4786 87.5171 87.1793 87.5171 87.1793L87.4692 87.0919C91.3199 87.2181 97.8984 86.7583 102.07 82.7592C102.335 83.5605 102.537 84.4316 102.664 85.3773Z" fill="#A8AFC1"/>
<path d="M102.664 85.3773L100.726 83.8746C103.693 81.7422 105.877 78.2691 105.913 72.6651C107.109 76.5916 106.933 81.6774 102.664 85.3773Z" fill="#A8AFC1"/>
<path d="M80.0888 73.507C80.7703 73.3413 81.4282 73.2063 82.1008 73.0782C82.7705 72.9516 83.4425 72.8382 84.1166 72.7373C85.4653 72.5363 86.823 72.3843 88.1895 72.2964C89.5557 72.2092 90.9309 72.1842 92.3093 72.255C93.6867 72.3267 95.0704 72.4917 96.431 72.8222C97.7876 73.1532 99.1339 73.6535 100.327 74.4428C100.921 74.8363 101.472 75.3027 101.944 75.837C102.417 76.3703 102.809 76.9703 103.106 77.6049C103.403 78.2403 103.603 78.9085 103.728 79.5805C103.85 80.2537 103.897 80.9311 103.888 81.6019C103.867 82.9445 103.633 84.2561 103.299 85.5283L103.243 85.7387L103.068 85.8649C102.796 86.0747 102.518 86.2773 102.225 86.4589C101.931 86.6394 101.63 86.8072 101.322 86.9627C101.013 87.1161 100.699 87.2569 100.38 87.3861C100.059 87.5112 99.7335 87.6231 99.4058 87.7256C98.0921 88.1289 96.7349 88.3415 95.3842 88.4272C94.7084 88.4736 94.0328 88.4833 93.3596 88.467C92.687 88.4487 92.0156 88.4168 91.3493 88.3446C91.0162 88.3096 90.6835 88.2706 90.3537 88.2156C90.023 88.1655 89.6941 88.1053 89.3677 88.034C88.7131 87.892 88.073 87.7249 87.4364 87.4801C87.2673 87.4149 87.1857 87.232 87.2545 87.0717C87.3097 86.9427 87.4454 86.8675 87.5844 86.877L87.5965 86.8779C88.8833 86.9664 90.1751 87.0679 91.4531 87.1291C92.0933 87.1578 92.7324 87.1816 93.3705 87.1741C94.0081 87.1665 94.6439 87.1401 95.2751 87.0892C96.5365 86.9832 97.7821 86.7784 98.9676 86.4266C99.5595 86.2492 100.136 86.0364 100.689 85.7849C101.241 85.5295 101.764 85.2274 102.258 84.8884L102.027 85.2251C102.344 84.0219 102.559 82.7984 102.577 81.5856C102.596 80.3758 102.406 79.1746 101.907 78.1076C101.413 77.0399 100.598 76.1322 99.5753 75.4606C98.5544 74.7837 97.3529 74.3287 96.1046 74.0251C94.8536 73.7208 93.5499 73.5631 92.2382 73.4951C90.925 73.4274 89.6006 73.451 88.2784 73.5356C86.9558 73.6204 85.6348 73.7683 84.321 73.9639C83.6642 74.0623 83.0093 74.1729 82.3576 74.2962C81.7092 74.4194 81.0496 74.5555 80.4259 74.7072L80.4148 74.7099C80.0641 74.7952 79.7069 74.595 79.6169 74.2628C79.5269 73.9306 79.7382 73.5922 80.0888 73.507Z" fill="#371A45"/>
<path d="M126.85 52.554C126.694 55.2002 126.084 57.7898 124.965 59.9035C122.782 64.0284 118.441 66.7817 114.886 69.8287C113.267 71.2153 111.737 72.5782 110.281 73.77C107.575 75.9863 105.126 77.6136 102.855 77.7267C93.2997 78.2043 95.117 67.2728 95.117 67.2728L98.0351 42.3184C105.752 38.3465 117.087 35.0338 122.517 39.0546C125.559 41.3093 127.181 47.0558 126.85 52.554Z" fill="#F3AABB"/>
<g opacity="0.4">
<path d="M109.238 69.9388C110.227 71.2834 123.815 61.0722 123.439 53.1823C123.276 49.7774 121.145 55.478 117.674 60.3556C114.203 65.2332 108.667 69.1642 109.238 69.9388Z" fill="white"/>
</g>
<path d="M126.85 52.554C120.264 44.4185 108.036 45.3662 106.866 53.985C105.421 64.6541 102.117 65.4332 102.48 70.4869C102.734 74.0402 107.007 74.1888 110.281 73.77C107.575 75.9864 105.126 77.6136 102.855 77.7268C93.2997 78.2043 95.117 67.2729 95.117 67.2729L98.0351 42.3185C105.752 38.3465 117.087 35.0338 122.517 39.0547C125.559 41.3093 127.181 47.0558 126.85 52.554Z" fill="#E36F8A"/>
<path d="M102.255 78.5191C99.8047 78.5191 97.8614 77.7812 96.4723 76.3213C93.4244 73.1182 94.2337 67.6036 94.3026 67.1717L96.116 51.6615L96.3156 51.4695C100.505 47.4402 111.135 38.2991 119.349 40.4294C123.335 41.4639 126.142 44.9841 127.689 50.8922L127.713 50.9832L127.713 51.0772C127.723 54.5199 127.008 57.7784 125.699 60.2523L125.699 60.2526C123.94 63.5727 120.895 66.0021 117.95 68.3516C117.11 69.0218 116.241 69.7149 115.437 70.4048C114.912 70.8548 114.396 71.302 113.889 71.7416C109.81 75.2788 106.287 78.3337 102.897 78.5027C102.68 78.5137 102.466 78.5191 102.255 78.5191ZM97.6839 52.3694L95.9265 67.3944C95.9181 67.4452 95.1111 72.5746 97.6942 75.2842C98.8548 76.5015 100.577 77.0627 102.811 76.9506C105.613 76.8109 108.935 73.9304 112.781 70.5952C113.29 70.1536 113.808 69.7043 114.336 69.2523C115.162 68.5439 116.042 67.8418 116.893 67.1628C119.711 64.9146 122.625 62.5898 124.232 59.5556C125.416 57.3171 126.069 54.3441 126.072 51.1752C124.675 45.9092 122.267 42.7984 118.915 41.9287C111.487 40.001 101.031 49.182 97.6839 52.3694Z" fill="#371A45"/>
<path d="M126.893 51.0794C121.42 30.183 102.007 47.103 96.8999 52.0149L98.0343 42.3185C105.752 38.3465 117.087 35.0335 122.516 39.0546C125.287 41.1085 126.879 46.0586 126.893 51.0794Z" fill="#C2C6D2"/>
<g opacity="0.7">
<path d="M126.892 51.0801C126.881 51.0346 126.869 50.9891 126.856 50.9453C126.561 46.4721 125.022 42.2843 122.533 40.4382C117.103 36.4174 105.768 39.7301 98.0511 43.7022L97.1002 51.8234C97.0307 51.889 96.9645 51.953 96.9004 52.0151L98.035 42.3186C105.752 38.3466 117.087 35.0338 122.517 39.0547C125.286 41.1085 126.878 46.0579 126.892 51.0801Z" fill="white"/>
</g>
<path d="M96.8996 52.792C96.7803 52.792 96.66 52.7674 96.5474 52.7166C96.2319 52.5744 96.0461 52.2583 96.0846 51.9292L97.219 42.2329C97.2486 41.98 97.4068 41.7569 97.6428 41.6356C101.983 39.4018 106.843 37.6852 110.977 36.9261C116.218 35.9635 120.383 36.488 123.022 38.4422C125.856 40.5438 127.697 45.5033 127.713 51.0773C127.714 51.4704 127.405 51.8024 126.993 51.8506C126.581 51.8985 126.196 51.6481 126.097 51.2665C124.703 45.9451 122.287 42.8034 118.915 41.9287C111.332 39.9618 100.595 49.5688 97.4843 52.5603C97.3266 52.712 97.1147 52.792 96.8996 52.792ZM98.8022 42.8097L97.969 49.932C102.876 45.5188 112.064 38.5386 119.349 40.4295C121.712 41.0426 123.66 42.5292 125.177 44.8686C124.462 42.5357 123.358 40.6657 122.011 39.6665C119.758 37.9978 116.05 37.5778 111.289 38.452C107.432 39.1604 102.903 40.7425 98.8022 42.8097Z" fill="#371A45"/>
<path d="M57.4992 42.0323L53.2605 56.8471C53.2605 56.8471 50.6403 67.6308 43.4496 64.1899C42.2596 63.6214 41.2759 62.3411 40.3599 60.6344C39.2479 58.5644 38.2371 55.8637 37.0809 53.0383C35.4621 49.0785 33.1285 45.1441 32.9612 40.607C32.9051 39.0695 33.0983 37.4067 33.4817 35.7292C33.7851 34.3969 34.2076 33.0564 34.7233 31.7575C46.6307 13.9477 55.3698 35.8416 57.4992 42.0323Z" fill="#F3AABB"/>
<path d="M57.499 42.0323L53.2603 56.8471C53.2603 56.8471 50.6401 67.6308 43.4494 64.1899C42.2594 63.6214 41.2757 62.3411 40.3597 60.6344C43.3577 56.461 48.2203 51.9228 49.6035 46.5854C51.3941 39.6695 49.6035 30.5436 41.7719 30.3248C38.1295 30.223 35.2555 33.202 33.4814 35.7292C33.7849 34.3969 34.2074 33.0564 34.7231 31.7576C46.6305 13.9477 55.3696 35.8416 57.499 42.0323Z" fill="#E36F8A"/>
<path d="M46.1634 65.6463C45.1733 65.6463 44.1425 65.3917 43.0794 64.883C40.4657 63.6329 38.8671 59.6569 37.016 55.0532C36.787 54.4837 36.554 53.9043 36.3148 53.3194C35.9483 52.4225 35.5336 51.5025 35.1325 50.6128C33.7277 47.4965 32.2751 44.2742 32.1416 40.6337V40.6335C32.0434 37.9293 32.6874 34.68 33.9549 31.484L33.9846 31.4091L34.0298 31.3415C37.4884 26.1685 41.068 23.7624 44.671 24.1906C51.7781 25.035 56.5552 36.7805 58.2792 41.7912L58.3551 42.0116L54.0559 57.0379C53.9506 57.4628 52.4145 63.3997 48.4603 65.1558C47.7237 65.4828 46.9567 65.6463 46.1634 65.6463ZM33.7814 40.5798C33.9042 43.9304 35.2957 47.0172 36.6414 50.0023C37.0479 50.9041 37.4683 51.8365 37.8448 52.7581C38.085 53.3456 38.3191 53.9276 38.5491 54.4999C40.2068 58.6226 41.7726 62.5168 43.8189 63.4955C45.2801 64.1945 46.5696 64.2779 47.7613 63.7494C51.0532 62.29 52.4472 56.729 52.4609 56.673L52.4684 56.6446L56.6432 42.0533C55.2728 38.1271 50.6938 26.4726 44.4668 25.7327C41.5632 25.3877 38.5346 27.5317 35.4611 32.1055C34.2876 35.0895 33.6913 38.0963 33.7814 40.5798Z" fill="#371A45"/>
<path d="M34.7227 31.7573C46.6299 13.9482 55.3696 35.842 57.4993 42.0321L60.1924 32.6167C57.0288 27.5216 52.211 21.4754 44.3599 22.3677C39.6237 22.9058 36.5807 27.0707 34.7227 31.7573Z" fill="#C2C6D2"/>
<g opacity="0.7">
<path d="M60.1929 32.6164L57.4993 42.0323C57.4524 41.8938 57.4021 41.7497 57.3465 41.5968L59.531 33.9594C56.3687 28.8643 51.5503 22.8176 43.6998 23.7106C39.8704 24.1453 37.1475 26.952 35.2637 30.4876C37.1517 26.3388 40.0574 22.8566 44.3597 22.3673C52.2122 21.4762 57.0287 27.521 60.1929 32.6164Z" fill="white"/>
</g>
<path d="M57.4993 42.8092C57.1451 42.8092 56.8298 42.5934 56.7195 42.2729C55.4501 38.5835 50.815 26.4871 44.4671 25.7328C41.5496 25.3856 38.5048 27.553 35.4158 32.1732C35.1908 32.5096 34.7338 32.6305 34.3572 32.453C33.9808 32.2754 33.807 31.857 33.9549 31.4841C36.3224 25.5124 39.8867 22.0932 44.2624 21.5961C52.6691 20.6397 57.7833 27.2034 60.8997 32.2227C61.0116 32.4029 61.0421 32.6182 60.9844 32.82L58.2913 42.2353C58.1964 42.5671 57.8828 42.8003 57.5201 42.809C57.5132 42.8091 57.5062 42.8092 57.4993 42.8092ZM43.8548 24.1421C44.1269 24.1421 44.3988 24.1582 44.6713 24.1905C50.8058 24.9194 55.2045 33.7702 57.4021 39.4011L59.3103 32.7302C56.1899 27.767 51.6873 22.3178 44.4579 23.1393C42.5864 23.352 41.0216 24.2058 39.7221 25.3934C41.0915 24.5604 42.4709 24.1421 43.8548 24.1421Z" fill="#371A45"/>
<path d="M72.2921 75.6779C71.0652 75.6127 68.8755 75.2749 68.8755 75.2749C54.4317 73.143 46.6392 65.6882 46.1655 61.2511C45.7247 57.1229 48.2694 55.0274 49.3226 53.0762C50.7534 50.4253 50.8678 48.1341 52.0584 44.2649C56.1925 30.8299 65.8118 24.5052 79.3796 26.6398C91.4907 28.5454 99.0935 33.5909 101.591 41.8277L102.331 45.4128C102.736 47.4843 102.506 51.2885 101.849 54.6765C100.843 59.8609 101.645 69.5772 94.43 73.4617C91.0176 75.2989 85.5152 75.9573 80.1571 76.0072L72.2921 75.6779Z" fill="#C2C6D2"/>
<g opacity="0.7">
<path d="M102.529 47.7269L102.005 45.185C99.3199 36.3279 91.2741 30.3834 78.2485 28.3338C70.1273 27.0559 63.1909 29.115 57.9863 33.2258C63.0647 27.5474 70.3479 25.2195 79.3791 26.6404C91.4914 28.546 99.0934 33.5901 101.591 41.8271L102.331 45.4133C102.453 46.0441 102.517 46.8351 102.529 47.7269Z" fill="white"/>
</g>
<path d="M101.849 54.6767C100.844 59.8608 101.647 69.5764 94.4308 73.4615C88.3369 76.7431 75.5745 76.2638 68.8756 75.2747C54.4325 73.1426 46.6388 65.6884 46.1662 61.2507C46.0875 60.5094 46.1121 59.8442 46.2129 59.2394C47.5366 63.7223 55.2275 70.3761 68.7413 72.3709C75.4419 73.3601 88.2026 73.8394 94.2964 70.5577C101.512 66.6725 100.71 56.9569 101.717 51.7731C102.106 49.7677 102.345 47.6155 102.392 45.7642C102.711 47.895 102.472 51.4719 101.849 54.6767Z" fill="#A8AFC1"/>
<path d="M102.654 45.3562C102.917 46.2836 103.009 47.2256 103.055 48.1608C103.077 48.6293 103.077 49.0966 103.074 49.5639C103.061 50.0304 103.041 50.4967 103.011 50.9623C102.941 51.8925 102.837 52.8196 102.69 53.7422C102.654 53.9729 102.617 54.2034 102.575 54.4336L102.458 55.1083C102.384 55.5472 102.327 55.9943 102.275 56.4443C102.171 57.3451 102.092 58.2584 102.002 59.1759C101.909 60.0935 101.808 61.0158 101.678 61.9397C101.547 62.8632 101.388 63.7886 101.175 64.7095C100.958 65.6291 100.69 66.5443 100.343 67.4412C99.9966 68.3373 99.571 69.2155 99.0417 70.0448C98.5102 70.8719 97.8726 71.6479 97.1322 72.329C96.3932 73.011 95.5518 73.5939 94.6515 74.061C93.75 74.5283 92.8045 74.8769 91.8487 75.1542C89.9352 75.7112 87.9774 76.006 86.0238 76.1794C84.068 76.3475 82.1102 76.38 80.1607 76.3176C79.9798 76.3118 79.8379 76.1682 79.8439 75.9966C79.8497 75.8359 79.9832 75.7078 80.1491 75.6969L80.1543 75.6966C81.1185 75.6375 82.0809 75.5841 83.0393 75.4968C83.9971 75.4069 84.9528 75.3135 85.9014 75.1831C86.8494 75.0537 87.7921 74.901 88.7223 74.7126C89.6511 74.5188 90.5678 74.2894 91.4595 74.011C92.3512 73.7322 93.2123 73.3868 94.0073 72.963C94.8011 72.5363 95.5301 72.0145 96.171 71.4056C97.4572 70.1878 98.3702 68.638 98.9977 66.9792C99.3121 66.1485 99.5589 65.2885 99.759 64.414C99.964 63.5405 100.123 62.6521 100.255 61.7556C100.518 59.961 100.665 58.1391 100.908 56.292C100.97 55.8299 101.037 55.3658 101.124 54.8985L101.254 54.2154C101.299 53.9937 101.338 53.7706 101.377 53.5475C101.529 52.6548 101.661 51.7576 101.763 50.8576C101.819 50.4082 101.865 49.958 101.906 49.5072C101.947 49.0571 101.983 48.6061 102.006 48.1558C102.059 47.2552 102.08 46.3536 102.009 45.4693L102.008 45.4606C101.995 45.2891 102.13 45.1394 102.311 45.1265C102.471 45.115 102.614 45.2145 102.654 45.3562Z" fill="#371A45"/>
<path d="M72.2738 75.9879C71.6463 75.9732 71.0346 75.9271 70.4234 75.8664C69.8128 75.8057 69.2039 75.74 68.5958 75.6599L67.6829 75.5388C67.378 75.5019 67.0763 75.4413 66.7726 75.3937C66.1649 75.2991 65.5628 75.1743 64.9588 75.0568C63.7578 74.7927 62.5609 74.501 61.3844 74.1399C60.21 73.7745 59.0473 73.3684 57.9111 72.8982C55.6415 71.9538 53.464 70.7829 51.4831 69.3371C50.4939 68.6138 49.5517 67.8246 48.6922 66.9487C48.4839 66.7235 48.264 66.5093 48.0667 66.2735L47.7644 65.9257L47.4768 65.5646L47.3334 65.3838L47.198 65.1961C47.1086 65.0705 47.0161 64.9471 46.9295 64.8193C46.7615 64.5594 46.5896 64.3022 46.4412 64.0282C46.137 63.4861 45.8701 62.9157 45.6887 62.3016L45.571 61.8331C45.5393 61.6741 45.5178 61.5108 45.492 61.3497C45.4755 61.1926 45.4691 61.0412 45.4576 60.8866C45.4506 60.7323 45.4303 60.5794 45.4347 60.4241C45.4221 59.1876 45.6709 57.9226 46.1995 56.7904C46.7052 55.6472 47.4535 54.651 48.1072 53.7108C48.2702 53.4751 48.4253 53.2425 48.5614 53.0119C48.6975 52.7891 48.8215 52.5339 48.9472 52.2875C49.1875 51.7876 49.3939 51.2733 49.5746 50.7458C49.9367 49.6922 50.1881 48.5765 50.4637 47.4491C50.7358 46.3205 51.0294 45.1815 51.374 44.0568C52.0747 41.808 52.948 39.594 54.1089 37.5002C54.6908 36.4557 55.3205 35.4297 56.0498 34.4629C56.775 33.4947 57.5708 32.5702 58.4422 31.7094C60.1957 29.9988 62.2642 28.5586 64.5488 27.5319C66.8377 26.5174 69.3114 25.8952 71.8094 25.673C73.0582 25.5616 74.3126 25.5271 75.5603 25.5816C76.8068 25.6427 78.0487 25.7579 79.2754 25.9506C81.7123 26.3305 84.1266 26.8539 86.4813 27.5989C88.8327 28.3413 91.1275 29.3005 93.2443 30.5678C95.3564 31.8314 97.2982 33.4107 98.8054 35.3256C100.311 37.2361 101.382 39.4454 101.906 41.7419C101.945 41.9098 101.832 42.0756 101.655 42.1118C101.492 42.1452 101.332 42.0584 101.277 41.9148L101.276 41.9134C100.863 40.8438 100.378 39.809 99.8082 38.8239L99.5925 38.4556L99.3623 38.0959C99.2146 37.8532 99.051 37.6199 98.8871 37.387C98.5595 36.9215 98.2041 36.475 97.84 36.0361C96.3557 34.3005 94.5483 32.8225 92.537 31.6346C90.5249 30.4443 88.3242 29.5354 86.052 28.8313C83.7792 28.1248 81.4253 27.6264 79.0536 27.2694C77.8748 27.0904 76.6879 26.9875 75.5015 26.935C74.3145 26.8904 73.1283 26.928 71.9522 27.0336C70.7753 27.1371 69.6125 27.3427 68.4774 27.6331C67.3423 27.9239 66.2351 28.3055 65.1737 28.7794C63.0549 29.7376 61.139 31.0753 59.5015 32.6781C57.8769 34.2948 56.5106 36.1504 55.407 38.1454C54.2919 40.137 53.4414 42.2649 52.7542 44.4386C52.4153 45.5296 52.1257 46.6328 51.8508 47.7533C51.5718 48.8724 51.3114 50.0178 50.915 51.1593C50.7175 51.7287 50.4883 52.2939 50.2212 52.8436C50.0809 53.1162 49.9495 53.3854 49.7804 53.6625C49.6182 53.9347 49.446 54.1896 49.2744 54.4359C48.5847 55.4158 47.9102 56.3159 47.4687 57.3073C47.0073 58.2873 46.7993 59.3405 46.8021 60.4098C46.8069 60.6762 46.8305 60.948 46.8482 61.2119C46.8692 61.3358 46.8836 61.4595 46.9077 61.5839L46.9999 61.9579C47.1446 62.4571 47.3709 62.9496 47.636 63.4261C47.7644 63.6668 47.9184 63.8974 48.0669 64.1306C48.1444 64.2456 48.2281 64.3579 48.3084 64.4717L48.4297 64.6421L48.5603 64.8075L48.8215 65.1386L49.0989 65.4599C49.2786 65.6776 49.4841 65.8778 49.6758 66.0877C50.4722 66.9059 51.3581 67.6544 52.2943 68.3445C53.2314 69.0337 54.223 69.6618 55.2509 70.2344C56.2773 70.8092 57.3376 71.3352 58.4287 71.8012C59.5194 72.2679 60.6316 72.6934 61.7639 73.0706C62.8968 73.4465 64.0483 73.7759 65.2116 74.069C66.376 74.3596 67.5529 74.6037 68.7401 74.8233C69.3332 74.936 69.9303 75.0346 70.5269 75.1284C71.1234 75.2175 71.7218 75.3115 72.3106 75.3681L72.315 75.3685C72.4953 75.3858 72.6264 75.5384 72.6082 75.709C72.5907 75.871 72.4431 75.9913 72.2738 75.9879Z" fill="#371A45"/>
<path d="M92.4289 46.256C92.9654 46.6922 93.7537 46.1392 93.4581 45.5308C92.8102 44.1965 91.7416 42.8059 90.0346 42.439C86.9466 41.7752 87.5814 43.6835 89.2002 44.3089C90.1449 44.6741 91.3573 45.3849 92.4289 46.256Z" fill="#371A45"/>
<path d="M60.0917 41.573C59.4423 41.8376 58.8638 41.0873 59.3374 40.59C60.3758 39.4995 61.8336 38.474 63.5784 38.606C66.7349 38.8446 65.5284 40.4865 63.7862 40.6265C62.7695 40.7081 61.3887 41.0442 60.0917 41.573Z" fill="#371A45"/>
<path d="M80.1244 26.4972C80.0693 27.5075 79.833 28.4462 79.5288 29.2488L77.1422 28.2937C77.1536 26.6302 75.6103 24.792 74.0697 23.4572C73.8611 23.2765 73.6523 23.1056 73.449 22.9451C73.4016 22.9078 73.3542 22.869 73.3087 22.8302C71.0054 20.8499 74.0881 17.5312 76.5092 19.38C79.4671 21.6383 80.2473 24.2454 80.1244 26.4972Z" fill="#C2C6D2"/>
<g opacity="0.7">
<path d="M80.1249 26.4972C78.9583 23.0601 76.2262 19.8632 74.6452 20.816C73.6843 21.3956 73.7903 22.5529 74.0702 23.4572C73.8616 23.2765 73.6528 23.1056 73.4495 22.9451C73.4021 22.9078 73.3547 22.869 73.3092 22.8302C71.0059 20.8499 74.0885 17.5312 76.5097 19.38C79.4676 21.6383 80.2478 24.2454 80.1249 26.4972Z" fill="white"/>
</g>
<path d="M79.2202 29.1437C79.3108 28.1101 79.4644 27.158 79.4706 26.1931C79.475 25.2333 79.3061 24.278 78.9186 23.4008C78.5381 22.5218 77.9727 21.7172 77.2855 21.0047L76.7478 20.4866L76.1628 20.0086L76.0899 19.9487C76.0647 19.9268 76.0418 19.9096 76.0217 19.8975L75.8966 19.8119C75.8546 19.784 75.81 19.7644 75.7676 19.7395C75.7255 19.713 75.6814 19.6941 75.637 19.6769C75.462 19.5998 75.282 19.5529 75.1002 19.5415C74.7385 19.5145 74.3591 19.6196 74.0335 19.8356C73.707 20.0486 73.4494 20.3724 73.3217 20.7149C73.1944 21.0595 73.1952 21.4148 73.3417 21.7312C73.4151 21.89 73.5224 22.0414 73.6555 22.1847C73.7304 22.2524 73.7956 22.3225 73.8864 22.3925L74.2049 22.6501C75.0651 23.3611 75.8523 24.1539 76.5315 25.0563C76.8684 25.5092 77.1719 25.9969 77.4095 26.5327C77.642 27.0681 77.8069 27.6633 77.7969 28.2987C77.7916 28.6415 77.4939 28.9153 77.1319 28.9102C76.7781 28.9053 76.494 28.6357 76.4864 28.3032L76.4861 28.2895C76.4774 27.8843 76.3493 27.4577 76.153 27.042C75.9576 26.6247 75.6961 26.2168 75.3939 25.8282C74.7883 25.0493 74.0429 24.3417 73.2529 23.6919L72.9463 23.4452C72.8245 23.3511 72.7021 23.2317 72.5823 23.1175C72.3511 22.8739 72.1466 22.5926 72.0013 22.2756C71.7017 21.6391 71.7029 20.8849 71.942 20.2554C72.1797 19.6211 72.6177 19.0807 73.189 18.6997C73.7561 18.3183 74.4822 18.0982 75.2153 18.1528C75.5804 18.1756 75.9358 18.2764 76.2547 18.4194C76.336 18.454 76.4151 18.4909 76.4885 18.5347C76.5626 18.5774 76.6403 18.6174 76.7104 18.6642L76.9165 18.8079C76.9531 18.8326 76.9833 18.856 77.0083 18.8782L77.0899 18.9462L77.7418 19.4916C77.9465 19.6881 78.1469 19.8896 78.3488 20.0888C79.131 20.9113 79.7836 21.8691 80.208 22.9209C80.6437 23.969 80.8194 25.1043 80.7892 26.2149C80.774 27.3269 80.4664 28.4304 79.8373 29.3531C79.7364 29.5009 79.5282 29.5433 79.3721 29.4478C79.2644 29.3818 79.2097 29.2674 79.2192 29.1541L79.2202 29.1437Z" fill="#371A45"/>
<path d="M77.0772 28.2464L75.1649 28.7479C74.2283 27.6057 71.9704 27.2309 70.266 27.1952C70.2183 27.1932 70.1706 27.1912 70.1247 27.189C70.0523 27.1851 69.9818 27.1761 69.913 27.1656C67.7626 26.8319 68.0085 23.6557 70.3172 23.6762C73.7582 23.7074 75.6137 25.4011 76.5646 27.1109C76.7785 27.494 76.9463 27.8787 77.0772 28.2464Z" fill="#C2C6D2"/>
<g opacity="0.7">
<path d="M76.5646 27.1108C74.4857 25.494 71.1162 24.4005 70.1171 25.1104C69.2689 25.7127 69.5211 26.5448 69.9129 27.1656C67.7625 26.8319 68.0087 23.6556 70.3172 23.6761C73.7583 23.7073 75.6136 25.401 76.5646 27.1108Z" fill="white"/>
</g>
<path d="M76.4564 28.4449C75.9222 27.0705 74.9758 25.8606 73.6821 25.1673C73.038 24.8182 72.3187 24.5942 71.5684 24.4725L70.9996 24.4008L70.4205 24.3734L70.3481 24.3699C70.3219 24.3678 70.3006 24.3676 70.285 24.3693L70.1786 24.3728C70.1116 24.382 70.0416 24.3843 69.981 24.4025C69.8548 24.429 69.7406 24.4706 69.642 24.5346C69.4438 24.6575 69.2875 24.8583 69.2064 25.1049C69.1235 25.3502 69.1284 25.6323 69.2105 25.8665C69.2943 26.102 69.4416 26.2888 69.6562 26.4023C69.764 26.4594 69.8894 26.5004 70.0282 26.5271C70.1015 26.5342 70.1692 26.5478 70.2553 26.5501L70.577 26.5653C71.4555 26.6199 72.3389 26.7241 73.1989 27C73.6271 27.1384 74.0503 27.3214 74.4406 27.5728C74.8291 27.8207 75.1937 28.1462 75.4235 28.5566C75.5095 28.7101 75.4479 28.9007 75.2858 28.9821C75.1667 29.042 75.0266 29.0263 74.9266 28.9529L74.9063 28.938C74.3261 28.5114 73.6087 28.2933 72.8557 28.1282C72.1013 27.9719 71.3116 27.8643 70.5167 27.8434L70.2099 27.8367C70.0862 27.836 69.9463 27.8202 69.8113 27.8058C69.5373 27.7639 69.2585 27.685 68.9965 27.5546C68.4656 27.2963 68.0567 26.8165 67.8727 26.3018C67.6847 25.7849 67.6743 25.2345 67.8331 24.7191C67.9891 24.2054 68.3338 23.7135 68.8345 23.393C69.0816 23.2313 69.3628 23.1209 69.6439 23.0576C69.7852 23.0211 69.926 23.0087 70.0661 22.9939L70.274 22.986C70.3109 22.9842 70.3418 22.9846 70.3681 22.9865L70.4526 22.99L71.1296 23.0212L71.8075 23.1049C72.7094 23.2443 73.6051 23.5315 74.4123 23.9803C75.2257 24.4212 75.919 25.0452 76.4721 25.7435C77.0289 26.444 77.4238 27.2341 77.699 28.0487C77.8091 28.3753 77.619 28.7249 77.2742 28.8294C76.939 28.9311 76.5809 28.7636 76.4598 28.4539L76.4564 28.4449Z" fill="#371A45"/>
<g opacity="0.4">
<path d="M40.6542 51.5595C39.132 52.3389 33.6712 41.8176 37.7523 34.9307C39.5135 31.9586 39.2012 37.9178 39.497 43.7937C39.7057 47.938 41.5314 51.1102 40.6542 51.5595Z" fill="white"/>
</g>
<path d="M81.1923 55.2857C80.4562 57.4782 81.6476 59.7942 83.8534 60.4588C86.0591 61.1234 88.444 59.8847 89.1799 57.6923C89.9158 55.4998 88.7245 53.1838 86.5187 52.5192C84.3131 51.8546 81.9282 53.0932 81.1923 55.2857Z" fill="#371A45"/>
<path d="M82.6716 56.7438C82.3603 57.6717 82.8645 58.6517 83.7979 58.9332C84.7312 59.2143 85.7406 58.6901 86.0521 57.7623C86.3635 56.8343 85.8593 55.8543 84.9259 55.573C83.9926 55.2917 82.9831 55.8158 82.6716 56.7438Z" fill="white"/>
<path d="M85.9906 54.9355C85.811 55.4705 86.1017 56.0357 86.64 56.1978C87.1781 56.36 87.76 56.0577 87.9396 55.5228C88.119 54.9878 87.8285 54.4227 87.2902 54.2605C86.7519 54.0983 86.1702 54.4007 85.9906 54.9355Z" fill="white"/>
<path d="M57.1923 51.1523C56.4562 53.3448 57.6477 55.6608 59.8534 56.3254C62.0592 56.99 64.4438 55.7514 65.1799 53.559C65.916 51.3665 64.7245 49.0503 62.5187 48.3859C60.3129 47.7211 57.9282 48.9598 57.1923 51.1523Z" fill="#371A45"/>
<path d="M58.6712 52.6104C58.3598 53.5383 58.8639 54.5184 59.7974 54.7997C60.731 55.0808 61.7402 54.5566 62.0516 53.6289C62.3631 52.701 61.8588 51.7208 60.9255 51.4395C59.9919 51.1583 58.9827 51.6825 58.6712 52.6104Z" fill="white"/>
<path d="M61.9906 50.8022C61.811 51.337 62.1017 51.9022 62.6398 52.0645C63.1781 52.2265 63.76 51.9244 63.9396 51.3893C64.1191 50.8544 63.8284 50.2893 63.2903 50.1271C62.7519 49.965 62.1702 50.2673 61.9906 50.8022Z" fill="white"/>
<path d="M78.2958 61.7743C80.028 62.8518 81.7027 63.5416 83.2609 63.9329C83.641 64.027 84.0125 64.1045 84.3771 64.1656C85.5919 64.369 86.7227 64.3898 87.7392 64.2743C88.4374 64.1966 89.0823 64.0535 89.6641 63.8629C90.2494 63.6718 90.7707 63.4298 91.2172 63.155C94.3942 61.1987 97.1014 54.6792 96.806 53.1805C96.3283 50.7634 91.0153 48.7575 86.628 47.9943C85.5229 47.8031 84.4753 47.6894 83.5807 47.6682C83.0834 47.6561 82.6152 47.6581 82.1746 47.6706C81.2593 47.6966 80.4629 47.7703 79.7745 47.8715C78.7012 48.0307 77.8918 48.2544 77.304 48.4706C76.3851 48.807 76.0061 49.1207 76.0061 49.1207C76.0061 49.1207 71.9461 57.8261 78.2958 61.7743Z" fill="#371A45"/>
<g opacity="0.7">
<path d="M82.1748 47.6707L87.7394 64.2744C88.4376 64.1966 89.0825 64.0534 89.6643 63.8629L86.6282 47.9944C85.5231 47.8031 84.4754 47.6895 83.5809 47.6681C83.0836 47.656 82.6154 47.6581 82.1748 47.6707Z" fill="white"/>
</g>
<g opacity="0.7">
<path d="M77.3042 48.4706L83.261 63.9331C83.6412 64.027 84.0125 64.1044 84.3773 64.1658L79.7746 47.8716C78.7011 48.0306 77.892 48.2543 77.3042 48.4706Z" fill="white"/>
</g>
<path d="M52.7327 53.6334C53.6948 55.6051 56.4002 57.7434 61.0266 57.7763C61.3227 57.7789 61.6265 57.7727 61.9387 57.756C62.0873 57.7496 62.2389 57.739 62.3924 57.7276C63.2714 57.6601 64.0476 57.4514 64.7334 57.1386C65.2704 56.8944 65.7525 56.5861 66.1856 56.2325C69.5687 53.4572 69.8979 47.854 69.8979 47.854C69.8979 47.854 68.9927 45.7489 64.3694 43.9026C63.9488 43.7353 63.4793 43.5788 62.9762 43.4389C61.6081 43.0553 59.9959 42.7886 58.4544 42.7131C57.9172 42.6872 57.3868 42.6838 56.8803 42.7076C55.8453 42.7557 54.9039 42.9134 54.1674 43.2096C53.6169 43.4308 53.1817 43.7294 52.909 44.1164C52.1688 45.1692 51.452 51.0022 52.7327 53.6334Z" fill="#371A45"/>
<g opacity="0.7">
<path d="M58.4546 42.7132L64.7336 57.1386C65.2706 56.8944 65.7527 56.586 66.1857 56.2325L62.9764 43.4389C61.6083 43.0553 59.996 42.7885 58.4546 42.7132Z" fill="white"/>
</g>
<g opacity="0.7">
<path d="M54.1675 43.2095L61.0265 57.7762C61.3228 57.779 61.6266 57.7728 61.9386 57.7559L56.8804 42.7076C55.8453 42.7556 54.9039 42.9135 54.1675 43.2095Z" fill="white"/>
</g>
<path d="M86.4694 65.1053C83.9825 65.1055 81.0149 64.3752 77.8545 62.4101C74.9989 60.6344 73.6553 57.6941 73.969 53.9071C74.1982 51.1396 75.2272 48.9064 75.2709 48.8127C75.3185 48.7105 75.3893 48.6195 75.4782 48.5462C75.6991 48.364 77.804 46.7701 83.6002 46.9069C88.1282 47.0139 96.8807 49.4244 97.5956 53.0411C97.968 54.9261 95.0841 61.6814 91.6547 63.7933C90.4105 64.5592 88.6195 65.1052 86.4694 65.1053ZM76.6609 49.6121C76.1502 50.8428 73.519 57.8937 78.736 61.1377C83.9813 64.3992 88.5018 63.9192 90.7792 62.5172C93.793 60.6611 96.2327 54.4153 96.0165 53.321V53.3209C95.5641 51.0291 88.3879 48.5423 83.5601 48.4282C79.1639 48.3254 77.1715 49.3059 76.6609 49.6121Z" fill="#371A45"/>
<path d="M61.1424 58.5373C56.0754 58.5373 53.0714 56.1435 52.0041 53.9516C50.6423 51.1551 51.3189 45.0044 52.2403 43.6949C54.181 40.9368 61.4767 41.9227 64.6811 43.2022C69.4731 45.1157 70.5369 47.321 70.6425 47.5662C70.6874 47.6706 70.7073 47.7833 70.7007 47.8959C70.6948 47.9962 70.5439 50.382 69.5005 52.8695C68.0623 56.2985 65.6269 58.2404 62.4574 58.4856C62.0049 58.5206 61.566 58.5373 61.1424 58.5373ZM53.5771 44.5391C53.044 45.2966 52.2749 50.8747 53.4627 53.314C54.4024 55.2437 57.2888 57.3588 62.3267 56.9687C67.9666 56.5324 68.9478 49.3183 69.0791 48.0119C68.7902 47.5625 67.5907 46.0157 64.0571 44.6047C60.6206 43.2324 54.6995 42.9438 53.5771 44.5391Z" fill="#371A45"/>
<path d="M76.0056 49.12C76.0056 49.12 72.9095 46.9752 69.8989 47.8536C69.8989 47.8536 69.8742 48.8566 69.4395 50.5312C69.4395 50.5312 73.6144 50.3092 75.013 52.2876C75.013 52.2876 75.5613 49.9619 76.0056 49.12Z" fill="#371A45"/>
<g opacity="0.7">
<path d="M76.0049 49.1193C75.8869 49.346 75.7606 49.6778 75.6375 50.0454C75.1846 49.7524 72.4892 48.1071 69.8042 48.7695C69.8914 48.1784 69.8999 47.8531 69.8999 47.8531C72.9096 46.9754 76.0049 49.1193 76.0049 49.1193Z" fill="white"/>
</g>
<path d="M75.0132 53.0485C74.7486 53.0485 74.4969 52.9243 74.346 52.711C73.4123 51.3901 70.5199 51.2373 69.484 51.291C69.2292 51.3033 68.984 51.2022 68.8217 51.0165C68.6594 50.831 68.5991 50.5835 68.6599 50.3494C69.0641 48.7924 69.0961 47.8435 69.0964 47.8341C69.106 47.508 69.3339 47.2224 69.663 47.1263C73.02 46.1471 76.3403 48.4089 76.48 48.5057C76.7964 48.7249 76.8996 49.1282 76.7244 49.4602C76.3965 50.0817 75.944 51.8315 75.7974 52.4534C75.7273 52.7505 75.4771 52.9794 75.1613 53.0354C75.1119 53.0442 75.0624 53.0485 75.0132 53.0485ZM70.4384 49.7774C71.5332 49.8297 73.267 50.0468 74.5608 50.8423C74.6909 50.3779 74.8476 49.8619 75.01 49.4241C74.1619 48.9626 72.4049 48.1801 70.6535 48.4642C70.6166 48.7852 70.5516 49.2291 70.4384 49.7774Z" fill="#371A45"/>
<path d="M96.7564 54.1014C96.7564 54.1014 101.693 56.1416 102.618 56.7958C103.543 57.4501 102.841 61.4019 101.197 61.147C100.121 60.9801 100.512 59.0539 100.512 59.0539L95.8281 56.8988C95.8281 56.8988 96.6025 55.3388 96.7564 54.1014Z" fill="#371A45"/>
<path d="M101.341 61.9187C101.235 61.9187 101.142 61.9094 101.068 61.898C100.644 61.8322 100.289 61.6192 100.04 61.2821C99.6542 60.7577 99.614 60.023 99.6476 59.5018L95.4775 57.5833C95.0819 57.4013 94.9143 56.9519 95.1015 56.5749C95.1085 56.5608 95.8225 55.1092 95.9589 54.0123C95.9887 53.773 96.1363 53.5613 96.3568 53.4413C96.5773 53.3213 96.8447 53.3076 97.0778 53.4039C97.5918 53.6162 102.127 55.499 103.099 56.1859C104.15 56.9295 103.928 59.0711 103.362 60.3313C102.756 61.6849 101.876 61.9186 101.341 61.9187ZM96.8662 56.5304L100.863 58.3693C101.191 58.5198 101.37 58.8596 101.301 59.1977C101.212 59.6495 101.236 60.233 101.346 60.3966C101.451 60.3902 101.6 60.2299 101.707 60.0648C102.261 59.2149 102.331 57.7189 102.112 57.3877C101.535 56.9994 99.1762 55.954 97.3447 55.1793C97.2022 55.6813 97.0199 56.1615 96.8662 56.5304Z" fill="#371A45"/>
<path d="M102.664 85.3773L94.9795 79.4204C94.9795 79.4204 94.2275 77.9729 94.1525 76.3261C94.1525 76.3261 94.1353 76.3311 94.1046 76.339C93.7935 76.4168 92.0091 76.7973 90.5342 75.7173C89.2881 74.8041 88.7275 72.7219 89.3224 70.6687C89.6265 69.6163 90.2367 68.5735 91.2109 67.6975C93.8754 65.3043 99.3378 64.4705 102.792 67.3381C105.78 69.8203 109.557 79.4041 102.664 85.3773Z" fill="#C2C6D2"/>
<path d="M95.2309 73.0035C95.2017 73.065 94.4173 74.6372 94.1046 76.339C93.7936 76.4168 92.0091 76.7973 90.5342 75.7172C89.2881 74.8041 88.7275 72.7219 89.3224 70.6686C89.3224 70.6686 89.2711 73.2756 91.2521 74.0495C93.7286 75.0179 95.1676 73.0895 95.2309 73.0035Z" fill="#A8AFC1"/>
<path d="M102.664 85.3773L100.726 83.8746C103.693 81.7422 105.877 78.2691 105.913 72.6651C107.109 76.5916 106.933 81.6774 102.664 85.3773Z" fill="#A8AFC1"/>
<g opacity="0.4">
<path d="M106.423 78.6043C106.562 74.2892 104.472 70.2071 102.67 68.7095C99.2178 65.8419 93.7555 66.6759 91.0893 69.0689C89.9716 70.0746 89.3357 71.3002 89.0862 72.5048C89.0367 70.9083 89.6606 69.09 91.2107 67.6975C93.8752 65.3043 99.3376 64.4705 102.792 67.3381C104.785 68.9929 107.128 73.8083 106.423 78.6043Z" fill="white"/>
</g>
<path d="M94.6847 79.5579C94.5283 79.3039 94.3992 79.0624 94.2744 78.8061C94.1505 78.5522 94.0392 78.2922 93.9384 78.0264C93.8365 77.7608 93.7483 77.4887 93.6741 77.2099C93.5959 76.932 93.5433 76.6448 93.4976 76.3533L94.3442 76.9203C94.2458 76.9475 94.1885 76.9596 94.1143 76.9751C94.0441 76.9897 93.9748 77.0023 93.9057 77.0135C93.7675 77.036 93.6299 77.0531 93.4917 77.0655C93.2156 77.0897 92.9375 77.0945 92.6583 77.0788C92.1012 77.0461 91.5362 76.9298 91.0103 76.705C90.7478 76.5936 90.4958 76.4566 90.2614 76.2977C90.1456 76.2214 90.0281 76.1267 89.914 76.0332C89.8064 75.9346 89.6992 75.8354 89.6058 75.7278C89.2227 75.3029 88.9567 74.8188 88.7738 74.3236C88.4081 73.3293 88.3534 72.2822 88.5163 71.2775C88.6796 70.2715 89.0844 69.3041 89.6805 68.459C90.2739 67.6147 91.0724 66.8953 91.9679 66.3614C92.8618 65.8251 93.8402 65.4464 94.8508 65.2046C95.862 64.9641 96.9094 64.862 97.9559 64.9127C99.0014 64.9669 100.047 65.1802 101.025 65.5711C101.513 65.7663 101.985 66.0047 102.425 66.2896C102.643 66.433 102.86 66.5808 103.062 66.7449L103.216 66.8655L103.369 66.9976C103.469 67.0875 103.565 67.1786 103.657 67.2718C104.387 68.0199 104.93 68.8532 105.395 69.7157C106.314 71.4451 106.892 73.3152 107.115 75.2356C107.336 77.1526 107.169 79.1389 106.492 80.9926C106.156 81.9177 105.695 82.8052 105.12 83.6199C104.546 84.4349 103.862 85.176 103.105 85.8349C102.839 86.067 102.424 86.0504 102.179 85.7979C101.934 85.5453 101.952 85.1526 102.218 84.9205L102.221 84.9183C102.904 84.3224 103.517 83.6583 104.029 82.9311C104.542 82.2043 104.952 81.4147 105.253 80.5876C105.858 78.9318 106.015 77.1324 105.812 75.3687C105.608 73.6045 105.068 71.8596 104.226 70.2776C103.804 69.4916 103.302 68.7343 102.7 68.1209C102.546 67.9663 102.403 67.8331 102.224 67.6996C102.055 67.5619 101.873 67.4388 101.69 67.3184C101.323 67.0794 100.926 66.8795 100.514 66.7149C99.6881 66.385 98.7932 66.2 97.8856 66.1529C96.9775 66.1088 96.0573 66.1978 95.1713 66.4089C94.2856 66.62 93.4306 66.9534 92.6706 67.4099C92.2911 67.6384 91.9369 67.8972 91.6207 68.1877C91.3013 68.4795 91.0152 68.8023 90.7696 69.1503C90.2793 69.8456 89.9452 70.6422 89.8116 71.4691C89.6761 72.2927 89.729 73.1524 90.0106 73.9115C90.1492 74.2897 90.3485 74.6404 90.6018 74.9203C90.6636 74.9925 90.7327 75.054 90.7999 75.1175C90.8715 75.1743 90.9392 75.2319 91.0244 75.2878C91.1878 75.3984 91.3623 75.4933 91.546 75.5714C91.9127 75.7287 92.3189 75.8144 92.7373 75.8392C92.9466 75.8508 93.1588 75.8474 93.3698 75.8288C93.4752 75.8193 93.5802 75.8064 93.6831 75.7897C93.7346 75.7813 93.7854 75.7719 93.8347 75.7619C93.88 75.7529 93.9417 75.738 93.9607 75.7325L93.9976 75.7226C94.3339 75.6305 94.6854 75.8145 94.7825 76.133C94.7991 76.1877 94.807 76.2456 94.8073 76.2998C94.7963 76.5421 94.7889 76.7891 94.8069 77.0389C94.8209 77.2887 94.8484 77.5409 94.8904 77.7929C94.9308 78.045 94.9825 78.2979 95.0473 78.5483C95.1106 78.7969 95.1887 79.0536 95.2729 79.2838L95.2785 79.2995C95.3379 79.4618 95.2471 79.6389 95.0757 79.6951C94.9249 79.7446 94.762 79.6838 94.6847 79.5579Z" fill="#371A45"/>
<path d="M95.2329 73.0013C95.2329 73.0013 94.3331 74.664 94.1523 76.3265L95.2329 73.0013Z" fill="#C2C6D2"/>
<path d="M95.5246 73.1431C95.4215 73.3982 95.3242 73.6742 95.2397 73.944C95.1543 74.2158 95.0801 74.4898 95.0163 74.7635C94.9509 75.0373 94.9031 75.3121 94.8649 75.5841C94.8262 75.8565 94.8105 76.1262 94.8046 76.3901L94.8045 76.398C94.7969 76.7425 94.4961 77.0157 94.1324 77.0084C93.769 77.0015 93.4804 76.7164 93.4879 76.372C93.4888 76.3358 93.4935 76.2971 93.5006 76.263C93.5669 75.9483 93.6456 75.6417 93.7457 75.3461C93.8453 75.0507 93.9545 74.7617 94.0795 74.4811C94.2031 74.2002 94.336 73.9252 94.4787 73.656C94.6231 73.3853 94.7711 73.1267 94.9413 72.8598C95.0353 72.7128 95.2371 72.6656 95.3922 72.7544C95.5306 72.8336 95.5851 72.9938 95.5292 73.132L95.5246 73.1431Z" fill="#371A45"/>
<path d="M41.7741 70.1148C41.7741 70.1148 43.5376 71.8664 45.5679 72.2272C49.0668 72.8489 54.9986 70.7535 54.2207 65.9531C53.7871 63.2782 50.7928 60.0891 46.7327 60.8772C42.6726 61.6654 36.1083 65.9634 38.843 74.7964" fill="#C2C6D2"/>
<g opacity="0.4">
<path d="M54.2481 67.4256C54.2412 67.3624 54.231 67.2994 54.2207 67.2346C53.7866 64.558 50.7921 61.3698 46.733 62.1584C43.4549 62.793 38.5463 65.7173 38.2148 71.4653C37.8353 64.8674 43.2209 61.5593 46.733 60.8775C50.7921 60.0891 53.7866 63.2788 54.2207 65.9538C54.3061 66.4767 54.3113 66.9673 54.2481 67.4256Z" fill="white"/>
</g>
<path d="M42.0111 69.9006C42.844 70.3244 43.6119 70.8034 44.3934 71.1769C44.7861 71.3596 45.1907 71.5012 45.5922 71.578C46.0002 71.6558 46.4446 71.6847 46.8838 71.6799C47.7675 71.6707 48.6635 71.5181 49.5094 71.252C50.3561 70.9892 51.1599 70.604 51.8335 70.0925C52.5075 69.5826 53.0394 68.9394 53.3304 68.2091C53.6267 67.4829 53.6716 66.6604 53.5124 65.8662C53.3515 65.0821 52.9682 64.3113 52.4476 63.6465C51.9301 62.9771 51.264 62.4128 50.5132 62.0113C49.7627 61.6061 48.9154 61.3905 48.0588 61.3791C47.6295 61.3723 47.2018 61.4184 46.7725 61.5044C46.3376 61.5939 45.9047 61.7193 45.4814 61.8716C43.7865 62.4849 42.237 63.5066 41.0765 64.8197C40.4967 65.4772 40.0161 66.2089 39.6566 66.9916C39.2994 67.775 39.058 68.6067 38.9428 69.4593C38.7057 71.1674 38.9495 72.9326 39.4718 74.6216C39.5738 74.9506 39.3751 75.2958 39.0277 75.3926C38.6805 75.4893 38.3162 75.301 38.2141 74.9718L38.2137 74.9712C37.6545 73.1607 37.3767 71.2237 37.643 69.298C37.7726 68.3381 38.0463 67.39 38.4543 66.4962C38.8645 65.6029 39.4136 64.7679 40.0707 64.0232C41.3903 62.5336 43.1104 61.4019 45.0164 60.7105C45.4944 60.5383 45.9862 60.3954 46.4939 60.2909C47.0078 60.1872 47.5439 60.1287 48.0791 60.1374C49.1511 60.1515 50.2236 60.4264 51.1535 60.9193C52.0856 61.4108 52.891 62.0908 53.5191 62.891C54.1473 63.691 54.623 64.6052 54.8471 65.6144C54.9531 66.1197 54.9965 66.6244 54.9655 67.144C54.9369 67.6605 54.8243 68.1793 54.6334 68.6705C54.2552 69.6609 53.5398 70.4983 52.7126 71.1281C51.8801 71.7615 50.9325 72.2115 49.9496 72.5199C48.9632 72.8227 47.9354 72.9851 46.8898 72.987C46.3651 72.9849 45.8423 72.9415 45.3067 72.8292C44.7649 72.7123 44.2633 72.5199 43.7965 72.2901C43.3282 72.062 42.8985 71.7831 42.5174 71.4577C42.3262 71.2957 42.1495 71.1197 41.984 70.9346C41.8192 70.746 41.6687 70.5579 41.5367 70.3292C41.4469 70.1735 41.5073 69.9783 41.6715 69.8933C41.7752 69.8396 41.8954 69.8425 41.9926 69.8911L42.0111 69.9006Z" fill="#371A45"/>
<path d="M49.3785 71.5204C49.3785 71.5204 49.3785 71.5188 49.3769 71.5171C49.3751 71.5155 49.3751 71.5123 49.3717 71.5092C49.353 71.4654 49.2727 71.3035 49.1427 71.0882C48.6744 70.3157 47.4782 69.1916 46.2415 69.8773C45.3337 70.3808 45.2083 71.3748 45.3245 72.1778C45.4048 72.1972 45.4851 72.2135 45.5672 72.2281C49.0675 72.8497 54.9981 70.753 54.2204 65.9537C54.2188 65.9392 54.2154 65.9263 54.2119 65.9117C53.7064 65.7533 52.4145 65.5518 51.9018 66.5152C51.049 68.1181 52.8464 69.4349 52.9217 69.6778C52.9985 69.9206 51.0474 67.1343 49.4287 68.382C48.4863 69.1084 48.8044 70.3983 49.1427 71.0882C49.2504 71.3116 49.3444 71.4654 49.3717 71.5092" fill="white"/>
<path d="M46.8429 72.9159C46.3495 72.916 45.8811 72.8769 45.4537 72.801C45.3585 72.7842 45.2654 72.7652 45.1722 72.7427C44.9296 72.684 44.7488 72.4919 44.7147 72.257C44.5267 70.9577 44.9699 69.907 45.9304 69.3742C46.4518 69.0852 47.0305 69.0086 47.6044 69.1533C47.8182 69.2072 48.0222 69.2888 48.2144 69.3906C48.2839 68.8444 48.529 68.324 49.0402 67.9299C49.5151 67.5639 50.1882 67.3116 51.0668 67.5994C51.0287 67.1815 51.0996 66.7275 51.3521 66.2529C51.9353 65.1571 53.3059 65.0141 54.4048 65.3583C54.6097 65.4225 54.7642 65.5837 54.8118 65.7831C54.8197 65.8159 54.8255 65.8443 54.8297 65.8738C55.1265 67.7216 54.541 69.3788 53.1362 70.6666C51.4396 72.2217 48.9226 72.9158 46.8429 72.9159ZM45.9032 71.6901C46.7163 71.8005 47.7012 71.7602 48.6953 71.5513C48.6642 71.4933 48.6306 71.4282 48.5957 71.3568C48.3285 70.9266 47.8108 70.4117 47.288 70.2799C47.0279 70.2142 46.794 70.2463 46.552 70.3803C46.0261 70.6721 45.9028 71.2294 45.9032 71.6901ZM49.6908 70.8223C49.7828 70.9763 49.8578 71.1156 49.9047 71.2108C50.766 70.9024 51.5831 70.4569 52.2439 69.8621C51.1765 68.7347 50.3819 68.3986 49.8169 68.8342C49.0685 69.4109 49.5891 70.6078 49.6908 70.8223ZM53.3233 66.36C52.9904 66.36 52.627 66.4468 52.4509 66.7777C52.0212 67.5855 52.5154 68.2985 53.063 68.9105C53.5424 68.1625 53.7411 67.3177 53.6557 66.3858C53.5553 66.3709 53.4412 66.36 53.3233 66.36ZM53.6084 66.0158C53.6084 66.016 53.6085 66.0163 53.6085 66.0166C53.6086 66.0163 53.6084 66.0161 53.6084 66.0158Z" fill="#371A45"/>
<path d="M51.7691 94.7395C51.7886 87.6537 58.6437 78.0574 67.9942 78.9072C77.1255 79.7367 82.5368 90.7724 80.2578 99.2509C78.8677 104.422 71.4864 108.966 63.2027 107.14C57.3038 105.839 51.7489 102.102 51.7691 94.7395Z" fill="#EEF0F4"/>
<path d="M71.6454 70.2062C68.4582 70.2062 65.6267 68.6803 65.4467 68.5813C65.1528 68.4198 65.0528 68.0631 65.2233 67.7847C65.3938 67.5064 65.7699 67.4114 66.0638 67.5728C66.1239 67.6058 72.1226 70.8269 75.9209 67.5514C76.1721 67.3345 76.5612 67.3518 76.79 67.59C77.0188 67.828 77.0005 68.1967 76.7492 68.4134C75.1848 69.7626 73.3632 70.2062 71.6454 70.2062Z" fill="#371A45"/>
<path d="M68.8419 79.3394C63.1317 81.9558 56.755 78.4812 55.6064 71.2014C55.6064 71.1983 55.6064 71.1966 55.6047 71.1933C55.4765 70.3903 55.4151 69.5386 55.4236 68.6447C55.463 64.6373 57.6796 58.9672 61.6908 56.4977C68.9257 52.0467 75.8527 57.066 77.1242 61.5611L70.7441 67.636C69.7545 68.35 69.2162 69.5547 68.9358 70.4501C68.7292 71.1107 68.6641 71.6047 68.6641 71.6047C72.8532 72.4661 72.0943 77.8497 68.8419 79.3394Z" fill="#C2C6D2"/>
<path d="M68.8415 79.3394C63.1313 81.9558 56.7546 78.4812 55.606 71.2014C55.7343 71.8198 56.9442 76.7795 62.5981 76.0072C67.5647 75.3271 67.8639 71.7082 68.9354 70.4502C68.7288 71.1107 68.6638 71.6047 68.6638 71.6047C72.8528 72.4661 72.0939 77.8497 68.8415 79.3394Z" fill="#A8AFC1"/>
<g opacity="0.4">
<path d="M77.1242 61.561L77.1037 61.5804C74.4938 57.4578 68.013 54.0754 61.2874 58.2126C58.9905 59.6261 57.2335 62.0063 56.0781 64.579C57.0113 61.4266 58.9238 58.2011 61.6908 56.4978C68.9255 52.0467 75.8526 57.0661 77.1242 61.561Z" fill="white"/>
</g>
<path d="M70.9427 67.8828C70.6736 68.112 70.4458 68.3833 70.2543 68.6795C70.0635 68.9763 69.9077 69.2961 69.7787 69.6273C69.6517 69.9595 69.5491 70.3017 69.4717 70.6498C69.4326 70.8235 69.3996 70.9985 69.3722 71.1735C69.346 71.3441 69.3219 71.5331 69.3142 71.6808V71.6809L68.8029 70.9971C69.559 71.1515 70.3249 71.4796 70.9227 72.0217C71.5257 72.5579 71.9173 73.2812 72.0861 74.0148C72.2588 74.7521 72.23 75.5025 72.066 76.212C71.8998 76.9224 71.5944 77.5986 71.1618 78.2026C70.7296 78.8051 70.1628 79.3373 69.4808 79.7193C69.126 79.9142 68.8034 80.0419 68.4636 80.176C68.124 80.3049 67.7758 80.4148 67.4224 80.5079C66.7156 80.6954 65.9817 80.7987 65.2447 80.8231C64.5072 80.8439 63.7664 80.7779 63.045 80.6287C62.3243 80.4763 61.6244 80.2406 60.9649 79.9311C60.3071 79.6186 59.6872 79.2374 59.124 78.7945C57.9922 77.9123 57.0851 76.8011 56.4103 75.593C55.7338 74.383 55.2832 73.075 55.0297 71.745C54.9007 71.0798 54.8201 70.4084 54.7829 69.7364C54.7614 69.4006 54.7559 69.0645 54.7554 68.7289C54.7563 68.3906 54.7704 68.0481 54.7988 67.7114C54.9107 66.3605 55.2006 65.0403 55.627 63.7616C56.0542 62.4835 56.6174 61.2437 57.3341 60.076C58.0511 58.91 58.9351 57.8171 60.017 56.8906C60.2859 56.6581 60.5724 56.4417 60.8669 56.2344C61.0151 56.1321 61.1691 56.0354 61.3204 55.9371C61.4736 55.8476 61.6229 55.7525 61.7797 55.6676C62.3986 55.3176 63.0513 55.0133 63.7323 54.7683C65.0929 54.2787 66.5762 54.047 68.042 54.1359C69.5089 54.2184 70.9442 54.6159 72.2332 55.2521C72.879 55.5691 73.4889 55.9474 74.0508 56.3797C74.6174 56.8072 75.128 57.2972 75.5878 57.8237C76.0421 58.3553 76.4431 58.928 76.7618 59.5417C77.0803 60.1539 77.3253 60.805 77.441 61.48C77.4703 61.6502 77.3484 61.8104 77.1688 61.838C77.0131 61.8621 76.8653 61.7784 76.8096 61.6449L76.808 61.6407C76.3264 60.4866 75.5885 59.4513 74.6982 58.5618C73.8118 57.6687 72.7687 56.9214 71.6284 56.3667C70.4852 55.8173 69.2328 55.4863 67.9653 55.4275C66.697 55.3609 65.4239 55.5798 64.2287 56.0098C63.6301 56.224 63.0501 56.4929 62.4942 56.8065C62.3536 56.8821 62.2189 56.9681 62.0807 57.0484C61.9503 57.1336 61.8185 57.2154 61.6904 57.3037C61.436 57.4831 61.1862 57.6702 60.9499 57.8744C59.9978 58.6852 59.1964 59.6735 58.5303 60.7416C57.8645 61.8112 57.3309 62.9637 56.9249 64.1538C56.52 65.3437 56.2401 66.5763 56.1341 67.8103C55.9571 70.2744 56.3618 72.8438 57.5692 75.0122C58.1726 76.0927 58.9749 77.0704 59.9587 77.8368C60.4484 78.222 60.9839 78.5502 61.5486 78.8189C62.115 79.0845 62.7133 79.2857 63.328 79.4161C63.9433 79.5431 64.5743 79.5994 65.2044 79.5817C65.8343 79.5605 66.4634 79.4729 67.0743 79.3105C67.3795 79.2301 67.6814 79.1349 67.977 79.023C68.2683 78.9089 68.5771 78.7819 68.8137 78.6501C69.311 78.3719 69.7421 77.9723 70.0779 77.5041C70.748 76.5708 71.0541 75.35 70.8065 74.284C70.6827 73.754 70.4171 73.2757 70.0194 72.9217C69.625 72.5639 69.102 72.3298 68.5246 72.2105L68.522 72.2099C68.1892 72.1411 67.9719 71.8407 68.0135 71.5267V71.5266C68.0604 71.3002 68.113 71.1184 68.1726 70.9202C68.2323 70.7266 68.2982 70.5358 68.3701 70.347C68.5137 69.9693 68.6842 69.6003 68.883 69.2434C69.0839 68.8873 69.3158 68.5434 69.5893 68.2261C69.8634 67.9096 70.1818 67.6212 70.5453 67.3889C70.6955 67.293 70.8996 67.3306 71.001 67.4729C71.0936 67.6032 71.0683 67.7761 70.9484 67.8781L70.9427 67.8828Z" fill="#371A45"/>
<path d="M68.3717 75.4096C68.2565 75.084 68.1729 74.7765 68.1003 74.4528C68.0295 74.1318 67.9767 73.8056 67.9421 73.4745C67.9055 73.1436 67.8963 72.8069 67.9071 72.4663C67.9154 72.1254 67.9647 71.7801 68.0334 71.4329C68.1003 71.0943 68.4441 70.8714 68.8015 70.9347C69.1588 70.9979 69.3943 71.3238 69.3275 71.6622C69.321 71.6946 69.3121 71.7258 69.3009 71.7561L69.2937 71.7748C69.1951 72.0338 69.1036 72.3032 69.0469 72.587C68.9881 72.8696 68.9437 73.1606 68.9252 73.4568C68.9044 73.7525 68.8998 74.0529 68.9129 74.3538C68.926 74.652 68.9567 74.9632 69.0038 75.2456L69.0066 75.2624C69.0349 75.4319 68.9129 75.591 68.7339 75.6179C68.5734 75.642 68.4215 75.551 68.3717 75.4096Z" fill="#371A45"/>
<path d="M75.5798 70.2852C75.7855 69.9383 75.9715 69.5533 76.067 69.1826C76.1711 68.8094 76.1901 68.441 76.1301 68.0847C76.0739 67.7637 75.9027 67.4836 75.6298 67.214C75.3586 66.9508 74.9929 66.7103 74.6273 66.4972L74.6057 66.4846C74.4882 66.416 74.4516 66.2704 74.5239 66.1592C74.5742 66.0816 74.6647 66.0413 74.7543 66.0472C75.0271 66.0656 75.2646 66.1276 75.5115 66.212C75.7526 66.3011 75.9907 66.4157 76.2096 66.5711C76.43 66.7242 76.6291 66.9235 76.7888 67.1561C76.9552 67.3849 77.0499 67.6701 77.0986 67.9405C77.1793 68.4603 77.0971 68.9983 76.8803 69.4572C76.6594 69.9191 76.3551 70.3093 75.9282 70.6139C75.8191 70.6917 75.6642 70.671 75.582 70.5677C75.5212 70.4911 75.5174 70.3908 75.5638 70.3123L75.5798 70.2852Z" fill="#371A45"/>
<path d="M58.3454 59.0671C58.6299 58.9552 58.8837 58.8766 59.1551 58.7967C59.4225 58.7184 59.6929 58.6531 59.9638 58.5913C60.5073 58.4735 61.0586 58.3886 61.6147 58.3425C62.7251 58.2526 63.8645 58.31 64.9496 58.6061C65.4907 58.7532 66.0185 58.9498 66.5126 59.207C67.0037 59.4686 67.4646 59.7772 67.8826 60.1307C68.7108 60.8462 69.3594 61.7186 69.8518 62.6468C69.9128 62.7617 69.864 62.9017 69.7425 62.9595C69.6242 63.0158 69.4807 62.9731 69.4171 62.8643L69.4159 62.8621C68.9097 61.9925 68.2657 61.1992 67.4797 60.5701C67.083 60.2601 66.652 59.995 66.1982 59.7739C65.7414 59.5572 65.2573 59.3973 64.7621 59.2816C63.7701 59.0489 62.7266 59.0328 61.7055 59.1529C61.1943 59.2138 60.6868 59.311 60.1883 59.4381C59.9399 59.5046 59.6923 59.5738 59.4499 59.6547C59.2117 59.7337 58.9587 59.8246 58.7507 59.9156L58.7402 59.9203C58.4936 60.0282 58.2014 59.9263 58.0875 59.6927C57.9735 59.4591 58.0811 59.1823 58.3278 59.0744C58.333 59.0721 58.34 59.0693 58.3454 59.0671Z" fill="#371A45"/>
<path d="M66.7785 75.0157C66.4684 75.3361 66.1435 75.5977 65.7908 75.8473C65.4405 76.0947 65.0683 76.3152 64.6782 76.5058C63.8993 76.8891 63.0441 77.1504 62.1607 77.2525C61.9403 77.2825 61.718 77.2918 61.4954 77.3047C61.2731 77.3047 61.0496 77.3114 60.8275 77.294C60.6042 77.2868 60.3838 77.2567 60.1621 77.2319C60.0518 77.2176 59.943 77.1956 59.833 77.1776C59.7232 77.1591 59.6134 77.1405 59.5063 77.113C58.6393 76.9203 57.8091 76.6027 57.0362 76.2011C56.7981 76.0774 56.7109 75.7942 56.8414 75.5686C56.9719 75.3429 57.2708 75.2603 57.5091 75.3841C57.5155 75.3875 57.5235 75.3918 57.5298 75.3954C58.2172 75.795 58.9518 76.1146 59.7193 76.3234C59.8144 76.3529 59.9116 76.3737 60.0087 76.3945C60.1059 76.415 60.2026 76.4399 60.3004 76.4571C60.4967 76.4875 60.6929 76.5248 60.8915 76.5395C61.0892 76.5648 61.2885 76.5672 61.4878 76.5771C61.687 76.5741 61.887 76.5757 62.0859 76.5575C62.8831 76.5026 63.6721 76.3032 64.4086 75.9827C64.7775 75.8236 65.1337 75.6348 65.4717 75.4195C65.8071 75.2071 66.1394 74.9607 66.4136 74.7035L66.4247 74.6932C66.5212 74.6029 66.6765 74.6037 66.7719 74.6949C66.8644 74.7835 66.8661 74.9249 66.7785 75.0157Z" fill="#371A45"/>
<path d="M66.3117 69.2801C65.3855 69.4228 64.4675 69.5028 63.5387 69.5493C62.6114 69.5934 61.6807 69.5931 60.7488 69.5472C59.8169 69.4964 58.8859 69.3842 57.9604 69.2146C57.0365 69.0321 56.1248 68.7672 55.2393 68.4111C54.9892 68.3105 54.8725 68.037 54.9787 67.8001C55.0849 67.5632 55.3736 67.4528 55.6237 67.5534C55.6296 67.5558 55.6355 67.5582 55.6412 67.5609L55.6586 67.5686C56.4489 67.9254 57.2851 68.2102 58.151 68.42C59.0201 68.6171 59.908 68.7635 60.8069 68.8506C61.7062 68.9334 62.6129 68.9724 63.521 68.9674C64.4269 68.9609 65.3435 68.9189 66.2356 68.8201L66.2436 68.8191C66.3785 68.8042 66.5006 68.8955 66.5163 69.0233C66.5317 69.1474 66.4405 69.26 66.3117 69.2801Z" fill="#371A45"/>
</g>
<defs>
<clipPath id="clip0_308_549">
<rect width="142" height="142" rx="71" fill="white"/>
</clipPath>
</defs>
</svg>
