<svg width="397" height="381" viewBox="0 0 397 381" fill="none" xmlns="http://www.w3.org/2000/svg">
<path d="M397 302.094H0V302.292H397V302.094Z" fill="#EBEBEB"/>
<path d="M357.221 314.81H330.922V315.008H357.221V314.81Z" fill="#EBEBEB"/>
<path d="M262.989 316.954H256.086V317.152H262.989V316.954Z" fill="#EBEBEB"/>
<path d="M330.128 307.474H314.889V307.672H330.128V307.474Z" fill="#EBEBEB"/>
<path d="M75.9476 308.802H41.6523V308.999H75.9476V308.802Z" fill="#EBEBEB"/>
<path d="M88.046 308.802H83.0176V308.999H88.046V308.802Z" fill="#EBEBEB"/>
<path d="M178.767 312.138H104.388V312.335H178.767V312.138Z" fill="#EBEBEB"/>
<path d="M188.189 266.862H34.8686C32.3699 266.862 30.3364 264.839 30.3364 262.353V47.9214C30.3364 45.4353 32.3699 43.4121 34.8686 43.4121H188.189C190.687 43.4121 192.721 45.4353 192.721 47.9214V262.353C192.721 264.839 190.687 266.862 188.189 266.862ZM34.8686 43.6104C32.4786 43.6104 30.5349 45.5443 30.5349 47.9222V262.354C30.5349 264.731 32.4786 266.665 34.8686 266.665H188.189C190.578 266.665 192.522 264.731 192.522 262.354V47.9214C192.522 45.5443 190.578 43.6096 188.189 43.6096L34.8686 43.6104Z" fill="#EBEBEB"/>
<path d="M359.928 266.862H206.609C204.11 266.862 202.077 264.839 202.077 262.353V47.9214C202.077 45.4353 204.111 43.4121 206.609 43.4121H359.928C362.428 43.4121 364.46 45.4353 364.46 47.9214V262.353C364.461 264.839 362.428 266.862 359.928 266.862ZM206.609 43.6104C204.219 43.6104 202.276 45.5443 202.276 47.9222V262.354C202.276 264.731 204.219 266.665 206.609 266.665H359.928C362.318 266.665 364.262 264.731 364.262 262.354V47.9214C364.262 45.5443 362.318 43.6096 359.928 43.6096L206.609 43.6104Z" fill="#EBEBEB"/>
<path d="M334.499 89.8404H330.341V176.879H334.499V89.8404Z" fill="#E0E0E0"/>
<path d="M253.002 176.879H332.099V89.8408L253.002 89.8408V176.879Z" fill="#E0E0E0"/>
<path d="M250.477 176.879H332.514V89.8408L250.477 89.8408V176.879Z" fill="#F0F0F0"/>
<path d="M253.947 172.879H329.174V92.6161L253.947 92.6161V172.879Z" fill="white"/>
<path d="M253.947 172.879H256.122V92.6161H253.947V172.879Z" fill="#E0E0E0"/>
<path d="M255.89 150.334V152.499H329.367V150.334H255.89Z" fill="#E0E0E0"/>
<path d="M253.947 150.334H330.341V146.7H253.947V150.334Z" fill="#F0F0F0"/>
<path d="M177.014 144.628H52.7241V301.222H177.014V144.628Z" fill="#F0F0F0"/>
<path d="M172.62 150.335H57.1172V183.821H172.62V150.335Z" fill="#E0E0E0"/>
<path d="M63.6788 155.756H57.1172V183.821H63.6788V155.756Z" fill="#EBEBEB"/>
<path d="M95.4049 155.756H88.8433V183.821H95.4049V155.756Z" fill="#EBEBEB"/>
<path d="M131.42 155.065L124.954 156.174L129.743 183.832L136.21 182.723L131.42 155.065Z" fill="#EBEBEB"/>
<path d="M71.8087 159.455H65.2471V183.821H71.8087V159.455Z" fill="#EBEBEB"/>
<path d="M86.8897 159.455H80.3281V183.821H86.8897V159.455Z" fill="#EBEBEB"/>
<path d="M124.957 159.455H118.395V183.821H124.957V159.455Z" fill="#EBEBEB"/>
<path d="M104.022 158.622L97.6167 160.038L102.928 183.824L109.334 182.408L104.022 158.622Z" fill="#EBEBEB"/>
<path d="M77.4815 154.364H74.2007V183.822H77.4815V154.364Z" fill="#EBEBEB"/>
<path d="M116.509 154.364H113.229V183.822H116.509V154.364Z" fill="#EBEBEB"/>
<path d="M57.1164 222.609H172.62V189.123H57.1164V222.609Z" fill="#E0E0E0"/>
<path d="M166.058 222.609H172.62V194.544H166.058V222.609Z" fill="#EBEBEB"/>
<path d="M134.331 222.609H140.893V194.544H134.331V222.609Z" fill="#EBEBEB"/>
<path d="M93.5125 221.499L99.979 222.607L104.769 194.95L98.3021 193.841L93.5125 221.499Z" fill="#EBEBEB"/>
<path d="M157.928 222.609H164.49V198.243H157.928V222.609Z" fill="#EBEBEB"/>
<path d="M142.847 222.609H149.409V198.243H142.847V222.609Z" fill="#EBEBEB"/>
<path d="M104.781 222.609H111.342V198.243H104.781V222.609Z" fill="#EBEBEB"/>
<path d="M120.398 221.193L126.803 222.609L132.115 198.823L125.71 197.407L120.398 221.193Z" fill="#EBEBEB"/>
<path d="M152.254 222.609H155.535V193.151H152.254V222.609Z" fill="#EBEBEB"/>
<path d="M113.227 222.609H116.508V193.151H113.227V222.609Z" fill="#EBEBEB"/>
<path d="M63.6788 194.545H57.1172V222.609H63.6788V194.545Z" fill="#EBEBEB"/>
<path d="M71.8087 198.243H65.2471V222.609H71.8087V198.243Z" fill="#EBEBEB"/>
<path d="M86.8897 198.243H80.3281V222.609H86.8897V198.243Z" fill="#EBEBEB"/>
<path d="M77.4815 193.151H74.2007V222.609H77.4815V193.151Z" fill="#EBEBEB"/>
<path d="M172.621 227.911H57.1177V261.397H172.621V227.911Z" fill="#E0E0E0"/>
<path d="M129.973 233.332H123.412V261.397H129.973V233.332Z" fill="#EBEBEB"/>
<path d="M165.987 232.644L159.521 233.752L164.31 261.41L170.776 260.301L165.987 232.644Z" fill="#EBEBEB"/>
<path d="M106.378 237.031H99.8159V261.397H106.378V237.031Z" fill="#EBEBEB"/>
<path d="M121.459 237.031H114.897V261.397H121.459V237.031Z" fill="#EBEBEB"/>
<path d="M159.525 237.031H152.964V261.397H159.525V237.031Z" fill="#EBEBEB"/>
<path d="M138.591 236.198L132.185 237.614L137.497 261.4L143.902 259.984L138.591 236.198Z" fill="#EBEBEB"/>
<path d="M112.05 231.938H108.77V261.397H112.05V231.938Z" fill="#EBEBEB"/>
<path d="M151.077 231.938H147.796V261.397H151.077V231.938Z" fill="#EBEBEB"/>
<path d="M90.4987 232.641L84.0322 233.75L88.8217 261.407L95.2882 260.299L90.4987 232.641Z" fill="#EBEBEB"/>
<path d="M84.0392 237.031H77.4775V261.397H84.0392V237.031Z" fill="#EBEBEB"/>
<path d="M63.1027 236.197L56.6973 237.613L62.009 261.399L68.4145 259.983L63.1027 236.197Z" fill="#EBEBEB"/>
<path d="M75.5914 231.938H72.3105V261.397H75.5914V231.938Z" fill="#EBEBEB"/>
<path d="M252.928 207.751H322.97C330.567 207.751 336.726 213.879 336.726 221.438V275.856H239.172V221.438C239.172 213.879 245.331 207.751 252.928 207.751Z" fill="#E6E6E6"/>
<path d="M218.463 248.085H230.997C235.512 248.085 239.171 251.726 239.171 256.218V301.222H210.289V256.218C210.289 251.726 213.949 248.085 218.463 248.085Z" fill="#E0E0E0"/>
<path d="M218.463 248.085H218.728C223.243 248.085 226.902 251.726 226.902 256.218V301.222H210.289V256.218C210.289 251.726 213.949 248.085 218.463 248.085Z" fill="#EBEBEB"/>
<path d="M326.524 280.55H230.4V301.222H326.524V280.55Z" fill="#E6E6E6"/>
<path d="M230.264 261.643H322.966C327.556 261.643 331.277 265.345 331.277 269.912V275.063C331.277 279.63 327.556 283.332 322.966 283.332H230.264C225.674 283.332 221.953 279.63 221.953 275.063V269.912C221.953 265.345 225.674 261.643 230.264 261.643Z" fill="#F5F5F5"/>
<path d="M311.316 261.643H322.814C327.404 261.643 331.125 265.345 331.125 269.912V275.063C331.125 279.63 327.404 283.332 322.814 283.332H311.316C306.726 283.332 303.005 279.63 303.005 275.063V269.912C303.005 265.345 306.726 261.643 311.316 261.643Z" fill="#E0E0E0"/>
<path d="M324.055 248.085H336.589C341.103 248.085 344.763 251.726 344.763 256.218V301.222H315.88V256.218C315.88 251.726 319.54 248.085 324.055 248.085Z" fill="#E0E0E0"/>
<path d="M324.054 248.085H324.319C328.834 248.085 332.493 251.726 332.493 256.218V301.222H315.879V256.218C315.879 251.726 319.54 248.085 324.054 248.085Z" fill="#F0F0F0"/>
<path d="M119.508 126.393C129.703 124.747 136.627 115.189 134.972 105.045C133.318 94.9005 123.711 88.0116 113.516 89.658C103.32 91.3043 96.3965 100.862 98.0512 111.007C99.7059 121.151 109.312 128.04 119.508 126.393Z" fill="#E0E0E0"/>
<path d="M119.059 123.643C127.728 122.243 133.615 114.116 132.208 105.491C130.801 96.8659 122.633 91.0085 113.964 92.4084C105.296 93.8082 99.4086 101.935 100.815 110.56C102.222 119.185 110.39 125.043 119.059 123.643Z" fill="#F0F0F0"/>
<path d="M115.759 118.879V107.819L108.392 111.967" fill="#F0F0F0"/>
<path d="M115.759 118.879V107.819L108.392 111.967" stroke="#E0E0E0" stroke-width="2" stroke-miterlimit="10" stroke-linecap="round" stroke-linejoin="round"/>
<path d="M198.5 337.773C283.523 337.773 352.448 333.768 352.448 328.828C352.448 323.888 283.523 319.883 198.5 319.883C113.477 319.883 44.5522 323.888 44.5522 328.828C44.5522 333.768 113.477 337.773 198.5 337.773Z" fill="#F5F5F5"/>
<path d="M95.2772 303.267C95.2653 303.267 95.2534 303.266 95.2407 303.264C95.0811 303.245 94.9675 303.099 94.9874 302.941C94.9929 302.888 95.0311 302.322 95.0755 301.344C95.1517 299.882 95.2732 296.82 95.2296 292.722C95.2335 292.648 95.2303 292.599 95.228 292.546C95.1724 287.968 94.9262 283.462 94.4959 279.147C94.0965 275.122 93.5264 271.215 92.8007 267.531C92.1369 264.198 91.3429 261.039 90.4417 258.142C90.4386 258.134 90.4354 258.125 90.433 258.117H90.4322C90.2901 257.662 90.1416 257.208 89.9931 256.754C89.8685 256.385 89.743 256.014 89.6112 255.643C89.273 254.682 88.9673 253.761 88.7013 252.908C88.1082 251.03 87.5865 249.154 87.149 247.334C86.8814 246.241 86.6448 245.165 86.4455 244.139C85.6484 240.125 85.1966 236.146 85.1029 232.312C85.0632 230.749 85.0862 229.189 85.1704 227.675C85.2633 226.025 85.4356 224.43 85.6809 222.935C85.7016 222.823 85.7174 222.719 85.7325 222.62L85.7579 222.473C85.7595 222.402 85.7857 222.333 85.8389 222.278C85.9501 222.161 86.1343 222.157 86.251 222.268C86.3272 222.341 86.3558 222.455 86.3344 222.556L86.3082 222.707C86.2923 222.812 86.2756 222.92 86.255 223.033C86.0128 224.503 85.8437 226.077 85.7508 227.707C85.6674 229.205 85.6452 230.75 85.6841 232.297C85.7778 236.099 86.2256 240.045 87.0164 244.028C87.2141 245.046 87.4492 246.113 87.7143 247.197C88.1487 249.006 88.6671 250.868 89.2563 252.735C89.5207 253.584 89.824 254.497 90.1599 255.451C90.2925 255.824 90.4187 256.199 90.545 256.572C90.6942 257.029 90.8427 257.483 90.9856 257.937C90.9888 257.946 90.992 257.955 90.9944 257.963C91.9027 260.881 92.7023 264.062 93.37 267.418C94.0997 271.12 94.6722 275.046 95.0731 279.088C95.5051 283.42 95.752 287.942 95.8076 292.528C95.8108 292.593 95.8131 292.659 95.8092 292.734C95.8544 296.828 95.7322 299.904 95.6551 301.371C95.6099 302.366 95.5694 302.959 95.563 303.012C95.548 303.159 95.4217 303.267 95.2772 303.267Z" fill="#00CBCC"/>
<path d="M86.0352 222.575C86.0407 222.562 86.0407 222.562 86.0471 222.561C86.0526 222.549 86.0526 222.549 86.059 222.548C86.5473 222.078 87.0904 221.669 87.6676 221.323C88.302 220.956 88.9849 220.657 89.6987 220.459" fill="#00CBCC"/>
<path d="M86.0342 222.863C85.9953 222.863 85.9564 222.855 85.9183 222.839C85.7714 222.775 85.7031 222.606 85.7674 222.46C85.7817 222.428 85.8023 222.398 85.8285 222.371C85.8373 222.361 85.8468 222.351 85.8571 222.342L85.8563 222.341C86.3486 221.867 86.9076 221.442 87.5174 221.076C88.205 220.678 88.9108 220.378 89.6199 220.181C89.7739 220.138 89.9359 220.228 89.9788 220.382C90.0216 220.536 89.9311 220.697 89.7763 220.739C89.1149 220.924 88.4551 221.204 87.8143 221.575C87.2458 221.916 86.7218 222.315 86.2613 222.758C86.2589 222.76 86.2565 222.762 86.2549 222.764C86.2001 222.827 86.1183 222.863 86.0342 222.863Z" fill="#00CBCC"/>
<path d="M85.4627 227.982C85.3968 227.982 85.3317 227.961 85.2769 227.915L83.3141 226.296C83.1903 226.193 83.1736 226.01 83.276 225.887C83.3785 225.765 83.5619 225.746 83.6865 225.849L85.6493 227.469C85.7732 227.571 85.7906 227.754 85.6874 227.877C85.6294 227.947 85.5469 227.982 85.4627 227.982Z" fill="#00CBCC"/>
<path d="M88.9804 253.144C88.8247 253.144 88.6953 252.998 88.689 252.842V252.836C88.7707 252.257 88.9033 251.745 89.0876 251.256C89.3416 250.538 89.7061 249.857 90.1682 249.235C90.5048 248.78 90.9003 248.355 91.3433 247.972C91.464 247.867 91.649 247.879 91.7546 248.001C91.8602 248.122 91.8475 248.305 91.7252 248.41C91.3147 248.765 90.9487 249.158 90.6366 249.58C90.2079 250.155 89.8712 250.786 89.6346 251.454C89.4631 251.91 89.3408 252.383 89.2678 252.866C89.2749 253.027 89.1519 253.137 88.9907 253.144C88.9875 253.144 88.9843 253.144 88.9804 253.144Z" fill="#00CBCC"/>
<path d="M90.7213 258.343C90.6093 258.343 90.5029 258.279 90.4545 258.17C89.9082 256.951 88.822 255.974 87.5485 255.557C87.396 255.507 87.3126 255.343 87.3627 255.191C87.4127 255.038 87.5778 254.955 87.7311 255.006C89.1587 255.473 90.3759 256.568 90.9873 257.934C91.0532 258.08 90.9865 258.252 90.8396 258.317C90.8015 258.335 90.761 258.343 90.7213 258.343Z" fill="#00CBCC"/>
<path d="M95.16 284.158C94.4955 283.428 93.8904 280.562 93.5649 279.023C93.4871 278.654 93.4212 278.341 93.3672 278.114" fill="#00CBCC"/>
<path d="M95.16 284.448C95.0806 284.448 95.0012 284.416 94.944 284.353C94.2818 283.626 93.7379 281.252 93.2798 279.084C93.2028 278.718 93.1369 278.406 93.0837 278.182C93.0464 278.026 93.1432 277.87 93.2996 277.833C93.4553 277.792 93.6133 277.892 93.6506 278.048C93.7054 278.275 93.7721 278.592 93.8499 278.963C94.1468 280.369 94.7646 283.292 95.376 283.963C95.4839 284.082 95.4752 284.266 95.3553 284.372C95.3005 284.424 95.2299 284.448 95.16 284.448Z" fill="#00CBCC"/>
<path d="M87.4368 247.583C87.2852 247.583 87.1573 247.467 87.1462 247.314C87.1113 246.84 86.3657 235.662 92.5645 231.191C92.6955 231.097 92.8773 231.126 92.9718 231.256C93.0663 231.385 93.0377 231.567 92.9067 231.661C86.9715 235.941 87.7195 247.159 87.7274 247.272C87.7393 247.432 87.6187 247.571 87.4575 247.583C87.4511 247.583 87.444 247.583 87.4368 247.583Z" fill="#00CBCC"/>
<path d="M87.9521 271.898C87.2407 274.605 93.2489 279.437 93.2489 279.437C93.2489 279.437 100.865 278.15 101.576 275.443C102.288 272.736 100.155 268.451 96.3931 267.472C92.6311 266.493 88.6635 269.192 87.9521 271.898Z" fill="#00CBCC"/>
<path d="M80.104 239.767C80.9631 242.571 86.5298 244.347 86.5298 244.347C86.5298 244.347 90.1552 239.784 89.2961 236.979C88.437 234.175 85.2713 231.182 82.7329 231.951C80.1945 232.721 79.2449 236.963 80.104 239.767Z" fill="#00CBCC"/>
<path d="M94.944 248.222C94.2405 248.791 93.5155 249.371 92.6517 249.646C91.7878 249.92 90.7429 249.821 90.1188 249.167C89.3455 248.356 89.4852 247.041 89.9044 246.004C90.7342 243.948 93.9737 240.381 96.6201 241.249C100.442 242.5 96.5661 246.911 94.944 248.222Z" fill="#00CBCC"/>
<path d="M87.478 253.692C87.998 254.278 88.5554 255.022 88.318 255.767C88.1076 256.429 87.3168 256.762 86.6236 256.688C85.9304 256.615 85.3135 256.235 84.7236 255.864C83.3563 255.006 80.5519 253.201 82.209 251.326C83.9312 249.379 86.383 252.456 87.478 253.692Z" fill="#00CBCC"/>
<path d="M97.4496 227.607C98.0205 227.645 98.612 227.998 98.7335 228.553C98.8757 229.204 98.3548 229.8 97.8443 230.229C96.5715 231.296 92.7317 234.196 91.732 231.604C90.7872 229.155 95.6909 227.491 97.4496 227.607Z" fill="#00CBCC"/>
<path d="M89.7694 219.273C90.5896 219.315 91.3915 218.984 92.2133 219.001C93.0343 219.016 93.972 219.633 93.8251 220.437C93.6894 221.18 92.781 221.466 92.0259 221.547C90.7381 221.684 89.4319 221.651 88.152 221.45C87.855 221.403 87.5303 221.33 87.3508 221.09C86.9983 220.619 87.4962 219.946 88.0527 219.75C88.6085 219.553 89.2477 219.583 89.7463 219.269L89.7694 219.273Z" fill="#00CBCC"/>
<path d="M82.0319 225.215C81.2125 225.274 80.4034 224.961 79.5824 224.994C78.7614 225.028 77.8372 225.664 78.0016 226.465C78.1532 227.205 79.0679 227.472 79.8246 227.536C81.1157 227.646 82.4202 227.585 83.6954 227.356C83.9915 227.303 84.3139 227.223 84.4886 226.979C84.8308 226.501 84.3179 225.838 83.7581 225.654C83.1975 225.47 82.5599 225.513 82.0542 225.21L82.0319 225.215Z" fill="#00CBCC"/>
<path d="M85.8082 223.659C85.801 223.659 85.7939 223.659 85.7875 223.658C85.6271 223.647 85.5064 223.508 85.5176 223.348C85.6303 221.76 85.458 220.235 85.1571 220.148C85.0022 220.103 84.9133 219.942 84.9586 219.788C85.0038 219.635 85.1634 219.545 85.3198 219.591C86.248 219.859 86.1734 222.336 86.0988 223.389C86.0876 223.542 85.9598 223.659 85.8082 223.659Z" fill="#00CBCC"/>
<path d="M86.3496 219.934C85.8058 218.849 85.2182 217.714 84.2019 217.045C83.1856 216.376 81.6055 216.391 80.9322 217.401C80.1787 218.531 81.0545 220.159 82.3082 220.689C83.5619 221.219 84.9943 220.98 86.3338 220.733C86.3362 220.533 86.3377 220.334 86.3401 220.134L86.3496 219.934Z" fill="#00CBCC"/>
<path d="M96.1766 313.042C96.1591 313.042 96.1408 313.041 96.1226 313.037C95.9646 313.007 95.8598 312.856 95.8899 312.699C97.8424 302.328 103.774 297.804 103.834 297.759C103.963 297.663 104.145 297.69 104.242 297.817C104.338 297.945 104.313 298.127 104.184 298.223C104.126 298.266 98.372 302.671 96.4632 312.804C96.4362 312.945 96.3139 313.042 96.1766 313.042Z" fill="#00CBCC"/>
<path d="M102.309 299.917C102.19 299.917 102.078 299.844 102.035 299.728C101.979 299.577 102.055 299.411 102.206 299.355C102.254 299.338 103.39 298.927 105.272 299.246C105.431 299.273 105.537 299.423 105.511 299.581C105.484 299.739 105.333 299.847 105.175 299.818C103.461 299.529 102.419 299.896 102.409 299.9C102.375 299.912 102.342 299.917 102.309 299.917Z" fill="#00CBCC"/>
<path d="M100.992 301.54C100.838 301.54 100.71 301.42 100.702 301.264C100.5 297.311 102.607 294.223 102.697 294.093C102.788 293.962 102.969 293.928 103.102 294.02C103.234 294.111 103.268 294.291 103.176 294.423C103.156 294.454 101.092 297.484 101.284 301.235C101.292 301.394 101.168 301.531 101.007 301.539C101.003 301.54 100.998 301.54 100.992 301.54Z" fill="#00CBCC"/>
<path d="M98.9049 304.931C98.8311 304.931 98.758 304.904 98.7016 304.848C98.5865 304.737 98.5841 304.553 98.6969 304.438C98.7651 304.368 100.402 302.738 102.73 303.46C102.883 303.509 102.969 303.671 102.921 303.824C102.873 303.977 102.71 304.061 102.556 304.014C100.566 303.394 99.1288 304.828 99.1145 304.844C99.0565 304.902 98.9803 304.931 98.9049 304.931Z" fill="#00CBCC"/>
<path d="M97.8368 307.282C97.7281 307.282 97.6241 307.22 97.574 307.116C97.5343 307.034 96.6117 305.066 96.9555 302.206C96.9746 302.047 97.1159 301.931 97.2795 301.953C97.4391 301.972 97.5534 302.116 97.5343 302.275C97.2112 304.959 98.0917 306.849 98.1005 306.868C98.1695 307.013 98.1068 307.185 97.9623 307.254C97.9218 307.272 97.8789 307.282 97.8368 307.282Z" fill="#00CBCC"/>
<path d="M96.7759 309.629C96.8052 309.674 96.5599 309.895 97.3944 309.949C99.4501 310.081 103.077 310.041 104.388 308.306C106.26 305.83 101.777 305.948 102.173 304.566C102.568 303.185 107.425 304.444 108.308 302.479C109.191 300.514 105.694 300.814 105.827 299.796C105.959 298.776 109.679 300.195 110.83 298.117C111.98 296.038 108.799 297.086 109.294 296.225C109.79 295.364 113.763 291.829 112.087 290.977C110.409 290.124 106.685 293.825 105.433 294.199C104.18 294.574 103.777 290.842 102.152 292.046C100.527 293.25 101.784 298.9 99.8645 299.55C98.4353 300.033 99.1642 298.038 97.3841 298.07C94.9647 298.114 94.4018 305.977 96.7759 309.629Z" fill="#00CBCC"/>
<g opacity="0.3">
<path d="M96.7759 309.629C96.8052 309.674 96.5599 309.895 97.3944 309.949C99.4501 310.081 103.077 310.041 104.388 308.306C106.26 305.83 101.777 305.948 102.173 304.566C102.568 303.185 107.425 304.444 108.308 302.479C109.191 300.514 105.694 300.814 105.827 299.796C105.959 298.776 109.679 300.195 110.83 298.117C111.98 296.038 108.799 297.086 109.294 296.225C109.79 295.364 113.763 291.829 112.087 290.977C110.409 290.124 106.685 293.825 105.433 294.199C104.18 294.574 103.777 290.842 102.152 292.046C100.527 293.25 101.784 298.9 99.8645 299.55C98.4353 300.033 99.1642 298.038 97.3841 298.07C94.9647 298.114 94.4018 305.977 96.7759 309.629Z" fill="white"/>
</g>
<path d="M95.9522 313.295C95.8228 313.295 95.7053 313.209 95.6712 313.079C93.3868 304.452 87.408 299.027 87.3477 298.973C87.2278 298.866 87.2182 298.682 87.3254 298.563C87.4334 298.444 87.6176 298.434 87.7375 298.541C87.7987 298.596 93.9053 304.13 96.2349 312.931C96.2762 313.086 96.1833 313.244 96.0277 313.285C96.0023 313.293 95.9776 313.295 95.9522 313.295Z" fill="#00CBCC"/>
<path d="M90.8636 303.15C90.8445 303.15 90.8255 303.148 90.8056 303.144C90.7858 303.14 90.7643 303.133 90.7437 303.125L90.7079 303.111C89.6877 302.736 88.557 302.567 87.5256 302.632C87.3684 302.643 87.2263 302.52 87.2159 302.361C87.2056 302.201 87.3279 302.064 87.4883 302.053C88.5991 301.985 89.8147 302.166 90.9096 302.568C90.9176 302.571 90.9327 302.576 90.9493 302.583C91.0907 302.627 91.1788 302.77 91.1494 302.917C91.1216 303.055 90.9994 303.15 90.8636 303.15ZM90.9501 302.583C90.9739 302.593 91.0001 302.604 91.0105 302.61C90.9922 302.599 90.9716 302.59 90.9501 302.583Z" fill="#00CBCC"/>
<path d="M92.0306 304.567C92.0258 304.567 92.0211 304.567 92.0163 304.566C91.8551 304.559 91.732 304.423 91.7392 304.263C91.9012 300.959 90.0758 298.314 90.0575 298.287C89.9654 298.156 89.9972 297.975 90.1298 297.884C90.2608 297.793 90.4434 297.824 90.5355 297.955C90.6157 298.069 92.4943 300.783 92.322 304.291C92.314 304.446 92.1854 304.567 92.0306 304.567Z" fill="#00CBCC"/>
<path d="M93.2527 306.462C93.1821 306.462 93.1106 306.437 93.055 306.386C93.0042 306.339 91.7838 305.243 90.041 305.782C89.887 305.831 89.7242 305.743 89.6758 305.591C89.6281 305.439 89.7139 305.276 89.8679 305.228C91.9402 304.585 93.3917 305.905 93.4528 305.961C93.5703 306.071 93.5767 306.253 93.4671 306.371C93.4091 306.431 93.3313 306.462 93.2527 306.462Z" fill="#00CBCC"/>
<path d="M94.8352 309.604C94.7939 309.604 94.7518 309.595 94.7113 309.577C94.566 309.509 94.5033 309.336 94.5716 309.191C94.5795 309.174 95.3513 307.5 95.0623 305.144C95.0424 304.984 95.1559 304.84 95.3163 304.821C95.4759 304.795 95.6212 304.914 95.6411 305.074C95.9523 307.605 95.1353 309.365 95.0996 309.438C95.0488 309.543 94.944 309.604 94.8352 309.604Z" fill="#00CBCC"/>
<path d="M95.7921 311.83C94.2065 311.93 91.4315 310.581 90.3048 309.202C89.1614 307.801 92.2382 308.567 91.8761 307.444C91.5141 306.322 87.8061 307.325 87.0438 305.727C86.2808 304.129 88.9995 304.385 88.8558 303.558C88.712 302.731 85.9203 303.022 84.9453 301.33C83.9703 299.639 86.4753 300.501 86.0577 299.801C85.6393 299.1 82.4204 296.217 83.6844 295.531C84.9477 294.845 87.98 297.863 88.9645 298.172C89.9491 298.481 90.0801 296.299 91.387 297.283C92.694 298.266 91.95 302.847 93.461 303.381C94.5868 303.779 94.0247 301.721 95.3205 302.19C97.589 303.01 96.4361 311.79 95.7921 311.83Z" fill="#00CBCC"/>
<g opacity="0.2">
<path d="M95.7921 311.83C94.2065 311.93 91.4315 310.581 90.3048 309.202C89.1614 307.801 92.2382 308.567 91.8761 307.444C91.5141 306.322 87.8061 307.325 87.0438 305.727C86.2808 304.129 88.9995 304.385 88.8558 303.558C88.712 302.731 85.9203 303.022 84.9453 301.33C83.9703 299.639 86.4753 300.501 86.0577 299.801C85.6393 299.1 82.4204 296.217 83.6844 295.531C84.9477 294.845 87.98 297.863 88.9645 298.172C89.9491 298.481 90.0801 296.299 91.387 297.283C92.694 298.266 91.95 302.847 93.461 303.381C94.5868 303.779 94.0247 301.721 95.3205 302.19C97.589 303.01 96.4361 311.79 95.7921 311.83Z" fill="white"/>
</g>
<path d="M108.46 314.893C108.46 322.54 111.851 328.739 94.544 328.739C79.1627 328.739 80.6284 322.54 80.6284 314.893C80.6284 307.246 86.8589 305.081 94.544 305.081C102.229 305.081 108.46 307.246 108.46 314.893Z" fill="#263238"/>
<path d="M109.973 304.935H79.1626V312.52H109.973V304.935Z" fill="#263238"/>
<path opacity="0.2" d="M109.973 304.935H79.1626V312.52H109.973V304.935Z" fill="white"/>
<path d="M305.034 328.739H192.041C187.792 328.739 184.349 325.312 184.349 321.085V106.651C184.349 102.423 187.793 98.9973 192.041 98.9973H305.033C309.282 98.9973 312.726 102.424 312.726 106.651V321.084C312.727 325.312 309.283 328.739 305.034 328.739Z" fill="#00CBCC"/>
<path opacity="0.8" d="M305.034 328.739H192.041C187.792 328.739 184.349 325.312 184.349 321.085V106.651C184.349 102.423 187.793 98.9973 192.041 98.9973H305.033C309.282 98.9973 312.726 102.424 312.726 106.651V321.084C312.727 325.312 309.283 328.739 305.034 328.739Z" fill="white"/>
<path opacity="0.6" d="M248.518 104.092C248.518 104.995 247.782 105.726 246.875 105.726C245.968 105.726 245.232 104.995 245.232 104.092C245.232 103.189 245.968 102.457 246.875 102.457C247.782 102.457 248.518 103.19 248.518 104.092Z" fill="black"/>
<path opacity="0.6" d="M251.843 104.092C251.843 104.67 251.372 105.14 250.791 105.14C250.209 105.14 249.738 104.671 249.738 104.092C249.738 103.514 250.209 103.044 250.791 103.044C251.373 103.045 251.843 103.514 251.843 104.092Z" fill="black"/>
<path d="M308.395 106.693V320.631C308.395 322.39 306.973 323.758 305.204 323.758H191.531C189.906 323.758 188.682 322.506 188.682 320.889V106.437C188.682 105.036 189.715 103.811 191.124 103.811H219.541C220.344 103.811 221.071 104.332 221.371 105.083L222.547 107.966C222.847 108.71 223.575 109.225 224.377 109.225H272.758C273.561 109.225 274.289 108.731 274.588 107.986L275.765 105.089C276.065 104.338 276.792 103.81 277.595 103.81H305.604C307.156 103.811 308.395 105.151 308.395 106.693Z" fill="#263238"/>
<path opacity="0.3" d="M308.395 117.177H188.682V309.577H308.395V117.177Z" fill="white"/>
<path d="M305.441 142.014H191.635V306.853H305.441V142.014Z" fill="#00CBCC"/>
<path opacity="0.6" d="M305.441 142.014H191.635V306.853H305.441V142.014Z" fill="white"/>
<path d="M249.481 318.164H247.596C246.806 318.164 246.164 317.526 246.164 316.739V314.864C246.164 314.077 246.805 313.44 247.596 313.44H249.481C250.271 313.44 250.911 314.077 250.911 314.864V316.739C250.911 317.525 250.271 318.164 249.481 318.164Z" stroke="white" stroke-width="0.9313" stroke-miterlimit="10"/>
<path d="M248.538 224.095C266.963 224.095 281.9 209.233 281.9 190.901C281.9 172.569 266.963 157.708 248.538 157.708C230.113 157.708 215.177 172.569 215.177 190.901C215.177 209.233 230.113 224.095 248.538 224.095Z" fill="#00CBCC"/>
<path d="M248.537 220.416C232.181 220.416 218.874 207.175 218.874 190.901C218.874 174.626 232.181 161.387 248.537 161.387C264.895 161.387 278.202 174.627 278.202 190.901C278.202 207.176 264.895 220.416 248.537 220.416Z" stroke="white" stroke-width="3.7254" stroke-miterlimit="10" stroke-linecap="round" stroke-linejoin="round"/>
<path d="M231.948 187.334L245.037 202.678L265.129 179.125" stroke="white" stroke-width="7.7222" stroke-miterlimit="10" stroke-linecap="round" stroke-linejoin="round"/>
<path d="M305.441 120.947H191.635V140.352H305.441V120.947Z" fill="#00CBCC"/>
<path d="M299.945 127.339C299.945 127.819 299.555 128.207 299.073 128.207C298.591 128.207 298.2 127.819 298.2 127.339C298.2 126.86 298.591 126.471 299.073 126.471C299.555 126.47 299.945 126.86 299.945 127.339Z" fill="white"/>
<path d="M299.945 130.65C299.945 131.13 299.555 131.518 299.073 131.518C298.591 131.518 298.2 131.13 298.2 130.65C298.2 130.171 298.591 129.782 299.073 129.782C299.555 129.782 299.945 130.171 299.945 130.65Z" fill="white"/>
<path d="M299.945 133.961C299.945 134.441 299.555 134.829 299.073 134.829C298.591 134.829 298.2 134.441 298.2 133.961C298.2 133.482 298.591 133.093 299.073 133.093C299.555 133.093 299.945 133.482 299.945 133.961Z" fill="white"/>
<path d="M225.342 133.058H222.67L222.144 134.288H221.121L223.525 128.972H224.502L226.914 134.288H225.876L225.342 133.058ZM225.013 132.283L224.006 129.96L223.006 132.283H225.013Z" fill="white"/>
<path d="M228.409 129.808H226.639V128.973H231.172V129.808H229.402V134.289H228.409V129.808Z" fill="white"/>
<path d="M233.08 129.808H231.309V128.973H235.843V129.808H234.072V134.289H233.08V129.808Z" fill="white"/>
<path d="M240.598 133.461V134.289H236.591V128.973H240.491V129.801H237.583V131.183H240.162V131.995H237.583V133.46H240.598V133.461Z" fill="white"/>
<path d="M246.451 128.972V134.288H245.635L242.689 130.688V134.288H241.704V128.972H242.52L245.467 132.572V128.972H246.451Z" fill="white"/>
<path d="M247.885 128.972H250.22C251.953 128.972 253.136 130.036 253.136 131.63C253.136 133.225 251.953 134.288 250.22 134.288H247.885V128.972ZM250.175 133.453C251.366 133.453 252.137 132.732 252.137 131.631C252.137 130.529 251.366 129.808 250.175 129.808H248.878V133.453H250.175Z" fill="white"/>
<path d="M257.578 133.058H254.907L254.38 134.288H253.357L255.762 128.972H256.738L259.15 134.288H258.113L257.578 133.058ZM257.25 132.283L256.242 129.96L255.242 132.283H257.25Z" fill="white"/>
<path d="M264.576 128.972V134.288H263.76L260.813 130.688V134.288H259.829V128.972H260.645L263.591 132.572V128.972H264.576Z" fill="white"/>
<path d="M265.629 131.631C265.629 130.043 266.85 128.897 268.491 128.897C269.361 128.897 270.109 129.208 270.606 129.785L269.965 130.386C269.576 129.968 269.095 129.763 268.537 129.763C267.43 129.763 266.629 130.537 266.629 131.631C266.629 132.725 267.43 133.5 268.537 133.5C269.095 133.5 269.576 133.295 269.965 132.869L270.606 133.477C270.109 134.054 269.361 134.366 268.484 134.366C266.85 134.364 265.629 133.218 265.629 131.631Z" fill="white"/>
<path d="M275.566 133.461V134.289H271.559V128.973H275.459V129.801H272.55V131.183H275.13V131.995H272.55V133.46H275.566V133.461Z" fill="white"/>
<path d="M220.08 231.777C220.08 229.933 221.498 228.6 223.406 228.6C224.416 228.6 225.286 228.962 225.862 229.633L225.118 230.33C224.666 229.845 224.107 229.606 223.46 229.606C222.173 229.606 221.242 230.507 221.242 231.777C221.242 233.048 222.173 233.948 223.46 233.948C224.107 233.948 224.666 233.71 225.118 233.215L225.862 233.921C225.286 234.591 224.416 234.953 223.397 234.953C221.498 234.953 220.08 233.621 220.08 231.777Z" fill="#263238"/>
<path d="M226.397 231.777C226.397 229.95 227.816 228.6 229.741 228.6C231.666 228.6 233.085 229.941 233.085 231.777C233.085 233.612 231.666 234.954 229.741 234.954C227.816 234.954 226.397 233.603 226.397 231.777ZM231.923 231.777C231.923 230.515 230.992 229.606 229.741 229.606C228.49 229.606 227.559 230.515 227.559 231.777C227.559 233.039 228.49 233.948 229.741 233.948C230.992 233.948 231.923 233.038 231.923 231.777Z" fill="#263238"/>
<path d="M239.829 228.688V234.865H238.88L235.456 230.682V234.865H234.312V228.688H235.261L238.685 232.871V228.688H239.829Z" fill="#263238"/>
<path d="M242.653 229.65V231.53H245.65V232.5H242.653V234.865H241.5V228.688H246.032V229.65H242.653Z" fill="#263238"/>
<path d="M247.153 228.688H248.306V234.865H247.153V228.688Z" fill="#263238"/>
<path d="M254.046 234.865L252.777 233.056C252.697 233.066 252.618 233.066 252.538 233.066H251.136V234.865H249.983V228.689H252.538C254.169 228.689 255.181 229.519 255.181 230.886C255.181 231.822 254.702 232.51 253.86 232.836L255.287 234.865H254.046ZM252.484 229.659H251.136V232.121H252.484C253.495 232.121 254.019 231.662 254.019 230.886C254.019 230.109 253.496 229.659 252.484 229.659Z" fill="#263238"/>
<path d="M262.173 234.865L262.164 230.771L260.124 234.159H259.61L257.57 230.824V234.865H256.47V228.688H257.419L259.884 232.783L262.305 228.688H263.254L263.263 234.865H262.173V234.865Z" fill="#263238"/>
<path d="M269.6 233.903V234.865H264.944V228.689H269.476V229.651H266.097V231.257H269.095V232.201H266.097V233.903H269.6Z" fill="#263238"/>
<path d="M270.89 228.688H273.604C275.618 228.688 276.992 229.924 276.992 231.777C276.992 233.629 275.618 234.865 273.604 234.865H270.89V228.688ZM273.551 233.895C274.934 233.895 275.83 233.056 275.83 231.777C275.83 230.497 274.935 229.659 273.551 229.659H272.043V233.894H273.551V233.895Z" fill="#263238"/>
<path d="M300.098 253.05H196.977C195.05 253.05 193.488 254.604 193.488 256.522V306.853H303.588V256.522C303.588 254.604 302.025 253.05 300.098 253.05Z" fill="#00CBCC"/>
<path opacity="0.2" d="M300.098 253.05H196.977C195.05 253.05 193.488 254.604 193.488 256.522V306.853H303.588V256.522C303.588 254.604 302.025 253.05 300.098 253.05Z" fill="white"/>
<path opacity="0.5" d="M228.471 274.741C228.471 279.656 226.172 284.041 222.586 286.874C222.497 286.955 222.408 287.028 222.312 287.095C221.291 287.867 220.175 288.522 218.977 289.022C217.105 289.817 215.043 290.259 212.876 290.259C211.9 290.259 210.938 290.17 210.014 289.994C209.874 289.972 209.726 289.943 209.585 289.906C209.097 289.81 208.617 289.685 208.143 289.53C206.605 289.044 205.164 288.324 203.877 287.412C203.736 287.316 203.603 287.22 203.47 287.118C199.706 284.285 197.281 279.797 197.281 274.742C197.281 266.171 204.262 259.225 212.876 259.225C221.491 259.224 228.471 266.169 228.471 274.741Z" fill="white"/>
<path d="M212.876 289.522C211.944 289.522 211.028 289.438 210.153 289.271C210.013 289.249 209.89 289.225 209.773 289.194C209.276 289.095 208.82 288.976 208.374 288.831C206.913 288.371 205.546 287.691 204.306 286.812C204.166 286.716 204.045 286.629 203.923 286.536C200.169 283.71 198.02 279.414 198.02 274.741C198.02 266.591 204.685 259.96 212.877 259.96C221.068 259.96 227.733 266.591 227.733 274.741C227.733 279.271 225.689 283.484 222.127 286.298C222.024 286.388 221.961 286.443 221.892 286.49C220.867 287.265 219.8 287.882 218.691 288.345C216.848 289.127 214.893 289.522 212.876 289.522Z" fill="white"/>
<path d="M208.144 289.53C206.606 289.044 205.164 288.324 203.877 287.411C205.156 287.419 206.199 287.676 206.953 288.14C206.953 288.14 206.946 288.147 206.953 288.147C207.131 288.243 207.293 288.367 207.433 288.5C207.759 288.787 208.003 289.14 208.144 289.53Z" fill="#263238"/>
<path d="M222.586 286.874C222.497 286.955 222.408 287.028 222.312 287.095C221.292 287.867 220.175 288.522 218.977 289.022C217.106 289.817 215.043 290.259 212.876 290.259C211.9 290.259 210.939 290.17 210.014 289.994C209.874 289.972 209.726 289.943 209.586 289.906C209.097 289.81 208.617 289.685 208.144 289.53C206.606 289.044 205.164 288.324 203.877 287.412C203.736 287.316 203.603 287.22 203.47 287.118C203.477 287.118 203.492 287.111 203.5 287.111C204.609 286.875 205.999 286.618 207.419 286.463C207.559 286.448 207.707 286.433 207.863 286.418C210.333 286.198 214.067 286.227 216.692 286.301C216.81 286.308 216.936 286.308 217.054 286.316C218.555 286.374 220.063 286.536 221.284 286.691C221.772 286.757 222.209 286.815 222.586 286.874Z" fill="#263238"/>
<path d="M222.312 287.095C221.292 287.867 220.175 288.522 218.977 289.022C219.702 287.948 220.877 287.271 222.312 287.095Z" fill="#263238"/>
<path d="M217.054 286.315C217.054 286.315 216.411 288.721 211.219 288.905C211.005 289.052 210.473 289.442 210.014 289.994C209.874 289.972 209.726 289.943 209.585 289.905C209.504 289.508 209.467 289.089 209.452 288.882C208.476 288.816 207.832 288.676 207.433 288.5C207.196 288.389 207.041 288.272 206.953 288.147C206.953 288.14 206.953 288.14 206.953 288.14C206.413 287.404 207.862 286.418 207.862 286.418C210.547 285.741 210.991 284.071 210.776 282.254C210.754 282.034 210.725 281.806 210.68 281.577C210.651 281.393 210.614 281.209 210.569 281.025C210.562 280.981 210.547 280.945 210.54 280.9L213.875 278.045L214.895 277.177L216.322 275.956C216.315 276 216.299 276.051 216.292 276.096C216.292 276.103 216.292 276.103 216.292 276.103C216.218 276.456 216.145 276.824 216.078 277.228C215.545 280.296 215.265 284.623 217.054 286.315Z" fill="#CE7A63"/>
<path opacity="0.2" d="M210.541 280.897C210.648 281.35 210.733 281.809 210.779 282.252C212.035 281.979 213.696 280.614 213.85 279.33C213.908 278.847 213.911 278.381 213.872 278.048L210.541 280.897Z" fill="black"/>
<path d="M207.987 265.724C205.992 266.662 204.968 272.318 207.55 273.486C210.13 274.655 211.767 263.945 207.987 265.724Z" fill="#263238"/>
<path d="M217.268 271.664C216.474 275.626 216.211 277.978 213.899 279.819C210.421 282.588 205.708 280.26 205.296 276.184C204.925 272.514 206.286 266.653 210.441 265.464C214.534 264.293 218.063 267.703 217.268 271.664Z" fill="#CE7A63"/>
<path d="M213.431 266.89L213.63 263.433C214.567 263.821 215.554 263.979 216.443 263.763C220.535 262.773 223.696 265.367 221.806 267.669C223.748 268.489 222.698 271.135 221.416 272.828C219.634 275.18 217.727 276.297 216.394 275.249C215.207 274.682 214.982 270.607 215.362 269.094C215.937 266.812 213.431 266.89 213.431 266.89Z" fill="#263238"/>
<path d="M218.253 275.768C217.558 276.628 216.59 277.145 215.761 277.3C214.514 277.534 214.212 276.385 214.829 275.26C215.384 274.249 216.702 272.906 217.824 273.182C218.929 273.453 219.048 274.784 218.253 275.768Z" fill="#CE7A63"/>
<path d="M211.016 272.162C210.971 272.487 210.762 272.733 210.547 272.71C210.333 272.689 210.196 272.408 210.241 272.083C210.285 271.758 210.495 271.513 210.709 271.535C210.924 271.557 211.061 271.837 211.016 272.162Z" fill="#263238"/>
<path d="M207.315 271.788C207.27 272.113 207.06 272.359 206.846 272.337C206.632 272.315 206.495 272.034 206.54 271.709C206.584 271.385 206.794 271.139 207.008 271.161C207.222 271.183 207.36 271.464 207.315 271.788Z" fill="#263238"/>
<path d="M208.469 272.069C208.469 272.069 207.467 273.866 206.523 274.687C207.029 275.282 208.047 275.136 208.047 275.136L208.469 272.069Z" fill="#BA4D3C"/>
<path d="M212.323 271.093C212.355 271.093 212.387 271.085 212.416 271.067C212.508 271.014 212.54 270.897 212.487 270.804C211.958 269.894 211.062 269.856 211.025 269.855C210.925 269.843 210.829 269.935 210.826 270.042C210.823 270.148 210.906 270.236 211.012 270.24C211.05 270.242 211.737 270.282 212.152 270.997C212.189 271.06 212.256 271.095 212.323 271.093Z" fill="#263238"/>
<path d="M205.897 270.366C205.959 270.365 206.02 270.334 206.055 270.279C206.538 269.548 207.257 269.523 207.264 269.523C207.371 269.52 207.455 269.432 207.453 269.326C207.45 269.22 207.362 269.136 207.257 269.138H207.256C207.218 269.139 206.325 269.17 205.733 270.068C205.674 270.156 205.7 270.276 205.788 270.334C205.822 270.356 205.86 270.366 205.897 270.366Z" fill="#263238"/>
<path d="M216.693 264.2C216.693 264.2 213.452 258.897 208.2 260.378C208.2 260.378 209.236 260.535 209.695 260.893C209.695 260.893 205.016 260.807 203.79 264.155L204.645 263.576C204.645 263.576 203.644 266.349 205.153 268.03L205.352 267.12C205.352 267.12 207.417 269.343 210.214 268.482L209.198 268.052C209.198 268.052 214.082 267.57 215.211 266.247C216.339 264.923 216.693 264.2 216.693 264.2Z" fill="#263238"/>
<path d="M207.318 276.28C207.318 276.28 208.583 275.836 212.234 275.423C211.931 276.563 211.235 277.544 209.363 277.738C207.491 277.932 207.318 276.28 207.318 276.28Z" fill="#263238"/>
<path d="M210.132 276.783C209.229 276.876 208.6 277.154 208.156 277.54C208.443 277.702 208.838 277.792 209.361 277.737C210.264 277.644 210.889 277.371 211.333 276.98C211.046 276.818 210.655 276.728 210.132 276.783Z" fill="#A02724"/>
<path d="M207.48 276.231C207.61 276.452 207.74 276.673 208.114 276.708C208.881 276.673 210.802 276.239 211.313 276.071C211.642 275.979 211.914 275.832 212.077 275.442C209.266 275.766 207.914 276.106 207.48 276.231Z" fill="white"/>
<path d="M284.193 289.503C283.57 289.503 282.952 289.464 282.302 289.383C281.261 289.25 280.248 289.012 279.292 288.675C278.181 288.291 277.13 287.78 276.165 287.156C275.771 286.912 275.394 286.644 275.001 286.326L274.797 286.162H274.787C274.697 286.089 274.609 286.012 274.521 285.933C274.338 285.781 274.188 285.647 274.046 285.512C271.05 282.727 269.335 278.795 269.335 274.72C269.335 266.57 276 259.938 284.192 259.938C292.388 259.938 299.056 266.57 299.056 274.72C299.056 278.425 297.684 281.945 295.185 284.668H294.766L294.762 285.112C294.504 285.374 294.242 285.616 293.982 285.832C293.886 285.923 293.838 285.964 293.791 286.005C293.137 286.556 292.446 287.043 291.74 287.449H291.195L291.192 287.758C289.244 288.801 287.048 289.398 284.813 289.487C284.587 289.496 284.386 289.503 284.193 289.503Z" fill="white"/>
<path d="M295.506 285.404C295.499 285.404 295.499 285.411 295.499 285.411C295.167 285.764 294.819 286.095 294.457 286.397C294.397 286.456 294.338 286.508 294.279 286.559C293.554 287.17 292.77 287.721 291.935 288.185C291.928 288.185 291.928 288.185 291.928 288.192C289.828 289.398 287.417 290.12 284.844 290.223C284.001 290.289 283.121 290.267 282.211 290.112C281.117 289.973 280.052 289.722 279.046 289.369C277.877 288.965 276.776 288.427 275.763 287.772C275.629 286.911 275.829 286.117 276.066 285.543C276.133 285.381 276.199 285.241 276.265 285.117C276.273 285.094 276.28 285.072 276.295 285.05L276.302 285.043C276.442 284.77 276.561 284.609 276.561 284.609C276.561 284.609 274.83 284.072 274.52 281.96C274.18 279.68 275.452 278.017 275.452 278.017C275.452 278.017 273.928 277.723 273.559 275.044C273.181 272.359 275.089 271.365 275.089 271.365C274.231 268.187 276.768 267.23 276.768 267.23C277.049 264.133 280.317 264.648 280.317 264.648C280.317 264.648 281.545 262.256 285.183 264.095C285.183 264.095 286.455 262.874 289.169 264.066C291.254 264.979 291.624 267.252 291.624 267.252C296.556 269.128 294.485 273.462 294.485 273.462C296.859 277.178 294.515 279.673 294.515 279.673C296.497 282.726 295.936 284.616 295.506 285.404Z" fill="#263238"/>
<path d="M279.112 289.186C279.09 289.244 279.068 289.311 279.045 289.37C277.877 288.965 276.775 288.428 275.762 287.773C275.333 287.509 274.927 287.214 274.535 286.898C274.52 286.898 274.512 286.883 274.497 286.869C274.335 286.751 274.18 286.618 274.024 286.478L274.017 286.471C273.854 286.339 273.691 286.192 273.537 286.045C273.847 285.603 274.165 285.309 274.491 285.25C274.491 285.25 274.491 285.25 274.498 285.25C274.498 285.25 274.505 285.25 274.52 285.243C274.535 285.243 274.565 285.243 274.601 285.236C274.616 285.236 274.639 285.229 274.668 285.229C275.045 285.155 275.393 285.126 275.703 285.111H275.726C275.837 285.104 275.94 285.104 276.036 285.104C276.117 285.104 276.191 285.111 276.265 285.119C276.967 285.163 277.522 285.369 278.017 285.781C278.135 285.876 278.254 285.994 278.372 286.119C278.646 286.414 278.905 286.781 279.171 287.223C279.438 287.67 279.371 288.377 279.112 289.186Z" fill="#00CBCC"/>
<g opacity="0.7">
<path d="M279.112 289.186C279.09 289.244 279.068 289.311 279.045 289.37C277.877 288.965 276.775 288.428 275.762 287.773C275.333 287.509 274.927 287.214 274.535 286.898C274.52 286.898 274.512 286.883 274.497 286.869C274.335 286.751 274.18 286.618 274.024 286.478L274.017 286.471C273.854 286.339 273.691 286.192 273.537 286.045C273.847 285.603 274.165 285.309 274.491 285.25C274.491 285.25 274.491 285.25 274.498 285.25C274.498 285.25 274.505 285.25 274.52 285.243C274.535 285.243 274.565 285.243 274.601 285.236C274.616 285.236 274.639 285.229 274.668 285.229C275.045 285.155 275.393 285.126 275.703 285.111H275.726C275.837 285.104 275.94 285.104 276.036 285.104C276.117 285.104 276.191 285.111 276.265 285.119C276.967 285.163 277.522 285.369 278.017 285.781C278.135 285.876 278.254 285.994 278.372 286.119C278.646 286.414 278.905 286.781 279.171 287.223C279.438 287.67 279.371 288.377 279.112 289.186Z" fill="white"/>
</g>
<path opacity="0.2" d="M274.534 286.897C274.519 286.897 274.512 286.882 274.497 286.868L274.526 286.757L274.534 286.897Z" fill="black"/>
<path d="M294.457 286.397C294.397 286.456 294.338 286.508 294.279 286.559C293.554 287.17 292.77 287.721 291.935 288.185C291.928 288.185 291.928 288.185 291.928 288.192C289.828 289.398 287.417 290.12 284.844 290.223C284.001 290.289 283.121 290.267 282.211 290.112C281.117 289.973 280.052 289.722 279.046 289.369C277.877 288.965 276.776 288.427 275.763 287.772C275.334 287.508 274.928 287.213 274.535 286.897C274.52 286.897 274.513 286.882 274.498 286.868C274.335 286.75 274.18 286.618 274.025 286.478L274.018 286.471C274.025 286.441 274.025 286.419 274.04 286.397C274.047 286.368 274.055 286.346 274.055 286.324C274.07 286.272 274.077 286.228 274.084 286.184C274.203 285.691 274.321 285.455 274.395 285.345C274.417 285.323 274.431 285.301 274.446 285.286C274.453 285.279 274.454 285.279 274.461 285.271C274.477 285.264 274.484 285.256 274.491 285.256V285.249C274.491 285.249 274.491 285.249 274.498 285.249C274.498 285.249 274.505 285.249 274.52 285.242C274.535 285.242 274.565 285.242 274.601 285.235C274.616 285.235 274.638 285.228 274.668 285.228C274.735 285.221 274.831 285.206 274.942 285.199C275.141 285.177 275.4 285.147 275.703 285.11H275.725C275.822 285.095 275.925 285.088 276.036 285.073C276.117 285.066 276.206 285.058 276.295 285.051L276.42 285.036C276.458 285.029 276.494 285.029 276.539 285.029C276.554 285.022 276.561 285.022 276.576 285.022C276.679 285.015 276.783 285 276.893 284.992C276.982 284.985 277.071 284.977 277.167 284.97C277.182 284.963 277.19 284.963 277.204 284.963C277.315 284.956 277.418 284.941 277.529 284.934C277.663 284.927 277.788 284.912 277.922 284.905L278.21 284.883C278.321 284.876 278.439 284.868 278.558 284.861C278.75 284.846 278.95 284.831 279.149 284.823C279.326 284.808 279.511 284.801 279.696 284.786C280.221 284.764 280.761 284.735 281.279 284.727H281.397C283.357 284.698 285.198 284.86 287.291 285.102C287.72 285.147 288.163 285.205 288.614 285.257C288.807 285.286 289.006 285.308 289.199 285.338C289.355 285.361 289.509 285.383 289.665 285.405C289.894 285.442 290.131 285.478 290.353 285.515C290.53 285.545 290.707 285.574 290.877 285.604C290.973 285.626 291.07 285.641 291.166 285.662C291.58 285.736 291.972 285.817 292.349 285.898C292.519 285.935 292.681 285.971 292.837 286.008H292.844C292.874 286.016 292.911 286.023 292.94 286.031C293.074 286.06 293.206 286.089 293.332 286.119H293.34C293.769 286.221 294.146 286.317 294.457 286.397Z" fill="#00CBCC"/>
<g opacity="0.7">
<path d="M294.457 286.397C294.397 286.456 294.339 286.508 294.279 286.559C293.554 287.17 292.77 287.721 291.935 288.185C291.928 288.185 291.928 288.185 291.928 288.192C289.828 289.398 287.417 290.12 284.844 290.223C284.001 290.289 283.121 290.267 282.211 290.112C281.117 289.973 280.052 289.722 279.046 289.369C277.877 288.965 276.776 288.427 275.763 287.773C275.334 287.508 274.928 287.213 274.535 286.897C274.52 286.897 274.513 286.882 274.498 286.868C274.335 286.75 274.181 286.618 274.025 286.478C274.032 286.456 274.04 286.426 274.04 286.397C274.047 286.368 274.055 286.346 274.055 286.324C274.07 286.272 274.077 286.228 274.084 286.184C274.203 285.691 274.321 285.455 274.395 285.345C274.417 285.323 274.431 285.301 274.447 285.286C274.454 285.279 274.454 285.279 274.462 285.271C274.477 285.264 274.484 285.256 274.491 285.256C274.498 285.249 274.498 285.249 274.498 285.249C274.498 285.249 274.505 285.249 274.52 285.242C274.535 285.242 274.565 285.242 274.601 285.235C274.616 285.235 274.639 285.228 274.668 285.228C274.735 285.221 274.831 285.206 274.942 285.199C275.141 285.169 275.4 285.14 275.703 285.11H275.726C275.822 285.095 275.925 285.088 276.036 285.073C276.125 285.066 276.213 285.058 276.302 285.044C276.347 285.044 276.384 285.044 276.42 285.037C276.457 285.03 276.494 285.03 276.539 285.03C276.554 285.023 276.561 285.023 276.576 285.023C276.679 285.015 276.783 285 276.894 284.993C276.983 284.978 277.071 284.971 277.168 284.964H277.204C277.315 284.957 277.418 284.942 277.53 284.935C277.663 284.928 277.788 284.913 277.922 284.906L278.21 284.883C278.299 284.876 278.38 284.868 278.469 284.861C278.498 284.861 278.536 284.854 278.565 284.854C278.764 284.839 278.957 284.825 279.157 284.817C279.334 284.81 279.511 284.795 279.696 284.788C280.221 284.766 280.761 284.737 281.279 284.729H281.397C283.357 284.699 285.198 284.861 287.291 285.104C287.72 285.148 288.164 285.207 288.615 285.259C288.807 285.288 289.006 285.31 289.199 285.34C289.355 285.362 289.509 285.384 289.665 285.406C289.895 285.444 290.131 285.48 290.353 285.517C290.531 285.546 290.708 285.576 290.878 285.606C290.974 285.628 291.07 285.643 291.166 285.664C291.58 285.737 291.972 285.819 292.349 285.899C292.519 285.937 292.682 285.973 292.837 286.01H292.844C292.874 286.017 292.911 286.025 292.94 286.032C293.074 286.061 293.206 286.091 293.333 286.121H293.34C293.769 286.221 294.146 286.317 294.457 286.397Z" fill="white"/>
</g>
<path d="M287.503 277.318C286.868 279.631 286.092 283.896 287.627 285.581C287.627 285.581 286.807 287.914 282.427 287.596C277.609 287.246 280.299 285.05 280.299 285.05C282.974 284.616 283.048 282.671 282.724 280.814L287.503 277.318Z" fill="#EBB376"/>
<path opacity="0.2" d="M285.554 278.745L282.726 280.812C282.805 281.251 282.858 281.695 282.857 282.122C283.872 282.051 285.332 281.054 285.515 280.015C285.608 279.497 285.622 278.994 285.554 278.745Z" fill="black"/>
<path d="M288.231 271.629C288.116 275.561 288.151 277.228 286.224 279.306C283.325 282.432 278.496 281.431 277.428 277.544C276.466 274.045 276.817 268.201 280.628 266.516C284.382 264.855 288.346 267.696 288.231 271.629Z" fill="#EBB376"/>
<path d="M277.979 267.758C277.07 269.772 290.762 273.803 288.731 269.912C286.699 266.021 280.354 262.498 277.979 267.758Z" fill="#263238"/>
<path d="M285.133 270.702C285.207 272.591 288.076 274.26 288.076 274.26C288.076 274.26 290.718 271.348 288.511 270.526C286.305 269.705 285.133 270.702 285.133 270.702Z" fill="#263238"/>
<path d="M281.723 272.923C281.734 273.243 281.572 273.507 281.362 273.514C281.152 273.52 280.974 273.266 280.963 272.947C280.953 272.628 281.115 272.363 281.325 272.356C281.534 272.35 281.713 272.604 281.723 272.923Z" fill="#263238"/>
<path d="M278.093 273.039C278.104 273.358 277.942 273.623 277.732 273.63C277.522 273.636 277.344 273.383 277.333 273.063C277.323 272.744 277.485 272.48 277.695 272.473C277.904 272.465 278.083 272.72 278.093 273.039Z" fill="#263238"/>
<path d="M277.788 272.488L277.009 272.291C277.009 272.291 277.425 272.878 277.788 272.488Z" fill="#263238"/>
<path d="M279.481 273.528C279.481 273.528 278.981 274.921 278.402 275.604C278.839 275.984 279.554 275.781 279.554 275.781L279.481 273.528Z" fill="#D58745"/>
<path d="M289.416 275.193C289.161 275.968 288.569 276.553 287.963 276.846C287.052 277.286 286.416 276.518 286.518 275.569C286.61 274.714 287.195 273.455 288.183 273.41C289.156 273.367 289.708 274.307 289.416 275.193Z" fill="#EBB376"/>
<path d="M283.157 272.141C283.079 272.155 282.997 272.119 282.957 272.046C282.539 271.284 281.422 271.148 281.411 271.147C281.308 271.135 281.233 271.042 281.245 270.939C281.257 270.836 281.35 270.762 281.454 270.774C281.508 270.78 282.777 270.935 283.288 271.867C283.338 271.957 283.305 272.072 283.213 272.122C283.195 272.13 283.176 272.137 283.157 272.141Z" fill="#263238"/>
<path d="M276.948 271.405C276.885 271.417 276.817 271.397 276.771 271.344C276.702 271.266 276.71 271.148 276.789 271.08C277.572 270.394 278.415 270.617 278.45 270.626C278.55 270.654 278.608 270.757 278.581 270.858C278.553 270.957 278.45 271.016 278.349 270.988C278.321 270.981 277.663 270.814 277.037 271.361C277.012 271.385 276.981 271.399 276.948 271.405Z" fill="#263238"/>
<path d="M281.418 272.371L280.639 272.175C280.639 272.175 281.055 272.762 281.418 272.371Z" fill="#263238"/>
<path d="M280.339 276.964C280.762 277.404 281.341 278.303 281.341 278.303C281.432 278.265 281.523 278.228 281.612 278.186C282.838 277.646 283.227 276.993 283.287 276.433C283.319 276.126 283.247 275.845 283.162 275.629C283.065 275.377 282.938 275.219 282.938 275.219C282.46 275.892 281.357 276.482 280.754 276.773C280.502 276.897 280.339 276.964 280.339 276.964Z" fill="#263238"/>
<path d="M280.753 276.773L281.059 277.16C282.212 276.649 282.954 276.136 283.161 275.629C283.064 275.377 282.937 275.219 282.937 275.219C282.46 275.892 281.356 276.483 280.753 276.773Z" fill="white"/>
<path d="M281.612 278.186C282.837 277.646 283.227 276.993 283.287 276.433C282.876 276.633 282.404 276.919 282.046 277.3C281.77 277.59 281.655 277.902 281.612 278.186Z" fill="#DE5753"/>
<path d="M293.333 286.117C292.497 286.912 290.974 288.163 289 289.082C288.837 289.156 288.681 289.229 288.519 289.296C287.409 289.759 286.175 290.112 284.843 290.222C284 290.289 283.12 290.267 282.21 290.112C282.129 290.097 282.055 290.082 281.974 290.067C280.805 289.847 279.866 289.545 279.112 289.184C278.402 288.86 277.869 288.485 277.441 288.103C277.315 287.985 277.197 287.867 277.086 287.742C276.383 286.955 276.131 286.146 276.066 285.542C276.043 285.38 276.036 285.233 276.036 285.101V285.071C276.125 285.064 276.213 285.056 276.302 285.042C276.384 285.042 276.458 285.027 276.539 285.027C276.554 285.02 276.561 285.02 276.576 285.02C276.679 285.013 276.783 284.998 276.894 284.991C276.983 284.984 277.071 284.976 277.168 284.969V284.962H277.204C277.315 284.955 277.418 284.94 277.53 284.932C277.663 284.925 277.788 284.91 277.922 284.903L278.21 284.881C278.299 284.874 278.38 284.866 278.469 284.859C278.498 284.859 278.536 284.852 278.565 284.852C278.764 284.837 278.957 284.823 279.157 284.815C279.334 284.808 279.511 284.793 279.696 284.786C280.221 284.763 280.761 284.734 281.279 284.726H281.397C283.357 284.697 285.198 284.859 287.291 285.101C287.72 285.146 288.164 285.204 288.615 285.256C288.807 285.286 289.006 285.308 289.199 285.338C289.355 285.36 289.51 285.382 289.665 285.404C289.895 285.441 290.131 285.478 290.353 285.515C290.531 285.544 290.708 285.573 290.878 285.603C290.974 285.625 291.07 285.64 291.166 285.662C291.58 285.735 291.972 285.816 292.349 285.897C292.519 285.934 292.682 285.97 292.837 286.008H292.844C292.874 286.015 292.911 286.023 292.94 286.03C293.074 286.059 293.207 286.088 293.333 286.117Z" fill="#EBB376"/>
<path d="M288.996 289.082C288.839 289.157 288.679 289.227 288.515 289.296C288.653 287.501 288.979 286.113 289.2 285.34C289.357 285.358 289.512 285.381 289.668 285.403C289.466 286.11 289.154 287.406 288.996 289.082Z" fill="#263238"/>
<path d="M279.154 284.817C278.643 285.586 277.941 286.764 277.444 288.107C277.312 287.985 277.193 287.866 277.085 287.742C277.525 286.6 278.099 285.59 278.569 284.853C278.762 284.839 278.956 284.826 279.154 284.817Z" fill="#263238"/>
<path d="M294.279 286.559C293.554 287.17 292.77 287.721 291.935 288.185C292.608 287.339 293.429 286.699 294.279 286.559Z" fill="#00CBCC"/>
<g opacity="0.7">
<path d="M294.279 286.559C293.554 287.17 292.77 287.721 291.935 288.185C292.608 287.339 293.429 286.699 294.279 286.559Z" fill="white"/>
</g>
<g opacity="0.2">
<path d="M288.996 289.082C288.839 289.157 288.679 289.227 288.515 289.296C288.653 287.501 288.979 286.113 289.2 285.34C289.357 285.358 289.512 285.381 289.668 285.403C289.466 286.11 289.154 287.406 288.996 289.082Z" fill="white"/>
</g>
<g opacity="0.2">
<path d="M279.154 284.817C278.643 285.586 277.941 286.764 277.444 288.107C277.312 287.985 277.193 287.866 277.085 287.742C277.525 286.6 278.099 285.59 278.569 284.853C278.762 284.839 278.956 284.826 279.154 284.817Z" fill="white"/>
</g>
<path opacity="0.5" d="M299.796 274.721C299.796 278.871 298.162 282.63 295.507 285.404C295.499 285.404 295.499 285.411 295.499 285.411C295.167 285.764 294.819 286.095 294.457 286.397C294.397 286.456 294.339 286.508 294.279 286.559C293.554 287.17 292.77 287.721 291.935 288.185C291.928 288.185 291.928 288.185 291.928 288.192C289.828 289.398 287.417 290.12 284.844 290.223C284.629 290.23 284.408 290.238 284.194 290.238C283.52 290.238 282.862 290.194 282.212 290.113C281.118 289.973 280.053 289.723 279.047 289.37C277.878 288.965 276.777 288.428 275.764 287.773C275.335 287.509 274.928 287.214 274.536 286.898C274.521 286.898 274.514 286.883 274.499 286.869C274.336 286.751 274.181 286.618 274.026 286.479L274.018 286.471C273.856 286.339 273.693 286.192 273.538 286.045C270.499 283.22 268.599 279.188 268.599 274.722C268.599 266.15 275.579 259.205 284.194 259.205C292.808 259.203 299.796 266.149 299.796 274.721Z" fill="white"/>
<path opacity="0.5" d="M264.13 274.741C264.13 279.605 261.882 283.939 258.369 286.779C258.369 286.779 258.369 286.779 258.362 286.779C258.037 287.051 257.704 287.301 257.356 287.536C256.572 288.074 255.736 288.544 254.85 288.927C253.763 289.413 252.609 289.773 251.411 289.986C251.411 289.986 251.411 289.986 251.411 289.993C251.315 290.015 251.211 290.03 251.115 290.045C250.28 290.184 249.415 290.258 248.534 290.258C247.403 290.258 246.301 290.14 245.236 289.905C244.563 289.765 243.912 289.581 243.276 289.353C242.515 289.081 241.783 288.758 241.08 288.375C240.932 288.294 240.784 288.213 240.636 288.124C240.54 288.073 240.451 288.013 240.355 287.955C240.273 287.911 240.199 287.859 240.126 287.808C239.711 287.543 239.305 287.264 238.92 286.955C238.677 286.771 238.44 286.573 238.21 286.359H238.203C238.144 286.308 238.085 286.257 238.025 286.204C234.897 283.371 232.938 279.281 232.938 274.741C232.938 266.17 239.918 259.224 248.533 259.224C257.149 259.224 264.13 266.169 264.13 274.741Z" fill="white"/>
<path d="M248.534 289.522C247.461 289.522 246.405 289.409 245.396 289.187C244.757 289.054 244.131 288.878 243.527 288.661C242.794 288.399 242.09 288.085 241.435 287.729C241.288 287.648 241.152 287.573 241.015 287.492C240.934 287.448 240.882 287.415 240.829 287.382L240.744 287.329C240.653 287.278 240.603 287.242 240.552 287.205C240.081 286.904 239.708 286.64 239.386 286.381C239.144 286.199 238.928 286.017 238.717 285.821L238.504 285.623H238.484C235.434 282.845 233.679 278.877 233.679 274.741C233.679 266.59 240.344 259.959 248.536 259.959C256.727 259.959 263.392 266.59 263.392 274.741C263.392 279.121 261.469 283.226 258.105 286.042L257.888 286.215C257.585 286.469 257.275 286.702 256.943 286.926C256.17 287.456 255.369 287.901 254.557 288.251C253.5 288.724 252.401 289.062 251.282 289.261L250.702 289.364C249.975 289.471 249.255 289.522 248.534 289.522Z" fill="white"/>
<path d="M239.603 274.915C240.005 277.04 239.603 279.823 239.603 279.823C239.603 279.823 249.54 281.194 251.953 279.365C254.365 277.537 255.432 266.665 250.058 265.621C244.683 264.577 238.339 268.234 239.603 274.915Z" fill="#263238"/>
<path d="M257.356 287.536C256.572 288.074 255.736 288.544 254.85 288.927C253.763 289.413 252.609 289.773 251.411 289.986C251.411 289.986 251.411 289.986 251.411 289.993C251.315 290.015 251.211 290.03 251.115 290.045C250.28 290.184 249.415 290.258 248.534 290.258C247.403 290.258 246.301 290.14 245.236 289.905C244.563 289.765 243.912 289.581 243.276 289.353C242.515 289.081 241.783 288.758 241.08 288.375C240.932 288.294 240.784 288.213 240.636 288.124C240.54 288.073 240.451 288.014 240.355 287.955C240.273 287.911 240.199 287.859 240.126 287.808C239.711 287.543 239.305 287.264 238.92 286.955C238.677 286.771 238.44 286.573 238.21 286.359C238.788 286.19 239.364 286.057 239.897 285.969H239.912C240.415 285.881 240.874 285.829 241.265 285.792C241.479 285.777 241.671 285.763 241.842 285.756C242.02 285.741 242.168 285.741 242.278 285.741C242.426 285.734 242.515 285.734 242.515 285.734C242.5 285.822 242.485 285.911 242.477 285.991V285.998C242.388 286.837 242.721 287.315 243.313 287.528C244.126 287.837 245.442 287.646 246.796 287.278C247.099 287.19 247.403 287.101 247.706 286.998C249.177 286.528 250.59 285.91 251.337 285.571C251.7 285.402 251.906 285.298 251.906 285.298C252.002 285.298 252.098 285.298 252.194 285.305C253.163 285.313 253.984 285.459 254.672 285.688H254.694C254.701 285.688 254.709 285.688 254.716 285.695C254.723 285.695 254.731 285.695 254.738 285.702C255.981 286.131 256.809 286.83 257.356 287.536Z" fill="#00CBCC"/>
<path opacity="0.7" d="M257.356 287.536C256.572 288.074 255.736 288.544 254.85 288.927C253.763 289.413 252.609 289.773 251.411 289.986C251.411 289.986 251.411 289.986 251.411 289.993C251.315 290.015 251.211 290.03 251.115 290.045C250.28 290.184 249.415 290.258 248.534 290.258C247.403 290.258 246.301 290.14 245.236 289.905C244.563 289.765 243.912 289.581 243.276 289.353C242.515 289.081 241.783 288.758 241.08 288.375C240.932 288.294 240.784 288.213 240.636 288.124C240.54 288.073 240.451 288.014 240.355 287.955C240.273 287.911 240.199 287.859 240.126 287.808C239.711 287.543 239.305 287.264 238.92 286.955C238.677 286.771 238.44 286.573 238.21 286.359C238.788 286.19 239.364 286.057 239.897 285.969H239.912C240.415 285.881 240.874 285.829 241.265 285.792C241.479 285.777 241.671 285.763 241.842 285.756C242.02 285.741 242.168 285.741 242.278 285.741C242.426 285.734 242.515 285.734 242.515 285.734C242.5 285.822 242.485 285.911 242.477 285.991V285.998C242.388 286.837 242.721 287.315 243.313 287.528C244.126 287.837 245.442 287.646 246.796 287.278C247.099 287.19 247.403 287.101 247.706 286.998C249.177 286.528 250.59 285.91 251.337 285.571C251.7 285.402 251.906 285.298 251.906 285.298C252.002 285.298 252.098 285.298 252.194 285.305C253.163 285.313 253.984 285.459 254.672 285.688H254.694C254.701 285.688 254.709 285.688 254.716 285.695C254.723 285.695 254.731 285.695 254.738 285.702C255.981 286.131 256.809 286.83 257.356 287.536Z" fill="white"/>
<path d="M247.365 287.286C247.18 287.286 246.995 287.286 246.796 287.279C246.508 287.956 245.857 288.993 245.236 289.906C244.563 289.766 243.912 289.582 243.276 289.354C243.187 288.751 243.173 288.177 243.336 287.824C240.148 287.551 241.472 286.543 242.477 285.999V285.992C242.884 285.779 243.232 285.632 243.232 285.632C244.171 285.411 244.829 285.05 245.265 284.586C245.894 283.932 246.093 283.086 246.086 282.188C246.086 282.07 246.086 281.953 246.079 281.835C246.057 281.511 246.012 281.18 245.953 280.856C245.953 280.819 245.945 280.783 245.938 280.746H245.945L246.478 280.319L249.096 278.229L251.174 276.574L251.263 276.501C251.248 276.545 251.241 276.589 251.226 276.641C251.071 277.214 250.908 277.891 250.775 278.613C250.73 278.826 250.693 279.046 250.656 279.267C250.656 279.267 250.656 279.267 250.656 279.275C250.619 279.495 250.582 279.73 250.56 279.952V279.959C250.531 280.114 250.516 280.268 250.501 280.414C250.353 281.746 250.346 283.086 250.619 284.152C250.767 284.718 250.996 285.204 251.336 285.572C251.351 285.594 251.365 285.609 251.388 285.63C251.388 285.63 253.585 287.382 247.365 287.286Z" fill="#EEC1BB"/>
<path opacity="0.2" d="M249.092 278.232L245.941 280.746C246.028 281.227 246.086 281.713 246.085 282.186C247.215 282.026 248.841 280.806 249.047 279.641C249.15 279.06 249.167 278.502 249.092 278.232Z" fill="black"/>
<path d="M253.503 271.258C252.708 275.472 252.46 277.268 250.044 279.29C246.408 282.33 241.414 280.722 240.936 276.425C240.506 272.558 241.88 266.316 246.244 264.924C250.544 263.554 254.299 267.045 253.503 271.258Z" fill="#EEC1BB"/>
<path d="M249.861 268.214C252.199 271.215 247.398 274.666 252.199 274.466C256.999 274.266 255.049 267.522 252.199 265.988C249.348 264.456 249.861 268.214 249.861 268.214Z" fill="#263238"/>
<path d="M246.794 271.961C246.742 272.317 246.514 272.593 246.285 272.576C246.056 272.56 245.911 272.257 245.963 271.9C246.014 271.544 246.242 271.268 246.471 271.285C246.701 271.301 246.845 271.604 246.794 271.961Z" fill="#263238"/>
<path d="M242.467 271.707C242.416 272.063 242.188 272.339 241.958 272.323C241.729 272.306 241.584 272.003 241.636 271.646C241.688 271.29 241.915 271.014 242.145 271.031C242.374 271.048 242.519 271.35 242.467 271.707Z" fill="#263238"/>
<path d="M242.244 271.058L241.436 270.749C241.436 270.749 241.772 271.45 242.244 271.058Z" fill="#263238"/>
<path d="M243.587 272.38C243.587 272.38 242.77 273.872 242.007 274.564C242.408 275.037 243.225 274.894 243.225 274.894L243.587 272.38Z" fill="#D4827D"/>
<path d="M245.053 276.36C244.866 276.38 244.668 276.384 244.456 276.369C244.399 276.365 244.36 276.314 244.368 276.257C244.376 276.199 244.428 276.156 244.487 276.16C246.026 276.273 246.904 275.232 246.913 275.222C246.951 275.175 247.017 275.167 247.06 275.201C247.103 275.236 247.108 275.302 247.069 275.348C247.036 275.389 246.329 276.227 245.053 276.36Z" fill="#263238"/>
<path d="M248.002 270.044C247.947 270.045 247.893 270.024 247.855 269.982C247.254 269.313 246.493 269.456 246.484 269.458C246.372 269.479 246.266 269.407 246.252 269.293C246.237 269.179 246.318 269.069 246.433 269.046C246.472 269.038 247.428 268.858 248.173 269.687C248.247 269.77 248.237 269.903 248.148 269.984C248.106 270.024 248.053 270.043 248.002 270.044Z" fill="#263238"/>
<path d="M241.495 269.659C241.442 269.663 241.391 269.648 241.35 269.612C241.267 269.539 241.264 269.407 241.343 269.318C242.143 268.425 243.095 268.519 243.135 268.523C243.249 268.536 243.324 268.639 243.303 268.754C243.281 268.869 243.173 268.951 243.059 268.939C243.022 268.935 242.282 268.873 241.646 269.583C241.605 269.629 241.55 269.655 241.495 269.659Z" fill="#263238"/>
<path d="M246.57 271.312L245.762 271.003C245.762 271.003 246.098 271.704 246.57 271.312Z" fill="#263238"/>
<path d="M248.221 265.878C248.221 265.878 249.053 270.845 252.369 271.676C255.686 272.507 252.993 266.569 252.993 266.569C252.993 266.569 252.297 263.877 247.816 263.877C243.336 263.877 238.166 268.406 239.602 274.915C239.602 274.915 239.356 272.742 240.349 271.03C241.343 269.318 242.365 270.793 248.221 265.878Z" fill="#263238"/>
<path d="M251.238 264.622C255.974 266.507 257.697 269.593 257.295 273.022C256.893 276.452 252.642 280.081 251.953 280.209L249.825 280.509C249.825 280.509 253.1 275.979 252.469 274.444C251.838 272.908 251.207 272.757 251.207 272.757L251.238 264.622Z" fill="#263238"/>
<path d="M253.914 275.322C253.481 276.186 252.769 276.719 252.114 276.892C251.128 277.152 250.7 276.028 251.028 274.905C251.324 273.895 252.192 272.541 253.155 272.786C254.104 273.026 254.411 274.335 253.914 275.322Z" fill="#EEC1BB"/>
<path d="M256.439 286.08C256.823 286.19 257.681 286.521 258.361 286.779C258.036 287.051 257.703 287.301 257.355 287.536C256.571 288.073 255.735 288.544 254.848 288.927C253.761 289.413 252.608 289.773 251.41 289.986C251.484 289.736 251.564 289.493 251.639 289.258C251.654 289.206 251.669 289.155 251.691 289.111C251.72 289.015 251.75 288.927 251.787 288.831C251.794 288.816 251.802 288.795 251.809 288.773C251.876 288.581 251.942 288.397 252.016 288.213C252.135 287.897 252.26 287.603 252.393 287.323C252.43 287.234 252.474 287.146 252.527 287.058C252.564 286.97 252.616 286.881 252.66 286.794C252.667 286.787 252.667 286.787 252.66 286.779C252.675 286.764 252.682 286.749 252.69 286.734C252.749 286.632 252.808 286.536 252.86 286.44C252.933 286.322 253.007 286.204 253.081 286.102C253.251 285.859 253.429 285.66 253.606 285.491C253.606 285.491 253.805 285.528 254.108 285.587C254.22 285.609 254.345 285.631 254.478 285.653C254.538 285.66 254.605 285.675 254.671 285.689H254.693C254.7 285.689 254.708 285.689 254.715 285.696C254.722 285.696 254.73 285.696 254.737 285.703C254.789 285.703 254.848 285.718 254.9 285.733C255.152 285.784 255.418 285.835 255.654 285.895C255.714 285.902 255.773 285.917 255.824 285.931C255.994 285.96 256.15 286.004 256.275 286.034C256.336 286.049 256.394 286.065 256.439 286.08Z" fill="#263238"/>
<path opacity="0.2" d="M256.439 286.08C256.823 286.19 257.681 286.521 258.361 286.779C258.036 287.051 257.703 287.301 257.355 287.536C256.571 288.073 255.735 288.544 254.848 288.927C253.761 289.413 252.608 289.773 251.41 289.986C251.484 289.736 251.564 289.493 251.639 289.258C251.654 289.206 251.669 289.155 251.691 289.111C251.72 289.015 251.75 288.927 251.787 288.831C251.794 288.816 251.802 288.795 251.809 288.773C251.876 288.581 251.942 288.397 252.016 288.213C252.135 287.897 252.26 287.603 252.393 287.323C252.43 287.234 252.474 287.146 252.527 287.058C252.564 286.97 252.616 286.881 252.66 286.794C252.667 286.787 252.667 286.787 252.66 286.779C252.675 286.764 252.682 286.749 252.69 286.734C252.749 286.632 252.808 286.536 252.86 286.44C252.933 286.322 253.007 286.204 253.081 286.102C253.251 285.859 253.429 285.66 253.606 285.491C253.606 285.491 253.805 285.528 254.108 285.587C254.22 285.609 254.345 285.631 254.478 285.653C254.538 285.66 254.605 285.675 254.671 285.689H254.693C254.7 285.689 254.708 285.689 254.715 285.696C254.722 285.696 254.73 285.696 254.737 285.703C254.789 285.703 254.848 285.718 254.9 285.733C255.152 285.784 255.418 285.835 255.654 285.895C255.714 285.902 255.773 285.917 255.824 285.931C255.994 285.96 256.15 286.004 256.275 286.034C256.336 286.049 256.394 286.065 256.439 286.08Z" fill="white"/>
<path d="M254.849 288.927C253.762 289.413 252.609 289.773 251.411 289.986C251.411 289.986 251.411 289.986 251.411 289.993C251.315 290.015 251.211 290.03 251.115 290.045C251.204 289.75 251.3 289.463 251.396 289.183C251.751 288.175 252.166 287.278 252.653 286.572C252.941 286.138 253.26 285.77 253.608 285.49C253.608 285.49 254.279 286.866 254.849 288.927Z" fill="#263238"/>
<path d="M241.287 285.756C241.287 285.756 241.28 285.771 241.265 285.792C241.198 285.91 240.954 286.373 240.629 287.212C240.629 287.212 240.629 287.212 240.629 287.22C240.54 287.433 240.451 287.683 240.355 287.955C240.273 287.911 240.199 287.859 240.126 287.808C239.711 287.543 239.305 287.264 238.92 286.955C238.676 286.771 238.44 286.573 238.21 286.359H238.203C238.144 286.308 238.085 286.257 238.025 286.204C238.72 286.027 239.549 285.858 240.429 285.792C240.71 285.77 240.999 285.756 241.287 285.756Z" fill="#263238"/>
<path opacity="0.2" d="M241.287 285.756C241.287 285.756 241.28 285.771 241.265 285.792C241.198 285.91 240.954 286.373 240.629 287.212C240.629 287.212 240.629 287.212 240.629 287.22C240.54 287.433 240.451 287.683 240.355 287.955C240.273 287.911 240.199 287.859 240.126 287.808C239.711 287.543 239.305 287.264 238.92 286.955C238.676 286.771 238.44 286.573 238.21 286.359H238.203C238.144 286.308 238.085 286.257 238.025 286.204C238.72 286.027 239.549 285.858 240.429 285.792C240.71 285.77 240.999 285.756 241.287 285.756Z" fill="white"/>
<path d="M241.841 285.756C241.619 285.873 241.405 286.182 241.19 286.639C240.998 287.036 240.813 287.536 240.635 288.125C240.539 288.074 240.45 288.014 240.354 287.956C240.272 287.912 240.199 287.86 240.125 287.809C239.71 287.544 239.304 287.265 238.919 286.956C239.297 286.448 239.629 286.087 239.895 285.97H239.91C240.095 285.889 240.272 285.837 240.428 285.793C241.398 285.52 241.841 285.756 241.841 285.756Z" fill="#263238"/>
<path d="M243.313 287.528C243.313 287.624 243.321 287.728 243.336 287.823L241.08 288.375C240.932 288.294 240.784 288.213 240.636 288.124C240.54 288.073 240.451 288.013 240.355 287.955C240.273 287.911 240.199 287.859 240.125 287.808C240.266 287.624 240.436 287.426 240.628 287.22C240.628 287.212 240.628 287.212 240.628 287.212C240.798 287.021 240.983 286.83 241.19 286.639C241.508 286.33 241.878 286.021 242.277 285.741C243.12 285.153 244.126 284.689 245.265 284.586C245.294 284.586 245.317 284.579 245.347 284.579C245.347 284.579 243.328 285.976 243.313 287.528Z" fill="#00CBCC"/>
<path d="M252.301 289.472L246.847 287.709C246.847 287.709 249.733 285.392 250.633 284.138L252.434 285.484C252.434 285.484 252.434 285.484 252.44 285.489C252.48 285.588 253.014 286.906 252.301 289.472Z" fill="#00CBCC"/>
<path opacity="0.6" d="M243.313 287.528C243.313 287.624 243.321 287.728 243.336 287.823L241.08 288.375C240.932 288.294 240.784 288.213 240.636 288.124C240.54 288.073 240.451 288.013 240.355 287.955C240.273 287.911 240.199 287.859 240.125 287.808C240.266 287.624 240.436 287.426 240.628 287.22C240.628 287.212 240.628 287.212 240.628 287.212C240.798 287.021 240.983 286.83 241.19 286.639C241.508 286.33 241.878 286.021 242.277 285.741C243.12 285.153 244.126 284.689 245.265 284.586C245.294 284.586 245.317 284.579 245.347 284.579C245.347 284.579 243.328 285.976 243.313 287.528Z" fill="white"/>
<path opacity="0.6" d="M252.301 289.472L246.847 287.709C246.847 287.709 249.733 285.392 250.633 284.138L252.434 285.484C252.434 285.484 252.434 285.484 252.44 285.489C252.48 285.588 253.014 286.906 252.301 289.472Z" fill="white"/>
<path d="M224.05 290.259C221.613 290.259 219.629 288.285 219.629 285.86C219.629 283.435 221.613 281.461 224.05 281.461C226.488 281.461 228.472 283.435 228.472 285.86C228.471 288.285 226.488 290.259 224.05 290.259Z" fill="#00CBCC" stroke="white" stroke-width="0.9313" stroke-miterlimit="10"/>
<path d="M221.578 285.327L223.528 287.615L226.523 284.104" stroke="white" stroke-width="1.151" stroke-miterlimit="10" stroke-linecap="round" stroke-linejoin="round"/>
<path d="M259.709 290.259C257.271 290.259 255.288 288.285 255.288 285.86C255.288 283.435 257.271 281.461 259.709 281.461C262.147 281.461 264.131 283.435 264.131 285.86C264.13 288.285 262.147 290.259 259.709 290.259Z" fill="#00CBCC" stroke="white" stroke-width="0.9313" stroke-miterlimit="10"/>
<path d="M257.236 285.327L259.187 287.615L262.182 284.104" stroke="white" stroke-width="1.151" stroke-miterlimit="10" stroke-linecap="round" stroke-linejoin="round"/>
<path d="M243.857 300.328L248.538 302.798L253.218 300.328" stroke="white" stroke-width="0.9313" stroke-miterlimit="10" stroke-linecap="round" stroke-linejoin="round"/>
<path d="M243.857 297.384L248.538 299.852L253.218 297.384" stroke="white" stroke-width="0.9313" stroke-miterlimit="10" stroke-linecap="round" stroke-linejoin="round"/>
<path opacity="0.6" d="M201.874 112.432H203.353V110.471H201.874V112.432Z" fill="white"/>
<path opacity="0.6" d="M199.464 112.432H200.942V109.817H199.464V112.432Z" fill="white"/>
<path opacity="0.6" d="M197.054 112.432H198.533V109.162H197.054V112.432Z" fill="white"/>
<path opacity="0.6" d="M194.645 112.432H196.123V108.507H194.645V112.432Z" fill="white"/>
<path opacity="0.6" d="M294.846 109.755H293.969V111.716H294.846V109.755Z" fill="white"/>
<path opacity="0.6" d="M295.448 112.432H302.431V109.039H295.448V112.432Z" fill="white"/>
<path opacity="0.2" d="M301.934 103.807L188.681 216.49V106.434C188.681 105.035 189.716 103.807 191.121 103.807H219.539C220.345 103.807 221.07 104.329 221.374 105.079L222.55 107.964C222.845 108.707 223.577 109.222 224.376 109.222H272.761C273.559 109.222 274.291 108.729 274.588 107.986L275.763 105.087C276.067 104.337 276.792 103.808 277.598 103.808L301.934 103.807Z" fill="white"/>
<path opacity="0.2" d="M308.397 124.695V133.944L188.681 253.05V243.808L308.397 124.695Z" fill="white"/>
<path d="M118.548 98.8235H147.589C149.715 98.8235 151.44 100.539 151.44 102.655V125.615C151.44 127.73 149.716 129.445 147.589 129.445H145.051L150.25 139.671L140.651 129.445H118.547C116.421 129.445 114.697 127.73 114.697 125.615V102.654C114.698 100.539 116.422 98.8235 118.548 98.8235Z" fill="#00CBCC"/>
<path opacity="0.7" d="M118.548 98.8235H147.589C149.715 98.8235 151.44 100.539 151.44 102.655V125.615C151.44 127.73 149.716 129.445 147.589 129.445H145.051L150.25 139.671L140.651 129.445H118.547C116.421 129.445 114.697 127.73 114.697 125.615V102.654C114.698 100.539 116.422 98.8235 118.548 98.8235Z" fill="white"/>
<path d="M147.2 96.7592H118.937V124.56H147.2V96.7592Z" fill="white"/>
<path d="M147.2 96.7592H118.937V103.285H147.2V96.7592Z" fill="#00CBCC"/>
<path d="M123.512 100.932C122.899 100.932 122.403 100.438 122.403 99.8284V95.7852C122.403 95.1753 122.899 94.6815 123.512 94.6815C124.125 94.6815 124.621 95.1753 124.621 95.7852V99.8284C124.621 100.438 124.125 100.932 123.512 100.932Z" fill="#263238"/>
<path d="M128.29 100.932C127.677 100.932 127.181 100.438 127.181 99.8284V95.7852C127.181 95.1753 127.677 94.6815 128.29 94.6815C128.903 94.6815 129.4 95.1753 129.4 95.7852V99.8284C129.4 100.438 128.903 100.932 128.29 100.932Z" fill="#263238"/>
<path d="M133.069 100.932C132.456 100.932 131.959 100.438 131.959 99.8284V95.7852C131.959 95.1753 132.456 94.6815 133.069 94.6815C133.682 94.6815 134.178 95.1753 134.178 95.7852V99.8284C134.178 100.438 133.682 100.932 133.069 100.932Z" fill="#263238"/>
<path d="M137.847 100.932C137.234 100.932 136.738 100.438 136.738 99.8284V95.7852C136.738 95.1753 137.234 94.6815 137.847 94.6815C138.46 94.6815 138.956 95.1753 138.956 95.7852V99.8284C138.956 100.438 138.46 100.932 137.847 100.932Z" fill="#263238"/>
<path d="M142.625 100.932C142.012 100.932 141.516 100.438 141.516 99.8284V95.7852C141.516 95.1753 142.012 94.6815 142.625 94.6815C143.238 94.6815 143.735 95.1753 143.735 95.7852V99.8284C143.735 100.438 143.238 100.932 142.625 100.932Z" fill="#263238"/>
<g opacity="0.7">
<path d="M123.512 100.932C122.899 100.932 122.403 100.438 122.403 99.8284V95.7852C122.403 95.1753 122.899 94.6815 123.512 94.6815C124.125 94.6815 124.621 95.1753 124.621 95.7852V99.8284C124.621 100.438 124.125 100.932 123.512 100.932Z" fill="white"/>
<path d="M128.29 100.932C127.677 100.932 127.181 100.438 127.181 99.8284V95.7852C127.181 95.1753 127.677 94.6815 128.29 94.6815C128.903 94.6815 129.4 95.1753 129.4 95.7852V99.8284C129.4 100.438 128.903 100.932 128.29 100.932Z" fill="white"/>
<path d="M133.069 100.932C132.456 100.932 131.959 100.438 131.959 99.8284V95.7852C131.959 95.1753 132.456 94.6815 133.069 94.6815C133.682 94.6815 134.178 95.1753 134.178 95.7852V99.8284C134.178 100.438 133.682 100.932 133.069 100.932Z" fill="white"/>
<path d="M137.847 100.932C137.234 100.932 136.738 100.438 136.738 99.8284V95.7852C136.738 95.1753 137.234 94.6815 137.847 94.6815C138.46 94.6815 138.956 95.1753 138.956 95.7852V99.8284C138.956 100.438 138.46 100.932 137.847 100.932Z" fill="white"/>
<path d="M142.625 100.932C142.012 100.932 141.516 100.438 141.516 99.8284V95.7852C141.516 95.1753 142.012 94.6815 142.625 94.6815C143.238 94.6815 143.735 95.1753 143.735 95.7852V99.8284C143.735 100.438 143.238 100.932 142.625 100.932Z" fill="white"/>
</g>
<path d="M132.603 116.937V118.588H124.82V117.282L129.014 113.32C130.039 112.344 130.22 111.729 130.22 111.144C130.22 110.183 129.557 109.628 128.259 109.628C127.233 109.628 126.374 109.973 125.786 110.723L124.413 109.673C125.228 108.577 126.691 107.931 128.425 107.931C130.718 107.931 132.196 109.086 132.196 110.948C132.196 111.968 131.909 112.899 130.446 114.264L127.625 116.935H132.603V116.937Z" fill="#263238"/>
<path d="M141.379 116.937V118.588H133.596V117.282L137.789 113.32C138.815 112.344 138.996 111.729 138.996 111.144C138.996 110.183 138.333 109.628 137.035 109.628C136.009 109.628 135.15 109.973 134.562 110.723L133.189 109.673C134.004 108.577 135.467 107.931 137.201 107.931C139.494 107.931 140.972 109.086 140.972 110.948C140.972 111.968 140.685 112.899 139.222 114.264L136.401 116.935H141.379V116.937Z" fill="#263238"/>
<path d="M160.688 164.05C160.136 165.137 159.631 166.047 159.081 167.019C158.536 167.972 157.976 168.914 157.4 169.847C156.245 171.71 155.002 173.527 153.685 175.31C152.364 177.093 150.947 178.829 149.385 180.49C147.82 182.151 146.116 183.747 144.158 185.188L144.066 185.257C143.09 185.974 141.869 186.162 140.779 185.881C138.939 185.394 137.527 184.267 136.614 183.206C135.68 182.126 135.088 181.049 134.607 180.014C133.672 177.942 133.179 175.979 132.788 174.043C132.414 172.107 132.211 170.202 132.079 168.311C132.029 167.364 131.999 166.421 131.987 165.477L131.985 164.061L131.994 163.348C131.98 163.106 132.026 162.876 132.584 162.593C133.878 161.937 135.311 161.843 136.602 162.22L137.594 162.512C138.16 162.678 138.221 162.897 138.225 163.104L138.297 163.738L138.462 165.012C138.581 165.861 138.716 166.708 138.869 167.546C139.146 169.226 139.494 170.879 139.909 172.451C140.317 174.016 140.834 175.53 141.464 176.703C141.773 177.281 142.12 177.761 142.394 178.02C142.68 178.293 142.794 178.267 142.717 178.223L139.338 178.916C142.084 176.689 144.532 173.614 146.759 170.401C147.87 168.781 148.918 167.098 149.918 165.381C150.42 164.524 150.907 163.657 151.378 162.785C151.839 161.929 152.322 160.997 152.696 160.212L152.719 160.166C153.77 157.964 156.416 157.025 158.63 158.07C160.844 159.115 161.787 161.749 160.736 163.952C160.723 163.979 160.701 164.025 160.688 164.05Z" fill="#263238"/>
<path d="M158.352 318.383L163.734 314.638C163.915 314.501 164.166 314.511 164.335 314.661L167.826 317.971C168.139 318.305 168.12 318.829 167.784 319.141C167.742 319.179 167.697 319.214 167.649 319.243C165.77 320.504 164.744 321.082 162.402 322.708C160.963 323.704 154.842 327.333 152.532 327.595C150.221 327.856 149.866 325.689 150.794 325.297C155.478 323.324 157.231 320.986 157.759 319.188C157.863 318.861 158.071 318.579 158.352 318.383Z" fill="#263238"/>
<path opacity="0.2" d="M158.352 318.383L163.734 314.638C163.915 314.501 164.166 314.511 164.335 314.661L167.826 317.971C168.139 318.305 168.12 318.829 167.784 319.141C167.742 319.179 167.697 319.214 167.649 319.243C165.77 320.504 164.744 321.082 162.402 322.708C160.963 323.704 154.842 327.333 152.532 327.595C150.221 327.856 149.866 325.689 150.794 325.297C155.478 323.324 157.231 320.986 157.759 319.188C157.863 318.861 158.071 318.579 158.352 318.383Z" fill="black"/>
<path d="M157.306 196.341C157.306 196.341 137.051 241.177 135.959 257.158C134.761 274.682 156.667 319.794 156.667 319.794L166.638 317.172C166.638 317.172 151.159 271.596 152.202 258.167C155.53 238.955 178.699 199.524 178.699 199.524L157.306 196.341Z" fill="#263238"/>
<path opacity="0.2" d="M159.573 294.602C163.137 306.868 166.642 317.176 166.642 317.176L156.666 319.795C156.666 319.795 155.957 318.338 154.803 315.844C149.538 304.469 134.978 271.536 135.961 257.159C137.048 241.178 157.302 196.341 157.302 196.341L178.703 199.527C178.703 199.527 155.528 238.957 152.199 258.168C151.652 265.209 155.653 281.086 159.573 294.602Z" fill="white"/>
<path opacity="0.2" d="M170.415 209.673C165.145 212.048 161.621 224.52 161.852 231.102C165.516 223.256 169.544 215.574 172.735 209.698C172.022 209.275 171.136 209.265 170.415 209.673Z" fill="black"/>
<path opacity="0.2" d="M166.642 317.176L156.666 319.795C156.666 319.795 155.956 318.338 154.802 315.844C157.568 308.494 158.973 299.4 159.572 294.603C163.137 306.868 166.642 317.176 166.642 317.176Z" fill="black"/>
<path d="M157.026 193.427L186.595 194.454C186.595 194.454 186.786 204.1 184.549 211.281L155.199 201.109L157.026 193.427Z" fill="#263238"/>
<path opacity="0.2" d="M157.026 193.427L186.595 194.454C186.595 194.454 186.786 204.1 184.549 211.281L155.199 201.109L157.026 193.427Z" fill="white"/>
<path d="M162.82 322.225L169.55 322.445C169.777 322.453 169.968 322.617 170.01 322.839L170.94 327.783C171.02 328.225 170.723 328.648 170.278 328.726C170.218 328.736 170.158 328.74 170.098 328.738C167.921 328.632 166.341 328.447 163.606 328.358C161.922 328.303 156.836 328.313 154.51 328.237C152.184 328.161 151.957 325.865 152.915 325.686C157.216 324.9 160.471 323.721 161.878 322.546C162.14 322.322 162.476 322.208 162.82 322.225Z" fill="#263238"/>
<path d="M167.883 195.694C167.883 195.694 162.781 242.708 162.551 258.869C162.291 276.588 161.281 322.539 161.281 322.539L170.804 323.981C170.804 323.981 176.1 280.451 177.892 263.281C179.927 243.713 185.578 203.929 185.578 203.929L167.883 195.694Z" fill="#263238"/>
<path opacity="0.2" d="M167.883 195.694C167.883 195.694 162.781 242.708 162.551 258.869C162.291 276.588 161.281 322.539 161.281 322.539L170.804 323.981C170.804 323.981 176.1 280.451 177.892 263.281C179.927 243.713 185.578 203.929 185.578 203.929L167.883 195.694Z" fill="white"/>
<path d="M161.815 197.661L175.714 198.538L175.887 195.162L161.981 194.455L161.815 197.661Z" fill="#263238"/>
<path d="M176.944 195.216L176.769 198.604L186.269 199.203L186.449 195.7L176.944 195.216Z" fill="#263238"/>
<path d="M160.925 194.4L156.876 194.194L156.337 197.316L160.76 197.595L160.925 194.4Z" fill="#263238"/>
<path d="M170.391 194.673L164.921 194.394L164.72 198.316L170.19 198.594L170.391 194.673Z" fill="white"/>
<path d="M154.244 153.647C151.725 154.134 144.347 171.544 144.347 171.544L151.314 180.314L154.365 176.078L154.244 153.647Z" fill="#00CBCC"/>
<path opacity="0.4" d="M154.244 153.645L154.306 164.728L154.363 176.078L151.314 180.316L149.581 178.129L144.346 171.544C144.346 171.544 151.721 154.133 154.244 153.645Z" fill="white"/>
<path opacity="0.2" d="M154.305 164.728L154.362 176.078L151.313 180.316L149.581 178.129C149.116 171.631 152.508 166.8 154.305 164.728Z" fill="black"/>
<path d="M142.678 160.479C142.732 160.774 142.53 161.03 142.228 161.05L136.84 161.412C136.537 161.433 136.247 161.21 136.193 160.914L134.273 150.414C134.219 150.119 134.415 149.79 134.718 149.77L140.106 149.408C140.409 149.387 140.703 149.684 140.758 149.979L142.678 160.479Z" fill="#263238"/>
<path opacity="0.5" d="M140.155 149.949L142.098 160.551C142.153 160.85 142.009 161.065 141.708 161.085L137.139 161.391C136.832 161.412 136.259 161.282 136.204 160.983L134.259 150.345C134.204 150.046 134.711 149.77 135.017 149.749L139.587 149.443C139.888 149.422 140.1 149.65 140.155 149.949Z" fill="white"/>
<path d="M154.244 153.647C154.244 153.647 173.347 150.748 187.975 152.073C187.975 152.073 184.312 180.186 186.227 194.871L157.51 193.897C157.51 193.897 150.991 169.393 154.244 153.647Z" fill="#263238"/>
<path d="M176.609 151.907C174.138 154.709 167.284 154.549 167.284 154.549C167.284 154.549 162.94 153.877 163.676 152.468C166.111 151.779 167.181 150.492 167.509 148.962C167.699 148.07 167.632 147.1 167.44 146.114C167.345 145.595 167.205 145.075 167.052 144.563L174.696 137.474C174.064 141.655 173.577 149.27 176.609 151.907Z" fill="#EBB376"/>
<path opacity="0.2" d="M173.213 141.599C173.45 146.618 169.492 148.455 167.509 148.962C167.699 148.07 167.632 147.1 167.44 146.114L173.213 141.599Z" fill="black"/>
<path d="M176.434 150.374L172.775 152.733L179.857 199.203L191.365 203.503L187.974 152.073L176.434 150.374Z" fill="#00CBCC"/>
<path opacity="0.4" d="M191.364 203.502L179.857 199.205L172.772 152.734L176.434 150.38L187.977 152.079L188.354 156.493L188.968 163.623L189.693 172.173L190.329 184.151L191.364 203.502Z" fill="white"/>
<path d="M172.775 152.733L176.918 148.651L180.019 150.658L177.021 155.521L172.775 152.733Z" fill="#00CBCC"/>
<path opacity="0.6" d="M172.775 152.733L176.918 148.651L180.019 150.658L177.021 155.521L172.775 152.733Z" fill="white"/>
<path d="M163.676 152.468C162.06 155.331 159.206 202.64 159.206 202.64L153.196 202.622C153.196 202.622 150.793 157.17 154.244 153.647L163.676 152.468Z" fill="#00CBCC"/>
<path opacity="0.4" d="M163.676 152.468C162.06 155.331 159.206 202.64 159.206 202.64L153.196 202.622C153.196 202.622 150.793 157.17 154.244 153.647L163.676 152.468Z" fill="white"/>
<path d="M164.802 150.017L161.06 152.762L161.148 155.41L164.372 152.556L164.802 150.017Z" fill="#00CBCC"/>
<path opacity="0.6" d="M164.802 150.017L161.06 152.762L161.148 155.41L164.372 152.556L164.802 150.017Z" fill="white"/>
<path opacity="0.2" d="M188.967 163.623L189.694 172.172C186.638 167.92 187.494 160.985 187.494 160.985C187.494 160.985 188.119 162.068 188.967 163.623Z" fill="black"/>
<path d="M164.002 129.203C166.449 130.48 165.712 133.196 161.037 137.845C158.643 135.387 157.698 130.197 159.207 128.694C160.716 127.192 161.87 128.1 164.002 129.203Z" fill="#263238"/>
<path d="M174.254 132.309C174.639 137.861 175.144 141.088 172.726 144.28C169.083 149.079 161.917 147.45 159.871 142.122C158.04 137.336 157.712 129.058 162.84 126.163C166.494 124.077 171.157 125.332 173.254 128.967C173.843 129.99 174.186 131.133 174.254 132.309Z" fill="#EBB376"/>
<path d="M166.187 134.896C166.246 135.344 166.053 135.739 165.759 135.776C165.464 135.814 165.182 135.486 165.124 135.037C165.065 134.589 165.251 134.196 165.544 134.153C165.836 134.11 166.098 134.459 166.187 134.896Z" fill="#263238"/>
<path d="M161.067 135.571C161.125 136.019 160.933 136.414 160.639 136.451C160.344 136.488 160.057 136.162 159.996 135.708C159.934 135.253 160.13 134.865 160.424 134.828C160.717 134.791 161.008 135.123 161.067 135.571Z" fill="#263238"/>
<path d="M162.765 135.564C162.409 137.005 161.854 138.389 161.117 139.679C162.028 140.313 163.325 139.797 163.325 139.797L162.765 135.564Z" fill="#D58745"/>
<path d="M167.374 133.107C167.433 133.106 167.491 133.086 167.537 133.049C167.643 132.946 167.646 132.778 167.545 132.672C166.957 132.046 166.1 131.745 165.247 131.866C165.106 131.889 165.012 132.02 165.034 132.16C165.035 132.166 165.036 132.172 165.038 132.178C165.071 132.319 165.209 132.41 165.352 132.386C166.025 132.301 166.697 132.545 167.159 133.041C167.218 133.092 167.296 133.117 167.374 133.107Z" fill="#263238"/>
<path d="M158.508 134.158C158.611 134.144 158.696 134.073 158.73 133.977C158.926 133.329 159.421 132.815 160.062 132.591C160.204 132.552 160.289 132.407 160.253 132.265C160.215 132.126 160.072 132.041 159.931 132.074C159.114 132.344 158.479 132.991 158.226 133.809C158.179 133.946 158.252 134.095 158.39 134.143C158.392 134.143 158.392 134.144 158.394 134.144C158.431 134.155 158.469 134.16 158.508 134.158Z" fill="#263238"/>
<path d="M171.406 127.715C168.934 128.935 169.617 131.67 174.192 136.41C176.639 134.002 177.695 128.827 176.211 127.303C174.727 125.777 173.565 126.654 171.406 127.715Z" fill="#263238"/>
<path d="M177.471 136.37C177.262 137.755 176.508 139.001 175.377 139.835C173.869 140.923 172.471 139.734 172.347 137.984C172.236 136.405 172.892 133.935 174.664 133.542C176.435 133.15 177.72 134.67 177.471 136.37Z" fill="#EBB376"/>
<path d="M175.829 126.962C175.829 126.962 176.518 124.864 172.83 122.478C169.141 120.093 162.72 121.247 158.379 123.812C154.038 126.378 158.656 130.511 160.629 130.771L160.138 130.039C160.138 130.039 163.565 130.575 166.447 129.549L165.224 129.021C165.224 129.021 173.238 128.3 175.829 126.962Z" fill="#263238"/>
<path d="M164.134 141.071C164.522 141.69 164.98 142.883 164.98 142.883C165.096 142.861 165.213 142.84 165.327 142.812C166.895 142.476 167.511 141.806 167.719 141.164C167.831 140.812 167.816 140.465 167.768 140.19C167.716 139.872 167.605 139.657 167.605 139.657C166.88 140.329 165.443 140.753 164.665 140.949C164.342 141.034 164.134 141.071 164.134 141.071Z" fill="#263238"/>
<path d="M164.667 140.949L164.93 141.477C166.406 141.157 167.403 140.735 167.769 140.191C167.716 139.873 167.606 139.658 167.606 139.658C166.882 140.329 165.444 140.753 164.667 140.949Z" fill="white"/>
<path d="M165.327 142.812C166.895 142.476 167.511 141.806 167.719 141.164C167.189 141.299 166.565 141.52 166.051 141.879C165.658 142.153 165.447 142.491 165.327 142.812Z" fill="#A24E3F"/>
<path d="M192.603 159.793C193.727 161.662 194.703 163.426 195.682 165.285C196.646 167.131 197.55 169.015 198.399 170.953C199.249 172.891 200.031 174.885 200.674 177.018C200.994 178.088 201.284 179.19 201.505 180.367C201.723 181.545 201.882 182.803 201.832 184.259L201.828 184.377C201.82 184.602 201.783 184.838 201.731 185.049C201.369 186.46 200.876 187.652 200.341 188.768C199.804 189.882 199.223 190.917 198.62 191.916C197.407 193.904 196.101 195.743 194.75 197.521C193.391 199.293 191.963 200.983 190.502 202.631C189.76 203.446 189.009 204.251 188.249 205.046L187.098 206.233L186.514 206.823C186.329 207.034 186.11 207.198 185.491 207.039C183.914 206.634 182.692 205.555 182.056 204.191L181.81 203.656C181.556 203.104 181.695 202.87 181.87 202.684L182.356 202.074L183.322 200.839C183.961 200.011 184.59 199.176 185.208 198.333C186.465 196.669 187.671 194.974 188.828 193.277C189.987 191.584 191.076 189.864 192.01 188.143C192.921 186.449 193.731 184.647 194 183.269L193.899 184.059C193.884 182.932 193.433 181.191 192.84 179.552C192.236 177.88 191.482 176.168 190.663 174.467C189.843 172.764 188.935 171.074 187.996 169.394C187.068 167.73 186.057 166.012 185.077 164.471L185.046 164.423C183.735 162.363 184.352 159.636 186.422 158.331C188.492 157.027 191.234 157.639 192.545 159.699C192.561 159.725 192.588 159.768 192.603 159.793Z" fill="#263238"/>
<path opacity="0.2" d="M190.329 184.151C184.901 178.948 182.069 168.516 182.069 168.516C182.535 164.543 185.079 159.701 188.355 156.493L188.969 163.623L189.694 172.173L190.329 184.151Z" fill="black"/>
<path d="M187.977 152.076C191.654 153.148 199.455 170.473 199.455 170.473L188.539 178.417L182.071 168.512C182.071 168.512 180.288 161.159 182.071 156.668C183.853 152.178 187.977 152.076 187.977 152.076Z" fill="#00CBCC"/>
<path opacity="0.4" d="M187.977 152.076C191.654 153.148 199.455 170.473 199.455 170.473L188.539 178.417L182.071 168.512C182.071 168.512 180.288 161.159 182.071 156.668C183.853 152.178 187.977 152.076 187.977 152.076Z" fill="white"/>
<path d="M132.454 163.273L132.11 157.113L138.47 159.717C138.47 159.717 138.443 165.232 135.588 165.099L132.454 163.273Z" fill="#EBB376"/>
<path d="M135.01 151.726L139.715 155.813L138.47 159.718L132.111 157.113L135.01 151.726Z" fill="#EBB376"/>
<path d="M181.277 200.689C181.277 200.689 186.04 203.939 187.384 208.718L181.277 216.795C181.277 216.795 176.328 206.508 181.277 200.689Z" fill="#263238"/>
<path opacity="0.2" d="M181.277 200.689C181.277 200.689 186.04 203.939 187.384 208.718L181.277 216.795C181.277 216.795 176.328 206.508 181.277 200.689Z" fill="white"/>
</svg>
