<svg width="34" height="28" viewBox="0 0 34 28" fill="none" xmlns="http://www.w3.org/2000/svg">
<g clip-path="url(#clip0_28_217)">
<path d="M17.3105 11.4545V16.8763H26.2206C25.8294 18.6199 24.6552 20.0963 22.8943 21.0891L28.2675 24.6145C31.398 22.171 33.2042 18.5819 33.2042 14.3182C33.2042 13.3255 33.0988 12.3709 32.9031 11.4546L17.3105 11.4545Z" fill="#4285F4"/>
<path d="M8.0323 16.6647L6.82045 17.4491L2.53088 20.2745C5.25508 24.8436 10.8385 28 17.3104 28C21.7804 28 25.528 26.7527 28.2673 24.6146L22.8942 21.0891C21.4192 21.9291 19.5378 22.4382 17.3104 22.4382C13.0058 22.4382 9.34858 19.9819 8.03906 16.6728L8.0323 16.6647Z" fill="#34A853"/>
<path d="M2.53089 7.72546C1.40214 9.60902 0.75502 11.7345 0.75502 13.9999C0.75502 16.2653 1.40214 18.3908 2.53089 20.2744C2.53089 20.287 8.0396 16.6598 8.0396 16.6598C7.70849 15.8198 7.51277 14.929 7.51277 13.9998C7.51277 13.0706 7.70849 12.1797 8.0396 11.3397L2.53089 7.72546Z" fill="#FBBC05"/>
<path d="M17.3107 5.57454C19.749 5.57454 21.9163 6.28725 23.6471 7.66181L28.3881 3.65277C25.5134 1.38736 21.7809 0 17.3107 0C10.8389 0 5.25508 3.14363 2.53088 7.72546L8.03942 11.34C9.34877 8.03089 13.0062 5.57454 17.3107 5.57454Z" fill="#EA4335"/>
</g>
<defs>
<clipPath id="clip0_28_217">
<rect width="33.1119" height="28" fill="white" transform="translate(0.75502)"/>
</clipPath>
</defs>
</svg>
