<svg width="33" height="29" viewBox="0 0 33 29" fill="none" xmlns="http://www.w3.org/2000/svg">
<g clip-path="url(#clip0_28_206)">
<path d="M32.6931 14.6833C32.6931 6.95143 25.5843 0.68335 16.8153 0.68335C8.04629 0.68335 0.937492 6.95143 0.937492 14.6833C0.937492 21.2488 6.06411 26.7581 12.9798 28.2712V18.9618H9.70584V14.6833H12.9798V12.8398C12.9798 8.07479 15.4256 5.86615 20.7314 5.86615C21.7374 5.86615 23.4731 6.04031 24.1832 6.21391V10.0919C23.8085 10.0572 23.1575 10.0398 22.349 10.0398C19.7457 10.0398 18.7397 10.9095 18.7397 13.1702V14.6833H23.926L23.0349 18.9618H18.7397V28.5809C26.6017 27.7437 32.6937 21.8413 32.6937 14.6833H32.6931Z" fill="#0866FF"/>
<path d="M23.0343 18.9617L23.9253 14.6833H18.739V13.1702C18.739 10.9094 19.745 10.0398 22.3484 10.0398C23.1569 10.0398 23.8078 10.0571 24.1826 10.0918V6.21385C23.4725 6.03969 21.7367 5.86609 20.7307 5.86609C15.425 5.86609 12.9792 8.07473 12.9792 12.8398V14.6833H9.7052V18.9617H12.9792V28.2711C14.2075 28.5399 15.4923 28.6833 16.8146 28.6833C17.4656 28.6833 18.1077 28.648 18.7384 28.5808V18.9617H23.0336H23.0343Z" fill="white"/>
</g>
<defs>
<clipPath id="clip0_28_206">
<rect x="0.937492" y="0.68335" width="31.7556" height="28" rx="14" fill="white"/>
</clipPath>
</defs>
</svg>
