<svg width="18" height="13" viewBox="0 0 18 13" fill="none" xmlns="http://www.w3.org/2000/svg">
<path fill-rule="evenodd" clip-rule="evenodd" d="M8.67025 12.7279C8.45928 12.9021 8.17318 13 7.87486 13C7.57655 13 7.29045 12.9021 7.07948 12.7279L0.329389 7.15148C0.118481 6.97719 0 6.74083 0 6.49439C0 6.24795 0.118481 6.01159 0.329389 5.8373L7.07948 0.260894C7.29166 0.0915959 7.57584 -0.00208243 7.87082 3.51338e-05C8.16579 0.0021527 8.44796 0.0998969 8.65655 0.272215C8.86513 0.444534 8.98345 0.677639 8.98601 0.921325C8.98858 1.16501 8.87518 1.39978 8.67025 1.57507L3.84056 5.56499H16.875C17.1734 5.56499 17.4595 5.66291 17.6705 5.8372C17.8815 6.0115 18 6.2479 18 6.49439C18 6.74088 17.8815 6.97728 17.6705 7.15158C17.4595 7.32587 17.1734 7.42379 16.875 7.42379H3.84056L8.67025 11.4137C8.88116 11.588 8.99964 11.8244 8.99964 12.0708C8.99964 12.3172 8.88116 12.5536 8.67025 12.7279Z" fill="black"/>
</svg>
