<svg width="32" height="32" viewBox="0 0 32 32" fill="none" xmlns="http://www.w3.org/2000/svg">
<path d="M16 9.77778V16L20.6667 20.6667M30 16C30 17.8385 29.6379 19.659 28.9343 21.3576C28.2307 23.0561 27.1995 24.5995 25.8995 25.8995C24.5995 27.1995 23.0561 28.2307 21.3576 28.9343C19.659 29.6379 17.8385 30 16 30C14.1615 30 12.341 29.6379 10.6424 28.9343C8.94387 28.2307 7.40053 27.1995 6.1005 25.8995C4.80048 24.5995 3.76925 23.0561 3.06569 21.3576C2.36212 19.659 2 17.8385 2 16C2 12.287 3.475 8.72601 6.1005 6.10051C8.72601 3.475 12.287 2 16 2C19.713 2 23.274 3.475 25.8995 6.10051C28.525 8.72601 30 12.287 30 16Z" stroke="#00CBCC" stroke-width="3" stroke-linecap="round" stroke-linejoin="round"/>
</svg>
