<svg width="32" height="26" viewBox="0 0 32 26" fill="none" xmlns="http://www.w3.org/2000/svg">
<path d="M11.3333 14.5714H20.6667M16 9.85714V19.2857M2 20.8571V5.14286C2 4.30932 2.32778 3.50992 2.91122 2.92052C3.49467 2.33112 4.28599 2 5.11111 2H14.4444L17.5556 5.14286H26.8889C27.714 5.14286 28.5053 5.47398 29.0888 6.06338C29.6722 6.65278 30 7.45218 30 8.28571V20.8571C30 21.6907 29.6722 22.4901 29.0888 23.0795C28.5053 23.6689 27.714 24 26.8889 24H5.11111C4.28599 24 3.49467 23.6689 2.91122 23.0795C2.32778 22.4901 2 21.6907 2 20.8571Z" stroke="#00CBCC" stroke-width="3" stroke-linecap="round" stroke-linejoin="round"/>
</svg>
