<svg width="30" height="24" viewBox="0 0 30 24" fill="none" xmlns="http://www.w3.org/2000/svg">
<path d="M10.3333 13.5714H19.6667M15 8.85714V18.2857M1 19.8571V4.14286C1 3.30932 1.32778 2.50992 1.91122 1.92052C2.49467 1.33112 3.28599 1 4.11111 1H13.4444L16.5556 4.14286H25.8889C26.714 4.14286 27.5053 4.47398 28.0888 5.06338C28.6722 5.65278 29 6.45218 29 7.28571V19.8571C29 20.6907 28.6722 21.4901 28.0888 22.0795C27.5053 22.6689 26.714 23 25.8889 23H4.11111C3.28599 23 2.49467 22.6689 1.91122 22.0795C1.32778 21.4901 1 20.6907 1 19.8571Z" stroke="black" stroke-width="2" stroke-linecap="round" stroke-linejoin="round"/>
</svg>
