<svg width="202" height="152" viewBox="0 0 202 152" fill="none" xmlns="http://www.w3.org/2000/svg">
<g clip-path="url(#clip0_16_130)">
<path d="M80.8331 14.6615C78.372 18.866 83.0062 25.9502 78.3357 27.4212L78.7205 27.0397C81.5397 23.6008 75.6471 16.3222 78.4664 12.8833C78.9044 12.3788 79.2804 11.8246 79.5865 11.2321" fill="#2F2E41"/>
<path d="M103.881 76.3436C103.962 75.9229 103.949 75.4897 103.842 75.0747C103.736 74.6596 103.539 74.2727 103.266 73.9412C102.992 73.6097 102.649 73.3417 102.259 73.1561C101.87 72.9705 101.445 72.8718 101.013 72.8669L94.9295 55.3399L91.5623 59.5962L97.9942 75.9732C98.034 76.6932 98.3388 77.3737 98.8507 77.8857C99.3626 78.3978 100.046 78.7058 100.772 78.7515C101.497 78.7971 102.215 78.5772 102.788 78.1335C103.361 77.6897 103.75 77.0529 103.881 76.3436Z" fill="#FFB8B8"/>
<path d="M77.1404 34.0266C77.1404 34.0266 76.9511 27.682 82.6723 31.3165C88.3935 34.9511 100.85 68.9979 100.85 68.9979L94.6511 72.3237L80.5788 41.1671L77.1404 34.0266Z" fill="black"/>
<path d="M94.0194 142.768L91.1625 143.979L85.0941 133.627L89.3107 131.84L94.0194 142.768Z" fill="#FFB6B6"/>
<path d="M97.6422 147.038L95.5935 147.906L94.4012 146.143L94.2912 148.458L88.8574 150.76C88.597 150.871 88.3077 150.896 88.032 150.831C87.7562 150.767 87.5084 150.617 87.3246 150.404C87.1408 150.19 87.0308 149.923 87.0105 149.643C86.9902 149.363 87.0608 149.084 87.2119 148.846L90.2705 144.036L89.4349 142.096L94.1154 140.432L97.6422 147.038Z" fill="#2F2E41"/>
<path d="M49.2352 146.279L46.1323 146.129L45.2404 134.188L49.8204 134.41L49.2352 146.279Z" fill="#FFB6B6"/>
<path d="M50.6104 151.69L48.3851 151.582L48.0905 149.48L46.9706 151.514L41.0685 151.228C40.7856 151.214 40.5145 151.111 40.2949 150.934C40.0752 150.756 39.9184 150.514 39.8474 150.242C39.7764 149.97 39.7949 149.683 39.9002 149.422C40.0056 149.161 40.1922 148.941 40.4328 148.793L45.3051 145.793L45.4089 143.687L50.3519 144.221L50.6104 151.69Z" fill="#2F2E41"/>
<path d="M140.663 144.377C140.869 144.384 141.072 144.329 141.245 144.218C141.417 144.107 141.551 143.946 141.629 143.757C141.707 143.569 141.724 143.361 141.678 143.162C141.632 142.963 141.526 142.783 141.374 142.646C141.348 142.546 141.329 142.475 141.302 142.375C141.494 141.878 141.831 141.449 142.271 141.143C142.71 140.837 143.232 140.669 143.768 140.658C144.305 140.648 144.833 140.797 145.283 141.087C145.734 141.376 146.087 141.792 146.298 142.281C147.513 145.03 149.079 147.872 148.343 150.918C153.295 140.248 151.45 127.051 143.893 118.037C141.818 116.929 140.125 114.941 139.667 112.619C140.692 112.952 141.958 112.116 141.18 111.056C140.843 110.651 140.503 110.25 140.166 109.845C144.008 105.709 148.695 112.108 144.475 117.681C145.89 119.405 147.118 121.272 148.141 123.25C147.889 121.141 148.145 119.004 148.889 117.013C149.644 115.158 151.077 113.587 152.337 111.977C153.869 110.015 157.069 110.883 157.302 113.352C155.875 113.832 155.709 115.884 157.349 116.149C156.964 120.75 153.976 125.003 149.824 127.059C151.406 131.33 152.051 135.887 151.717 140.425C152.403 135.118 158.127 133.778 162.116 131.634C162.369 131.469 162.666 131.381 162.969 131.381C163.272 131.38 163.569 131.467 163.823 131.631C164.077 131.795 164.278 132.029 164.4 132.304C164.523 132.579 164.562 132.883 164.513 133.18C163.962 133.408 163.435 133.691 162.94 134.022C162.708 134.18 162.531 134.405 162.433 134.667C162.335 134.928 162.321 135.213 162.393 135.483C162.465 135.753 162.619 135.994 162.835 136.173C163.05 136.352 163.316 136.461 163.597 136.484C161.623 141.464 156.43 144.844 151.063 144.876C150.569 147.103 149.843 149.274 148.896 151.352L140.931 151.427C140.901 151.34 140.875 151.249 140.848 151.162C141.586 151.201 142.326 151.15 143.051 151.011C141.078 148.739 139.559 147.585 140.663 144.377Z" fill="#ABABAB"/>
<path d="M57.074 68.6602C57.074 68.6602 50.7638 85.7138 50.6619 87.6222C50.5599 89.5306 48.7603 113.664 47.251 115.066C45.7417 116.468 41.1275 138.207 44.7178 139.908C48.3082 141.608 59.6355 138.791 59.6355 138.791L63.5761 113.112L64.9147 93.4384C64.9147 93.4384 68.99 139.766 76.3815 139.63C83.7729 139.494 92.7799 136.702 92.7799 136.702L82.4343 108.646C82.4343 108.646 82.5806 75.4308 80.1826 68.7314C77.7846 62.0321 57.074 68.6602 57.074 68.6602Z" fill="black"/>
<path d="M75.7983 24.7233L67.3475 25.4909L65.9861 29.6352C65.9861 29.6352 58.9139 33.4869 60.4799 35.2367C62.0459 36.9865 60.1297 48.7787 60.1297 48.7787L60.5625 58.3506C60.5625 58.3506 60.0976 64.9823 58.7063 66.5102C57.3151 68.0382 53.6752 71.7849 56.247 69.9924C65.2648 63.7072 81.0269 69.0106 81.0269 69.0106L78.7752 55.3335C78.7752 55.3335 83.8897 32.941 81.8713 31.0498C79.8529 29.1587 77.9485 28.9197 77.9485 28.9197L75.7983 24.7233Z" fill="black"/>
<path d="M31.3931 68.1068C31.8176 68.0284 32.2197 67.8586 32.571 67.6094C32.9222 67.3603 33.2141 67.0377 33.4261 66.6646C33.6381 66.2915 33.765 65.8768 33.7978 65.4497C33.8307 65.0227 33.7688 64.5937 33.6164 64.193L47.8697 52.2012L42.6472 50.6378L29.6009 62.5335C28.939 62.832 28.4105 63.3609 28.1156 64.02C27.8207 64.6791 27.7798 65.4226 28.0008 66.1095C28.2217 66.7965 28.689 67.3793 29.3142 67.7474C29.9395 68.1155 30.6791 68.2433 31.3931 68.1068Z" fill="#FFB8B8"/>
<path d="M67.5912 36.7396C67.5912 36.7396 70.3995 31.0358 63.6765 32.0101C56.9534 32.9845 31.4585 58.9183 31.4585 58.9183L35.7251 64.4814L61.4917 41.8412L67.5912 36.7396Z" fill="#D3A941"/>
<path d="M56.6429 27.0648L29.9874 60.9296C29.5263 61.5174 29.3189 62.2625 29.4108 63.0016C29.5026 63.7407 29.8862 64.4135 30.4774 64.8727C36.6675 79.7775 55.1866 90.8301 76.9718 100.862C77.5643 101.32 78.3157 101.526 79.0612 101.435C79.8066 101.344 80.4852 100.963 80.9479 100.376L107.603 66.5114C108.065 65.9238 108.273 65.1786 108.181 64.4394C108.089 63.7001 107.705 63.0272 107.113 62.5684C88.8316 52.3313 73.1184 40.4707 60.6191 26.5788C60.0264 26.1215 59.2751 25.9159 58.5298 26.007C57.7844 26.0981 57.106 26.4785 56.6429 27.0648Z" fill="#E6E6E6"/>
<path d="M105.733 65.741L97.6189 76.0491C92.6626 82.308 85.4101 86.3675 77.4454 87.3409C69.4808 88.3143 61.4514 86.1225 55.111 81.2441L32.3728 63.6433C32.036 63.3825 31.8172 62.9998 31.7646 62.5792C31.7119 62.1586 31.8296 61.7345 32.0919 61.3999L57.8492 28.6762C58.1128 28.3427 58.4991 28.1264 58.9234 28.075C59.3476 28.0236 59.775 28.1411 60.112 28.4018C71.6142 43.1309 87.0108 54.593 105.454 63.4994C105.79 63.7603 106.008 64.1428 106.061 64.5631C106.113 64.9833 105.995 65.4069 105.733 65.741Z" fill="white"/>
<path d="M56.1112 45.5518L50.8271 52.265C50.6869 52.4428 50.4812 52.5581 50.2553 52.5856C50.0294 52.6132 49.8017 52.5506 49.6222 52.4117C49.4428 52.2728 49.3263 52.0689 49.2984 51.8449C49.2704 51.6209 49.3333 51.395 49.4732 51.217L54.7573 44.5038C54.8266 44.4155 54.9129 44.3416 55.011 44.2864C55.1091 44.2312 55.2173 44.1957 55.3293 44.182C55.4413 44.1682 55.5549 44.1765 55.6637 44.2064C55.7724 44.2362 55.8742 44.287 55.9631 44.3558C56.0521 44.4247 56.1265 44.5102 56.1821 44.6076C56.2376 44.705 56.2733 44.8123 56.2871 44.9234C56.3008 45.0344 56.2924 45.1471 56.2622 45.2549C56.232 45.3628 56.1807 45.4636 56.1112 45.5518Z" fill="#CCCCCC"/>
<path d="M66.0225 40.5721L54.4182 55.3148C54.3488 55.403 54.2626 55.4767 54.1645 55.5319C54.0664 55.587 53.9582 55.6224 53.8463 55.6361C53.7344 55.6497 53.6208 55.6414 53.5122 55.6116C53.4035 55.5817 53.3018 55.531 53.2129 55.4621C53.124 55.3933 53.0496 55.3078 52.994 55.2105C52.9385 55.1132 52.9027 55.006 52.889 54.895C52.8752 54.784 52.8836 54.6714 52.9136 54.5636C52.9437 54.4558 52.9949 54.355 53.0643 54.2668L64.6686 39.5241C64.7379 39.4357 64.8241 39.3617 64.9223 39.3064C65.0204 39.2511 65.1286 39.2156 65.2407 39.2018C65.3527 39.188 65.4664 39.1963 65.5752 39.2261C65.684 39.2559 65.7858 39.3067 65.8748 39.3756C65.9638 39.4445 66.0383 39.5301 66.0939 39.6276C66.1494 39.725 66.1851 39.8324 66.1988 39.9435C66.2125 40.0546 66.204 40.1673 66.1738 40.2752C66.1435 40.383 66.0921 40.4839 66.0225 40.5721Z" fill="#CCCCCC"/>
<path d="M46.2311 65.1628C49.355 65.1628 51.8874 62.6515 51.8874 59.5536C51.8874 56.4557 49.355 53.9444 46.2311 53.9444C43.1072 53.9444 40.5748 56.4557 40.5748 59.5536C40.5748 62.6515 43.1072 65.1628 46.2311 65.1628Z" fill="#D3A941"/>
<path d="M66.6386 52.2238L52.3863 70.3309C52.2375 70.4811 52.0382 70.5718 51.8264 70.5856C51.6146 70.5995 51.4051 70.5355 51.2377 70.406C51.0704 70.2765 50.957 70.0904 50.9191 69.8833C50.8812 69.6761 50.9215 69.4624 51.0323 69.2829L65.2847 51.1758C65.4334 51.0256 65.6327 50.9349 65.8445 50.9211C66.0563 50.9072 66.2659 50.9712 66.4332 51.1007C66.6006 51.2302 66.714 51.4163 66.7519 51.6234C66.7897 51.8305 66.7494 52.0443 66.6386 52.2238Z" fill="#CCCCCC"/>
<path d="M75.8845 48.0896L55.9917 73.3627C55.8429 73.5129 55.6437 73.6036 55.4318 73.6174C55.22 73.6313 55.0105 73.5673 54.8431 73.4378C54.6758 73.3083 54.5624 73.1222 54.5245 72.9151C54.4866 72.7079 54.5269 72.4942 54.6377 72.3147L74.5306 47.0416C74.6793 46.8914 74.8786 46.8007 75.0904 46.7869C75.3022 46.773 75.5117 46.837 75.6791 46.9665C75.8464 47.096 75.9598 47.2821 75.9977 47.4892C76.0356 47.6964 75.9953 47.9101 75.8845 48.0896Z" fill="#CCCCCC"/>
<path d="M75.8154 59.3272L61.563 77.4342C61.4143 77.5844 61.215 77.6751 61.0032 77.689C60.7914 77.7028 60.5818 77.6389 60.4145 77.5094C60.2471 77.3798 60.1337 77.1938 60.0958 76.9866C60.058 76.7795 60.0983 76.5658 60.2091 76.3862L74.4615 58.2792C74.6102 58.129 74.8095 58.0383 75.0213 58.0244C75.2331 58.0106 75.4426 58.0745 75.61 58.204C75.7773 58.3336 75.8907 58.5196 75.9286 58.7268C75.9665 58.9339 75.9262 59.1476 75.8154 59.3272Z" fill="#CCCCCC"/>
<path d="M94.6736 61.5602L80.4213 79.6672C80.2726 79.8174 80.0733 79.9081 79.8614 79.922C79.6496 79.9358 79.4401 79.8719 79.2727 79.7424C79.1054 79.6128 78.992 79.4268 78.9541 79.2196C78.9162 79.0125 78.9565 78.7988 79.0674 78.6192L93.3197 60.5122C93.4684 60.362 93.6677 60.2713 93.8795 60.2574C94.0914 60.2436 94.3009 60.3075 94.4683 60.437C94.6356 60.5666 94.749 60.7526 94.7869 60.9598C94.8248 61.1669 94.7844 61.3806 94.6736 61.5602Z" fill="#D3A941"/>
<path d="M85.0612 55.193L65.1684 80.4661C65.0197 80.6163 64.8204 80.7069 64.6086 80.7208C64.3968 80.7347 64.1872 80.6707 64.0199 80.5412C63.8525 80.4117 63.7391 80.2256 63.7013 80.0185C63.6634 79.8113 63.7037 79.5976 63.8145 79.4181L83.7073 54.145C83.856 53.9948 84.0553 53.9041 84.2671 53.8903C84.479 53.8764 84.6885 53.9404 84.8558 54.0699C85.0232 54.1994 85.1366 54.3855 85.1745 54.5926C85.2123 54.7998 85.172 55.0135 85.0612 55.193Z" fill="#CCCCCC"/>
<path d="M61.6302 14.0241C61.6297 15.3867 61.9665 16.7286 62.6111 17.932C63.2556 19.1353 64.1881 20.1634 65.3268 20.9259C66.4656 21.6885 67.7756 22.1621 69.142 22.3054C70.5084 22.4486 71.8894 22.257 73.1637 21.7474C74.438 21.2378 75.5667 20.4258 76.4507 19.3826C77.3347 18.3395 77.9469 17.0971 78.2337 15.7645C78.5204 14.4319 78.4729 13.0499 78.0954 11.7398C77.7178 10.4297 77.0217 9.23148 76.0682 8.25042L76.0279 8.21051C75.9607 8.14056 75.8936 8.07065 75.823 8.00403C75.8226 8.00404 75.8222 8.00396 75.8217 8.00379C75.8213 8.00363 75.821 8.00338 75.8206 8.00307C75.8203 8.00276 75.8201 8.00239 75.8199 8.00198C75.8198 8.00157 75.8197 8.00114 75.8197 8.0007C75.7324 7.92079 75.6451 7.84088 75.5544 7.7643C74.3415 6.70974 72.8477 6.0242 71.2521 5.78976C69.6564 5.55531 68.0264 5.7819 66.5572 6.4424C65.088 7.10289 63.8419 8.1693 62.9681 9.51394C62.0943 10.8586 61.6298 12.4245 61.6302 14.0241Z" fill="#2F2E41"/>
<path d="M72.0924 22.9304C75.9799 22.9304 79.1313 19.8052 79.1313 15.9501C79.1313 12.0951 75.9799 8.96991 72.0924 8.96991C68.205 8.96991 65.0536 12.0951 65.0536 15.9501C65.0536 19.8052 68.205 22.9304 72.0924 22.9304Z" fill="#FFB8B8"/>
<path d="M64.5887 17.8104C63.9007 14.7356 64.8952 11.2909 67.0633 9.23823C68.1538 8.22622 69.5101 7.53985 70.9763 7.25802C72.4426 6.97618 73.9592 7.11032 75.352 7.64499C75.529 7.71586 75.706 7.79341 75.8798 7.87437L75.9606 7.91212V7.92384C75.9762 7.93461 75.9919 7.94592 76.0076 7.95737C76.0404 7.98787 76.0804 8.00975 76.1239 8.02101C76.735 8.00516 77.3427 8.11755 77.907 8.35083C78.4713 8.5841 78.9795 8.933 79.3984 9.37465C80.4893 10.5485 81.0031 12.4456 80.8456 14.7163L80.8406 14.7873L80.7796 14.825C79.9537 15.3441 79.0966 15.8127 78.2131 16.2283C75.1231 17.6692 72.3021 17.9361 69.5908 17.0434L69.541 17.0271L68.403 15.1358C68.1694 16.4402 68.2942 20.767 66.9537 21.0014L64.6178 17.9408L64.5887 17.8104Z" fill="#2F2E41"/>
<path d="M49.7714 23.888C52.1667 22.6619 49.0861 18.2122 49.7051 15.6105C50.3242 13.0089 54.7819 12.1721 55.0659 9.51386C55.3499 6.85563 56.018 4.11395 57.7868 2.09686C58.9171 0.80795 60.5825 -0.143573 62.2973 0.0178719C62.8775 0.0724944 63.4389 0.250476 63.9435 0.539694C64.4481 0.828912 64.8839 1.22258 65.2212 1.69387C65.5585 2.16516 65.7894 2.703 65.8982 3.27077C66.007 3.83855 65.9912 4.42291 65.8517 4.98405C66.3399 4.29803 67.6034 4.44672 67.9161 5.22704C68.1942 5.92074 67.5799 6.761 66.8571 6.82238C65.9112 7.98074 64.8281 9.21007 63.3463 9.44374C63.1102 9.49751 62.8649 9.49737 62.6288 9.44335C62.3928 9.38932 62.1722 9.28281 61.9838 9.13187C61.6352 8.79988 61.6081 8.13613 62.0216 7.88803C60.1594 8.6216 59.0676 10.6183 58.7913 12.5864C58.515 14.5545 58.8972 16.5458 59.1491 18.5171C59.401 20.4885 59.5096 22.5622 58.7302 24.3928C57.8093 26.5557 55.689 28.1059 53.3752 28.603C51.0614 29.1001 48.5972 28.6143 46.5028 27.5196C44.4083 26.4248 42.6618 24.7537 41.235 22.88C43.6927 24.6107 47.0929 25.259 49.7714 23.888Z" fill="#2F2E41"/>
<path d="M68.73 15.4989C66.2689 19.7033 70.9031 26.7875 66.2326 28.2586L66.6174 27.8771C69.4366 24.4382 63.5441 17.1596 66.3633 13.7207C66.8013 13.2162 67.1773 12.6619 67.4834 12.0695" fill="#2F2E41"/>
<path d="M64.9174 17.7467C64.9174 17.7467 67.0025 10.0285 75.9405 8.24708C75.9506 8.24379 75.9842 8.23046 76.0279 8.2105C76.0547 8.19384 76.0883 8.17718 76.1219 8.16054C76.0211 8.10392 75.9238 8.054 75.823 8.00401L75.8217 8.00377L75.8206 8.00305L75.8199 8.00196L75.8197 8.00068C75.7324 7.92077 75.6451 7.84086 75.5544 7.76428L75.2992 7.77428C75.2992 7.77428 66.3309 6.36584 64.9174 17.7467Z" fill="#D3A941"/>
<path d="M1.49079e-06 151.668C-0.000130066 151.711 0.00844663 151.755 0.0252337 151.795C0.0420207 151.835 0.0666901 151.872 0.0978207 151.903C0.128951 151.934 0.165927 151.958 0.206626 151.975C0.247325 151.992 0.29094 152 0.334964 152H201.665C201.754 152 201.839 151.965 201.902 151.903C201.965 151.84 202 151.756 202 151.668C202 151.58 201.965 151.495 201.902 151.433C201.839 151.371 201.754 151.336 201.665 151.336H0.334947C0.290925 151.336 0.247313 151.344 0.206617 151.361C0.165922 151.377 0.128945 151.402 0.0978164 151.433C0.066688 151.464 0.0420203 151.5 0.0252337 151.541C0.00844702 151.581 -0.000128187 151.624 1.49079e-06 151.668Z" fill="#CCCCCC"/>
</g>
<defs>
<clipPath id="clip0_16_130">
<rect width="202" height="152" fill="white"/>
</clipPath>
</defs>
</svg>
