<svg width="521" height="415" viewBox="0 0 521 415" fill="none" xmlns="http://www.w3.org/2000/svg">
<path d="M167.767 11.7109L167.752 9.39648C167.752 9.02539 167.747 8.62988 167.737 8.20996C167.737 7.78027 167.732 7.32129 167.723 6.83301C167.723 6.33496 167.718 5.85645 167.708 5.39746C167.698 4.92871 167.781 4.62109 167.957 4.47461C168.133 4.32812 168.318 4.25488 168.514 4.25488C168.709 4.25488 168.885 4.32812 169.041 4.47461C169.207 4.62109 169.285 4.85059 169.275 5.16309C169.119 10.583 169.041 14.8311 169.041 17.9072C169.041 22.8584 169.075 25.915 169.144 27.0771C169.163 27.3896 169.09 27.624 168.924 27.7803C168.768 27.9365 168.592 28.0146 168.396 28.0146C168.211 28.0146 168.04 27.9414 167.884 27.7949C167.737 27.6387 167.669 27.4043 167.679 27.0918C167.718 23.8789 167.747 21.1201 167.767 18.8154C166.897 18.7373 165.711 18.6982 164.207 18.6982C162.645 18.6982 161.487 18.7422 160.735 18.8301C160.745 21.7793 160.779 24.5039 160.838 27.0039C160.848 27.3262 160.765 27.5703 160.589 27.7363C160.413 27.9023 160.223 27.9854 160.018 27.9854C159.822 27.9854 159.646 27.9121 159.49 27.7656C159.334 27.6094 159.266 27.2627 159.285 26.7256C159.305 26.1885 159.324 25.417 159.344 24.4111C159.363 23.4053 159.383 22.3359 159.402 21.2031C159.422 19.2988 159.432 17.3506 159.432 15.3584C159.432 13.3662 159.427 11.9648 159.417 11.1543C159.417 10.334 159.412 9.58691 159.402 8.91309C159.373 7.8584 159.314 6.6377 159.227 5.25098C159.207 4.93848 159.285 4.70898 159.461 4.5625C159.637 4.40625 159.832 4.32812 160.047 4.32812C160.262 4.32812 160.457 4.40625 160.633 4.5625C160.809 4.70898 160.887 5.01172 160.867 5.4707C160.848 5.91992 160.828 6.4668 160.809 7.11133C160.789 7.75586 160.774 8.46875 160.765 9.25C160.755 10.0215 160.75 10.8809 160.75 11.8281C160.74 12.7168 160.735 14.5869 160.735 17.4385C161.38 17.5361 162.547 17.585 164.236 17.585C165.857 17.585 167.034 17.5361 167.767 17.4385C167.767 17.0674 167.767 16.7109 167.767 16.3691V11.7109ZM177.977 18.1416C177.654 17.9072 177.273 17.79 176.834 17.79C176.404 17.79 176.009 17.9121 175.647 18.1562C175.296 18.3906 174.998 18.7227 174.754 19.1523C174.256 20.0117 174.007 21.1934 174.007 22.6973C174.007 24.1914 174.246 25.2949 174.725 26.0078C175.203 26.7207 175.843 27.0771 176.644 27.0771C177.522 27.0771 178.226 26.5742 178.753 25.5684C179.222 24.6699 179.456 23.5664 179.456 22.2578C179.456 20.2461 178.963 18.874 177.977 18.1416ZM176.629 28.3223C176.072 28.332 175.55 28.2197 175.062 27.9854C174.583 27.7412 174.168 27.3652 173.816 26.8574C173.045 25.7832 172.659 24.2549 172.659 22.2725C172.659 20.4951 173.074 19.0938 173.904 18.0684C174.686 17.0918 175.721 16.6035 177.01 16.6035C178.094 16.6035 178.992 17.0723 179.705 18.0098C180.438 19.0059 180.804 20.373 180.804 22.1113C180.804 24.0449 180.379 25.5879 179.529 26.7402C178.768 27.7754 177.801 28.3027 176.629 28.3223ZM192.098 25.9199C192.166 25.6758 192.234 25.4219 192.303 25.1582C192.479 24.4941 192.664 23.7812 192.859 23.0195C193.172 21.7402 193.587 19.9629 194.104 17.6875C194.163 17.3945 194.275 17.1846 194.441 17.0576C194.617 16.9209 194.788 16.8525 194.954 16.8525C195.12 16.8525 195.271 16.9258 195.408 17.0723C195.555 17.209 195.628 17.375 195.628 17.5703C195.628 17.7656 195.584 17.9805 195.496 18.2148C195.408 18.4395 195.281 18.8008 195.115 19.2988C194.959 19.7969 194.788 20.3535 194.603 20.9688C194.427 21.5742 194.241 22.209 194.046 22.873C193.86 23.5273 193.685 24.1523 193.519 24.748C193.245 25.7246 193.045 26.4619 192.918 26.96C192.791 27.458 192.649 27.7559 192.493 27.8535C192.347 27.9512 192.195 28 192.039 28C191.678 28 191.448 27.8291 191.351 27.4873C191.136 26.6768 190.823 25.3975 190.413 23.6494C189.905 21.4814 189.51 19.8408 189.227 18.7275C189.158 19.001 189.09 19.2988 189.021 19.6211C188.836 20.3828 188.631 21.2031 188.406 22.082C187.84 24.3867 187.371 26.1543 187 27.3848C186.941 27.5508 186.834 27.6924 186.678 27.8096C186.521 27.9268 186.365 27.9854 186.209 27.9854C185.848 27.9854 185.623 27.8193 185.535 27.4873C185.281 26.6279 185.047 25.8125 184.832 25.041C184.617 24.2598 184.402 23.498 184.188 22.7559C183.748 21.252 183.27 19.8164 182.752 18.4492C182.654 18.166 182.605 17.8975 182.605 17.6436C182.605 17.3896 182.669 17.1943 182.796 17.0576C182.933 16.9209 183.089 16.8525 183.265 16.8525C183.733 16.8525 184.036 17.1162 184.173 17.6436C184.319 18.1611 184.461 18.7129 184.598 19.2988C184.744 19.875 184.886 20.4707 185.022 21.0859C185.169 21.6914 185.311 22.2969 185.447 22.9023C185.594 23.498 185.74 24.0645 185.887 24.6016C186.043 25.207 186.189 25.7197 186.326 26.1396L188.304 17.8486C188.479 17.1943 188.816 16.8672 189.314 16.8672C189.832 16.8672 190.164 17.2139 190.311 17.9072C191.043 21.6572 191.639 24.3281 192.098 25.9199ZM209.163 21.5547L209.148 18.4639C208.582 18.1025 208.045 17.9219 207.537 17.9219C207.039 17.9219 206.6 18.0244 206.219 18.2295C205.848 18.4248 205.511 18.7227 205.208 19.123C204.524 20.0117 204.183 21.1885 204.183 22.6533C204.183 24.7139 204.656 26.0713 205.604 26.7256C205.916 26.9404 206.272 27.0479 206.673 27.0479C207.073 27.0479 207.415 26.9648 207.698 26.7988C207.981 26.6328 208.221 26.4277 208.416 26.1836C208.768 25.7344 209.007 25.2021 209.134 24.5869C209.153 23.7861 209.163 22.7754 209.163 21.5547ZM210.35 6.90625C210.34 7.63867 210.33 8.41504 210.32 9.23535C210.32 10.0459 210.32 11.7939 210.32 14.4795C210.32 17.1553 210.369 19.7529 210.467 22.2725C210.574 24.7822 210.647 26.1494 210.687 26.374C210.735 26.5986 210.784 26.7891 210.833 26.9453C210.892 27.1016 210.94 27.2285 210.979 27.3262C211.028 27.4238 211.053 27.541 211.053 27.6777C211.053 27.8145 210.989 27.9365 210.862 28.0439C210.745 28.1611 210.613 28.2197 210.467 28.2197C209.832 28.2197 209.5 27.5898 209.471 26.3301C209.471 26.3008 209.471 26.2764 209.471 26.2568C208.826 27.6338 207.859 28.3223 206.57 28.3223C205.457 28.3223 204.559 27.8633 203.875 26.9453C203.143 25.959 202.776 24.5771 202.776 22.7998C202.776 20.9346 203.26 19.416 204.227 18.2441C205.105 17.1699 206.146 16.6328 207.347 16.6328C208.021 16.6328 208.597 16.7549 209.075 16.999C209.065 16.2959 209.061 15.5684 209.061 14.8164C209.051 13.8789 209.041 12.9463 209.031 12.0186C209.021 11.0811 209.007 10.1729 208.987 9.29395C208.978 8.41504 208.968 7.58984 208.958 6.81836C208.938 5.20703 208.914 4.12305 208.885 3.56641C208.855 3.00977 208.929 2.6582 209.104 2.51172C209.28 2.35547 209.476 2.27734 209.69 2.27734C209.915 2.27734 210.115 2.35547 210.291 2.51172C210.477 2.6582 210.55 2.93164 210.511 3.33203C210.481 3.73242 210.452 4.24512 210.423 4.87012C210.394 5.49512 210.369 6.17383 210.35 6.90625ZM218.963 18.1416C218.641 17.9072 218.26 17.79 217.82 17.79C217.391 17.79 216.995 17.9121 216.634 18.1562C216.282 18.3906 215.984 18.7227 215.74 19.1523C215.242 20.0117 214.993 21.1934 214.993 22.6973C214.993 24.1914 215.232 25.2949 215.711 26.0078C216.189 26.7207 216.829 27.0771 217.63 27.0771C218.509 27.0771 219.212 26.5742 219.739 25.5684C220.208 24.6699 220.442 23.5664 220.442 22.2578C220.442 20.2461 219.949 18.874 218.963 18.1416ZM217.615 28.3223C217.059 28.332 216.536 28.2197 216.048 27.9854C215.569 27.7412 215.154 27.3652 214.803 26.8574C214.031 25.7832 213.646 24.2549 213.646 22.2725C213.646 20.4951 214.061 19.0938 214.891 18.0684C215.672 17.0918 216.707 16.6035 217.996 16.6035C219.08 16.6035 219.979 17.0723 220.691 18.0098C221.424 19.0059 221.79 20.373 221.79 22.1113C221.79 24.0449 221.365 25.5879 220.516 26.7402C219.754 27.7754 218.787 28.3027 217.615 28.3223ZM230.55 21.6719C230.569 19.9727 230.213 18.8105 229.48 18.1855C229.188 17.9219 228.831 17.79 228.411 17.79C227.991 17.79 227.645 17.8682 227.371 18.0244C227.098 18.1807 226.854 18.3906 226.639 18.6543C226.434 18.918 226.258 19.2207 226.111 19.5625C225.975 19.8945 225.862 20.2363 225.774 20.5879C225.687 20.959 225.623 21.3252 225.584 21.6865L227.591 21.7744C228.899 21.7744 229.886 21.7402 230.55 21.6719ZM225.525 22.9463C225.545 24.2939 225.789 25.3242 226.258 26.0371C226.766 26.7988 227.483 27.1797 228.411 27.1797C229.261 27.1797 229.881 26.7598 230.271 25.9199C230.516 25.373 230.818 25.0996 231.18 25.0996C231.346 25.0996 231.482 25.1533 231.59 25.2607C231.707 25.3682 231.761 25.5586 231.751 25.832C231.741 26.0957 231.644 26.3838 231.458 26.6963C231.282 27.0088 231.033 27.2871 230.711 27.5312C230.008 28.0781 229.163 28.3516 228.177 28.3516C227.112 28.3516 226.194 27.8975 225.423 26.9893C224.612 26.0322 224.207 24.8945 224.207 23.5762C224.207 22.2578 224.319 21.1885 224.544 20.3682C224.778 19.5381 225.086 18.8496 225.467 18.3027C226.209 17.1992 227.137 16.6475 228.25 16.6475C229.676 16.6475 230.677 17.209 231.253 18.332C231.653 19.1133 231.868 20.2607 231.897 21.7744C231.907 22.2041 231.839 22.4922 231.692 22.6387C231.546 22.7852 231.248 22.8584 230.799 22.8584L225.525 22.9463ZM235.398 24.2939C235.848 24.2939 236.048 24.6992 235.999 25.5098C235.96 25.9883 236.146 26.3984 236.556 26.7402C236.946 27.0723 237.449 27.2383 238.064 27.2383C238.689 27.2383 239.192 27.0674 239.573 26.7256C239.954 26.3838 240.145 25.959 240.145 25.4512C240.145 24.9336 240.018 24.5332 239.764 24.25C239.51 23.957 239.192 23.6982 238.812 23.4736C238.431 23.2393 238.021 23.0195 237.581 22.8145C237.142 22.5996 236.731 22.3555 236.351 22.082C235.462 21.4277 235.018 20.6221 235.018 19.665C235.018 18.835 235.301 18.1465 235.867 17.5996C236.473 17.0039 237.259 16.7061 238.226 16.7061C239.056 16.7061 239.749 16.9453 240.306 17.4238C240.901 17.9316 241.199 18.5908 241.199 19.4014C241.258 19.8018 241.204 20.0996 241.038 20.2949C240.872 20.4805 240.677 20.5732 240.452 20.5732C240.237 20.5732 240.062 20.4756 239.925 20.2803C239.798 20.085 239.739 19.8555 239.749 19.5918C239.769 19.3281 239.754 19.0986 239.705 18.9033C239.666 18.6982 239.583 18.5127 239.456 18.3467C239.173 17.9756 238.714 17.79 238.079 17.79C237.571 17.79 237.2 17.9121 236.966 18.1562C236.565 18.5762 236.365 19.0156 236.365 19.4746C236.365 19.9336 236.492 20.3145 236.746 20.6172C237 20.9102 237.317 21.1787 237.698 21.4229C238.079 21.6572 238.489 21.8818 238.929 22.0967C239.368 22.3115 239.778 22.5557 240.159 22.8291C241.048 23.4639 241.492 24.2598 241.492 25.2168C241.492 26.1348 241.189 26.877 240.584 27.4434C239.949 28.0391 239.065 28.3369 237.933 28.3369C236.956 28.3369 236.141 28.0488 235.486 27.4727C234.812 26.8965 234.505 26.1738 234.563 25.3047C234.603 24.6309 234.881 24.2939 235.398 24.2939ZM252.244 12.4727C252.312 12.6289 252.337 12.8193 252.317 13.0439C252.308 13.2588 252.259 13.4443 252.171 13.6006C252.083 13.7568 251.98 13.8838 251.863 13.9814C251.639 14.1572 251.409 14.2451 251.175 14.2451C250.94 14.2451 250.755 14.2207 250.618 14.1719C250.481 14.1133 250.359 14.0352 250.252 13.9375C249.998 13.7031 249.871 13.3955 249.871 13.0146C249.871 12.6338 249.969 12.3604 250.164 12.1943C250.486 11.9111 250.809 11.7695 251.131 11.7695C251.658 11.7695 252.029 12.0039 252.244 12.4727ZM251.775 17.9805C251.727 18.9961 251.678 19.9971 251.629 20.9834C251.58 21.9697 251.556 22.8584 251.556 23.6494C251.556 24.4404 251.58 25.2607 251.629 26.1104C251.678 26.9502 251.678 27.4336 251.629 27.5605C251.59 27.6777 251.531 27.7754 251.453 27.8535C251.287 28.0195 251.106 28.1025 250.911 28.1025C250.716 28.1025 250.53 28.0293 250.354 27.8828C250.188 27.7363 250.125 27.4385 250.164 26.9893C250.271 25.749 250.325 24.4941 250.325 23.2246C250.325 21.9551 250.306 20.9297 250.267 20.1484C250.237 19.3574 250.213 18.7617 250.193 18.3613C250.184 17.9609 250.203 17.7021 250.252 17.585C250.301 17.4678 250.369 17.375 250.457 17.3066C250.623 17.1504 250.809 17.0723 251.014 17.0723C251.219 17.0723 251.399 17.1455 251.556 17.292C251.712 17.4385 251.785 17.668 251.775 17.9805ZM255.862 14.1133C255.862 13.7715 255.945 13.5176 256.111 13.3516C256.277 13.1855 256.458 13.1025 256.653 13.1025C256.849 13.1025 257.024 13.1855 257.181 13.3516C257.337 13.5176 257.396 13.7715 257.356 14.1133C257.269 15.0215 257.215 16.0762 257.195 17.2773C257.996 17.2773 258.602 17.2529 259.012 17.2041C259.422 17.1553 259.715 17.1309 259.891 17.1309C260.555 17.1113 260.887 17.3555 260.887 17.8633C260.887 18.1562 260.716 18.3613 260.374 18.4785C260.257 18.5176 260.12 18.5322 259.964 18.5225C259.808 18.5127 259.637 18.5078 259.451 18.5078C259.275 18.498 259.1 18.4932 258.924 18.4932C258.621 18.4932 258.328 18.4932 258.045 18.4932C257.771 18.4932 257.527 18.498 257.312 18.5078C257.273 18.5078 257.229 18.5078 257.181 18.5078C257.181 18.5273 257.181 18.542 257.181 18.5518C257.181 22.5947 257.239 24.875 257.356 25.3926C257.474 25.9102 257.601 26.2812 257.737 26.5059C257.981 26.8965 258.294 27.0918 258.675 27.0918C259.29 27.0918 259.705 26.7891 259.92 26.1836C260.008 25.6953 260.257 25.4512 260.667 25.4512C260.813 25.4512 260.94 25.5146 261.048 25.6416C261.165 25.7588 261.224 25.9346 261.224 26.1689C261.224 26.4033 261.15 26.6572 261.004 26.9307C260.857 27.2041 260.662 27.4434 260.418 27.6484C259.881 28.0977 259.28 28.3223 258.616 28.3223C257.405 28.3223 256.57 27.6533 256.111 26.3154C255.945 25.8271 255.862 25.2266 255.862 24.5137V18.6104C255.657 18.6201 255.433 18.6348 255.188 18.6543C254.886 18.6641 254.656 18.5908 254.5 18.4346C254.354 18.2686 254.28 18.0977 254.28 17.9219C254.28 17.7363 254.358 17.5752 254.515 17.4385C254.671 17.292 254.905 17.2188 255.218 17.2188L255.862 17.2334V14.1133ZM277.088 25.9199C277.156 25.6758 277.225 25.4219 277.293 25.1582C277.469 24.4941 277.654 23.7812 277.85 23.0195C278.162 21.7402 278.577 19.9629 279.095 17.6875C279.153 17.3945 279.266 17.1846 279.432 17.0576C279.607 16.9209 279.778 16.8525 279.944 16.8525C280.11 16.8525 280.262 16.9258 280.398 17.0723C280.545 17.209 280.618 17.375 280.618 17.5703C280.618 17.7656 280.574 17.9805 280.486 18.2148C280.398 18.4395 280.271 18.8008 280.105 19.2988C279.949 19.7969 279.778 20.3535 279.593 20.9688C279.417 21.5742 279.231 22.209 279.036 22.873C278.851 23.5273 278.675 24.1523 278.509 24.748C278.235 25.7246 278.035 26.4619 277.908 26.96C277.781 27.458 277.64 27.7559 277.483 27.8535C277.337 27.9512 277.186 28 277.029 28C276.668 28 276.438 27.8291 276.341 27.4873C276.126 26.6768 275.813 25.3975 275.403 23.6494C274.896 21.4814 274.5 19.8408 274.217 18.7275C274.148 19.001 274.08 19.2988 274.012 19.6211C273.826 20.3828 273.621 21.2031 273.396 22.082C272.83 24.3867 272.361 26.1543 271.99 27.3848C271.932 27.5508 271.824 27.6924 271.668 27.8096C271.512 27.9268 271.355 27.9854 271.199 27.9854C270.838 27.9854 270.613 27.8193 270.525 27.4873C270.271 26.6279 270.037 25.8125 269.822 25.041C269.607 24.2598 269.393 23.498 269.178 22.7559C268.738 21.252 268.26 19.8164 267.742 18.4492C267.645 18.166 267.596 17.8975 267.596 17.6436C267.596 17.3896 267.659 17.1943 267.786 17.0576C267.923 16.9209 268.079 16.8525 268.255 16.8525C268.724 16.8525 269.026 17.1162 269.163 17.6436C269.31 18.1611 269.451 18.7129 269.588 19.2988C269.734 19.875 269.876 20.4707 270.013 21.0859C270.159 21.6914 270.301 22.2969 270.438 22.9023C270.584 23.498 270.73 24.0645 270.877 24.6016C271.033 25.207 271.18 25.7197 271.316 26.1396L273.294 17.8486C273.47 17.1943 273.807 16.8672 274.305 16.8672C274.822 16.8672 275.154 17.2139 275.301 17.9072C276.033 21.6572 276.629 24.3281 277.088 25.9199ZM287.752 18.1416C287.43 17.9072 287.049 17.79 286.609 17.79C286.18 17.79 285.784 17.9121 285.423 18.1562C285.071 18.3906 284.773 18.7227 284.529 19.1523C284.031 20.0117 283.782 21.1934 283.782 22.6973C283.782 24.1914 284.021 25.2949 284.5 26.0078C284.979 26.7207 285.618 27.0771 286.419 27.0771C287.298 27.0771 288.001 26.5742 288.528 25.5684C288.997 24.6699 289.231 23.5664 289.231 22.2578C289.231 20.2461 288.738 18.874 287.752 18.1416ZM286.404 28.3223C285.848 28.332 285.325 28.2197 284.837 27.9854C284.358 27.7412 283.943 27.3652 283.592 26.8574C282.82 25.7832 282.435 24.2549 282.435 22.2725C282.435 20.4951 282.85 19.0938 283.68 18.0684C284.461 17.0918 285.496 16.6035 286.785 16.6035C287.869 16.6035 288.768 17.0723 289.48 18.0098C290.213 19.0059 290.579 20.373 290.579 22.1113C290.579 24.0449 290.154 25.5879 289.305 26.7402C288.543 27.7754 287.576 28.3027 286.404 28.3223ZM299.69 17.4385C299.69 17.9658 299.427 18.2686 298.899 18.3467C298.255 18.4736 297.527 19.0254 296.717 20.002C295.848 21.0566 295.359 22.0967 295.252 23.1221C295.213 23.5713 295.193 23.9814 295.193 24.3525C295.193 25.2412 295.232 26.1738 295.311 27.1504C295.33 27.4727 295.247 27.7168 295.062 27.8828C294.886 28.0488 294.69 28.1318 294.476 28.1318C294.271 28.1318 294.09 28.0586 293.934 27.9121C293.777 27.7559 293.714 27.5264 293.743 27.2236C293.772 26.9111 293.797 26.5547 293.816 26.1543C293.836 25.7441 293.855 25.3145 293.875 24.8652C293.895 24.1035 293.904 23.2539 293.904 22.3164C293.904 20.7344 293.885 19.5625 293.846 18.8008C293.807 18.0293 293.812 17.585 293.86 17.4678C293.909 17.3506 293.973 17.2578 294.051 17.1895C294.217 17.0332 294.397 16.9551 294.593 16.9551C294.798 16.9551 294.979 17.0283 295.135 17.1748C295.301 17.3213 295.374 17.5117 295.354 17.7461C295.345 17.9707 295.325 18.1953 295.296 18.4199C295.276 18.6348 295.252 18.9033 295.223 19.2256C295.164 19.7432 295.11 20.2949 295.062 20.8809C295.462 19.875 296.033 18.9473 296.775 18.0977C297.605 17.1699 298.328 16.7061 298.943 16.7061C299.207 16.7061 299.397 16.7793 299.515 16.9258C299.632 17.0723 299.69 17.2432 299.69 17.4385ZM308.494 16.9844C308.689 16.9844 308.86 17.0576 309.007 17.2041C309.153 17.3506 309.227 17.541 309.227 17.7754C309.227 18 309.114 18.2734 308.89 18.5957C308.675 18.9082 308.406 19.2451 308.084 19.6064C307.771 19.958 307.439 20.3145 307.088 20.6758C306.785 20.9883 306.512 21.2812 306.268 21.5547C306.678 22.8047 307.391 24.1523 308.406 25.5977C308.689 25.9883 308.909 26.3203 309.065 26.5938C309.222 26.8574 309.3 27.082 309.3 27.2676C309.3 27.4434 309.212 27.6191 309.036 27.7949C308.86 27.9707 308.68 28.0586 308.494 28.0586C308.064 28.0586 307.767 27.8633 307.601 27.4727C307.444 27.0723 307.244 26.6182 307 26.1104C306.756 25.5928 306.507 25.085 306.253 24.5869C305.833 23.7666 305.472 23.0977 305.169 22.5801C304.905 22.834 304.617 23.1025 304.305 23.3857C303.865 23.7861 303.528 24.0986 303.294 24.3232C303.235 24.3818 303.177 24.4355 303.118 24.4844V24.5137C303.118 24.7578 303.123 25.0264 303.133 25.3193C303.143 25.6025 303.152 25.8906 303.162 26.1836C303.172 26.4668 303.177 26.75 303.177 27.0332C303.187 27.3066 303.104 27.5264 302.928 27.6924C302.752 27.8584 302.562 27.9414 302.356 27.9414C302.161 27.9414 301.985 27.8682 301.829 27.7217C301.673 27.5752 301.604 27.2725 301.624 26.8135C301.644 26.3447 301.658 25.7295 301.668 24.9678C301.688 24.2061 301.697 23.3906 301.697 22.5215C301.717 19.9336 301.727 18.0342 301.727 16.8232C301.727 15.6025 301.722 14.3281 301.712 13C301.702 11.6719 301.688 10.3926 301.668 9.16211C301.609 6.39844 301.512 4.36719 301.375 3.06836C301.346 2.75586 301.419 2.52637 301.595 2.37988C301.78 2.22363 301.985 2.14551 302.21 2.14551C302.444 2.14551 302.654 2.22363 302.84 2.37988C303.035 2.52637 303.123 2.78516 303.104 3.15625C303.094 3.52734 303.084 4.00098 303.074 4.57715C303.074 5.15332 303.074 5.7832 303.074 6.4668C303.094 8.51758 303.104 10.0361 303.104 11.0225C303.104 11.999 303.099 13.0244 303.089 14.0986C303.089 15.1631 303.084 16.2373 303.074 17.3213C303.064 19.5381 303.074 21.4326 303.104 23.0049C304.1 22.0771 305.184 20.8613 306.355 19.3574C306.922 18.6348 307.283 18.1074 307.439 17.7754C307.703 17.248 308.055 16.9844 308.494 16.9844ZM317.371 26.1689C317.498 26.2666 317.601 26.3936 317.679 26.5498C317.757 26.7061 317.796 26.8965 317.796 27.1211C317.796 27.3457 317.752 27.541 317.664 27.707C317.576 27.8633 317.459 27.9902 317.312 28.0879C317.059 28.2637 316.751 28.3516 316.39 28.3516C315.872 28.3516 315.506 28.1172 315.291 27.6484C315.213 27.4922 315.174 27.3115 315.174 27.1064C315.174 26.5205 315.457 26.1348 316.023 25.9492C316.18 25.8906 316.331 25.8613 316.478 25.8613C316.634 25.8613 316.79 25.8857 316.946 25.9346C317.103 25.9834 317.244 26.0615 317.371 26.1689ZM319.217 18.2148C319.822 18.2148 320.125 18.6396 320.125 19.4893C320.125 20.3389 320.037 21.0518 319.861 21.6279C319.695 22.1943 319.461 22.6729 319.158 23.0635C318.533 23.8545 317.708 24.25 316.683 24.25C315.804 24.25 315.057 23.918 314.441 23.2539C313.836 22.5801 313.533 21.7256 313.533 20.6904C313.533 19.6455 313.689 18.7275 314.002 17.9365C314.324 17.1455 314.725 16.4131 315.203 15.7393C315.682 15.0654 316.194 14.4209 316.741 13.8057C317.298 13.1807 317.815 12.5312 318.294 11.8574C319.407 10.3047 319.964 8.68359 319.964 6.99414C319.964 5.76367 319.681 4.82129 319.114 4.16699C318.558 3.5127 317.811 3.18555 316.873 3.18555C316.033 3.18555 315.32 3.53711 314.734 4.24023C314.158 4.93359 313.87 5.73438 313.87 6.64258C313.87 7.01367 313.938 7.33594 314.075 7.60938C314.339 8.13672 314.471 8.56641 314.471 8.89844C314.471 9.15234 314.388 9.35742 314.222 9.51367C314.065 9.66016 313.89 9.7334 313.694 9.7334C312.796 9.7334 312.347 8.77148 312.347 6.84766C312.347 5.5293 312.776 4.37695 313.636 3.39062C314.544 2.35547 315.647 1.83789 316.946 1.83789C318.226 1.83789 319.246 2.27246 320.008 3.1416C320.809 4.05957 321.209 5.31445 321.209 6.90625C321.209 9.03516 320.54 10.9932 319.202 12.7803C318.821 13.2881 318.431 13.7812 318.03 14.2598C317.64 14.7285 317.254 15.1973 316.873 15.666C316.492 16.125 316.15 16.6035 315.848 17.1016C315.193 18.2051 314.866 19.3428 314.866 20.5146C314.866 21.6377 315.193 22.3945 315.848 22.7852C316.072 22.9121 316.346 22.9756 316.668 22.9756C317.918 22.9756 318.543 22.1406 318.543 20.4707L318.396 19.2402C318.396 18.8789 318.475 18.6201 318.631 18.4639C318.797 18.2979 318.992 18.2148 319.217 18.2148Z" fill="black"/>
<path d="M12.1 285.625V287.95H4.725V293.075H10.475V295.4H4.725V303H1.875V285.625H12.1ZM20.7162 303.225C19.4162 303.225 18.2412 302.933 17.1912 302.35C16.1412 301.75 15.3162 300.917 14.7162 299.85C14.1162 298.767 13.8162 297.517 13.8162 296.1C13.8162 294.7 14.1245 293.458 14.7412 292.375C15.3579 291.292 16.1995 290.458 17.2662 289.875C18.3329 289.292 19.5245 289 20.8412 289C22.1579 289 23.3495 289.292 24.4162 289.875C25.4829 290.458 26.3245 291.292 26.9412 292.375C27.5579 293.458 27.8662 294.7 27.8662 296.1C27.8662 297.5 27.5495 298.742 26.9162 299.825C26.2829 300.908 25.4162 301.75 24.3162 302.35C23.2329 302.933 22.0329 303.225 20.7162 303.225ZM20.7162 300.75C21.4495 300.75 22.1329 300.575 22.7662 300.225C23.4162 299.875 23.9412 299.35 24.3412 298.65C24.7412 297.95 24.9412 297.1 24.9412 296.1C24.9412 295.1 24.7495 294.258 24.3662 293.575C23.9829 292.875 23.4745 292.35 22.8412 292C22.2079 291.65 21.5245 291.475 20.7912 291.475C20.0579 291.475 19.3745 291.65 18.7412 292C18.1245 292.35 17.6329 292.875 17.2662 293.575C16.8995 294.258 16.7162 295.1 16.7162 296.1C16.7162 297.583 17.0912 298.733 17.8412 299.55C18.6079 300.35 19.5662 300.75 20.7162 300.75ZM33.5336 291.225C33.9503 290.525 34.5003 289.983 35.1836 289.6C35.8836 289.2 36.7086 289 37.6586 289V291.95H36.9336C35.8169 291.95 34.9669 292.233 34.3836 292.8C33.8169 293.367 33.5336 294.35 33.5336 295.75V303H30.6836V289.225H33.5336V291.225ZM57.9975 285.625V287.95H53.3725V303H50.5225V287.95H45.8725V285.625H57.9975ZM73.3588 289.225V303H70.5088V301.375C70.0588 301.942 69.4671 302.392 68.7338 302.725C68.0171 303.042 67.2505 303.2 66.4338 303.2C65.3505 303.2 64.3755 302.975 63.5088 302.525C62.6588 302.075 61.9838 301.408 61.4838 300.525C61.0005 299.642 60.7588 298.575 60.7588 297.325V289.225H63.5838V296.9C63.5838 298.133 63.8921 299.083 64.5088 299.75C65.1255 300.4 65.9671 300.725 67.0338 300.725C68.1005 300.725 68.9421 300.4 69.5588 299.75C70.1921 299.083 70.5088 298.133 70.5088 296.9V289.225H73.3588ZM80.4441 291.55V299.175C80.4441 299.692 80.5608 300.067 80.7941 300.3C81.0441 300.517 81.4608 300.625 82.0441 300.625H83.7941V303H81.5441C80.2608 303 79.2775 302.7 78.5941 302.1C77.9108 301.5 77.5691 300.525 77.5691 299.175V291.55H75.9441V289.225H77.5691V285.8H80.4441V289.225H83.7941V291.55H80.4441ZM92.3959 303.225C91.0959 303.225 89.9209 302.933 88.8709 302.35C87.8209 301.75 86.9959 300.917 86.3959 299.85C85.7959 298.767 85.4959 297.517 85.4959 296.1C85.4959 294.7 85.8042 293.458 86.4209 292.375C87.0376 291.292 87.8792 290.458 88.9459 289.875C90.0126 289.292 91.2042 289 92.5209 289C93.8376 289 95.0292 289.292 96.0959 289.875C97.1626 290.458 98.0042 291.292 98.6209 292.375C99.2376 293.458 99.5459 294.7 99.5459 296.1C99.5459 297.5 99.2292 298.742 98.5959 299.825C97.9626 300.908 97.0959 301.75 95.9959 302.35C94.9126 302.933 93.7126 303.225 92.3959 303.225ZM92.3959 300.75C93.1292 300.75 93.8126 300.575 94.4459 300.225C95.0959 299.875 95.6209 299.35 96.0209 298.65C96.4209 297.95 96.6209 297.1 96.6209 296.1C96.6209 295.1 96.4292 294.258 96.0459 293.575C95.6626 292.875 95.1542 292.35 94.5209 292C93.8876 291.65 93.2042 291.475 92.4709 291.475C91.7376 291.475 91.0542 291.65 90.4209 292C89.8042 292.35 89.3126 292.875 88.9459 293.575C88.5792 294.258 88.3959 295.1 88.3959 296.1C88.3959 297.583 88.7709 298.733 89.5209 299.55C90.2876 300.35 91.2459 300.75 92.3959 300.75ZM105.213 291.225C105.63 290.525 106.18 289.983 106.863 289.6C107.563 289.2 108.388 289 109.338 289V291.95H108.613C107.497 291.95 106.647 292.233 106.063 292.8C105.497 293.367 105.213 294.35 105.213 295.75V303H102.363V289.225H105.213V291.225Z" fill="black"/>
<path d="M316.1 285.625V287.95H308.725V293.075H314.475V295.4H308.725V303H305.875V285.625H316.1ZM324.716 303.225C323.416 303.225 322.241 302.933 321.191 302.35C320.141 301.75 319.316 300.917 318.716 299.85C318.116 298.767 317.816 297.517 317.816 296.1C317.816 294.7 318.125 293.458 318.741 292.375C319.358 291.292 320.2 290.458 321.266 289.875C322.333 289.292 323.525 289 324.841 289C326.158 289 327.35 289.292 328.416 289.875C329.483 290.458 330.325 291.292 330.941 292.375C331.558 293.458 331.866 294.7 331.866 296.1C331.866 297.5 331.55 298.742 330.916 299.825C330.283 300.908 329.416 301.75 328.316 302.35C327.233 302.933 326.033 303.225 324.716 303.225ZM324.716 300.75C325.45 300.75 326.133 300.575 326.766 300.225C327.416 299.875 327.941 299.35 328.341 298.65C328.741 297.95 328.941 297.1 328.941 296.1C328.941 295.1 328.75 294.258 328.366 293.575C327.983 292.875 327.475 292.35 326.841 292C326.208 291.65 325.525 291.475 324.791 291.475C324.058 291.475 323.375 291.65 322.741 292C322.125 292.35 321.633 292.875 321.266 293.575C320.9 294.258 320.716 295.1 320.716 296.1C320.716 297.583 321.091 298.733 321.841 299.55C322.608 300.35 323.566 300.75 324.716 300.75ZM337.534 291.225C337.95 290.525 338.5 289.983 339.184 289.6C339.884 289.2 340.709 289 341.659 289V291.95H340.934C339.817 291.95 338.967 292.233 338.384 292.8C337.817 293.367 337.534 294.35 337.534 295.75V303H334.684V289.225H337.534V291.225ZM356.497 303.175C355.331 303.175 354.281 302.975 353.347 302.575C352.414 302.158 351.681 301.575 351.147 300.825C350.614 300.075 350.347 299.2 350.347 298.2H353.397C353.464 298.95 353.756 299.567 354.272 300.05C354.806 300.533 355.547 300.775 356.497 300.775C357.481 300.775 358.247 300.542 358.797 300.075C359.347 299.592 359.622 298.975 359.622 298.225C359.622 297.642 359.447 297.167 359.097 296.8C358.764 296.433 358.339 296.15 357.822 295.95C357.322 295.75 356.622 295.533 355.722 295.3C354.589 295 353.664 294.7 352.947 294.4C352.247 294.083 351.647 293.6 351.147 292.95C350.647 292.3 350.397 291.433 350.397 290.35C350.397 289.35 350.647 288.475 351.147 287.725C351.647 286.975 352.347 286.4 353.247 286C354.147 285.6 355.189 285.4 356.372 285.4C358.056 285.4 359.431 285.825 360.497 286.675C361.581 287.508 362.181 288.658 362.297 290.125H359.147C359.097 289.492 358.797 288.95 358.247 288.5C357.697 288.05 356.972 287.825 356.072 287.825C355.256 287.825 354.589 288.033 354.072 288.45C353.556 288.867 353.297 289.467 353.297 290.25C353.297 290.783 353.456 291.225 353.772 291.575C354.106 291.908 354.522 292.175 355.022 292.375C355.522 292.575 356.206 292.792 357.072 293.025C358.222 293.342 359.156 293.658 359.872 293.975C360.606 294.292 361.222 294.783 361.722 295.45C362.239 296.1 362.497 296.975 362.497 298.075C362.497 298.958 362.256 299.792 361.772 300.575C361.306 301.358 360.614 301.992 359.697 302.475C358.797 302.942 357.731 303.175 356.497 303.175ZM369.185 291.55V299.175C369.185 299.692 369.302 300.067 369.535 300.3C369.785 300.517 370.202 300.625 370.785 300.625H372.535V303H370.285C369.002 303 368.019 302.7 367.335 302.1C366.652 301.5 366.31 300.525 366.31 299.175V291.55H364.685V289.225H366.31V285.8H369.185V289.225H372.535V291.55H369.185ZM387.637 289.225V303H384.787V301.375C384.337 301.942 383.745 302.392 383.012 302.725C382.295 303.042 381.529 303.2 380.712 303.2C379.629 303.2 378.654 302.975 377.787 302.525C376.937 302.075 376.262 301.408 375.762 300.525C375.279 299.642 375.037 298.575 375.037 297.325V289.225H377.862V296.9C377.862 298.133 378.17 299.083 378.787 299.75C379.404 300.4 380.245 300.725 381.312 300.725C382.379 300.725 383.22 300.4 383.837 299.75C384.47 299.083 384.787 298.133 384.787 296.9V289.225H387.637ZM390.447 296.05C390.447 294.667 390.731 293.442 391.297 292.375C391.881 291.308 392.664 290.483 393.647 289.9C394.647 289.3 395.756 289 396.972 289C397.872 289 398.756 289.2 399.622 289.6C400.506 289.983 401.206 290.5 401.722 291.15V284.5H404.597V303H401.722V300.925C401.256 301.592 400.606 302.142 399.772 302.575C398.956 303.008 398.014 303.225 396.947 303.225C395.747 303.225 394.647 302.925 393.647 302.325C392.664 301.708 391.881 300.858 391.297 299.775C390.731 298.675 390.447 297.433 390.447 296.05ZM401.722 296.1C401.722 295.15 401.522 294.325 401.122 293.625C400.739 292.925 400.231 292.392 399.597 292.025C398.964 291.658 398.281 291.475 397.547 291.475C396.814 291.475 396.131 291.658 395.497 292.025C394.864 292.375 394.347 292.9 393.947 293.6C393.564 294.283 393.372 295.1 393.372 296.05C393.372 297 393.564 297.833 393.947 298.55C394.347 299.267 394.864 299.817 395.497 300.2C396.147 300.567 396.831 300.75 397.547 300.75C398.281 300.75 398.964 300.567 399.597 300.2C400.231 299.833 400.739 299.3 401.122 298.6C401.522 297.883 401.722 297.05 401.722 296.1ZM420.966 295.775C420.966 296.292 420.932 296.758 420.866 297.175H410.341C410.424 298.275 410.832 299.158 411.566 299.825C412.299 300.492 413.199 300.825 414.266 300.825C415.799 300.825 416.882 300.183 417.516 298.9H420.591C420.174 300.167 419.416 301.208 418.316 302.025C417.232 302.825 415.882 303.225 414.266 303.225C412.949 303.225 411.766 302.933 410.716 302.35C409.682 301.75 408.866 300.917 408.266 299.85C407.682 298.767 407.391 297.517 407.391 296.1C407.391 294.683 407.674 293.442 408.241 292.375C408.824 291.292 409.632 290.458 410.666 289.875C411.716 289.292 412.916 289 414.266 289C415.566 289 416.724 289.283 417.741 289.85C418.757 290.417 419.549 291.217 420.116 292.25C420.682 293.267 420.966 294.442 420.966 295.775ZM417.991 294.875C417.974 293.825 417.599 292.983 416.866 292.35C416.132 291.717 415.224 291.4 414.141 291.4C413.157 291.4 412.316 291.717 411.616 292.35C410.916 292.967 410.499 293.808 410.366 294.875H417.991ZM430.721 289C431.804 289 432.771 289.225 433.621 289.675C434.487 290.125 435.162 290.792 435.646 291.675C436.129 292.558 436.371 293.625 436.371 294.875V303H433.546V295.3C433.546 294.067 433.237 293.125 432.621 292.475C432.004 291.808 431.162 291.475 430.096 291.475C429.029 291.475 428.179 291.808 427.546 292.475C426.929 293.125 426.621 294.067 426.621 295.3V303H423.771V289.225H426.621V290.8C427.087 290.233 427.679 289.792 428.396 289.475C429.129 289.158 429.904 289 430.721 289ZM443.331 291.55V299.175C443.331 299.692 443.448 300.067 443.681 300.3C443.931 300.517 444.348 300.625 444.931 300.625H446.681V303H444.431C443.148 303 442.164 302.7 441.481 302.1C440.798 301.5 440.456 300.525 440.456 299.175V291.55H438.831V289.225H440.456V285.8H443.331V289.225H446.681V291.55H443.331Z" fill="black"/>
<rect x="206" y="63" width="315" height="352" rx="40" fill="#F4F4F4"/>
<rect x="206.5" y="63.5" width="314" height="351" rx="39.5" stroke="black" stroke-opacity="0.2"/>
<g clip-path="url(#clip0_56_223)">
<path d="M486.258 172.435H247.857C244.661 172.435 242.061 170.018 242.061 167.047V91.3877C242.061 88.4169 244.661 86 247.857 86H486.258C489.454 86 492.054 88.4169 492.054 91.3877V167.047C492.054 170.018 489.454 172.435 486.258 172.435ZM247.857 86.6423C245.042 86.6423 242.752 88.7711 242.752 91.3877V167.047C242.752 169.663 245.042 171.792 247.857 171.792H486.258C489.073 171.792 491.363 169.663 491.363 167.047V91.3877C491.363 88.7711 489.073 86.6423 486.258 86.6423H247.857Z" fill="#3F3D56"/>
<path d="M509 262.819H215V263.36H509V262.819Z" fill="#E6E6E6"/>
<path d="M509 235.199H215V235.74H509V235.199Z" fill="#E6E6E6"/>
<rect x="239.5" y="86.5" width="257" height="86" rx="5.5" fill="#FFFDFD" stroke="black"/>
<path d="M396.093 164.043H383.746C382.767 164.043 381.974 164.781 381.974 165.691V170.425C381.974 171.334 382.767 172.072 383.746 172.072H396.093C397.071 172.072 397.865 171.334 397.865 170.425V165.691C397.865 164.781 397.071 164.043 396.093 164.043Z" fill="#3F3D56"/>
<path d="M422.002 168.777H409.655C408.677 168.777 407.883 169.515 407.883 170.425V170.425C407.883 171.334 408.677 172.072 409.655 172.072H422.002C422.981 172.072 423.774 171.334 423.774 170.425V170.425C423.774 169.515 422.981 168.777 422.002 168.777Z" fill="#6C63FF"/>
<path d="M274.269 206.364L281.714 201.963L284.74 203.66L274.269 214.846V206.364Z" fill="#FFB6B6"/>
<path d="M264.089 189.329C264.089 189.329 259.145 190.411 261.471 196.63C263.798 202.849 271.361 215.828 273.688 215.017C276.014 214.206 276.305 206.094 276.305 206.094C276.305 206.094 276.014 206.364 274.851 205.283C273.688 204.201 273.688 204.695 273.688 203.502C273.688 202.308 272.736 201.424 272.736 201.424L271.652 199.334C271.652 199.334 271.652 189.6 267.289 189.059C262.926 188.518 264.089 189.329 264.089 189.329Z" fill="#E6E6E6"/>
<path d="M287.19 203.37C289.121 201.574 289.72 199.22 288.527 198.111C287.335 197.003 284.802 197.559 282.871 199.354C280.94 201.149 280.342 203.504 281.535 204.612C282.727 205.721 285.26 205.165 287.19 203.37Z" fill="#FFB6B6"/>
<path d="M244.83 225.157L249.91 232.974L279.512 231.345L271.63 221.901L244.83 225.157Z" fill="#E6E6E6"/>
<path d="M253.675 261.716C253.503 261.716 253.353 261.597 253.329 261.434L244.483 201.374C244.457 201.196 244.591 201.031 244.782 201.007C244.974 200.981 245.151 201.107 245.177 201.286L254.023 261.346C254.049 261.524 253.915 261.688 253.723 261.712C253.707 261.715 253.691 261.716 253.675 261.716Z" fill="#E6E6E6"/>
<path d="M244.83 261.792C244.636 261.792 244.48 261.646 244.48 261.466V201.341C244.48 201.162 244.636 201.016 244.83 201.016C245.023 201.016 245.18 201.162 245.18 201.341V261.466C245.18 261.646 245.023 261.792 244.83 261.792Z" fill="#E6E6E6"/>
<path d="M289.233 261.553C289.085 261.553 288.946 261.464 288.899 261.325L267.968 199.473C267.909 199.302 268.012 199.119 268.197 199.065C268.381 199.011 268.578 199.106 268.636 199.278L289.568 261.129C289.626 261.301 289.523 261.484 289.339 261.538C289.304 261.548 289.268 261.553 289.233 261.553Z" fill="#E6E6E6"/>
<path d="M282.84 261.629C282.683 261.629 282.541 261.531 282.501 261.384L267.962 206.796C267.915 206.621 268.028 206.444 268.215 206.4C268.403 206.356 268.594 206.461 268.641 206.635L283.18 261.223C283.227 261.397 283.114 261.575 282.927 261.619C282.898 261.626 282.868 261.629 282.84 261.629Z" fill="#E6E6E6"/>
<path d="M244.83 202.299L269.09 201.952L273.557 225.646H245.18L244.83 202.299Z" fill="#E6E6E6"/>
<path d="M282.112 237.139L275.998 247.146L283.096 248.599L286.056 241.481L282.112 237.139Z" fill="#FFB6B6"/>
<path d="M278.194 245.257C278.194 245.257 277.956 243.625 276.559 244.143C275.163 244.661 271.132 246.585 271.132 246.585C271.132 246.585 281.645 262.467 283.641 261.727C285.636 260.987 283.247 256.498 283.247 256.498L283.775 248.562L278.194 245.257Z" fill="#2F2E41"/>
<path d="M255.073 217.721C255.073 217.721 252.891 227.05 259.581 230.295C266.271 233.54 289.103 225.563 289.103 225.563L278.632 240.149L285.904 242.869C285.904 242.869 302.483 222.588 301.319 219.344C300.156 216.099 292.303 215.828 292.303 215.828L274.56 216.64L269.906 215.288L255.073 217.721Z" fill="#2F2E41"/>
<path d="M273.067 241.58L263.455 248.833L269.498 252.588L275.041 246.959L273.067 241.58Z" fill="#FFB6B6"/>
<path d="M266.24 247.816C266.24 247.816 266.657 246.216 265.154 246.225C263.65 246.235 259.142 246.664 259.142 246.664C259.142 246.664 262.719 265.014 264.867 265C267.015 264.986 266.547 259.996 266.547 259.996L270.144 252.783L266.24 247.816Z" fill="#2F2E41"/>
<path d="M255.482 214.347C255.482 214.347 249.798 222.298 254.759 227.583C259.72 232.869 284.11 233.163 284.11 233.163L268.648 243.206L274.356 248.2C274.356 248.2 297.736 234.919 297.923 231.503C298.109 228.087 290.9 225.178 290.9 225.178L274.057 219.932L270.251 217.098L255.482 214.347Z" fill="#2F2E41"/>
<path d="M270.082 195.93C270.082 195.93 264.555 194.037 261.938 194.037C261.687 194.037 261.44 194.064 261.193 194.112C259.518 194.442 257.976 195.781 257.237 196.511C256.949 196.798 256.784 196.99 256.784 196.99C256.784 196.99 256.801 196.803 256.836 196.476C257.008 194.756 257.642 189.113 258.779 185.5C259.186 184.21 259.654 183.18 260.192 182.68C261.446 181.512 262.025 180.111 262.292 179.067C262.519 178.172 262.519 177.542 262.519 177.542L260.399 176.693L260.006 174.308C259.936 174.59 259.614 175.138 258.529 176.19C258.436 176.28 258.334 176.355 258.226 176.42C256.661 177.334 253.471 175.744 251.752 174.744C252.467 172.432 253.764 170.317 256.12 169.971C261.647 169.16 261.647 166.185 265.137 169.43C265.425 169.698 265.716 169.955 266.007 170.204C267.124 172.188 267.531 174.849 267.676 176.699C267.781 177.994 267.755 178.894 267.755 178.894C267.755 178.894 269.209 187.006 271.536 188.629C273.863 190.251 270.082 195.93 270.082 195.93Z" fill="#2F2E41"/>
<path d="M259.32 182.95L255.39 188.309L264.265 190.522V182.95H259.32Z" fill="#FFB6B6"/>
<path opacity="0.1" d="M259.32 182.95L255.39 188.309L264.265 190.522V182.95H259.32Z" fill="black"/>
<path d="M264.816 188.112L256.382 184.867C256.382 184.867 245.038 189.464 245.911 198.387C246.783 207.311 254.927 222.724 254.927 222.724L271.215 216.234L269.47 198.928L264.816 188.112Z" fill="#E6E6E6"/>
<path d="M261.2 185.343C265.31 185.343 268.642 182.246 268.642 178.425C268.642 174.604 265.31 171.507 261.2 171.507C257.09 171.507 253.758 174.604 253.758 178.425C253.758 182.246 257.09 185.343 261.2 185.343Z" fill="#FFB6B6"/>
<path d="M238.607 212.218H235.843V262.962H238.607V212.218Z" fill="#3F3D56"/>
<path d="M305.626 212.218H302.863V262.962H305.626V212.218Z" fill="#3F3D56"/>
<path d="M288.008 190.7H269.698V207.721H288.008V190.7Z" fill="#00CBCC"/>
<path d="M259.145 208.798L266.589 204.397L269.616 206.094L259.145 217.279V208.798Z" fill="#FFB6B6"/>
<path d="M248.965 191.763C248.965 191.763 244.02 192.844 246.347 199.064C248.674 205.283 256.236 218.262 258.563 217.451C260.89 216.64 261.181 208.528 261.181 208.528C261.181 208.528 260.89 208.798 259.726 207.716C258.563 206.635 258.563 207.129 258.563 205.935C258.563 204.742 257.611 203.857 257.611 203.857L256.527 201.768C256.527 201.768 256.527 192.033 252.164 191.492C247.801 190.951 248.965 191.763 248.965 191.763Z" fill="#E6E6E6"/>
<path d="M272.066 205.803C273.997 204.008 274.595 201.654 273.403 200.545C272.21 199.436 269.678 199.993 267.747 201.788C265.816 203.583 265.217 205.937 266.41 207.046C267.603 208.155 270.135 207.598 272.066 205.803Z" fill="#FFB6B6"/>
<path d="M311.154 210.291H227.552V216.072H311.154V210.291Z" fill="#3F3D56"/>
<path d="M271.245 175.92C269.791 177.272 268.627 178.624 268.627 178.624L268.046 176.461C268.046 176.461 267.912 176.553 267.676 176.699C266.754 177.283 264.279 178.751 262.292 179.067C261.408 179.208 260.623 179.119 260.111 178.624C259.026 177.572 258.703 177.023 258.634 176.742L258.241 179.127L256.12 179.976C256.12 179.976 256.12 182.945 258.447 185.114C258.561 185.219 258.671 185.349 258.779 185.5C259.89 187.058 260.687 190.87 261.193 194.112C261.641 196.995 261.856 199.423 261.856 199.423C261.856 199.423 259.654 196.86 257.237 196.511C257.104 196.492 256.97 196.479 256.836 196.476C256.792 196.47 256.746 196.47 256.702 196.47C254.084 196.47 248.558 198.363 248.558 198.363C248.558 198.363 244.777 192.685 247.104 191.062C249.431 189.44 250.885 181.328 250.885 181.328C250.885 181.328 250.789 177.856 251.752 174.744C252.467 172.432 253.765 170.317 256.12 169.971C261.647 169.16 261.647 166.185 265.137 169.43C265.425 169.698 265.716 169.955 266.007 170.204C269.259 172.983 272.58 174.679 271.245 175.92Z" fill="#2F2E41"/>
<path d="M495.742 198.731L479.049 193.981C478.68 193.875 478.292 193.837 477.907 193.868L393.303 200.561C392.097 200.657 391.794 202.17 392.882 202.662L395.592 203.89H395.52V262.647H398.074V205.014L406.567 208.861C407.217 209.155 407.942 209.275 408.661 209.207L409.565 209.123V262.647H412.119V208.883L477.556 202.738V262.647H480.11V202.498L490.963 201.479V262.647H493.516V201.239L495.496 201.053C496.886 200.923 497.078 199.111 495.742 198.731Z" fill="#3F3D56"/>
<path d="M417.864 200.329C419.46 200.329 443.082 197.658 443.082 197.658L446.593 202.109L422.014 206.561L417.864 200.329Z" fill="white"/>
<path d="M443.789 260.366L439.685 260.359L437.76 245.639L443.817 245.649L443.789 260.366Z" fill="#A0616A"/>
<path d="M429.729 260.257C429.601 260.456 429.532 261.102 429.531 261.335C429.53 262.05 430.153 262.631 430.922 262.632L443.631 262.652C444.156 262.653 444.582 262.258 444.583 261.77L444.584 261.278C444.584 261.278 445.215 259.801 443.924 257.977C443.924 257.977 442.313 259.401 439.913 257.162L439.206 255.967L434.069 259.448L431.224 259.769C430.601 259.839 430.05 259.756 429.729 260.257Z" fill="#2F2E41"/>
<path d="M465.815 253.521L462.577 255.791L451.616 245.261L456.395 241.91L465.815 253.521Z" fill="#A0616A"/>
<path d="M454.667 261.232C454.694 261.461 455.054 262.007 455.203 262.191C455.661 262.755 456.524 262.868 457.131 262.442L467.158 255.41C467.572 255.12 467.654 254.572 467.342 254.187L467.027 253.799C467.027 253.799 466.577 252.285 464.389 251.563C464.389 251.563 464.033 253.579 460.706 253.146L459.382 252.596L457.567 258.188L455.532 260.019C455.086 260.419 454.598 260.66 454.667 261.232Z" fill="#2F2E41"/>
<path d="M457.238 177.448C457.238 180.967 454.17 183.819 450.386 183.819C446.601 183.819 443.533 180.967 443.533 177.448C443.533 173.93 446.601 171.078 450.386 171.078C454.17 171.078 457.238 173.93 457.238 177.448Z" fill="#A0616A"/>
<path d="M456.592 214.179C456.592 214.179 431.363 212.851 429.935 215.506C428.506 218.162 437.655 254.635 437.655 254.635L445.817 253.045L441.835 227.455C441.835 227.455 462.889 232.639 465.745 226.443C468.601 220.248 467.779 217.941 467.779 217.941L456.592 214.179Z" fill="#2F2E41"/>
<path d="M463.057 209.722C463.057 209.722 438.348 214.646 437.726 217.558C437.104 220.47 456.305 253.394 456.305 253.394L463.724 249.853L452.603 226.155C452.603 226.155 474.382 225.976 475.373 219.298C476.365 212.621 474.915 210.598 474.915 210.598L463.057 209.722Z" fill="#2F2E41"/>
<path d="M465.875 184.749H454.004L445.882 197.141C445.882 197.141 443.978 205.148 445.882 206.013C447.786 206.877 447.786 216.17 447.786 216.17L467.779 217.941C467.779 217.941 470.635 190.06 469.683 187.404C468.731 184.749 465.875 184.749 465.875 184.749Z" fill="#00CBCC"/>
<path d="M447.072 192.936L445.882 206.013L432.496 200.731L429.301 199.237C428.675 198.479 427.863 197.871 426.933 197.464C424.619 196.415 422.163 196.675 421.446 198.043C420.728 199.412 422.022 201.371 424.335 202.418C425.253 202.849 426.269 203.069 427.298 203.059L436.645 207.995L436.656 207.976L436.697 208.044L451.356 213.736L454.729 196.57L447.072 192.936Z" fill="#A0616A"/>
<path d="M445.644 178.332C445.644 178.332 438.503 179.217 441.359 173.464C441.359 173.464 440.924 170.345 443.046 170.135C445.168 169.924 448.024 166.383 448.024 166.383C448.024 166.383 454.572 163.285 457.962 166.383C461.353 169.481 471.35 187.626 471.35 187.626L464.685 194.264C464.685 194.264 460.678 184.472 456.017 185.606C451.356 186.741 447.072 190.123 447.072 190.123C447.072 190.123 442.341 187.922 444.469 186.004C446.596 184.085 445.644 178.332 445.644 178.332Z" fill="#2F2E41"/>
<path d="M455.164 188.068C455.164 188.068 451.832 184.085 449.452 187.183C447.072 190.281 445.168 194.264 445.168 194.264L454.688 197.362L455.164 188.068Z" fill="#00CBCC"/>
<path d="M491.313 261.767L480.252 229.082L480.253 229.081H480.279L480.234 229.028L480.233 229.027L479.445 226.699L479.446 226.699C480.646 225.737 481.463 224.363 481.626 222.781L476.57 196.928C476.918 193.533 474.118 190.566 470.45 190.444L459.042 190.417C455.799 190.31 452.99 192.489 452.517 195.474L452.265 197.059L448.77 219.164C448.642 219.959 448.693 220.743 448.894 221.476L446.379 221.781L445.616 221.876L442.6 222.241L442.59 222.244L442.213 222.289H441.805V231.785H441.83V262.137C441.83 262.333 442.003 262.493 442.213 262.493C442.427 262.493 442.6 262.333 442.6 262.137V231.785H447.075L451.541 262.101C451.569 262.28 451.732 262.41 451.924 262.41C451.94 262.41 451.959 262.41 451.975 262.407C452.185 262.38 452.332 262.199 452.304 262.004L447.854 231.785H469.327C471.459 231.785 473.435 231.156 475.043 230.079L483.557 262.046C483.601 262.208 483.758 262.315 483.929 262.315C483.961 262.315 483.993 262.312 484.025 262.304C484.23 262.255 484.355 262.061 484.302 261.87L475.706 229.593C475.821 229.505 475.935 229.41 476.043 229.313L479.461 229.126L490.58 261.981C490.631 262.134 490.783 262.232 490.946 262.232C490.984 262.232 491.023 262.226 491.062 262.215C491.264 262.156 491.377 261.955 491.313 261.767ZM478.715 227.206C478.743 227.191 478.769 227.173 478.794 227.158L478.877 227.401L478.715 227.206Z" fill="#E6E6E6"/>
<path d="M266.477 118.548L266.587 107.989V106.402C266.587 105.89 266.583 105.389 266.575 104.901C266.567 104.413 266.558 103.924 266.55 103.436C266.542 102.948 266.53 102.443 266.514 101.922C266.465 100.791 266.42 99.8838 266.379 99.2002C266.339 98.5085 266.339 98.1056 266.379 97.9917C266.428 97.8778 266.489 97.7882 266.562 97.7231C266.676 97.6092 266.847 97.5522 267.075 97.5522C267.474 97.5522 267.673 97.89 267.673 98.5654L267.612 103.68V106.134C267.612 106.63 267.608 107.155 267.6 107.708C267.6 108.262 267.604 108.815 267.612 109.369C267.62 110.524 267.625 111.379 267.625 111.932C267.877 111.297 268.239 110.756 268.711 110.309C269.305 109.731 269.928 109.442 270.579 109.442C271.816 109.442 272.625 110.073 273.008 111.334C273.13 111.741 273.191 112.233 273.191 112.811C273.191 113.381 273.105 113.95 272.935 114.52C272.772 115.09 272.548 115.615 272.263 116.095C271.978 116.567 271.645 116.994 271.262 117.376C270.88 117.751 270.477 118.072 270.054 118.341C268.996 119.016 268.003 119.321 267.075 119.256C266.676 119.224 266.477 118.988 266.477 118.548ZM268.564 111.834C268.304 112.16 268.088 112.514 267.917 112.896C267.755 113.279 267.661 113.637 267.637 113.971C267.62 114.296 267.608 114.581 267.6 114.825C267.592 115.061 267.584 115.261 267.576 115.423C267.576 115.586 267.576 115.72 267.576 115.826V116.107C267.576 116.31 267.592 117.031 267.625 118.268C267.991 118.284 268.385 118.178 268.809 117.95C269.338 117.674 269.777 117.389 270.127 117.096C270.485 116.803 270.806 116.449 271.091 116.034C271.742 115.082 272.068 114.003 272.068 112.799C272.068 112.083 271.93 111.554 271.653 111.212C271.376 110.87 271.03 110.699 270.615 110.699C270.208 110.699 269.83 110.809 269.48 111.029C269.138 111.24 268.833 111.509 268.564 111.834ZM280.686 110.199C280.686 110.638 280.466 110.89 280.027 110.956C279.49 111.061 278.883 111.521 278.208 112.335C277.484 113.214 277.077 114.081 276.987 114.935C276.955 115.309 276.938 115.651 276.938 115.96C276.938 116.701 276.971 117.478 277.036 118.292C277.052 118.561 276.983 118.764 276.829 118.902C276.682 119.041 276.519 119.11 276.34 119.11C276.169 119.11 276.019 119.049 275.889 118.927C275.758 118.797 275.706 118.605 275.73 118.353C275.754 118.093 275.775 117.796 275.791 117.462C275.807 117.12 275.824 116.762 275.84 116.388C275.856 115.753 275.864 115.045 275.864 114.264C275.864 112.945 275.848 111.969 275.815 111.334C275.783 110.691 275.787 110.321 275.828 110.223C275.868 110.125 275.921 110.048 275.986 109.991C276.125 109.861 276.275 109.796 276.438 109.796C276.609 109.796 276.759 109.857 276.89 109.979C277.028 110.101 277.089 110.26 277.073 110.455C277.065 110.642 277.048 110.829 277.024 111.017C277.008 111.196 276.987 111.419 276.963 111.688C276.914 112.119 276.869 112.579 276.829 113.067C277.162 112.229 277.638 111.456 278.257 110.748C278.949 109.975 279.551 109.588 280.063 109.588C280.283 109.588 280.442 109.649 280.54 109.771C280.637 109.894 280.686 110.036 280.686 110.199ZM283.97 106.061C284.027 106.191 284.047 106.349 284.031 106.537C284.023 106.716 283.982 106.87 283.909 107C283.835 107.131 283.75 107.236 283.652 107.318C283.465 107.464 283.274 107.538 283.079 107.538C282.883 107.538 282.729 107.517 282.615 107.477C282.501 107.428 282.399 107.363 282.31 107.281C282.098 107.086 281.992 106.83 281.992 106.512C281.992 106.195 282.074 105.967 282.236 105.829C282.505 105.593 282.773 105.475 283.042 105.475C283.481 105.475 283.791 105.67 283.97 106.061ZM283.579 110.65C283.538 111.497 283.498 112.331 283.457 113.153C283.416 113.975 283.396 114.715 283.396 115.375C283.396 116.034 283.416 116.717 283.457 117.425C283.498 118.125 283.498 118.528 283.457 118.634C283.424 118.731 283.376 118.813 283.311 118.878C283.172 119.016 283.022 119.085 282.859 119.085C282.696 119.085 282.542 119.024 282.395 118.902C282.257 118.78 282.204 118.532 282.236 118.158C282.326 117.124 282.371 116.078 282.371 115.021C282.371 113.963 282.354 113.108 282.322 112.457C282.297 111.798 282.277 111.301 282.261 110.968C282.253 110.634 282.269 110.418 282.31 110.321C282.35 110.223 282.407 110.146 282.48 110.089C282.619 109.959 282.773 109.894 282.944 109.894C283.115 109.894 283.266 109.955 283.396 110.077C283.526 110.199 283.587 110.39 283.579 110.65ZM292.954 113.08L292.93 115.716C292.93 116.587 292.958 117.401 293.015 118.158C293.031 118.434 292.962 118.642 292.808 118.78C292.661 118.91 292.502 118.976 292.332 118.976C292.169 118.976 292.018 118.915 291.88 118.792C291.75 118.662 291.697 118.471 291.721 118.219C291.754 117.958 291.778 117.661 291.794 117.328C291.819 116.994 291.839 116.648 291.855 116.29C291.888 115.574 291.904 114.984 291.904 114.52C291.904 114.048 291.896 113.706 291.88 113.495C291.864 113.283 291.847 112.97 291.831 112.555C291.815 112.132 291.705 111.737 291.501 111.371C291.298 110.996 291.013 110.809 290.647 110.809C290.281 110.809 289.963 110.886 289.695 111.041C289.426 111.196 289.178 111.399 288.95 111.651C288.486 112.197 288.177 112.831 288.022 113.556C288.014 113.784 288.01 114.007 288.01 114.227V114.862C288.01 116.335 288.027 117.311 288.059 117.792C288.092 118.264 288.063 118.581 287.974 118.744C287.884 118.898 287.725 118.976 287.498 118.976C287.278 118.976 287.103 118.906 286.973 118.768C286.851 118.622 286.802 118.357 286.826 117.975C286.908 116.925 286.948 115.847 286.948 114.74C286.948 112.844 286.92 111.452 286.863 110.565C286.83 110.02 287.058 109.747 287.546 109.747C287.799 109.747 287.957 109.824 288.022 109.979C288.096 110.134 288.12 110.296 288.096 110.467C288.079 110.638 288.067 110.785 288.059 110.907C288.059 111.029 288.059 111.155 288.059 111.285C288.059 111.415 288.059 111.533 288.059 111.639C288.539 110.728 289.178 110.13 289.976 109.845C290.228 109.755 290.484 109.71 290.745 109.71C291.005 109.71 291.274 109.771 291.55 109.894C291.827 110.007 292.067 110.199 292.271 110.467C292.726 111.053 292.954 111.924 292.954 113.08ZM297.69 118.524C297.804 118.532 298.016 118.536 298.325 118.536H299.009C300.457 118.536 301.458 119.138 302.012 120.343C302.199 120.733 302.292 121.185 302.292 121.698C302.292 122.21 302.215 122.666 302.061 123.065C301.914 123.464 301.694 123.81 301.401 124.103C300.783 124.697 299.888 124.994 298.716 124.994C297.78 124.994 297.023 124.754 296.445 124.273C295.859 123.777 295.566 123.085 295.566 122.198C295.566 121.409 295.778 120.697 296.201 120.062C296.348 119.834 296.502 119.647 296.665 119.5C296.331 119.419 296.063 119.244 295.859 118.976C295.599 118.634 295.469 118.28 295.469 117.914C295.469 117.547 295.505 117.246 295.579 117.01C295.652 116.766 295.754 116.542 295.884 116.339C296.087 116.021 296.315 115.757 296.567 115.545C296.177 115.269 295.868 114.89 295.64 114.41C295.461 114.028 295.371 113.568 295.371 113.031C295.371 112.486 295.461 111.993 295.64 111.554C295.827 111.106 296.075 110.736 296.384 110.443C296.694 110.142 297.048 109.914 297.446 109.759C297.845 109.605 298.276 109.523 298.74 109.515C299.066 109.507 299.383 109.54 299.692 109.613C299.733 109.068 299.953 108.486 300.352 107.867C300.921 106.996 301.572 106.561 302.305 106.561C302.687 106.561 302.878 106.76 302.878 107.159C302.878 107.403 302.699 107.611 302.341 107.782C301.78 107.904 301.32 108.201 300.962 108.673C300.677 109.039 300.518 109.458 300.486 109.93C300.706 110.052 300.905 110.203 301.084 110.382C301.686 110.984 301.987 111.834 301.987 112.933C301.987 113.812 301.702 114.544 301.133 115.13C300.498 115.781 299.664 116.107 298.63 116.107C298.101 116.107 297.633 116.034 297.227 115.887C297.064 116.099 296.921 116.38 296.799 116.729C296.637 117.193 296.555 117.527 296.555 117.73C296.555 118.259 296.934 118.524 297.69 118.524ZM296.47 113.019C296.47 113.686 296.661 114.215 297.043 114.605C297.434 114.988 297.894 115.179 298.423 115.179C298.96 115.179 299.371 115.114 299.656 114.984C299.949 114.854 300.189 114.679 300.376 114.459C300.75 114.036 300.938 113.458 300.938 112.726C300.938 111.684 300.482 111 299.57 110.675C299.302 110.577 298.988 110.528 298.63 110.528C298.28 110.528 297.967 110.606 297.69 110.76C297.414 110.907 297.186 111.098 297.007 111.334C296.649 111.79 296.47 112.351 296.47 113.019ZM297.581 119.586C297.458 119.659 297.345 119.781 297.239 119.952C296.856 120.538 296.665 121.193 296.665 121.917C296.665 123.309 297.458 124.005 299.045 124.005C300.486 124.005 301.206 123.264 301.206 121.783C301.206 121.132 301.035 120.595 300.693 120.172C300.384 119.781 300.026 119.582 299.619 119.574C299.22 119.574 298.789 119.578 298.325 119.586C298.073 119.594 297.825 119.594 297.581 119.586ZM312.559 110.785C312.29 110.589 311.973 110.492 311.606 110.492C311.248 110.492 310.919 110.593 310.618 110.797C310.325 110.992 310.076 111.269 309.873 111.627C309.458 112.343 309.25 113.328 309.25 114.581C309.25 115.826 309.45 116.746 309.849 117.34C310.247 117.934 310.78 118.231 311.448 118.231C312.18 118.231 312.766 117.812 313.206 116.974C313.596 116.225 313.792 115.305 313.792 114.215C313.792 112.538 313.381 111.395 312.559 110.785ZM311.436 119.269C310.972 119.277 310.536 119.183 310.129 118.988C309.731 118.784 309.385 118.471 309.092 118.048C308.449 117.153 308.127 115.879 308.127 114.227C308.127 112.746 308.473 111.578 309.165 110.724C309.816 109.91 310.679 109.503 311.753 109.503C312.656 109.503 313.405 109.894 313.999 110.675C314.609 111.505 314.915 112.644 314.915 114.093C314.915 115.704 314.561 116.99 313.853 117.95C313.218 118.813 312.412 119.252 311.436 119.269ZM318.479 116.021C318.479 117.47 319.02 118.194 320.103 118.194C320.721 118.194 321.25 117.885 321.689 117.267C322.08 116.713 322.312 116.054 322.385 115.289C322.41 114.573 322.422 113.914 322.422 113.312C322.422 112.449 322.414 111.578 322.397 110.699C322.381 110.431 322.45 110.227 322.605 110.089C322.76 109.951 322.918 109.881 323.081 109.881C323.252 109.881 323.403 109.946 323.533 110.077C323.663 110.199 323.712 110.382 323.679 110.626C323.533 112.197 323.459 113.714 323.459 115.179C323.459 116.636 323.48 117.45 323.521 117.621C323.561 117.792 323.61 117.934 323.667 118.048C323.797 118.341 323.862 118.556 323.862 118.695C323.862 118.825 323.809 118.947 323.704 119.061C323.606 119.183 323.468 119.244 323.289 119.244C322.678 119.244 322.381 118.687 322.397 117.572C322.121 118.076 321.864 118.426 321.628 118.622C320.823 119.289 319.94 119.448 318.979 119.098C317.905 118.691 317.368 117.629 317.368 115.912C317.368 115.016 317.36 114.133 317.344 113.263C317.336 112.392 317.336 111.537 317.344 110.699C317.352 110.431 317.425 110.231 317.563 110.101C317.71 109.963 317.865 109.894 318.027 109.894C318.198 109.894 318.353 109.955 318.491 110.077C318.63 110.199 318.678 110.406 318.638 110.699C318.605 110.992 318.577 111.375 318.552 111.847C318.536 112.319 318.524 112.803 318.516 113.299C318.491 114.129 318.479 115.037 318.479 116.021ZM326.877 107.428C326.877 107.143 326.947 106.931 327.085 106.793C327.223 106.655 327.374 106.585 327.537 106.585C327.699 106.585 327.846 106.655 327.976 106.793C328.106 106.931 328.155 107.143 328.123 107.428C328.049 108.185 328.005 109.063 327.988 110.064C328.656 110.064 329.16 110.044 329.502 110.003C329.844 109.963 330.088 109.942 330.234 109.942C330.788 109.926 331.064 110.13 331.064 110.553C331.064 110.797 330.922 110.968 330.637 111.065C330.54 111.098 330.426 111.11 330.295 111.102C330.165 111.094 330.023 111.09 329.868 111.09C329.722 111.082 329.575 111.078 329.429 111.078C329.176 111.078 328.932 111.078 328.696 111.078C328.468 111.078 328.265 111.082 328.086 111.09C328.053 111.09 328.017 111.09 327.976 111.09C327.976 111.106 327.976 111.118 327.976 111.126C327.976 114.496 328.025 116.396 328.123 116.827C328.22 117.258 328.326 117.568 328.44 117.755C328.643 118.08 328.904 118.243 329.221 118.243C329.734 118.243 330.08 117.991 330.259 117.486C330.332 117.079 330.54 116.876 330.881 116.876C331.003 116.876 331.109 116.929 331.199 117.035C331.296 117.132 331.345 117.279 331.345 117.474C331.345 117.669 331.284 117.881 331.162 118.109C331.04 118.337 330.877 118.536 330.674 118.707C330.226 119.081 329.726 119.269 329.172 119.269C328.163 119.269 327.467 118.711 327.085 117.596C326.947 117.189 326.877 116.689 326.877 116.095V111.175C326.707 111.183 326.519 111.196 326.316 111.212C326.064 111.22 325.872 111.159 325.742 111.029C325.62 110.89 325.559 110.748 325.559 110.602C325.559 110.447 325.624 110.313 325.754 110.199C325.885 110.077 326.08 110.016 326.34 110.016L326.877 110.028V107.428ZM340.513 118.28C341.44 114.805 342.075 112.221 342.417 110.528C342.507 110.024 342.755 109.771 343.162 109.771C343.324 109.771 343.467 109.824 343.589 109.93C343.711 110.036 343.772 110.166 343.772 110.321C343.772 110.573 343.711 110.866 343.589 111.2C343.467 111.533 343.3 112.05 343.088 112.75C342.885 113.442 342.669 114.186 342.441 114.984C342.222 115.781 341.994 116.611 341.758 117.474C341.53 118.329 341.298 119.187 341.062 120.05C340.134 123.411 339.561 125.205 339.341 125.433C339.235 125.547 339.084 125.604 338.889 125.604C338.702 125.604 338.539 125.547 338.401 125.433C338.271 125.327 338.206 125.201 338.206 125.055C338.206 124.811 338.267 124.583 338.389 124.371C338.511 124.16 338.641 123.887 338.779 123.553C338.926 123.228 339.08 122.845 339.243 122.406C339.52 121.641 339.792 120.803 340.061 119.891C339.866 119.264 339.666 118.589 339.463 117.865C339.227 117.067 338.983 116.266 338.73 115.46C338.128 113.499 337.705 112.254 337.461 111.725C337.184 111.106 337.046 110.687 337.046 110.467C337.046 110.248 337.103 110.077 337.217 109.955C337.331 109.824 337.477 109.759 337.656 109.759C338.006 109.759 338.25 109.991 338.389 110.455C338.527 110.911 338.669 111.399 338.816 111.92C338.962 112.433 339.105 112.958 339.243 113.495C339.39 114.024 339.532 114.549 339.67 115.069C339.809 115.59 339.939 116.087 340.061 116.559C340.183 117.022 340.293 117.446 340.391 117.828C340.439 117.991 340.48 118.141 340.513 118.28ZM349.839 110.785C349.57 110.589 349.253 110.492 348.887 110.492C348.529 110.492 348.199 110.593 347.898 110.797C347.605 110.992 347.357 111.269 347.153 111.627C346.738 112.343 346.531 113.328 346.531 114.581C346.531 115.826 346.73 116.746 347.129 117.34C347.528 117.934 348.061 118.231 348.728 118.231C349.46 118.231 350.046 117.812 350.486 116.974C350.876 116.225 351.072 115.305 351.072 114.215C351.072 112.538 350.661 111.395 349.839 110.785ZM348.716 119.269C348.252 119.277 347.817 119.183 347.41 118.988C347.011 118.784 346.665 118.471 346.372 118.048C345.729 117.153 345.408 115.879 345.408 114.227C345.408 112.746 345.754 111.578 346.445 110.724C347.096 109.91 347.959 109.503 349.033 109.503C349.937 109.503 350.685 109.894 351.279 110.675C351.89 111.505 352.195 112.644 352.195 114.093C352.195 115.704 351.841 116.99 351.133 117.95C350.498 118.813 349.692 119.252 348.716 119.269ZM355.759 116.021C355.759 117.47 356.3 118.194 357.383 118.194C358.001 118.194 358.53 117.885 358.97 117.267C359.36 116.713 359.592 116.054 359.666 115.289C359.69 114.573 359.702 113.914 359.702 113.312C359.702 112.449 359.694 111.578 359.678 110.699C359.661 110.431 359.731 110.227 359.885 110.089C360.04 109.951 360.199 109.881 360.361 109.881C360.532 109.881 360.683 109.946 360.813 110.077C360.943 110.199 360.992 110.382 360.959 110.626C360.813 112.197 360.74 113.714 360.74 115.179C360.74 116.636 360.76 117.45 360.801 117.621C360.841 117.792 360.89 117.934 360.947 118.048C361.077 118.341 361.143 118.556 361.143 118.695C361.143 118.825 361.09 118.947 360.984 119.061C360.886 119.183 360.748 119.244 360.569 119.244C359.958 119.244 359.661 118.687 359.678 117.572C359.401 118.076 359.145 118.426 358.909 118.622C358.103 119.289 357.22 119.448 356.26 119.098C355.186 118.691 354.648 117.629 354.648 115.912C354.648 115.016 354.64 114.133 354.624 113.263C354.616 112.392 354.616 111.537 354.624 110.699C354.632 110.431 354.705 110.231 354.844 110.101C354.99 109.963 355.145 109.894 355.308 109.894C355.479 109.894 355.633 109.955 355.771 110.077C355.91 110.199 355.959 110.406 355.918 110.699C355.885 110.992 355.857 111.375 355.833 111.847C355.816 112.319 355.804 112.803 355.796 113.299C355.771 114.129 355.759 115.037 355.759 116.021ZM369.016 110.199C369.016 110.638 368.796 110.89 368.357 110.956C367.82 111.061 367.214 111.521 366.538 112.335C365.814 113.214 365.407 114.081 365.317 114.935C365.285 115.309 365.269 115.651 365.269 115.96C365.269 116.701 365.301 117.478 365.366 118.292C365.382 118.561 365.313 118.764 365.159 118.902C365.012 119.041 364.849 119.11 364.67 119.11C364.5 119.11 364.349 119.049 364.219 118.927C364.089 118.797 364.036 118.605 364.06 118.353C364.084 118.093 364.105 117.796 364.121 117.462C364.137 117.12 364.154 116.762 364.17 116.388C364.186 115.753 364.194 115.045 364.194 114.264C364.194 112.945 364.178 111.969 364.146 111.334C364.113 110.691 364.117 110.321 364.158 110.223C364.198 110.125 364.251 110.048 364.316 109.991C364.455 109.861 364.605 109.796 364.768 109.796C364.939 109.796 365.09 109.857 365.22 109.979C365.358 110.101 365.419 110.26 365.403 110.455C365.395 110.642 365.378 110.829 365.354 111.017C365.338 111.196 365.317 111.419 365.293 111.688C365.244 112.119 365.199 112.579 365.159 113.067C365.492 112.229 365.968 111.456 366.587 110.748C367.279 109.975 367.881 109.588 368.394 109.588C368.613 109.588 368.772 109.649 368.87 109.771C368.967 109.894 369.016 110.036 369.016 110.199ZM379.612 113.629L379.6 111.053C379.128 110.752 378.68 110.602 378.257 110.602C377.842 110.602 377.476 110.687 377.158 110.858C376.849 111.021 376.568 111.269 376.316 111.603C375.746 112.343 375.461 113.324 375.461 114.544C375.461 116.262 375.856 117.393 376.646 117.938C376.906 118.117 377.203 118.207 377.537 118.207C377.87 118.207 378.155 118.137 378.391 117.999C378.627 117.861 378.826 117.69 378.989 117.486C379.282 117.112 379.482 116.668 379.587 116.156C379.604 115.488 379.612 114.646 379.612 113.629ZM380.601 101.422C380.592 102.032 380.584 102.679 380.576 103.363C380.576 104.038 380.576 105.495 380.576 107.733C380.576 109.963 380.617 112.127 380.698 114.227C380.788 116.319 380.849 117.458 380.881 117.645C380.922 117.832 380.963 117.991 381.003 118.121C381.052 118.251 381.093 118.357 381.125 118.438C381.166 118.52 381.187 118.618 381.187 118.731C381.187 118.845 381.134 118.947 381.028 119.037C380.93 119.134 380.82 119.183 380.698 119.183C380.169 119.183 379.893 118.658 379.868 117.608C379.868 117.584 379.868 117.564 379.868 117.547C379.331 118.695 378.525 119.269 377.451 119.269C376.523 119.269 375.775 118.886 375.205 118.121C374.595 117.299 374.29 116.148 374.29 114.667C374.29 113.112 374.692 111.847 375.498 110.87C376.23 109.975 377.097 109.527 378.098 109.527C378.66 109.527 379.14 109.629 379.539 109.833C379.53 109.247 379.526 108.64 379.526 108.014C379.518 107.232 379.51 106.455 379.502 105.682C379.494 104.901 379.482 104.144 379.465 103.412C379.457 102.679 379.449 101.992 379.441 101.349C379.425 100.006 379.404 99.1025 379.38 98.6387C379.355 98.1748 379.417 97.8818 379.563 97.7598C379.709 97.6296 379.872 97.5645 380.051 97.5645C380.238 97.5645 380.405 97.6296 380.552 97.7598C380.706 97.8818 380.767 98.1097 380.735 98.4434C380.71 98.777 380.686 99.2043 380.662 99.7251C380.637 100.246 380.617 100.812 380.601 101.422ZM388.718 113.727C388.735 112.311 388.438 111.342 387.827 110.821C387.583 110.602 387.286 110.492 386.936 110.492C386.586 110.492 386.297 110.557 386.069 110.687C385.841 110.817 385.638 110.992 385.459 111.212C385.288 111.432 385.142 111.684 385.02 111.969C384.906 112.245 384.812 112.53 384.739 112.823C384.666 113.132 384.613 113.438 384.58 113.739L386.252 113.812C387.343 113.812 388.165 113.784 388.718 113.727ZM384.531 114.789C384.548 115.912 384.751 116.77 385.142 117.364C385.565 117.999 386.163 118.316 386.936 118.316C387.644 118.316 388.161 117.966 388.486 117.267C388.69 116.811 388.942 116.583 389.243 116.583C389.382 116.583 389.495 116.628 389.585 116.717C389.683 116.807 389.727 116.965 389.719 117.193C389.711 117.413 389.63 117.653 389.475 117.914C389.329 118.174 389.121 118.406 388.853 118.609C388.267 119.065 387.563 119.293 386.741 119.293C385.854 119.293 385.089 118.915 384.446 118.158C383.77 117.36 383.433 116.412 383.433 115.313C383.433 114.215 383.526 113.324 383.713 112.64C383.909 111.948 384.165 111.375 384.482 110.919C385.101 109.999 385.874 109.54 386.802 109.54C387.99 109.54 388.824 110.007 389.304 110.943C389.638 111.594 389.817 112.551 389.841 113.812C389.849 114.17 389.792 114.41 389.67 114.532C389.548 114.654 389.3 114.715 388.926 114.715L384.531 114.789ZM395.493 118.634C395.404 118.91 395.192 119.049 394.858 119.049C394.533 119.049 394.333 118.935 394.26 118.707C394.041 118.04 393.829 117.376 393.625 116.717C393.422 116.058 393.215 115.411 393.003 114.776C392.523 113.279 392.055 112.042 391.599 111.065C391.493 110.813 391.44 110.589 391.44 110.394C391.44 110.191 391.497 110.028 391.611 109.906C391.733 109.784 391.868 109.723 392.014 109.723C392.169 109.723 392.327 109.78 392.49 109.894C392.653 109.999 392.804 110.284 392.942 110.748C393.08 111.204 393.255 111.822 393.467 112.604C393.687 113.377 393.898 114.125 394.102 114.85C394.451 116.119 394.716 117.035 394.895 117.596C395.009 117.181 395.127 116.786 395.249 116.412C395.412 115.891 395.583 115.346 395.762 114.776C396.193 113.393 396.571 111.944 396.897 110.431C397.003 109.975 397.239 109.747 397.605 109.747C397.768 109.747 397.906 109.8 398.02 109.906C398.142 110.003 398.203 110.13 398.203 110.284C398.203 110.512 398.122 110.838 397.959 111.261C397.796 111.684 397.601 112.213 397.373 112.848C397.145 113.482 396.921 114.125 396.702 114.776C396.197 116.274 395.794 117.56 395.493 118.634ZM402.158 106.061C402.215 106.191 402.236 106.349 402.219 106.537C402.211 106.716 402.17 106.87 402.097 107C402.024 107.131 401.938 107.236 401.841 107.318C401.654 107.464 401.462 107.538 401.267 107.538C401.072 107.538 400.917 107.517 400.803 107.477C400.689 107.428 400.588 107.363 400.498 107.281C400.286 107.086 400.181 106.83 400.181 106.512C400.181 106.195 400.262 105.967 400.425 105.829C400.693 105.593 400.962 105.475 401.23 105.475C401.67 105.475 401.979 105.67 402.158 106.061ZM401.768 110.65C401.727 111.497 401.686 112.331 401.646 113.153C401.605 113.975 401.584 114.715 401.584 115.375C401.584 116.034 401.605 116.717 401.646 117.425C401.686 118.125 401.686 118.528 401.646 118.634C401.613 118.731 401.564 118.813 401.499 118.878C401.361 119.016 401.21 119.085 401.047 119.085C400.885 119.085 400.73 119.024 400.583 118.902C400.445 118.78 400.392 118.532 400.425 118.158C400.514 117.124 400.559 116.078 400.559 115.021C400.559 113.963 400.543 113.108 400.51 112.457C400.486 111.798 400.465 111.301 400.449 110.968C400.441 110.634 400.457 110.418 400.498 110.321C400.539 110.223 400.596 110.146 400.669 110.089C400.807 109.959 400.962 109.894 401.133 109.894C401.304 109.894 401.454 109.955 401.584 110.077C401.715 110.199 401.776 110.39 401.768 110.65ZM410.63 112.591C410.63 113.112 410.422 113.373 410.007 113.373C409.6 113.373 409.397 113.112 409.397 112.591C409.413 111.24 408.917 110.565 407.908 110.565C407.273 110.565 406.748 110.964 406.333 111.761C405.967 112.486 405.784 113.279 405.784 114.142C405.784 115.004 405.845 115.68 405.967 116.168C406.097 116.656 406.268 117.055 406.479 117.364C406.87 117.958 407.371 118.255 407.981 118.255C408.372 118.255 408.693 118.109 408.945 117.816C409.206 117.515 409.381 117.201 409.47 116.876C409.609 116.371 409.82 116.119 410.105 116.119C410.243 116.127 410.365 116.184 410.471 116.29C410.577 116.396 410.618 116.591 410.593 116.876C410.569 117.153 410.479 117.446 410.325 117.755C410.17 118.064 409.971 118.333 409.727 118.561C409.206 119.024 408.555 119.256 407.773 119.256C406.919 119.256 406.203 118.862 405.625 118.072C404.998 117.218 404.685 116.034 404.685 114.52C404.685 112.933 405.007 111.688 405.649 110.785C406.243 109.955 406.996 109.531 407.908 109.515C408.681 109.499 409.32 109.755 409.824 110.284C410.361 110.829 410.63 111.598 410.63 112.591ZM418.137 113.727C418.153 112.311 417.856 111.342 417.246 110.821C417.002 110.602 416.705 110.492 416.355 110.492C416.005 110.492 415.716 110.557 415.488 110.687C415.26 110.817 415.057 110.992 414.878 111.212C414.707 111.432 414.561 111.684 414.438 111.969C414.325 112.245 414.231 112.53 414.158 112.823C414.084 113.132 414.032 113.438 413.999 113.739L415.671 113.812C416.762 113.812 417.584 113.784 418.137 113.727ZM413.95 114.789C413.966 115.912 414.17 116.77 414.561 117.364C414.984 117.999 415.582 118.316 416.355 118.316C417.063 118.316 417.58 117.966 417.905 117.267C418.109 116.811 418.361 116.583 418.662 116.583C418.8 116.583 418.914 116.628 419.004 116.717C419.102 116.807 419.146 116.965 419.138 117.193C419.13 117.413 419.049 117.653 418.894 117.914C418.748 118.174 418.54 118.406 418.271 118.609C417.686 119.065 416.982 119.293 416.16 119.293C415.273 119.293 414.508 118.915 413.865 118.158C413.189 117.36 412.852 116.412 412.852 115.313C412.852 114.215 412.945 113.324 413.132 112.64C413.328 111.948 413.584 111.375 413.901 110.919C414.52 109.999 415.293 109.54 416.221 109.54C417.409 109.54 418.243 110.007 418.723 110.943C419.057 111.594 419.236 112.551 419.26 113.812C419.268 114.17 419.211 114.41 419.089 114.532C418.967 114.654 418.719 114.715 418.345 114.715L413.95 114.789ZM422.178 115.912C422.552 115.912 422.719 116.249 422.678 116.925C422.646 117.324 422.8 117.665 423.142 117.95C423.468 118.227 423.887 118.365 424.399 118.365C424.92 118.365 425.339 118.223 425.657 117.938C425.974 117.653 426.133 117.299 426.133 116.876C426.133 116.445 426.027 116.111 425.815 115.875C425.604 115.631 425.339 115.415 425.022 115.228C424.705 115.033 424.363 114.85 423.997 114.679C423.63 114.5 423.289 114.296 422.971 114.068C422.231 113.523 421.86 112.852 421.86 112.054C421.86 111.362 422.096 110.789 422.568 110.333C423.073 109.837 423.728 109.588 424.534 109.588C425.225 109.588 425.803 109.788 426.267 110.187C426.764 110.61 427.012 111.159 427.012 111.834C427.061 112.168 427.016 112.416 426.877 112.579C426.739 112.734 426.576 112.811 426.389 112.811C426.21 112.811 426.064 112.73 425.95 112.567C425.844 112.404 425.795 112.213 425.803 111.993C425.819 111.773 425.807 111.582 425.767 111.419C425.734 111.249 425.665 111.094 425.559 110.956C425.323 110.646 424.941 110.492 424.412 110.492C423.988 110.492 423.679 110.593 423.484 110.797C423.15 111.147 422.983 111.513 422.983 111.896C422.983 112.278 423.089 112.595 423.301 112.848C423.512 113.092 423.777 113.316 424.094 113.519C424.412 113.714 424.753 113.902 425.12 114.081C425.486 114.26 425.828 114.463 426.145 114.691C426.886 115.22 427.256 115.883 427.256 116.681C427.256 117.446 427.004 118.064 426.499 118.536C425.97 119.033 425.234 119.281 424.29 119.281C423.476 119.281 422.796 119.041 422.251 118.561C421.689 118.08 421.433 117.478 421.482 116.754C421.514 116.192 421.746 115.912 422.178 115.912ZM438.779 116.498C438.771 116.05 438.771 115.501 438.779 114.85C438.429 114.728 437.986 114.667 437.449 114.667C436.724 114.667 436.13 114.841 435.667 115.191C435.439 115.37 435.256 115.59 435.117 115.851C434.979 116.103 434.91 116.432 434.91 116.839C434.91 117.238 435.048 117.572 435.325 117.84C435.601 118.109 436.008 118.243 436.545 118.243C437.083 118.243 437.681 117.877 438.34 117.145C438.527 116.941 438.674 116.725 438.779 116.498ZM439.561 119.256C439.072 119.256 438.828 118.886 438.828 118.146C438.828 118.097 438.824 117.958 438.816 117.73C438.743 117.82 438.661 117.918 438.572 118.023C437.839 118.854 437.042 119.269 436.179 119.269C435.487 119.269 434.914 119.049 434.458 118.609C433.986 118.154 433.75 117.572 433.75 116.864C433.75 115.879 434.132 115.086 434.897 114.483C435.239 114.215 435.622 114.011 436.045 113.873C436.476 113.735 436.956 113.666 437.485 113.666C437.925 113.666 438.356 113.739 438.779 113.885V112.591C438.779 111.875 438.629 111.338 438.328 110.98C438.035 110.622 437.729 110.443 437.412 110.443C437.095 110.443 436.834 110.484 436.631 110.565C436.436 110.646 436.261 110.764 436.106 110.919C435.764 111.253 435.569 111.668 435.52 112.164C435.544 112.424 435.492 112.608 435.361 112.713C435.231 112.811 435.089 112.86 434.934 112.86C434.495 112.86 434.283 112.567 434.299 111.981C434.316 111.371 434.625 110.809 435.227 110.296C435.846 109.767 436.537 109.503 437.302 109.503C438.442 109.503 439.211 110.069 439.609 111.2C439.748 111.607 439.817 112.054 439.817 112.542V113.8L439.805 115.851V116.937C439.805 117.425 439.862 117.82 439.976 118.121C440.098 118.422 440.159 118.638 440.159 118.768C440.159 118.89 440.098 119 439.976 119.098C439.854 119.203 439.715 119.256 439.561 119.256ZM448.96 113.08L448.936 115.716C448.936 116.587 448.964 117.401 449.021 118.158C449.037 118.434 448.968 118.642 448.813 118.78C448.667 118.91 448.508 118.976 448.337 118.976C448.175 118.976 448.024 118.915 447.886 118.792C447.756 118.662 447.703 118.471 447.727 118.219C447.76 117.958 447.784 117.661 447.8 117.328C447.825 116.994 447.845 116.648 447.861 116.29C447.894 115.574 447.91 114.984 447.91 114.52C447.91 114.048 447.902 113.706 447.886 113.495C447.869 113.283 447.853 112.97 447.837 112.555C447.821 112.132 447.711 111.737 447.507 111.371C447.304 110.996 447.019 110.809 446.653 110.809C446.287 110.809 445.969 110.886 445.701 111.041C445.432 111.196 445.184 111.399 444.956 111.651C444.492 112.197 444.183 112.831 444.028 113.556C444.02 113.784 444.016 114.007 444.016 114.227V114.862C444.016 116.335 444.032 117.311 444.065 117.792C444.097 118.264 444.069 118.581 443.979 118.744C443.89 118.898 443.731 118.976 443.503 118.976C443.284 118.976 443.109 118.906 442.979 118.768C442.856 118.622 442.808 118.357 442.832 117.975C442.913 116.925 442.954 115.847 442.954 114.74C442.954 112.844 442.926 111.452 442.869 110.565C442.836 110.02 443.064 109.747 443.552 109.747C443.805 109.747 443.963 109.824 444.028 109.979C444.102 110.134 444.126 110.296 444.102 110.467C444.085 110.638 444.073 110.785 444.065 110.907C444.065 111.029 444.065 111.155 444.065 111.285C444.065 111.415 444.065 111.533 444.065 111.639C444.545 110.728 445.184 110.13 445.981 109.845C446.234 109.755 446.49 109.71 446.75 109.71C447.011 109.71 447.279 109.771 447.556 109.894C447.833 110.007 448.073 110.199 448.276 110.467C448.732 111.053 448.96 111.924 448.96 113.08ZM456.711 113.629L456.699 111.053C456.227 110.752 455.78 110.602 455.356 110.602C454.941 110.602 454.575 110.687 454.258 110.858C453.949 111.021 453.668 111.269 453.416 111.603C452.846 112.343 452.561 113.324 452.561 114.544C452.561 116.262 452.956 117.393 453.745 117.938C454.006 118.117 454.303 118.207 454.636 118.207C454.97 118.207 455.255 118.137 455.491 117.999C455.727 117.861 455.926 117.69 456.089 117.486C456.382 117.112 456.581 116.668 456.687 116.156C456.703 115.488 456.711 114.646 456.711 113.629ZM457.7 101.422C457.692 102.032 457.684 102.679 457.676 103.363C457.676 104.038 457.676 105.495 457.676 107.733C457.676 109.963 457.716 112.127 457.798 114.227C457.887 116.319 457.948 117.458 457.981 117.645C458.022 117.832 458.062 117.991 458.103 118.121C458.152 118.251 458.193 118.357 458.225 118.438C458.266 118.52 458.286 118.618 458.286 118.731C458.286 118.845 458.233 118.947 458.127 119.037C458.03 119.134 457.92 119.183 457.798 119.183C457.269 119.183 456.992 118.658 456.968 117.608C456.968 117.584 456.968 117.564 456.968 117.547C456.431 118.695 455.625 119.269 454.551 119.269C453.623 119.269 452.874 118.886 452.305 118.121C451.694 117.299 451.389 116.148 451.389 114.667C451.389 113.112 451.792 111.847 452.598 110.87C453.33 109.975 454.197 109.527 455.198 109.527C455.759 109.527 456.239 109.629 456.638 109.833C456.63 109.247 456.626 108.64 456.626 108.014C456.618 107.232 456.61 106.455 456.602 105.682C456.593 104.901 456.581 104.144 456.565 103.412C456.557 102.679 456.549 101.992 456.541 101.349C456.524 100.006 456.504 99.1025 456.479 98.6387C456.455 98.1748 456.516 97.8818 456.663 97.7598C456.809 97.6296 456.972 97.5645 457.151 97.5645C457.338 97.5645 457.505 97.6296 457.651 97.7598C457.806 97.8818 457.867 98.1097 457.834 98.4434C457.81 98.777 457.786 99.2043 457.761 99.7251C457.737 100.246 457.716 100.812 457.7 101.422ZM267.832 144.288V145.155C267.832 145.57 267.861 146.583 267.917 148.194C267.917 148.569 267.759 148.821 267.441 148.951C267.352 148.984 267.25 149 267.136 149C267.022 149 266.908 148.939 266.794 148.817C266.681 148.695 266.628 148.447 266.636 148.072C266.644 147.698 266.652 147.307 266.66 146.9C266.676 146.485 266.693 146.095 266.709 145.729C266.733 144.858 266.746 144.174 266.746 143.678C266.746 142.88 266.713 141.896 266.648 140.724C266.632 140.471 266.689 140.268 266.819 140.113C266.957 139.959 267.112 139.881 267.283 139.881C267.462 139.881 267.629 139.959 267.783 140.113C267.938 140.26 268.007 140.418 267.991 140.589C267.974 140.76 267.962 140.911 267.954 141.041C267.946 141.163 267.938 141.293 267.93 141.432C267.93 141.497 267.926 141.558 267.917 141.615C268.389 140.744 268.959 140.182 269.626 139.93C269.862 139.841 270.111 139.796 270.371 139.796C270.632 139.796 270.876 139.857 271.104 139.979C271.34 140.093 271.543 140.256 271.714 140.467C271.958 140.76 272.133 141.139 272.239 141.603C272.906 140.398 273.72 139.796 274.68 139.796C275.649 139.796 276.292 140.398 276.609 141.603C276.723 142.034 276.78 142.559 276.78 143.177V144.667C276.78 146.091 276.816 147.267 276.89 148.194C276.906 148.455 276.841 148.654 276.694 148.792C276.556 148.931 276.422 149 276.292 149C276.169 149 276.064 148.984 275.974 148.951C275.893 148.919 275.819 148.87 275.754 148.805C275.592 148.658 275.522 148.471 275.547 148.243C275.571 148.007 275.592 147.743 275.608 147.45C275.624 147.149 275.636 146.835 275.645 146.51C275.677 145.737 275.693 145.139 275.693 144.715C275.693 144.292 275.697 143.967 275.706 143.739C275.714 143.503 275.71 143.153 275.693 142.689C275.685 142.225 275.575 141.818 275.364 141.468C275.16 141.11 274.892 140.931 274.558 140.931C274.233 140.931 273.952 141.004 273.716 141.151C273.48 141.297 273.276 141.497 273.105 141.749C272.747 142.27 272.528 142.929 272.446 143.727V144.581C272.446 145.981 272.475 147.185 272.532 148.194C272.54 148.455 272.467 148.654 272.312 148.792C272.157 148.931 271.995 149 271.824 149C271.661 149 271.51 148.939 271.372 148.817C271.234 148.695 271.177 148.508 271.201 148.255C271.226 148.003 271.246 147.722 271.262 147.413C271.278 147.104 271.291 146.778 271.299 146.437C271.331 145.655 271.348 145.053 271.348 144.63V143.629C271.348 143.393 271.34 143.173 271.323 142.97C271.307 142.294 271.189 141.786 270.969 141.444C270.75 141.102 270.469 140.931 270.127 140.931C269.793 140.931 269.5 141.017 269.248 141.188C269.004 141.35 268.788 141.566 268.601 141.834C268.243 142.347 267.991 142.994 267.844 143.775C267.836 143.963 267.832 144.133 267.832 144.288ZM284.214 146.498C284.206 146.05 284.206 145.501 284.214 144.85C283.864 144.728 283.42 144.667 282.883 144.667C282.159 144.667 281.565 144.841 281.101 145.191C280.873 145.37 280.69 145.59 280.552 145.851C280.413 146.103 280.344 146.432 280.344 146.839C280.344 147.238 280.483 147.572 280.759 147.84C281.036 148.109 281.443 148.243 281.98 148.243C282.517 148.243 283.115 147.877 283.774 147.145C283.962 146.941 284.108 146.725 284.214 146.498ZM284.995 149.256C284.507 149.256 284.263 148.886 284.263 148.146C284.263 148.097 284.259 147.958 284.25 147.73C284.177 147.82 284.096 147.918 284.006 148.023C283.274 148.854 282.476 149.269 281.614 149.269C280.922 149.269 280.348 149.049 279.893 148.609C279.421 148.154 279.185 147.572 279.185 146.864C279.185 145.879 279.567 145.086 280.332 144.483C280.674 144.215 281.056 144.011 281.479 143.873C281.911 143.735 282.391 143.666 282.92 143.666C283.359 143.666 283.791 143.739 284.214 143.885V142.591C284.214 141.875 284.063 141.338 283.762 140.98C283.469 140.622 283.164 140.443 282.847 140.443C282.529 140.443 282.269 140.484 282.065 140.565C281.87 140.646 281.695 140.764 281.541 140.919C281.199 141.253 281.003 141.668 280.955 142.164C280.979 142.424 280.926 142.608 280.796 142.713C280.666 142.811 280.523 142.86 280.369 142.86C279.929 142.86 279.718 142.567 279.734 141.981C279.75 141.371 280.059 140.809 280.662 140.296C281.28 139.767 281.972 139.503 282.737 139.503C283.876 139.503 284.645 140.069 285.044 141.2C285.182 141.607 285.251 142.054 285.251 142.542V143.8L285.239 145.851V146.937C285.239 147.425 285.296 147.82 285.41 148.121C285.532 148.422 285.593 148.638 285.593 148.768C285.593 148.89 285.532 149 285.41 149.098C285.288 149.203 285.15 149.256 284.995 149.256ZM293.284 140.199C293.284 140.638 293.064 140.89 292.625 140.956C292.087 141.061 291.481 141.521 290.806 142.335C290.081 143.214 289.674 144.081 289.585 144.935C289.552 145.309 289.536 145.651 289.536 145.96C289.536 146.701 289.569 147.478 289.634 148.292C289.65 148.561 289.581 148.764 289.426 148.902C289.28 149.041 289.117 149.11 288.938 149.11C288.767 149.11 288.617 149.049 288.486 148.927C288.356 148.797 288.303 148.605 288.328 148.353C288.352 148.093 288.372 147.796 288.389 147.462C288.405 147.12 288.421 146.762 288.438 146.388C288.454 145.753 288.462 145.045 288.462 144.264C288.462 142.945 288.446 141.969 288.413 141.334C288.381 140.691 288.385 140.321 288.425 140.223C288.466 140.125 288.519 140.048 288.584 139.991C288.722 139.861 288.873 139.796 289.036 139.796C289.207 139.796 289.357 139.857 289.487 139.979C289.626 140.101 289.687 140.26 289.67 140.455C289.662 140.642 289.646 140.829 289.622 141.017C289.605 141.196 289.585 141.419 289.561 141.688C289.512 142.119 289.467 142.579 289.426 143.067C289.76 142.229 290.236 141.456 290.854 140.748C291.546 139.975 292.148 139.588 292.661 139.588C292.881 139.588 293.04 139.649 293.137 139.771C293.235 139.894 293.284 140.036 293.284 140.199ZM300.62 139.82C300.783 139.82 300.925 139.881 301.047 140.003C301.169 140.125 301.23 140.284 301.23 140.479C301.23 140.667 301.137 140.895 300.95 141.163C300.771 141.424 300.547 141.704 300.278 142.005C300.018 142.298 299.741 142.595 299.448 142.896C299.196 143.157 298.968 143.401 298.765 143.629C299.106 144.671 299.701 145.794 300.547 146.998C300.783 147.324 300.966 147.6 301.096 147.828C301.226 148.048 301.292 148.235 301.292 148.39C301.292 148.536 301.218 148.683 301.072 148.829C300.925 148.976 300.775 149.049 300.62 149.049C300.262 149.049 300.014 148.886 299.875 148.561C299.745 148.227 299.578 147.848 299.375 147.425C299.172 146.994 298.964 146.571 298.752 146.156C298.403 145.472 298.101 144.915 297.849 144.483C297.629 144.695 297.389 144.919 297.129 145.155C296.763 145.488 296.482 145.749 296.287 145.936C296.238 145.985 296.189 146.03 296.14 146.07V146.095C296.14 146.298 296.144 146.522 296.152 146.766C296.16 147.002 296.169 147.242 296.177 147.486C296.185 147.722 296.189 147.958 296.189 148.194C296.197 148.422 296.128 148.605 295.981 148.744C295.835 148.882 295.676 148.951 295.505 148.951C295.343 148.951 295.196 148.89 295.066 148.768C294.936 148.646 294.879 148.394 294.895 148.011C294.911 147.621 294.924 147.108 294.932 146.473C294.948 145.838 294.956 145.159 294.956 144.435C294.972 142.278 294.98 140.695 294.98 139.686C294.98 138.669 294.976 137.607 294.968 136.5C294.96 135.393 294.948 134.327 294.932 133.302C294.883 130.999 294.801 129.306 294.688 128.224C294.663 127.963 294.724 127.772 294.871 127.65C295.025 127.52 295.196 127.455 295.383 127.455C295.579 127.455 295.754 127.52 295.908 127.65C296.071 127.772 296.144 127.988 296.128 128.297C296.12 128.606 296.112 129.001 296.104 129.481C296.104 129.961 296.104 130.486 296.104 131.056C296.12 132.765 296.128 134.03 296.128 134.852C296.128 135.666 296.124 136.52 296.116 137.416C296.116 138.303 296.112 139.198 296.104 140.101C296.095 141.948 296.104 143.527 296.128 144.837C296.958 144.064 297.861 143.051 298.838 141.798C299.31 141.196 299.611 140.756 299.741 140.479C299.961 140.04 300.254 139.82 300.62 139.82ZM309.47 149.256C309.446 149.81 309.434 150.359 309.434 150.904C309.434 151.45 309.495 152.699 309.617 154.652C309.617 154.961 309.45 155.169 309.116 155.274C309.027 155.299 308.937 155.311 308.848 155.311C308.766 155.311 308.685 155.295 308.604 155.262C308.53 155.238 308.465 155.193 308.408 155.128C308.27 154.99 308.213 154.758 308.237 154.432C308.319 153.333 308.359 151.706 308.359 149.549C308.359 145.716 308.315 142.77 308.225 140.711C308.209 140.443 308.266 140.227 308.396 140.064C308.534 139.902 308.697 139.82 308.884 139.82C309.071 139.82 309.222 139.889 309.336 140.028C309.458 140.158 309.511 140.333 309.495 140.553C309.47 140.911 309.454 141.224 309.446 141.493C309.731 140.972 310.109 140.536 310.581 140.187C311.175 139.739 311.842 139.515 312.583 139.515C313.324 139.515 313.901 139.792 314.316 140.345C314.74 140.899 314.951 141.611 314.951 142.481C314.951 143.352 314.862 144.093 314.683 144.703C314.504 145.305 314.264 145.847 313.962 146.327C313.669 146.807 313.328 147.226 312.937 147.584C312.555 147.942 312.16 148.243 311.753 148.487C310.947 148.967 310.186 149.224 309.47 149.256ZM309.446 143.653C309.421 145.794 309.434 147.303 309.482 148.182C309.8 148.223 310.166 148.15 310.581 147.962C311.11 147.726 311.549 147.466 311.899 147.181C312.249 146.896 312.567 146.546 312.852 146.131C313.503 145.179 313.828 144.044 313.828 142.726C313.828 142.018 313.682 141.485 313.389 141.126C313.096 140.76 312.746 140.577 312.339 140.577C311.94 140.577 311.574 140.679 311.24 140.882C310.907 141.078 310.614 141.326 310.361 141.627C309.84 142.262 309.535 142.937 309.446 143.653ZM322.41 140.199C322.41 140.638 322.19 140.89 321.75 140.956C321.213 141.061 320.607 141.521 319.932 142.335C319.207 143.214 318.8 144.081 318.711 144.935C318.678 145.309 318.662 145.651 318.662 145.96C318.662 146.701 318.695 147.478 318.76 148.292C318.776 148.561 318.707 148.764 318.552 148.902C318.406 149.041 318.243 149.11 318.064 149.11C317.893 149.11 317.743 149.049 317.612 148.927C317.482 148.797 317.429 148.605 317.454 148.353C317.478 148.093 317.498 147.796 317.515 147.462C317.531 147.12 317.547 146.762 317.563 146.388C317.58 145.753 317.588 145.045 317.588 144.264C317.588 142.945 317.572 141.969 317.539 141.334C317.507 140.691 317.511 140.321 317.551 140.223C317.592 140.125 317.645 140.048 317.71 139.991C317.848 139.861 317.999 139.796 318.162 139.796C318.333 139.796 318.483 139.857 318.613 139.979C318.752 140.101 318.813 140.26 318.796 140.455C318.788 140.642 318.772 140.829 318.748 141.017C318.731 141.196 318.711 141.419 318.687 141.688C318.638 142.119 318.593 142.579 318.552 143.067C318.886 142.229 319.362 141.456 319.98 140.748C320.672 139.975 321.274 139.588 321.787 139.588C322.007 139.588 322.166 139.649 322.263 139.771C322.361 139.894 322.41 140.036 322.41 140.199ZM328.611 143.727C328.627 142.311 328.33 141.342 327.72 140.821C327.476 140.602 327.179 140.492 326.829 140.492C326.479 140.492 326.19 140.557 325.962 140.687C325.734 140.817 325.531 140.992 325.352 141.212C325.181 141.432 325.034 141.684 324.912 141.969C324.798 142.245 324.705 142.53 324.631 142.823C324.558 143.132 324.505 143.438 324.473 143.739L326.145 143.812C327.236 143.812 328.057 143.784 328.611 143.727ZM324.424 144.789C324.44 145.912 324.644 146.77 325.034 147.364C325.457 147.999 326.056 148.316 326.829 148.316C327.537 148.316 328.053 147.966 328.379 147.267C328.582 146.811 328.835 146.583 329.136 146.583C329.274 146.583 329.388 146.628 329.478 146.717C329.575 146.807 329.62 146.965 329.612 147.193C329.604 147.413 329.522 147.653 329.368 147.914C329.221 148.174 329.014 148.406 328.745 148.609C328.159 149.065 327.455 149.293 326.633 149.293C325.746 149.293 324.981 148.915 324.338 148.158C323.663 147.36 323.325 146.412 323.325 145.313C323.325 144.215 323.419 143.324 323.606 142.64C323.801 141.948 324.058 141.375 324.375 140.919C324.993 139.999 325.767 139.54 326.694 139.54C327.882 139.54 328.717 140.007 329.197 140.943C329.53 141.594 329.709 142.551 329.734 143.812C329.742 144.17 329.685 144.41 329.563 144.532C329.441 144.654 329.193 144.715 328.818 144.715L324.424 144.789ZM332.651 145.912C333.026 145.912 333.193 146.249 333.152 146.925C333.119 147.324 333.274 147.665 333.616 147.95C333.941 148.227 334.36 148.365 334.873 148.365C335.394 148.365 335.813 148.223 336.13 147.938C336.448 147.653 336.606 147.299 336.606 146.876C336.606 146.445 336.501 146.111 336.289 145.875C336.077 145.631 335.813 145.415 335.496 145.228C335.178 145.033 334.836 144.85 334.47 144.679C334.104 144.5 333.762 144.296 333.445 144.068C332.704 143.523 332.334 142.852 332.334 142.054C332.334 141.362 332.57 140.789 333.042 140.333C333.547 139.837 334.202 139.588 335.007 139.588C335.699 139.588 336.277 139.788 336.741 140.187C337.237 140.61 337.485 141.159 337.485 141.834C337.534 142.168 337.489 142.416 337.351 142.579C337.213 142.734 337.05 142.811 336.863 142.811C336.684 142.811 336.537 142.73 336.423 142.567C336.318 142.404 336.269 142.213 336.277 141.993C336.293 141.773 336.281 141.582 336.24 141.419C336.208 141.249 336.139 141.094 336.033 140.956C335.797 140.646 335.414 140.492 334.885 140.492C334.462 140.492 334.153 140.593 333.958 140.797C333.624 141.147 333.457 141.513 333.457 141.896C333.457 142.278 333.563 142.595 333.774 142.848C333.986 143.092 334.25 143.316 334.568 143.519C334.885 143.714 335.227 143.902 335.593 144.081C335.959 144.26 336.301 144.463 336.619 144.691C337.359 145.22 337.729 145.883 337.729 146.681C337.729 147.446 337.477 148.064 336.973 148.536C336.444 149.033 335.707 149.281 334.763 149.281C333.949 149.281 333.27 149.041 332.725 148.561C332.163 148.08 331.907 147.478 331.956 146.754C331.988 146.192 332.22 145.912 332.651 145.912ZM345.164 143.727C345.18 142.311 344.883 141.342 344.272 140.821C344.028 140.602 343.731 140.492 343.381 140.492C343.031 140.492 342.743 140.557 342.515 140.687C342.287 140.817 342.083 140.992 341.904 141.212C341.733 141.432 341.587 141.684 341.465 141.969C341.351 142.245 341.257 142.53 341.184 142.823C341.111 143.132 341.058 143.438 341.025 143.739L342.698 143.812C343.788 143.812 344.61 143.784 345.164 143.727ZM340.977 144.789C340.993 145.912 341.196 146.77 341.587 147.364C342.01 147.999 342.608 148.316 343.381 148.316C344.089 148.316 344.606 147.966 344.932 147.267C345.135 146.811 345.387 146.583 345.688 146.583C345.827 146.583 345.941 146.628 346.03 146.717C346.128 146.807 346.173 146.965 346.165 147.193C346.156 147.413 346.075 147.653 345.92 147.914C345.774 148.174 345.566 148.406 345.298 148.609C344.712 149.065 344.008 149.293 343.186 149.293C342.299 149.293 341.534 148.915 340.891 148.158C340.216 147.36 339.878 146.412 339.878 145.313C339.878 144.215 339.972 143.324 340.159 142.64C340.354 141.948 340.61 141.375 340.928 140.919C341.546 139.999 342.319 139.54 343.247 139.54C344.435 139.54 345.269 140.007 345.75 140.943C346.083 141.594 346.262 142.551 346.287 143.812C346.295 144.17 346.238 144.41 346.116 144.532C345.994 144.654 345.745 144.715 345.371 144.715L340.977 144.789ZM355.015 143.08L354.99 145.716C354.99 146.587 355.019 147.401 355.076 148.158C355.092 148.434 355.023 148.642 354.868 148.78C354.722 148.91 354.563 148.976 354.392 148.976C354.229 148.976 354.079 148.915 353.94 148.792C353.81 148.662 353.757 148.471 353.782 148.219C353.814 147.958 353.839 147.661 353.855 147.328C353.879 146.994 353.9 146.648 353.916 146.29C353.949 145.574 353.965 144.984 353.965 144.52C353.965 144.048 353.957 143.706 353.94 143.495C353.924 143.283 353.908 142.97 353.892 142.555C353.875 142.132 353.765 141.737 353.562 141.371C353.359 140.996 353.074 140.809 352.708 140.809C352.341 140.809 352.024 140.886 351.755 141.041C351.487 141.196 351.239 141.399 351.011 141.651C350.547 142.197 350.238 142.831 350.083 143.556C350.075 143.784 350.071 144.007 350.071 144.227V144.862C350.071 146.335 350.087 147.311 350.12 147.792C350.152 148.264 350.124 148.581 350.034 148.744C349.945 148.898 349.786 148.976 349.558 148.976C349.338 148.976 349.163 148.906 349.033 148.768C348.911 148.622 348.862 148.357 348.887 147.975C348.968 146.925 349.009 145.847 349.009 144.74C349.009 142.844 348.98 141.452 348.923 140.565C348.891 140.02 349.119 139.747 349.607 139.747C349.859 139.747 350.018 139.824 350.083 139.979C350.156 140.134 350.181 140.296 350.156 140.467C350.14 140.638 350.128 140.785 350.12 140.907C350.12 141.029 350.12 141.155 350.12 141.285C350.12 141.415 350.12 141.533 350.12 141.639C350.6 140.728 351.239 140.13 352.036 139.845C352.288 139.755 352.545 139.71 352.805 139.71C353.066 139.71 353.334 139.771 353.611 139.894C353.888 140.007 354.128 140.199 354.331 140.467C354.787 141.053 355.015 141.924 355.015 143.08ZM358.25 137.428C358.25 137.143 358.319 136.931 358.457 136.793C358.595 136.655 358.746 136.585 358.909 136.585C359.071 136.585 359.218 136.655 359.348 136.793C359.478 136.931 359.527 137.143 359.495 137.428C359.421 138.185 359.377 139.063 359.36 140.064C360.028 140.064 360.532 140.044 360.874 140.003C361.216 139.963 361.46 139.942 361.606 139.942C362.16 139.926 362.437 140.13 362.437 140.553C362.437 140.797 362.294 140.968 362.009 141.065C361.912 141.098 361.798 141.11 361.667 141.102C361.537 141.094 361.395 141.09 361.24 141.09C361.094 141.082 360.947 141.078 360.801 141.078C360.549 141.078 360.304 141.078 360.068 141.078C359.84 141.078 359.637 141.082 359.458 141.09C359.425 141.09 359.389 141.09 359.348 141.09C359.348 141.106 359.348 141.118 359.348 141.126C359.348 144.496 359.397 146.396 359.495 146.827C359.592 147.258 359.698 147.568 359.812 147.755C360.015 148.08 360.276 148.243 360.593 148.243C361.106 148.243 361.452 147.991 361.631 147.486C361.704 147.079 361.912 146.876 362.253 146.876C362.375 146.876 362.481 146.929 362.571 147.035C362.668 147.132 362.717 147.279 362.717 147.474C362.717 147.669 362.656 147.881 362.534 148.109C362.412 148.337 362.249 148.536 362.046 148.707C361.598 149.081 361.098 149.269 360.544 149.269C359.535 149.269 358.84 148.711 358.457 147.596C358.319 147.189 358.25 146.689 358.25 146.095V141.175C358.079 141.183 357.891 141.196 357.688 141.212C357.436 141.22 357.244 141.159 357.114 141.029C356.992 140.89 356.931 140.748 356.931 140.602C356.931 140.447 356.996 140.313 357.126 140.199C357.257 140.077 357.452 140.016 357.712 140.016L358.25 140.028V137.428Z" fill="black"/>
<path d="M345.272 183.08C345.483 185.546 347.023 187.444 348.712 187.319C350.4 187.194 351.597 185.093 351.386 182.626C351.316 181.639 350.992 180.682 350.443 179.836L349.407 169.395L344.147 169.952L345.727 180.185C345.329 181.102 345.173 182.095 345.272 183.08Z" fill="#FFB6B6"/>
<path d="M338.989 134.372C338.989 134.372 343.905 131.953 346.398 135.568C348.891 139.184 350.612 178.29 350.612 178.29L343.702 178.976L342.392 151.419L338.989 134.372Z" fill="#E6E6E6"/>
<path d="M328.784 241.022L332.787 241.021L334.692 226.667L328.784 226.667L328.784 241.022Z" fill="#FFB6B6"/>
<path d="M342.499 240.937C342.624 241.132 342.689 241.762 342.689 241.989C342.689 242.687 342.081 243.252 341.331 243.252H328.934C328.422 243.252 328.007 242.866 328.007 242.391V241.911C328.007 241.911 327.394 240.469 328.657 238.691C328.657 238.691 330.226 240.083 332.571 237.903L333.262 236.739L338.267 240.142L341.042 240.459C341.649 240.529 342.187 240.448 342.499 240.937Z" fill="#2F2E41"/>
<path d="M351.949 240.406L355.827 239.484L353.851 225.138L348.127 226.498L351.949 240.406Z" fill="#FFB6B6"/>
<path d="M365.215 237.168C365.387 237.329 365.619 237.924 365.679 238.144C365.865 238.819 365.426 239.507 364.699 239.68L352.688 242.532C352.192 242.65 351.687 242.372 351.561 241.911L351.433 241.446C351.433 241.446 350.455 240.19 351.205 238.177C351.205 238.177 353.096 239.165 354.787 236.513L355.147 235.225L360.903 237.371L363.675 237.04C364.282 236.968 364.782 236.766 365.215 237.168Z" fill="#2F2E41"/>
<path d="M325.473 131.287L325.283 130.006L327.539 124.884L333.737 124.244L335.075 131.577L325.473 131.287Z" fill="#FFB6B6"/>
<path opacity="0.1" d="M325.473 131.287L325.283 130.006L327.539 124.884L333.737 124.244L335.075 131.577L325.473 131.287Z" fill="black"/>
<path d="M318.241 167.46L315.487 174.503L317.553 178.344L327.883 234.045H334.751L333.392 184.747L349.232 234.045H356.029L350.563 200.753L346.477 170.021L343.999 168.598L332.015 162.338L318.241 167.46Z" fill="#2F2E41"/>
<path d="M335.803 172.262L331.671 172.902L326.161 160.738H338.557L335.803 172.262Z" fill="#E6E6E6"/>
<path d="M344.067 169.061L335.803 172.262L333.048 166.5L331.671 172.902L317.208 168.574L319.274 160.738L317.208 135.128L324.501 130.608L325.473 130.006L334.425 130.646L335.21 131.043L340.623 133.847L342.001 154.975L344.067 169.061Z" fill="#2F2E41"/>
<path d="M335.21 131.043L331.326 146.332L324.501 130.608L325.472 130.006L334.425 130.646L335.21 131.043Z" fill="#E6E6E6"/>
<path d="M328.572 130.006L327.194 132.211L328.572 132.946L327.883 146.372L330.638 149.853L333.392 144.708L331.326 132.946L332.015 130.006H328.572Z" fill="#2F2E41"/>
<path d="M330.638 128.725C334.251 128.725 337.18 126.002 337.18 122.643C337.18 119.284 334.251 116.561 330.638 116.561C327.024 116.561 324.095 119.284 324.095 122.643C324.095 126.002 327.024 128.725 330.638 128.725Z" fill="#FFB6B6"/>
<path d="M326.456 123.177L327.87 123.75L328.487 120.309C328.487 120.309 330.955 119.162 332.806 119.735C334.656 120.309 337.741 119.735 337.741 119.735C337.741 119.735 337.741 114 333.423 114C329.104 114 324.785 114.574 324.785 116.294C324.785 118.015 322.935 119.735 322.935 119.735C322.935 119.735 320.467 123.177 322.935 125.471C325.402 127.765 326.636 127.765 326.636 127.765L326.456 123.177Z" fill="#2F2E41"/>
<path d="M313.762 182.9C313.69 185.373 315.005 187.413 316.698 187.455C318.391 187.497 319.821 185.526 319.893 183.052C319.936 182.064 319.724 181.081 319.274 180.184L319.436 169.701L314.143 169.735L314.545 180.067C314.044 180.939 313.776 181.911 313.762 182.9Z" fill="#FFB6B6"/>
<path d="M320.311 133.835C320.311 133.835 315.834 132.555 313.768 136.396C311.702 140.238 314.457 179.293 314.457 179.293H321.406L319.562 151.762L320.311 133.835Z" fill="#E6E6E6"/>
</g>
<defs>
<clipPath id="clip0_56_223">
<rect width="294" height="179" fill="white" transform="translate(215 86)"/>
</clipPath>
</defs>
</svg>
