<svg width="64" height="81" viewBox="0 0 64 81" fill="none" xmlns="http://www.w3.org/2000/svg">
<path d="M28.898 35.8642L0.670166 49.386L28.898 62.9078L57.1258 49.386L28.898 35.8642Z" fill="url(#paint0_linear_75_2)"/>
<path d="M31.9122 30.9053L1.63257 39.3645L26.9031 57.5156L57.1832 49.0559L31.9122 30.9053Z" fill="white"/>
<path d="M35.7969 26.5433L4.43555 29.6693L25.9389 51.8672L57.3003 48.7416L35.7969 26.5433Z" fill="url(#paint1_linear_75_2)"/>
<path d="M40.4276 22.9184L8.98975 20.61L26.0367 46.1437L57.4745 48.4521L40.4276 22.9184Z" fill="white"/>
<path d="M45.6551 20.1464L15.1484 12.4781L27.1926 40.5292L57.6993 48.1974L45.6551 20.1464Z" fill="url(#paint2_linear_75_2)"/>
<path d="M51.3122 18.3161L22.7153 5.534L29.3701 35.2028L57.9674 47.9849L51.3122 18.3161Z" fill="white"/>
<path d="M57.218 17.4863L31.4468 0L32.4996 30.3358L58.2708 47.8221L57.218 17.4863Z" fill="url(#paint3_linear_75_2)"/>
<path opacity="0.2" d="M31.4468 0C31.4468 0 38.1563 6.45744 44.1829 23.325C50.2882 40.4134 58.2708 47.8221 58.2708 47.8221L32.4996 30.3358L31.4468 0Z" fill="#231F20"/>
<path d="M10.016 68.524V71.32H13.064V72.22H10.016V75.1H13.424V76H8.924V67.624H13.424V68.524H10.016ZM14.6683 72.7C14.6683 72.02 14.8043 71.428 15.0763 70.924C15.3483 70.412 15.7243 70.016 16.2043 69.736C16.6923 69.456 17.2483 69.316 17.8723 69.316C18.6803 69.316 19.3443 69.512 19.8643 69.904C20.3923 70.296 20.7403 70.84 20.9083 71.536H19.7323C19.6203 71.136 19.4003 70.82 19.0723 70.588C18.7523 70.356 18.3523 70.24 17.8723 70.24C17.2483 70.24 16.7443 70.456 16.3603 70.888C15.9763 71.312 15.7843 71.916 15.7843 72.7C15.7843 73.492 15.9763 74.104 16.3603 74.536C16.7443 74.968 17.2483 75.184 17.8723 75.184C18.3523 75.184 18.7523 75.072 19.0723 74.848C19.3923 74.624 19.6123 74.304 19.7323 73.888H20.9083C20.7323 74.56 20.3803 75.1 19.8523 75.508C19.3243 75.908 18.6643 76.108 17.8723 76.108C17.2483 76.108 16.6923 75.968 16.2043 75.688C15.7243 75.408 15.3483 75.012 15.0763 74.5C14.8043 73.988 14.6683 73.388 14.6683 72.7ZM23.4574 67.12V76H22.3654V67.12H23.4574ZM24.9105 72.688C24.9105 72.016 25.0465 71.428 25.3185 70.924C25.5905 70.412 25.9625 70.016 26.4345 69.736C26.9145 69.456 27.4465 69.316 28.0305 69.316C28.6065 69.316 29.1065 69.44 29.5305 69.688C29.9545 69.936 30.2705 70.248 30.4785 70.624V69.424H31.5825V76H30.4785V74.776C30.2625 75.16 29.9385 75.48 29.5065 75.736C29.0825 75.984 28.5865 76.108 28.0185 76.108C27.4345 76.108 26.9065 75.964 26.4345 75.676C25.9625 75.388 25.5905 74.984 25.3185 74.464C25.0465 73.944 24.9105 73.352 24.9105 72.688ZM30.4785 72.7C30.4785 72.204 30.3785 71.772 30.1785 71.404C29.9785 71.036 29.7065 70.756 29.3625 70.564C29.0265 70.364 28.6545 70.264 28.2465 70.264C27.8385 70.264 27.4665 70.36 27.1305 70.552C26.7945 70.744 26.5265 71.024 26.3265 71.392C26.1265 71.76 26.0265 72.192 26.0265 72.688C26.0265 73.192 26.1265 73.632 26.3265 74.008C26.5265 74.376 26.7945 74.66 27.1305 74.86C27.4665 75.052 27.8385 75.148 28.2465 75.148C28.6545 75.148 29.0265 75.052 29.3625 74.86C29.7065 74.66 29.9785 74.376 30.1785 74.008C30.3785 73.632 30.4785 73.196 30.4785 72.7ZM35.7559 76.108C35.2519 76.108 34.7999 76.024 34.3999 75.856C33.9999 75.68 33.6839 75.44 33.4519 75.136C33.2199 74.824 33.0919 74.468 33.0679 74.068H34.1959C34.2279 74.396 34.3799 74.664 34.6519 74.872C34.9319 75.08 35.2959 75.184 35.7439 75.184C36.1599 75.184 36.4879 75.092 36.7279 74.908C36.9679 74.724 37.0879 74.492 37.0879 74.212C37.0879 73.924 36.9599 73.712 36.7039 73.576C36.4479 73.432 36.0519 73.292 35.5159 73.156C35.0279 73.028 34.6279 72.9 34.3159 72.772C34.0119 72.636 33.7479 72.44 33.5239 72.184C33.3079 71.92 33.1999 71.576 33.1999 71.152C33.1999 70.816 33.2999 70.508 33.4999 70.228C33.6999 69.948 33.9839 69.728 34.3519 69.568C34.7199 69.4 35.1399 69.316 35.6119 69.316C36.3399 69.316 36.9279 69.5 37.3759 69.868C37.8239 70.236 38.0639 70.74 38.0959 71.38H37.0039C36.9799 71.036 36.8399 70.76 36.5839 70.552C36.3359 70.344 35.9999 70.24 35.5759 70.24C35.1839 70.24 34.8719 70.324 34.6399 70.492C34.4079 70.66 34.2919 70.88 34.2919 71.152C34.2919 71.368 34.3599 71.548 34.4959 71.692C34.6399 71.828 34.8159 71.94 35.0239 72.028C35.2399 72.108 35.5359 72.2 35.9119 72.304C36.3839 72.432 36.7679 72.56 37.0639 72.688C37.3599 72.808 37.6119 72.992 37.8199 73.24C38.0359 73.488 38.1479 73.812 38.1559 74.212C38.1559 74.572 38.0559 74.896 37.8559 75.184C37.6559 75.472 37.3719 75.7 37.0039 75.868C36.6439 76.028 36.2279 76.108 35.7559 76.108ZM42.0254 76.108C41.5214 76.108 41.0694 76.024 40.6694 75.856C40.2694 75.68 39.9534 75.44 39.7214 75.136C39.4894 74.824 39.3614 74.468 39.3374 74.068H40.4654C40.4974 74.396 40.6494 74.664 40.9214 74.872C41.2014 75.08 41.5654 75.184 42.0134 75.184C42.4294 75.184 42.7574 75.092 42.9974 74.908C43.2374 74.724 43.3574 74.492 43.3574 74.212C43.3574 73.924 43.2294 73.712 42.9734 73.576C42.7174 73.432 42.3214 73.292 41.7854 73.156C41.2974 73.028 40.8974 72.9 40.5854 72.772C40.2814 72.636 40.0174 72.44 39.7934 72.184C39.5774 71.92 39.4694 71.576 39.4694 71.152C39.4694 70.816 39.5694 70.508 39.7694 70.228C39.9694 69.948 40.2534 69.728 40.6214 69.568C40.9894 69.4 41.4094 69.316 41.8814 69.316C42.6094 69.316 43.1974 69.5 43.6454 69.868C44.0934 70.236 44.3334 70.74 44.3654 71.38H43.2734C43.2494 71.036 43.1094 70.76 42.8534 70.552C42.6054 70.344 42.2694 70.24 41.8454 70.24C41.4534 70.24 41.1414 70.324 40.9094 70.492C40.6774 70.66 40.5614 70.88 40.5614 71.152C40.5614 71.368 40.6294 71.548 40.7654 71.692C40.9094 71.828 41.0854 71.94 41.2934 72.028C41.5094 72.108 41.8054 72.2 42.1814 72.304C42.6534 72.432 43.0374 72.56 43.3334 72.688C43.6294 72.808 43.8814 72.992 44.0894 73.24C44.3054 73.488 44.4174 73.812 44.4254 74.212C44.4254 74.572 44.3254 74.896 44.1254 75.184C43.9254 75.472 43.6414 75.7 43.2734 75.868C42.9134 76.028 42.4974 76.108 42.0254 76.108ZM46.531 68.356C46.323 68.356 46.147 68.284 46.003 68.14C45.859 67.996 45.787 67.82 45.787 67.612C45.787 67.404 45.859 67.228 46.003 67.084C46.147 66.94 46.323 66.868 46.531 66.868C46.731 66.868 46.899 66.94 47.035 67.084C47.179 67.228 47.251 67.404 47.251 67.612C47.251 67.82 47.179 67.996 47.035 68.14C46.899 68.284 46.731 68.356 46.531 68.356ZM47.059 69.424V76H45.967V69.424H47.059ZM51.5961 70.324H50.2161V76H49.1241V70.324H48.2721V69.424H49.1241V68.956C49.1241 68.22 49.3121 67.684 49.6881 67.348C50.0721 67.004 50.6841 66.832 51.5241 66.832V67.744C51.0441 67.744 50.7041 67.84 50.5041 68.032C50.3121 68.216 50.2161 68.524 50.2161 68.956V69.424H51.5961V70.324ZM58.5333 69.424L54.5733 79.096H53.4453L54.7413 75.928L52.0893 69.424H53.3013L55.3653 74.752L57.4053 69.424H58.5333Z" fill="black"/>
<defs>
<linearGradient id="paint0_linear_75_2" x1="62.3339" y1="21.1053" x2="2.68363" y2="75.5449" gradientUnits="userSpaceOnUse">
<stop stop-color="#FF009D"/>
<stop offset="0.0533" stop-color="#EA0EA2"/>
<stop offset="0.1638" stop-color="#B233B0"/>
<stop offset="0.3204" stop-color="#5B6EC6"/>
<stop offset="0.4716" stop-color="#00AADD"/>
<stop offset="0.7704" stop-color="#00CBCC"/>
<stop offset="1" stop-color="#FF001C"/>
</linearGradient>
<linearGradient id="paint1_linear_75_2" x1="57.9486" y1="16.3002" x2="-1.7015" y2="70.7396" gradientUnits="userSpaceOnUse">
<stop stop-color="#FF009D"/>
<stop offset="0.0533" stop-color="#EA0EA2"/>
<stop offset="0.1638" stop-color="#B233B0"/>
<stop offset="0.3204" stop-color="#5B6EC6"/>
<stop offset="0.4716" stop-color="#00AADD"/>
<stop offset="0.7704" stop-color="#FFD400"/>
<stop offset="1" stop-color="#FF001C"/>
</linearGradient>
<linearGradient id="paint2_linear_75_2" x1="55.8018" y1="13.9476" x2="-3.84846" y2="68.3873" gradientUnits="userSpaceOnUse">
<stop stop-color="#FF009D"/>
<stop offset="0.0533" stop-color="#EA0EA2"/>
<stop offset="0.1638" stop-color="#B233B0"/>
<stop offset="0.3204" stop-color="#5B6EC6"/>
<stop offset="0.4716" stop-color="#00AADD"/>
<stop offset="0.7704" stop-color="#FFD400"/>
<stop offset="1" stop-color="#FF001C"/>
</linearGradient>
<linearGradient id="paint3_linear_75_2" x1="56.1662" y1="14.3471" x2="-3.48497" y2="68.7876" gradientUnits="userSpaceOnUse">
<stop offset="0.106667" stop-color="#00CBCC"/>
<stop offset="0.3204" stop-color="#5B6EC6"/>
<stop offset="0.4716" stop-color="#00AADD"/>
<stop offset="0.736667" stop-color="#00CBCC"/>
</linearGradient>
</defs>
</svg>
