<svg width="248" height="195" viewBox="0 0 248 195" fill="none" xmlns="http://www.w3.org/2000/svg">
<path d="M101.724 100.826L138.019 157.877C98.0056 163.523 89.468 174.714 89.468 174.714L89.0437 173.913L55.6768 113.722C83.882 94.2171 101.724 100.826 101.724 100.826Z" fill="#B6B2A7"/>
<path d="M101.724 100.826L137.671 156.091C97.785 159.657 89.4675 174.714 89.4675 174.714L89.0432 173.913L55.6763 113.722C83.8822 94.2171 101.724 100.826 101.724 100.826Z" fill="#CEC9BB"/>
<path d="M89.4582 174.66L55.6663 113.667C55.6663 113.667 27.5814 109.176 1.00879 133.862L32.3333 194.811C32.3333 194.811 61.8465 176.644 89.4582 174.66Z" fill="#B6B2A7"/>
<path d="M89.4581 174.66L55.6662 113.667C55.6662 113.667 27.2334 107.389 0.662109 132.075L31.9853 193.025C31.9853 193.025 62.1449 174.75 89.4581 174.66Z" fill="#CEC9BB"/>
<path d="M89.458 174.66L55.6661 113.667C55.6661 113.667 26.8516 105.429 0.280273 130.115L32.0972 190.859C32.0972 190.859 62.7224 171.217 89.458 174.66Z" fill="#95D3C3"/>
<path d="M73.3318 174.728C70.4064 163.091 66.911 151.563 62.9884 140.179C59.8327 131.022 55.9934 122.085 52.5439 113.022C54.5437 113.347 55.6667 113.666 55.6667 113.666L89.4586 174.659C84.1683 173.978 78.726 174.203 73.3985 174.998C73.3765 174.909 73.3545 174.819 73.3318 174.728Z" fill="url(#paint0_linear_368_1480)"/>
<path d="M55.6768 113.722C55.6768 113.722 72.5497 95.4065 101.283 98.5694L136.855 153.952C136.855 153.952 99.7158 156.794 89.468 174.715L55.6768 113.722Z" fill="#0056A3"/>
<path d="M57.7497 111.766C59.6065 113.963 61.3532 116.238 63.1576 118.477C65.7509 121.695 68.4851 124.812 71.2771 127.885C79.1304 136.531 86.8737 145.346 95.3184 153.513C98.3772 156.47 101.547 159.323 104.871 162.02C98.4233 165.043 92.6495 169.152 89.469 174.715L55.6777 113.722C55.6777 113.722 56.3833 112.957 57.7497 111.766Z" fill="url(#paint1_linear_368_1480)"/>
<path d="M96.8723 166.706C93.8217 168.966 91.2415 171.614 89.468 174.714L55.6768 113.722C55.6768 113.722 56.0041 113.369 56.6278 112.781C57.1113 113.46 96.0113 165.596 96.8723 166.706Z" fill="url(#paint2_linear_368_1480)"/>
<path d="M115.489 80.0639C115.489 80.0639 95.936 89.9618 64.1665 93.648C64.1665 93.648 77.4174 143.226 90.0212 162.668L90.0893 162.931C90.0893 162.931 104.066 149.544 141.446 148.635C141.446 148.635 115.895 107.65 115.489 80.0639Z" fill="#FAA41A"/>
<path d="M109.901 149.979C114.325 146.923 119.414 144.63 124.691 143.176C128.748 142.059 133.026 141.374 137.273 141.487C130.012 128.528 115.792 100.589 115.489 80.0639C115.489 80.0639 104.506 85.6228 85.6279 89.9612C86.471 92.1738 87.3334 94.3782 88.1366 96.5883C90.4988 103.095 92.9387 109.58 95.4521 116.04C97.6032 121.572 99.779 127.094 102.149 132.55C104.5 137.959 106.93 143.339 109.343 148.725C109.53 149.143 109.715 149.561 109.901 149.979Z" fill="url(#paint3_linear_368_1480)"/>
<path d="M84.6226 73.4229C84.6226 73.4229 93.603 103.633 112.163 145.106C112.163 145.106 128.137 130.867 158.419 126.043C158.419 126.043 142.076 83.466 145.253 62.3927C145.253 62.3927 114.524 57.6059 84.6226 73.4229Z" fill="#70CBD1"/>
<path d="M141.753 71.0035C133.417 71.3238 124.37 72.1777 116.225 70.0557C117.598 79.7639 119.375 89.4264 121.858 98.9436C123.249 104.273 124.819 109.568 126.912 114.704C128.982 119.785 131.442 124.726 134.194 129.522C134.681 130.371 135.178 131.215 135.681 132.054C142.025 129.643 149.615 127.445 158.418 126.043C158.418 126.043 145.787 93.1348 144.895 70.8614C143.849 70.9153 142.801 70.9635 141.753 71.0035Z" fill="url(#paint4_linear_368_1480)"/>
<path d="M125.244 66.5921C125.244 66.5921 147.122 75.7383 176.181 60.9356C176.181 60.9356 180.363 103.392 191.817 123.135C191.817 123.135 155.657 126.813 143.08 138.329C143.08 138.329 121.469 105.627 125.244 66.5921Z" fill="#FF6C34"/>
<path d="M159.824 93.9227C158.605 98.6125 157.364 103.298 156.388 108.036C156.255 108.682 156.127 109.329 156.004 109.976C155.094 114.794 154.313 119.632 153.421 124.454C152.902 127.257 152.359 130.08 151.734 132.889C167.419 125.618 191.818 123.135 191.818 123.135C180.363 103.391 176.182 60.9356 176.182 60.9356C173.234 62.4384 170.359 63.69 167.573 64.7335C165.031 74.4721 162.357 84.1822 159.824 93.9227Z" fill="url(#paint5_linear_368_1480)"/>
<path d="M153.027 158.232L155.447 147.665L160.071 127.464L169.214 87.5259L174.991 62.2932C175.703 59.1766 179.005 59.8509 179.005 59.8509L244.715 72.6503C244.715 72.6503 248.029 73.2656 247.315 76.3816L241.54 101.614L232.396 141.552L225.353 172.32C224.641 175.436 221.339 174.762 221.339 174.762L155.629 161.963C155.629 161.963 152.315 161.348 153.027 158.232Z" fill="url(#paint6_linear_368_1480)"/>
<g opacity="0.6">
<path d="M224.839 171.196C224.141 174.249 220.906 173.589 220.906 173.589L208.854 171.242L161.113 126.286L168.067 95.9025L228.951 153.232L224.839 171.196Z" fill="url(#paint7_linear_368_1480)"/>
<path d="M239.159 108.644L237.56 115.625L179.611 61.0574L190.972 63.27L239.159 108.644Z" fill="url(#paint8_linear_368_1480)"/>
</g>
<path d="M177.256 63.8964L157.302 151.066L224.574 164.17L244.528 77.0001L177.256 63.8964Z" fill="#CCCCCC"/>
<path d="M224.58 164.169L244.535 76.9969L177.261 63.8923L157.307 151.065L224.58 164.169Z" fill="url(#paint9_linear_368_1480)"/>
<path d="M224.58 164.169L244.535 76.9969L224.402 163.919L157.827 150.709L177.261 63.8923L157.307 151.065L224.58 164.169Z" fill="white"/>
<path d="M178.555 60.116C178.555 60.116 188.306 62.0292 202.932 64.8978C210.245 66.3321 218.777 68.0061 227.918 69.7995C232.491 70.6837 237.217 71.5979 242.02 72.5272C242.62 72.6433 243.221 72.7594 243.824 72.8754C244.434 72.9674 245.013 73.1533 245.528 73.4629C246.041 73.7667 246.469 74.2006 246.699 74.7221C246.938 75.2441 246.964 75.8296 246.874 76.3885C246.367 78.6284 245.856 80.8785 245.345 83.1273C237.124 119.121 228.904 155.113 228.904 155.113C228.904 155.113 237.161 119.128 245.418 83.1412C245.933 80.8905 246.444 78.6411 246.957 76.3999C247.05 75.8315 247.025 75.2308 246.782 74.6929C246.544 74.1518 246.103 73.7052 245.579 73.3912C245.059 73.074 244.448 72.8799 243.844 72.7873C243.243 72.6699 242.641 72.5519 242.041 72.4346C237.243 71.4919 232.518 70.5651 227.949 69.6688C218.801 67.8996 210.265 66.2483 202.947 64.8344C188.311 62.0032 178.555 60.116 178.555 60.116Z" fill="white"/>
<path d="M208.542 66.9804C208.506 67.1327 208.612 67.283 208.777 67.3147L214.211 68.3735C214.376 68.4058 214.538 68.3075 214.572 68.1559C214.607 68.0036 214.502 67.8533 214.336 67.8209L208.902 66.7628C208.739 66.7305 208.576 66.8288 208.542 66.9804Z" fill="#292929"/>
<path d="M187.37 161.12C187.061 162.472 187.998 163.799 189.463 164.084C190.929 164.37 192.368 163.506 192.676 162.154C192.986 160.802 192.05 159.475 190.584 159.19C189.118 158.904 187.679 159.768 187.37 161.12Z" fill="url(#paint10_linear_368_1480)"/>
<path d="M187.592 161.163C187.308 162.401 188.168 163.619 189.511 163.879C190.854 164.142 192.173 163.35 192.456 162.11C192.739 160.871 191.882 159.653 190.538 159.391C189.195 159.131 187.876 159.924 187.592 161.163Z" fill="url(#paint11_linear_368_1480)"/>
<path d="M94.3344 146.44C88.8611 146.44 84.4077 142.332 84.4077 137.283C84.4077 133.042 87.6274 129.315 92.0857 128.362V120.025C92.0857 119.92 92.1799 119.834 92.294 119.834H96.3761C96.491 119.834 96.5838 119.92 96.5838 120.025V128.362C101.043 129.315 104.261 133.042 104.261 137.283C104.261 142.332 99.8076 146.44 94.3344 146.44ZM92.5017 120.218V128.515C92.5017 128.607 92.4323 128.684 92.3374 128.702C87.9837 129.561 84.8238 133.17 84.8238 137.283C84.8238 142.121 89.0908 146.057 94.3344 146.057C99.58 146.057 103.846 142.121 103.846 137.283C103.846 133.17 100.687 129.561 96.3328 128.702C96.2365 128.684 96.1691 128.607 96.1691 128.515V120.218H92.5017Z" fill="white"/>
<path d="M87.0311 132.818C86.0848 134.112 85.5312 135.67 85.5312 137.349C85.5312 141.834 89.4717 145.469 94.3342 145.469C99.1975 145.469 103.139 141.834 103.139 137.349C103.139 135.67 102.585 134.112 101.638 132.818H87.0311Z" fill="white"/>
<g opacity="0.6">
<path d="M96.3859 120.143H92.2846C91.8582 120.143 91.5103 119.823 91.5103 119.428C91.5103 119.034 91.8582 118.713 92.2846 118.713H96.3859C96.813 118.713 97.1609 119.034 97.1609 119.428C97.1602 119.823 96.813 120.143 96.3859 120.143ZM92.2846 119.096C92.0865 119.096 91.9249 119.245 91.9249 119.428C91.9249 119.612 92.0865 119.761 92.2846 119.761H96.3859C96.5853 119.761 96.7449 119.612 96.7449 119.428C96.7449 119.245 96.5853 119.096 96.3859 119.096H92.2846Z" fill="white"/>
</g>
<path d="M106.195 104.98C106.644 104.98 107.009 104.629 107.009 104.195V99.3325H105.382V104.195C105.382 104.629 105.747 104.98 106.195 104.98Z" fill="white"/>
<path d="M107.677 94.8033C107.677 94.5768 107.476 94.3916 107.23 94.3916H105.147C104.901 94.3916 104.701 94.5768 104.701 94.8033C104.701 94.9574 104.795 95.0906 104.93 95.161V104.283C104.93 104.917 105.495 105.431 106.19 105.431C106.883 105.431 107.448 104.916 107.448 104.283V95.161C107.583 95.09 107.677 94.9574 107.677 94.8033ZM105.146 94.6516H107.229C107.321 94.6516 107.394 94.7195 107.394 94.8033C107.394 94.887 107.32 94.9561 107.229 94.9561H105.146C105.056 94.9561 104.983 94.8876 104.983 94.8033C104.982 94.7195 105.056 94.6516 105.146 94.6516ZM107.164 104.283C107.164 104.773 106.727 105.171 106.188 105.171C105.649 105.171 105.211 104.773 105.211 104.283V95.215H107.164V104.283Z" fill="white"/>
<path d="M110.099 104.98C110.549 104.98 110.913 104.629 110.913 104.195V99.3325H109.289V104.195C109.288 104.629 109.652 104.98 110.099 104.98Z" fill="white"/>
<path d="M111.581 94.8033C111.581 94.5768 111.381 94.3916 111.135 94.3916H109.052C108.805 94.3916 108.606 94.5768 108.606 94.8033C108.606 94.9574 108.699 95.0906 108.835 95.161V104.283C108.835 104.917 109.4 105.431 110.094 105.431C110.789 105.431 111.353 104.916 111.353 104.283V95.161C111.489 95.09 111.581 94.9574 111.581 94.8033ZM109.052 94.6517H111.135C111.225 94.6517 111.298 94.7195 111.298 94.8033C111.298 94.887 111.225 94.9561 111.135 94.9561H109.052C108.961 94.9561 108.887 94.8876 108.887 94.8033C108.887 94.7195 108.961 94.6517 109.052 94.6517ZM111.069 104.283C111.069 104.773 110.631 105.171 110.093 105.171C109.554 105.171 109.116 104.773 109.116 104.283V95.215H111.069V104.283Z" fill="white"/>
<path d="M114.004 104.98C114.454 104.98 114.818 104.629 114.818 104.195V99.3325H113.192V104.195C113.191 104.629 113.556 104.98 114.004 104.98Z" fill="white"/>
<path d="M115.485 94.8033C115.485 94.5768 115.285 94.3916 115.04 94.3916H112.955C112.709 94.3916 112.51 94.5768 112.51 94.8033C112.51 94.9574 112.603 95.0906 112.738 95.161V104.283C112.738 104.917 113.303 105.431 113.998 105.431C114.692 105.431 115.256 104.916 115.256 104.283V95.161C115.393 95.09 115.485 94.9574 115.485 94.8033ZM112.955 94.6517H115.04C115.13 94.6517 115.203 94.7195 115.203 94.8033C115.203 94.887 115.13 94.9561 115.04 94.9561H112.955C112.865 94.9561 112.791 94.8876 112.791 94.8033C112.791 94.7195 112.865 94.6517 112.955 94.6517ZM114.974 104.283C114.974 104.773 114.536 105.171 113.998 105.171C113.459 105.171 113.021 104.773 113.021 104.283V95.215H114.974V104.283Z" fill="white"/>
<path d="M117.909 104.98C118.358 104.98 118.721 104.629 118.721 104.195V99.3325H117.097V104.195C117.097 104.629 117.46 104.98 117.909 104.98Z" fill="white"/>
<path d="M119.39 94.8033C119.39 94.5768 119.19 94.3916 118.944 94.3916H116.861C116.614 94.3916 116.415 94.5768 116.415 94.8033C116.415 94.9574 116.508 95.0906 116.645 95.161V104.283C116.645 104.917 117.209 105.431 117.903 105.431C118.598 105.431 119.162 104.916 119.162 104.283V95.161C119.298 95.09 119.39 94.9574 119.39 94.8033ZM116.86 94.6517H118.943C119.034 94.6517 119.108 94.7195 119.108 94.8033C119.108 94.887 119.034 94.9561 118.943 94.9561H116.86C116.77 94.9561 116.696 94.8876 116.696 94.8033C116.696 94.7195 116.77 94.6517 116.86 94.6517ZM118.879 104.283C118.879 104.773 118.441 105.171 117.902 105.171C117.363 105.171 116.925 104.773 116.925 104.283V95.215H118.879V104.283Z" fill="white"/>
<path d="M121.042 105.889H120.56V98.3645H121.033C121.075 98.3645 121.106 98.334 121.106 98.296V97.7416C121.106 97.7041 121.074 97.673 121.033 97.673H103.059C103.016 97.673 102.984 97.7041 102.984 97.7416V98.296C102.984 98.3347 103.017 98.3645 103.059 98.3645H103.53V105.889H103.048C103.008 105.889 102.974 105.92 102.974 105.958V107.041C102.974 107.079 103.008 107.11 103.048 107.11H121.043C121.085 107.11 121.117 107.079 121.117 107.041V105.958C121.117 105.92 121.084 105.889 121.042 105.889ZM119.947 98.3645V105.889H104.144V98.3645H119.947Z" fill="white"/>
<path d="M39.0242 162.868C36.7452 160.795 32.9595 160.639 30.0183 162.502C27.0799 164.363 25.8757 167.679 27.1521 170.382C27.293 170.697 27.4725 171 27.6706 171.261L27.7008 171.306C27.7937 171.425 27.8906 171.541 27.9931 171.652C28.2152 171.905 28.4669 172.141 28.7337 172.352C29.9557 173.346 31.5278 174.002 32.6721 174.48C32.9767 174.607 33.2532 174.721 33.487 174.828C35.1422 175.583 36.2982 176.792 36.4963 177.01L36.5066 177.023C36.5265 177.048 36.5547 177.084 36.6159 177.108C36.5836 177.301 36.6139 177.468 36.7143 177.604C36.825 177.753 37.001 177.845 37.2396 177.88C37.1915 178.095 37.2176 178.279 37.327 178.426C37.457 178.602 37.6811 178.695 37.9858 178.712C37.8957 178.978 37.9067 179.205 38.0367 179.381C38.1838 179.577 38.4431 179.677 38.8103 179.674C38.9197 179.673 39.0386 179.662 39.2064 179.632C39.7332 179.461 40.7186 178.936 41.7811 178.263C42.8209 177.604 43.6997 176.952 44.0986 176.525C44.1735 176.408 44.2313 176.303 44.2719 176.206C44.4328 175.82 44.3468 175.58 44.2471 175.446C44.157 175.323 43.97 175.179 43.5959 175.156C43.7066 174.827 43.6296 174.615 43.5388 174.492C43.4577 174.384 43.3036 174.261 43.0162 174.216C43.0746 173.952 43.0052 173.776 42.9247 173.668C42.8477 173.565 42.7033 173.446 42.4371 173.398L42.3883 173.318C42.3787 173.302 41.4269 171.744 41.244 169.915C41.2206 169.676 41.2021 169.398 41.1842 169.091C41.1127 167.931 41.0123 166.343 40.4484 164.937C40.3294 164.629 40.1809 164.328 40.0062 164.042C39.9271 163.916 39.848 163.789 39.7717 163.69L39.7407 163.647C39.531 163.361 39.2869 163.097 39.0242 162.868ZM37.0801 177.143C37.4501 177.092 38.2223 176.785 39.8934 175.727C41.5528 174.677 42.1449 174.122 42.3319 173.819C42.4337 173.835 42.5038 173.867 42.5396 173.914C42.5898 173.983 42.5816 174.11 42.5121 174.272C42.4777 174.353 42.4303 174.438 42.3986 174.495C42.0534 174.858 41.1869 175.5 40.1946 176.13C39.1796 176.773 38.2113 177.29 37.7657 177.438C37.6646 177.455 37.5704 177.464 37.4845 177.464C37.2892 177.466 37.153 177.428 37.1014 177.358C37.0664 177.312 37.0595 177.238 37.0801 177.143ZM37.6942 177.965C38.0628 177.915 38.8364 177.608 40.5068 176.55C42.1655 175.5 42.759 174.945 42.9446 174.642C43.0457 174.658 43.1166 174.691 43.1516 174.737C43.2025 174.805 43.1943 174.932 43.1248 175.095C43.0904 175.175 43.0423 175.26 43.0127 175.318C42.6661 175.681 41.801 176.323 40.8066 176.952C39.7916 177.595 38.8241 178.112 38.3784 178.261C38.2774 178.277 38.1831 178.286 38.0972 178.287C37.9019 178.289 37.765 178.251 37.7141 178.182C37.6784 178.135 37.6722 178.061 37.6942 177.965ZM39.5365 175.29C39.1081 175.562 38.7188 175.791 38.3695 175.987C37.611 175.18 34.5206 171.914 32.6246 170.289C32.6845 169.763 32.5813 169.152 32.4947 168.763L34.2407 169.544L34.2902 167.826L36.085 168.441L35.8189 167.099C36.1098 167.238 36.5265 167.403 36.9371 167.435C37.9741 169.667 40.0584 173.658 40.5563 174.609C40.2579 174.82 39.9188 175.047 39.5365 175.29ZM43.8345 176.049C43.8008 176.129 43.754 176.214 43.7224 176.272C43.3758 176.635 42.5107 177.278 41.517 177.907C40.5013 178.55 39.5338 179.067 39.0888 179.215C38.987 179.231 38.8935 179.24 38.8076 179.241C38.6123 179.243 38.4754 179.205 38.4238 179.136C38.3888 179.089 38.3819 179.015 38.4046 178.919C38.7732 178.869 39.5468 178.562 41.2165 177.503C42.8759 176.453 43.4673 175.899 43.655 175.595C43.7568 175.611 43.8269 175.644 43.8627 175.69C43.9122 175.759 43.9033 175.886 43.8345 176.049ZM39.597 164.256C39.76 164.52 39.8968 164.797 40.0062 165.085C40.5495 166.433 40.6464 167.985 40.7166 169.116C40.7358 169.429 40.753 169.712 40.7778 169.956C40.9339 171.533 41.6167 172.886 41.8794 173.357L41.856 173.372L41.9338 173.477C41.8272 173.624 41.4586 173.951 40.8747 174.381C40.3356 173.352 38.3723 169.585 37.3545 167.415C37.4329 167.399 37.5085 167.376 37.5828 167.344C37.9775 167.174 38.2079 166.795 38.2664 166.218C38.3592 165.291 38.0023 164.959 37.7809 164.845C37.4941 164.695 37.1131 164.728 36.8126 164.946C36.4406 165.2 36.2631 165.628 36.3608 166.039C36.4041 166.22 36.5472 166.575 36.7583 167.044C36.3175 166.955 35.8602 166.718 35.6594 166.591L35.2701 166.345L35.5734 167.878L33.9113 167.309L33.8618 168.971L31.9046 168.095L32.0181 168.48C32.1068 168.781 32.2491 169.421 32.2478 169.976C31.8881 169.686 31.5924 169.483 31.3916 169.402C30.8924 169.199 30.6214 169.345 30.5018 169.451C30.27 169.657 30.2301 170.046 30.4014 170.441C30.5781 170.853 31.0072 171.296 31.6763 171.303C31.959 171.305 32.1948 171.204 32.3564 171.01C32.4307 170.922 32.4878 170.817 32.5297 170.701C34.1018 172.08 36.5265 174.579 38.0236 176.175C37.4308 176.49 37.0045 176.673 36.8312 176.706C36.5643 176.419 35.3753 175.206 33.6953 174.441C33.4567 174.333 33.1741 174.216 32.8653 174.087C31.7465 173.619 30.2122 172.979 29.0397 172.026C28.7901 171.829 28.5591 171.611 28.3521 171.378C28.2606 171.275 28.1719 171.171 28.0653 171.038L28.0694 171.036C27.8755 170.779 27.7111 170.503 27.5832 170.213C26.3929 167.696 27.5289 164.603 30.2817 162.859C33.0372 161.114 36.574 161.247 38.6968 163.18C38.9403 163.39 39.159 163.63 39.368 163.911C39.4505 164.023 39.5241 164.138 39.597 164.256ZM37.1963 167.071C36.9549 166.544 36.7892 166.147 36.7452 165.96C36.6675 165.632 36.8497 165.371 37.0464 165.236C37.23 165.109 37.4384 165.082 37.5883 165.16C37.8242 165.282 37.928 165.655 37.8744 166.183C37.8297 166.622 37.677 166.903 37.4164 167.014C37.349 167.044 37.2747 167.063 37.1963 167.071ZM32.2065 170.422C32.1763 170.569 32.124 170.695 32.0463 170.787C31.9589 170.893 31.8427 170.942 31.6818 170.94C31.208 170.935 30.8985 170.61 30.7686 170.307C30.662 170.061 30.6654 169.811 30.7761 169.712C30.783 169.706 30.7906 169.7 30.7981 169.696C30.913 169.623 31.1179 169.686 31.2348 169.734C31.4418 169.818 31.7815 170.064 32.2065 170.422Z" fill="white"/>
<path d="M123.326 132.119L120.701 127.511H115.348L112.654 132.172C112.654 132.172 111.801 133.469 114.03 133.469C116.258 133.469 119.356 133.51 121.613 133.483C124.236 133.453 123.326 132.119 123.326 132.119Z" fill="white"/>
<path d="M123.785 132.186L119.851 125.323V118.381C120.123 118.33 120.328 118.108 120.328 117.843C120.328 117.54 120.061 117.294 119.733 117.294H116.305C115.978 117.294 115.712 117.54 115.712 117.843C115.712 118.104 115.912 118.324 116.178 118.378V125.323L112.253 132.174C112.212 132.233 111.874 132.764 112.158 133.238C112.397 133.633 112.987 133.833 113.913 133.833H122.118C123.056 133.833 123.651 133.632 123.885 133.236C124.178 132.743 123.786 132.186 123.785 132.186ZM115.987 117.843C115.987 117.681 116.13 117.549 116.305 117.549H119.733C119.909 117.549 120.052 117.681 120.052 117.843C120.052 118.005 119.909 118.137 119.733 118.137H116.305C116.13 118.137 115.987 118.005 115.987 117.843ZM123.643 133.114C123.463 133.418 122.936 133.579 122.117 133.579H113.912C113.105 133.579 112.583 133.418 112.399 133.114C112.187 132.76 112.473 132.326 112.491 132.301L116.438 125.413L116.454 125.385V118.404H119.575V125.385L123.547 132.315C123.551 132.32 123.854 132.758 123.643 133.114Z" fill="white"/>
<path d="M35.8896 127.91V153.202H54.5774V127.91H35.8896ZM44.5496 152.78C44.1838 152.78 43.8887 152.508 43.8887 152.171C43.8887 151.835 44.1838 151.563 44.5496 151.563C44.9127 151.563 45.2091 151.835 45.2091 152.171C45.2091 152.508 44.9127 152.78 44.5496 152.78ZM53.7797 151.037H36.6867V128.965H53.7797V151.037Z" fill="white"/>
<path d="M104.261 76.4888C104.261 73.7363 101.843 71.5053 98.8595 71.5053C95.8756 71.5053 93.457 73.7363 93.457 76.4888C93.457 77.2525 93.6434 77.977 93.9783 78.624H93.9769L93.99 78.6488V78.6494L98.8629 88.1996L103.75 78.624L103.741 78.6227C104.075 77.9751 104.261 77.2525 104.261 76.4888ZM98.8595 79.2958C96.8831 79.2958 95.2794 77.8171 95.2794 75.994C95.2794 74.1708 96.8831 72.6928 98.8595 72.6928C100.836 72.6928 102.438 74.1702 102.438 75.994C102.438 77.8171 100.836 79.2958 98.8595 79.2958Z" fill="white"/>
<path d="M82.5415 96.2749C77.7958 96.2749 73.9331 99.8375 73.9331 104.217C73.9331 108.596 77.7958 112.159 82.5415 112.159C87.2892 112.159 91.1526 108.597 91.1526 104.217C91.1519 99.8369 87.2892 96.2749 82.5415 96.2749ZM77.4361 110.143C77.4513 110.12 77.463 110.097 77.4588 110.08C77.3798 109.754 77.6321 109.674 77.6108 109.392C77.5819 109.022 77.6115 108.974 77.5709 108.625C77.4836 107.854 77.9533 107.621 78.4092 107.202C78.9717 106.683 79.2991 106.239 78.5082 105.804C78.0303 105.542 77.5531 105.294 77.0462 105.081C76.243 104.745 76.2334 103.826 76.2169 103.096C76.1935 102.033 75.3477 102.282 74.5493 102.496C75.2411 99.7626 77.5352 97.5931 80.4661 96.8852C80.6524 97.3921 80.9887 97.9116 80.9055 98.4552C80.8622 98.7388 81.0747 98.7838 81.316 98.8542C82.0354 99.0655 82.6735 99.4061 83.2133 99.8908C83.5531 100.197 83.9168 101.189 84.4615 101.302C85.3734 101.491 86.288 101.172 86.8037 100.433C86.9867 100.169 87.4288 98.9126 87.6104 98.9354C87.8277 98.9633 87.9721 98.9507 88.1234 98.8555C88.1633 98.8409 88.2059 98.8086 88.2437 98.7724C88.9809 99.4296 89.584 100.212 90.0166 101.082C89.0669 101.741 88.0622 102.322 87.1022 102.967C86.5878 103.313 85.9311 103.785 85.7812 104.397C85.6814 104.809 85.6787 105.219 85.6381 105.637C85.559 106.481 84.2325 106.465 83.6287 106.539C83.0064 106.617 82.2327 106.657 81.8951 107.211C81.6427 107.627 82.1887 108.21 82.3902 108.536C82.9493 109.435 83.2642 109.08 84.2084 108.763C84.5928 108.633 84.969 108.547 85.3156 108.342C85.7062 108.112 86.3052 107.528 86.497 108.21C86.7267 109.031 86.6992 109.777 87.5423 110.219C86.1559 111.204 84.4264 111.797 82.5429 111.797C80.6119 111.795 78.839 111.174 77.4361 110.143Z" fill="white"/>
<path d="M73.8578 159.833C73.7203 158.512 72.5671 157.416 71.2618 156.991C70.592 156.773 69.8548 156.818 69.1314 156.989C69.685 156.483 70.046 155.79 70.3486 155.144C70.5136 154.79 71.0638 153.571 70.3637 153.44C70.2846 153.425 70.1829 153.512 70.1464 153.595C70.0838 153.626 70.0213 153.69 70.0151 153.747C69.8775 155.119 69.3968 156.238 68.3213 157.186C66.981 156.354 65.2123 156.386 63.7042 156.764C61.9768 157.196 60.6592 158.168 59.682 159.522C59.1222 160.298 58.691 161.056 58.3988 161.951C58.123 162.8 57.7888 163.657 57.6863 164.543C57.5859 165.403 57.4869 166.349 57.5522 167.212C57.5894 167.687 57.6341 168.165 57.674 168.641C57.7035 168.992 57.7379 169.455 57.8892 169.781C57.9346 169.88 58.0845 169.811 58.1388 169.764C59.7893 168.406 61.6921 167.887 63.8363 167.561C65.6951 167.278 67.5009 167.146 69.2291 166.393C71.9598 165.205 74.1625 162.754 73.8578 159.833ZM67.8908 158.23C66.1304 159.537 64.2688 160.699 62.7422 162.252C61.2155 163.803 59.9516 165.515 59.1869 167.498C59.1023 167.717 58.7213 167.622 58.8073 167.401C59.5513 165.472 60.7527 163.735 62.2415 162.221C63.8535 160.582 65.7542 159.352 67.6137 157.974C67.809 157.828 68.0903 158.084 67.8908 158.23Z" fill="white"/>
<path d="M154.287 90.0583L149.807 99.1841L158.422 102.783L162.902 93.6582L154.287 90.0583ZM154.456 91.2109C154.306 91.1481 154.24 90.985 154.308 90.8468C154.376 90.7085 154.552 90.6482 154.702 90.7104C154.852 90.7725 154.918 90.9349 154.849 91.0732C154.783 91.2115 154.607 91.273 154.456 91.2109ZM155.689 91.7253C155.539 91.6625 155.474 91.5001 155.541 91.3625C155.609 91.2236 155.785 91.1627 155.935 91.2255C156.084 91.2883 156.15 91.4507 156.084 91.589C156.016 91.7266 155.839 91.7881 155.689 91.7253ZM156.921 92.2404C156.771 92.1776 156.706 92.0152 156.774 91.8769C156.842 91.7387 157.018 91.6778 157.168 91.7399C157.317 91.8027 157.384 91.9651 157.316 92.1034C157.247 92.2417 157.071 92.3032 156.921 92.2404ZM158.155 92.7555C158.004 92.6934 157.938 92.5303 158.005 92.3921C158.075 92.2538 158.251 92.1929 158.4 92.255C158.55 92.3178 158.616 92.4802 158.548 92.6185C158.48 92.7568 158.305 92.8177 158.155 92.7555ZM159.386 93.2706C159.236 93.2078 159.171 93.0454 159.239 92.9071C159.307 92.7689 159.483 92.708 159.632 92.7708C159.782 92.8336 159.848 92.996 159.781 93.1342C159.713 93.2719 159.537 93.3328 159.386 93.2706ZM160.619 93.7857C160.469 93.7229 160.404 93.5599 160.471 93.4216C160.539 93.2833 160.715 93.2224 160.865 93.2852C161.014 93.3474 161.08 93.5098 161.013 93.6481C160.946 93.7864 160.769 93.8479 160.619 93.7857ZM161.853 94.3002C161.703 94.238 161.637 94.0756 161.703 93.9373C161.772 93.799 161.947 93.7382 162.098 93.8003C162.247 93.8631 162.313 94.0255 162.246 94.1638C162.178 94.3015 162.002 94.363 161.853 94.3002Z" fill="white"/>
<path d="M154.746 90.9546C154.716 91.0155 154.638 91.0428 154.571 91.0149C154.506 90.9876 154.476 90.9159 154.506 90.8544L155.006 89.8369C155.037 89.776 155.113 89.7487 155.18 89.7766C155.247 89.8039 155.275 89.8756 155.245 89.9365L154.746 90.9546Z" fill="white"/>
<path d="M158.428 92.4929C158.398 92.5538 158.32 92.5811 158.254 92.5532C158.188 92.5252 158.157 92.4542 158.188 92.3927L158.689 91.3752C158.718 91.3143 158.797 91.2876 158.862 91.3149C158.929 91.3428 158.957 91.4139 158.928 91.4748L158.428 92.4929Z" fill="white"/>
<path d="M160.905 93.5288C160.876 93.5897 160.799 93.617 160.732 93.5891C160.666 93.5618 160.637 93.4901 160.666 93.4286L161.166 92.4111C161.196 92.3502 161.274 92.3229 161.339 92.3508C161.406 92.3781 161.436 92.4498 161.406 92.5106L160.905 93.5288Z" fill="white"/>
<path d="M162.137 94.0433C162.107 94.1042 162.031 94.1308 161.964 94.1036C161.897 94.0763 161.867 94.0046 161.897 93.9437L162.398 92.9262C162.428 92.8647 162.506 92.838 162.572 92.8659C162.639 92.8938 162.668 92.9649 162.639 93.0264L162.137 94.0433Z" fill="white"/>
<path d="M159.673 93.0137C159.644 93.0746 159.565 93.1019 159.5 93.074C159.433 93.0467 159.403 92.975 159.433 92.9135L159.934 91.896C159.964 91.8344 160.041 91.8078 160.108 91.8357C160.174 91.8636 160.205 91.9347 160.174 91.9956L159.673 93.0137Z" fill="white"/>
<path d="M157.21 91.9841C157.18 92.045 157.102 92.0723 157.037 92.0444C156.97 92.0165 156.939 91.9448 156.97 91.8839L157.471 90.8658C157.501 90.8049 157.578 90.7776 157.645 90.8055C157.711 90.8334 157.74 90.9051 157.71 90.966L157.21 91.9841Z" fill="white"/>
<path d="M155.985 91.4722C155.955 91.5331 155.877 91.5604 155.81 91.5325C155.745 91.5046 155.715 91.4335 155.745 91.3726L156.245 90.3545C156.275 90.2936 156.353 90.2669 156.42 90.2942C156.486 90.3221 156.515 90.3932 156.485 90.4547L155.985 91.4722Z" fill="white"/>
<path d="M150.934 73.1679H143.704H139.186H131.958C131.396 73.1679 131.401 73.676 131.401 73.676V75.6451V83.754V85.7237C131.401 85.7237 131.395 86.2306 131.958 86.2306H139.186H139.298V86.6486V87.1872C139.298 87.1872 139.273 87.9649 138.569 88.2345C137.863 88.5047 135.319 89.0116 135.319 89.0116C135.319 89.0116 135.042 89.1131 135.055 89.2482C135.055 89.2482 135.052 89.2526 135.055 89.2596V89.4728C135.055 89.4728 135.071 89.5584 135.206 89.566H139.331H143.56H147.685C147.821 89.5584 147.838 89.4728 147.838 89.4728V89.2482H147.836C147.85 89.1131 147.572 89.0116 147.572 89.0116C147.572 89.0116 145.028 88.5054 144.323 88.2345C143.618 87.9643 143.592 87.1872 143.592 87.1872V86.6486V86.2306H143.704H150.934C151.495 86.2306 151.49 85.7237 151.49 85.7237V83.754V75.6457V73.6767C151.49 73.6767 151.495 73.1679 150.934 73.1679ZM150.875 83.428H132.015V74.535H150.875V83.428Z" fill="white"/>
<path d="M147.321 104.403C142.454 104.403 138.493 108.056 138.493 112.547C138.493 117.037 142.454 120.691 147.321 120.691C152.19 120.691 156.149 117.037 156.149 112.547C156.149 108.056 152.19 104.403 147.321 104.403ZM147.321 119.837C142.964 119.837 139.419 116.566 139.419 112.547C139.419 108.528 142.964 105.257 147.321 105.257C151.679 105.257 155.224 108.528 155.224 112.547C155.224 116.566 151.679 119.837 147.321 119.837Z" fill="white"/>
<path d="M147.321 106.314C147.571 106.314 147.775 106.127 147.775 105.895C147.775 105.664 147.571 105.475 147.321 105.475C147.071 105.475 146.866 105.663 146.866 105.895C146.866 106.127 147.071 106.314 147.321 106.314Z" fill="white"/>
<path d="M147.321 118.802C147.071 118.802 146.866 118.99 146.866 119.222C146.866 119.452 147.071 119.641 147.321 119.641C147.571 119.641 147.775 119.453 147.775 119.222C147.775 118.99 147.571 118.802 147.321 118.802Z" fill="white"/>
<path d="M154.544 112.138C154.294 112.138 154.089 112.326 154.089 112.558C154.089 112.789 154.294 112.978 154.544 112.978C154.796 112.978 154.999 112.79 154.999 112.558C154.999 112.326 154.796 112.138 154.544 112.138Z" fill="white"/>
<path d="M140.098 112.138C139.848 112.138 139.644 112.326 139.644 112.558C139.644 112.789 139.848 112.978 140.098 112.978C140.348 112.978 140.553 112.79 140.553 112.558C140.553 112.326 140.348 112.138 140.098 112.138Z" fill="white"/>
<path d="M150.897 107.013C151.01 107.076 151.156 107.041 151.223 106.937C151.291 106.833 151.255 106.699 151.141 106.636C151.029 106.574 150.883 106.608 150.815 106.713C150.747 106.817 150.784 106.952 150.897 107.013Z" fill="white"/>
<path d="M143.745 118.074C143.632 118.012 143.486 118.046 143.419 118.151C143.351 118.254 143.387 118.389 143.501 118.451C143.615 118.514 143.761 118.479 143.827 118.375C143.895 118.271 143.859 118.137 143.745 118.074Z" fill="white"/>
<path d="M153.643 115.766C153.529 115.705 153.385 115.738 153.317 115.843C153.248 115.948 153.285 116.081 153.398 116.144C153.512 116.206 153.658 116.172 153.726 116.068C153.793 115.963 153.757 115.829 153.643 115.766Z" fill="white"/>
<path d="M141.244 108.944C141.131 108.882 140.984 108.916 140.917 109.02C140.849 109.124 140.885 109.259 140.999 109.321C141.113 109.384 141.259 109.349 141.325 109.246C141.394 109.141 141.357 109.007 141.244 108.944Z" fill="white"/>
<path d="M153.541 109.157C153.426 109.216 153.383 109.348 153.447 109.454C153.509 109.561 153.654 109.6 153.769 109.543C153.885 109.484 153.927 109.35 153.865 109.245C153.802 109.138 153.657 109.098 153.541 109.157Z" fill="white"/>
<path d="M140.873 115.546C140.757 115.604 140.716 115.738 140.778 115.844C140.841 115.951 140.986 115.989 141.102 115.931C141.218 115.873 141.26 115.74 141.197 115.634C141.133 115.527 140.988 115.488 140.873 115.546Z" fill="white"/>
<path d="M150.671 118.194C150.555 118.252 150.512 118.385 150.575 118.491C150.638 118.598 150.783 118.637 150.899 118.58C151.014 118.521 151.057 118.388 150.993 118.281C150.931 118.175 150.786 118.136 150.671 118.194Z" fill="white"/>
<path d="M143.745 106.508C143.629 106.566 143.586 106.7 143.649 106.807C143.712 106.913 143.857 106.952 143.973 106.893C144.088 106.836 144.131 106.702 144.067 106.596C144.005 106.489 143.86 106.451 143.745 106.508Z" fill="white"/>
<path d="M151.585 112.282L150.216 111.65C150.157 111.623 150.083 111.626 150.027 111.658C149.97 111.691 149.935 111.748 149.935 111.811V112.18H148.211C148.09 111.944 147.86 111.765 147.583 111.694V109.126H147.983C148.05 109.126 148.111 109.095 148.147 109.043C148.182 108.992 148.187 108.927 148.159 108.871L147.52 107.608C147.489 107.547 147.421 107.506 147.343 107.505C147.269 107.507 147.203 107.545 147.17 107.605L146.486 108.867C146.456 108.923 146.459 108.988 146.494 109.041C146.529 109.094 146.593 109.126 146.659 109.126H147.059V111.694C146.641 111.8 146.332 112.15 146.332 112.569C146.332 113.072 146.776 113.481 147.321 113.481C147.832 113.481 148.249 113.12 148.299 112.663H149.935V113.032C149.935 113.094 149.968 113.15 150.025 113.183C150.057 113.201 150.092 113.21 150.13 113.21C150.157 113.21 150.186 113.205 150.212 113.194L151.58 112.604C151.648 112.575 151.692 112.513 151.692 112.441C151.69 112.372 151.649 112.311 151.585 112.282ZM147.153 108.954H146.659C146.659 108.954 146.655 108.953 146.652 108.951C146.652 108.95 146.651 108.948 146.652 108.945L147.336 107.682C147.337 107.681 147.342 107.678 147.342 107.678C147.342 107.678 147.35 107.679 147.351 107.682L147.989 108.945C147.991 108.947 147.991 108.95 147.989 108.951C147.988 108.953 147.985 108.954 147.985 108.954H147.489C147.437 108.954 147.395 108.993 147.395 109.04V111.664C147.37 111.663 147.347 111.657 147.321 111.657C147.296 111.657 147.271 111.663 147.247 111.665V109.04C147.247 108.993 147.205 108.954 147.153 108.954ZM151.502 112.449L150.133 113.038C150.131 113.038 150.13 113.038 150.13 113.038L150.126 113.038C150.123 113.037 150.122 113.035 150.122 113.032V112.576C150.122 112.528 150.08 112.49 150.028 112.49H148.3C148.296 112.443 148.289 112.398 148.278 112.353H150.028C150.08 112.353 150.122 112.314 150.122 112.266V111.812C150.122 111.808 150.123 111.807 150.125 111.806C150.126 111.806 150.133 111.805 150.133 111.805L151.502 112.437C151.502 112.437 151.505 112.442 151.505 112.443C151.505 112.445 151.502 112.449 151.502 112.449Z" fill="white"/>
<path d="M191.416 109.034V11.6869H196.537L183.925 0.0546951L171.314 11.6869H176.434V109.034H191.416Z" fill="#FFDA66"/>
<path d="M219.1 120.757V24.2002H226.781L207.865 6.75159L188.946 24.2002H196.627V120.757H219.1Z" fill="#7B55A3"/>
<path d="M199.978 97.0654V37.2609H202.539L196.234 31.4439L189.927 37.2609H192.487V97.0654H199.978Z" fill="#60C6C9"/>
<path d="M218.079 126.156V71.6626H220.639L214.334 65.8462L208.028 71.6626H210.589V126.156H218.079Z" fill="#ACD373"/>
<path d="M234.082 107.205V45.2588H239.203L226.592 33.626L213.979 45.2588H219.1V107.205H234.082Z" fill="#EF462D"/>
<path d="M22.4481 126.326C22.182 126.148 21.5816 125.968 20.8767 125.856C20.1932 125.748 19.2992 125.694 19.0386 125.902C18.9994 125.935 18.9746 125.974 18.9616 126.017C18.9609 126.019 18.9581 126.019 18.9567 126.021C18.8852 126.126 18.8446 126.256 18.8336 126.41L18.5936 127.688C18.452 127.767 18.3619 127.869 18.3413 127.988C18.3234 128.084 18.344 128.22 18.4967 128.377L18.4678 128.595C18.2973 128.677 18.192 128.789 18.1666 128.919C18.1501 129.01 18.1707 129.137 18.2979 129.282L15.7576 142.875C15.748 142.925 15.7693 142.974 15.8134 143.003L15.8147 143.003C15.8993 143.473 16.074 144.37 16.2899 145.135C16.272 145.164 16.2631 145.196 16.272 145.228C16.5313 146.149 16.7025 146.359 16.8222 146.439C16.8573 146.464 16.8964 146.479 16.937 146.486C17.001 146.496 17.0642 146.484 17.177 146.393C17.3462 146.258 17.6226 145.953 18.0229 145.458C18.0449 145.432 18.049 145.399 18.0449 145.366C18.6115 144.661 19.2263 143.828 19.4085 143.578C19.4319 143.574 19.4553 143.565 19.4739 143.551C19.4986 143.531 19.5144 143.505 19.5193 143.475L22.0582 129.889C22.0988 129.867 22.1359 129.842 22.1689 129.817C22.2535 129.749 22.3044 129.671 22.3216 129.582C22.3477 129.443 22.2872 129.303 22.1441 129.166C22.1414 129.163 22.1373 129.163 22.1345 129.161C22.1345 129.093 22.1318 129.037 22.1318 128.997C22.2129 128.963 22.2872 128.926 22.3436 128.881C22.4282 128.814 22.4784 128.736 22.4962 128.647C22.5127 128.56 22.4935 128.428 22.358 128.279L22.6324 126.813C22.6365 126.792 22.6496 126.692 22.6221 126.583C22.6221 126.583 22.6221 126.581 22.6207 126.581C22.6228 126.492 22.5664 126.406 22.4481 126.326ZM20.8293 126.112C21.4743 126.215 22.0568 126.385 22.281 126.536C22.3002 126.549 22.3147 126.56 22.325 126.569C22.1895 126.627 21.6806 126.685 20.7481 126.537C20.1031 126.435 19.5199 126.264 19.2958 126.113C19.2751 126.1 19.2607 126.088 19.2518 126.079C19.3893 126.021 19.8968 125.964 20.8293 126.112ZM19.1128 126.44C19.1149 126.397 19.1232 126.36 19.1307 126.324C19.3962 126.501 19.9986 126.681 20.7 126.794C20.9132 126.827 21.8649 126.966 22.3422 126.837L22.0657 128.314C21.9763 128.518 21.299 128.675 20.3789 128.529C19.8604 128.448 19.3975 128.29 19.1087 128.095C18.9444 127.984 18.8522 127.868 18.8625 127.784C18.8625 127.784 18.8612 127.781 18.8625 127.78L19.1128 126.44ZM18.5462 129.483C18.7573 129.619 19.0523 129.741 19.3907 129.839L16.9625 142.837C16.8958 142.724 16.8119 142.633 16.7122 142.565C16.6234 142.506 16.5224 142.465 16.4109 142.443C16.3092 142.423 16.2101 142.432 16.1187 142.469L18.5462 129.483ZM17.0244 146.222C16.9982 146.243 16.981 146.255 16.9735 146.261C16.9707 146.263 16.9693 146.265 16.9693 146.265C16.8573 146.227 16.7032 145.85 16.5437 145.305C16.6448 145.344 16.7479 145.379 16.8524 145.403C17.1426 145.472 17.4445 145.489 17.723 145.458C17.4363 145.808 17.1798 146.099 17.0244 146.222ZM17.8785 145.253C17.5793 145.315 17.2313 145.306 16.8999 145.227C16.7569 145.195 16.6159 145.145 16.4797 145.082C16.3126 144.474 16.1434 143.711 16.0087 142.972C16.0183 142.96 16.0258 142.948 16.0293 142.939C16.0293 142.937 16.076 142.818 16.1675 142.745C16.2239 142.7 16.2851 142.683 16.3518 142.696C16.4247 142.711 16.4893 142.738 16.5457 142.776C16.8504 142.981 16.8414 143.476 16.8414 143.479C16.8401 143.522 16.8607 143.565 16.8834 143.575C16.8875 143.58 16.8916 143.584 16.8964 143.588C16.9494 143.627 17.0244 143.625 17.0759 143.584C17.0814 143.579 17.0931 143.568 17.0979 143.562C17.1158 143.538 17.1254 143.509 17.1241 143.48C17.1268 143.46 17.1351 143.421 17.1461 143.37L17.1915 143.123C17.2293 143.048 17.2788 142.974 17.3441 142.921C17.4342 142.85 17.5394 142.827 17.6673 142.853C17.9665 142.914 18.0483 143.167 18.0648 143.373L18.0126 143.649C18.005 143.692 18.0208 143.734 18.0662 143.77L18.0634 143.772C18.115 143.812 18.1927 143.812 18.2443 143.77C18.2526 143.763 18.2587 143.757 18.2642 143.751C18.2704 143.742 18.2794 143.726 18.2849 143.711C18.3695 143.536 18.5373 143.276 18.7339 143.117C18.813 143.054 18.932 142.981 19.0455 142.995C19.075 142.998 19.0998 143.008 19.1218 143.022C19.2428 143.104 19.2483 143.356 19.2408 143.438C19.2394 143.449 19.2469 143.457 19.2497 143.467C19.0778 143.701 18.4554 144.546 17.8888 145.253C17.8895 145.254 17.8826 145.253 17.8785 145.253ZM17.7093 142.676C17.5429 142.642 17.3888 142.672 17.2616 142.756L19.6609 129.914C19.8047 129.948 19.9518 129.979 20.1031 130.002C20.2558 130.026 20.4064 130.042 20.5535 130.056L18.1391 142.97C18.0545 142.832 17.9204 142.719 17.7093 142.676ZM19.3487 142.862C19.3301 142.844 19.3102 142.828 19.2882 142.814C19.2284 142.773 19.1582 142.748 19.0826 142.739C18.9107 142.717 18.7305 142.78 18.5496 142.924C18.5008 142.964 18.4534 143.007 18.4107 143.052L20.8348 130.072C21.0968 130.081 21.343 130.071 21.5569 130.037C21.6263 130.026 21.691 130.014 21.7522 129.999L19.3487 142.862ZM21.5101 129.782C21.1374 129.839 20.6546 129.826 20.1512 129.747C19.5426 129.65 18.9918 129.466 18.6755 129.254C18.518 129.147 18.4307 129.039 18.4444 128.963C18.4499 128.937 18.4733 128.91 18.5022 128.885C18.5703 128.99 18.7209 129.133 19.0688 129.303C19.6871 129.604 21.2701 129.846 21.759 129.652C21.7797 129.645 21.9021 129.604 22.0011 129.525C22.0135 129.516 22.021 129.502 22.0327 129.492C22.0355 129.506 22.0472 129.523 22.0451 129.536C22.0259 129.634 21.8134 129.735 21.5101 129.782ZM21.9385 129.18C21.922 129.202 21.9145 129.231 21.9234 129.258L21.9358 129.298C21.9261 129.381 21.7714 129.457 21.6882 129.484C21.2543 129.656 19.7256 129.417 19.1617 129.143C18.758 128.947 18.672 128.807 18.6542 128.761C18.6555 128.76 18.6569 128.758 18.6583 128.756C18.6796 128.736 18.6906 128.704 18.6837 128.675C18.6824 128.665 18.6748 128.646 18.6617 128.626L18.6762 128.524C18.6796 128.526 18.681 128.529 18.6851 128.531C19.0344 128.765 19.63 128.967 20.2785 129.07C20.9352 129.174 21.5273 129.166 21.9378 129.06C21.9385 129.095 21.9385 129.136 21.9385 129.18ZM22.2198 128.603C22.182 128.809 21.3836 128.983 20.3259 128.815C19.7173 128.718 19.1658 128.533 18.8508 128.321C18.6892 128.213 18.6046 128.108 18.6184 128.031C18.6198 128.018 18.6253 128.006 18.6328 127.993C18.6899 128.1 18.7938 128.204 18.9423 128.304C19.2641 128.52 19.771 128.696 20.3314 128.784C21.1669 128.918 21.9083 128.823 22.217 128.562C22.2212 128.576 22.2225 128.59 22.2198 128.603Z" fill="white"/>
<defs>
<linearGradient id="paint0_linear_368_1480" x1="81.169" y1="141.051" x2="62.2098" y2="147.164" gradientUnits="userSpaceOnUse">
<stop stop-color="#C7C1B1"/>
<stop offset="0.8014" stop-color="white"/>
</linearGradient>
<linearGradient id="paint1_linear_368_1480" x1="71.0923" y1="144.849" x2="86.5677" y2="133.224" gradientUnits="userSpaceOnUse">
<stop stop-color="#C7C1B1"/>
<stop offset="0.8014" stop-color="white"/>
</linearGradient>
<linearGradient id="paint2_linear_368_1480" x1="71.7519" y1="144.4" x2="77.0024" y2="141.295" gradientUnits="userSpaceOnUse">
<stop stop-color="#A3A093"/>
<stop offset="0.6468" stop-color="#EDECEA"/>
<stop offset="0.8014" stop-color="white"/>
</linearGradient>
<linearGradient id="paint3_linear_368_1480" x1="64.3215" y1="147.585" x2="118.46" y2="104.574" gradientUnits="userSpaceOnUse">
<stop offset="0.5353" stop-color="white"/>
<stop offset="1" stop-color="#959289"/>
</linearGradient>
<linearGradient id="paint4_linear_368_1480" x1="102.964" y1="104.521" x2="134.868" y2="98.8692" gradientUnits="userSpaceOnUse">
<stop offset="0.5353" stop-color="white"/>
<stop offset="1" stop-color="#959289"/>
</linearGradient>
<linearGradient id="paint5_linear_368_1480" x1="148.948" y1="94.0278" x2="167.7" y2="98.2628" gradientUnits="userSpaceOnUse">
<stop offset="0.5353" stop-color="white"/>
<stop offset="1" stop-color="#959289"/>
</linearGradient>
<linearGradient id="paint6_linear_368_1480" x1="216.412" y1="46.3597" x2="188.525" y2="189.523" gradientUnits="userSpaceOnUse">
<stop stop-color="#333333"/>
<stop offset="0.2859" stop-color="#292929"/>
<stop offset="0.7654" stop-color="#0F0F0F"/>
<stop offset="1"/>
</linearGradient>
<linearGradient id="paint7_linear_368_1480" x1="149.847" y1="175.674" x2="232.892" y2="88.3536" gradientUnits="userSpaceOnUse">
<stop offset="0.00077726" stop-color="#676767"/>
<stop offset="0.169" stop-color="#5D5D5D"/>
<stop offset="0.452" stop-color="#434343"/>
<stop offset="0.813" stop-color="#191919"/>
<stop offset="1"/>
</linearGradient>
<linearGradient id="paint8_linear_368_1480" x1="131.013" y1="157.748" x2="214.049" y2="70.4368" gradientUnits="userSpaceOnUse">
<stop offset="0.00077726" stop-color="#676767"/>
<stop offset="0.169" stop-color="#5D5D5D"/>
<stop offset="0.452" stop-color="#434343"/>
<stop offset="0.813" stop-color="#191919"/>
<stop offset="1"/>
</linearGradient>
<linearGradient id="paint9_linear_368_1480" x1="200.921" y1="96.1092" x2="200.921" y2="178.986" gradientUnits="userSpaceOnUse">
<stop offset="0.0024" stop-color="#00A5BC"/>
<stop offset="0.1203" stop-color="#0995AC"/>
<stop offset="0.3514" stop-color="#206B81"/>
<stop offset="0.3652" stop-color="#21687E"/>
<stop offset="0.5531" stop-color="#114460"/>
<stop offset="0.7142" stop-color="#05294A"/>
<stop offset="0.7969" stop-color="#031B31"/>
<stop offset="0.929" stop-color="#01070D"/>
<stop offset="1"/>
</linearGradient>
<linearGradient id="paint10_linear_368_1480" x1="189.445" y1="164.163" x2="191.893" y2="151.594" gradientUnits="userSpaceOnUse">
<stop stop-color="#333333"/>
<stop offset="0.2859" stop-color="#292929"/>
<stop offset="0.7654" stop-color="#0F0F0F"/>
<stop offset="1"/>
</linearGradient>
<linearGradient id="paint11_linear_368_1480" x1="191.109" y1="159.549" x2="189.285" y2="163.671" gradientUnits="userSpaceOnUse">
<stop stop-color="#575757"/>
<stop offset="0.1916" stop-color="#4D4D4D"/>
<stop offset="0.514" stop-color="#333333"/>
<stop offset="0.9255" stop-color="#080808"/>
<stop offset="1"/>
</linearGradient>
</defs>
</svg>
