<svg width="220" height="166" viewBox="0 0 220 166" fill="none" xmlns="http://www.w3.org/2000/svg">
<g opacity="0.5">
<path opacity="0.5" d="M197.432 162.944C202.255 167.019 17.7429 167.019 22.5681 162.943C17.7446 158.868 202.257 158.868 197.432 162.944Z" fill="#00CBCC"/>
<g opacity="0.3">
<path opacity="0.8" d="M190.414 80.762C188.609 188.453 31.4048 188.436 29.6152 80.7586C31.4201 -26.9285 188.625 -26.9117 190.414 80.762Z" fill="#00CBCC"/>
<path opacity="0.6" d="M94.2144 114.553C93.1569 177.65 1.04843 177.64 0 114.551C1.05733 51.4555 93.1658 51.4652 94.2144 114.553Z" fill="#00CBCC"/>
<path opacity="0.6" d="M125.786 114.553C126.843 177.65 218.952 177.64 220 114.551C218.943 51.4555 126.834 51.4652 125.786 114.553Z" fill="#00CBCC"/>
<path opacity="0.5" d="M155.451 65.6815C156.175 108.912 219.282 108.905 220 65.6802C219.276 22.4513 156.169 22.458 155.451 65.6815Z" fill="#00CBCC"/>
<path opacity="0.5" d="M64.5496 65.6815C63.825 108.912 0.718295 108.905 0 65.6802C0.724437 22.4513 63.8311 22.458 64.5496 65.6815Z" fill="#00CBCC"/>
</g>
</g>
<g opacity="0.5">
<g opacity="0.6">
<path d="M43.4091 96.802C42.8344 96.6054 42.1995 96.0947 40.9501 95.4417C36.6821 93.0347 36.6692 92.9874 36.5976 92.7246C36.3784 91.4025 39.4193 93.0701 40.2249 93.1359C38.3628 91.8224 24.2546 84.8493 25.3346 83.9044C25.4138 83.6409 25.896 83.6573 26.2213 83.8785C29.1167 85.2548 32.1853 86.7534 35.4829 88.3303C29.928 84.9231 23.0311 81.4122 18.3086 78.0876C18.3116 76.4881 21.5843 78.888 22.9081 79.3868C26.9707 81.489 32.6737 84.6132 37.1295 86.9743C34.1141 84.9591 18.9447 77.3525 20.2246 76.8173C20.7511 76.2248 21.4397 77.094 22.2103 77.3602C25.7268 79.2121 29.4011 81.1875 33.6454 83.401C30.3267 81.3379 23.3498 77.7804 21.6335 76.0343C21.4886 75.5067 22.172 75.3656 22.4219 75.5622C26.4892 77.4526 31.2923 80.094 35.7643 82.364C32.745 80.469 26.4718 77.2946 24.524 75.658C24.066 73.681 31.7237 78.4709 33.0271 78.8808C32.0494 78.3278 31.1064 77.7899 30.2475 77.2916C26.1349 74.907 26.0705 74.6723 26.0021 74.4237C25.892 73.8269 26.4718 73.7205 26.9142 74.0228C30.8241 75.9473 34.9105 78.0721 39.4505 80.2763C38.4833 79.7388 37.4815 79.1868 36.5428 78.6694C28.845 74.4269 27.9768 73.8586 27.8605 73.4399C27.7976 73.08 27.9916 72.7328 28.5229 72.929C31.7819 74.4233 35.1159 76.0463 38.7872 77.751C35.8022 75.8677 32.24 74.2267 29.7145 72.3108C29.2641 70.3673 36.7831 74.9709 38.0549 75.3483C36.0377 74.0702 33.6842 73.1646 32.2527 71.9202C31.8774 70.1534 38.2379 73.7953 39.3854 74.0599C37.8707 73.0725 34.4512 71.4921 33.6641 70.5869C33.4542 68.9405 38.4253 71.8201 39.4416 72.0344C38.5174 71.507 37.2943 70.8113 36.5857 70.4018C35.3787 69.6332 35.4344 69.9204 35.5322 69.2681C35.8725 68.5286 40.2575 71.0191 41.768 71.4276C41.3637 71.2008 40.9753 70.9842 40.6342 70.7936C38.0969 69.3775 38.0969 69.3775 38.0353 69.1537C37.8841 67.7341 41.3866 69.6297 42.2866 69.7402C39.3617 68.0843 39.3609 68.0815 39.2954 67.8403C39.0661 66.5514 42.2978 68.0919 43.1364 68.1121C42.099 67.4721 42.1447 67.6924 42.2474 67.0945C42.3692 66.8796 42.3793 66.8615 44.1181 66.7575C43.2035 66.1641 43.8877 65.8894 44.9906 65.3307C44.9664 65.2949 44.9503 65.2541 44.9361 65.2006L45.3467 65.0865L45.5771 64.7222C46.6986 65.3154 46.4305 65.6263 45.0247 66.2875C45.5742 66.6349 46.1968 66.8201 45.9217 67.3174C45.5477 67.7572 44.649 67.5067 44.0444 67.631C46.1245 68.9041 46.0485 68.5128 45.963 69.2801C45.304 69.9038 43.4216 68.9237 42.4348 68.8318C42.56 68.9025 42.6836 68.9727 42.8045 69.0411C46.0936 70.9032 46.0964 70.9127 46.1635 71.1602C46.3666 72.5652 42.8285 70.6447 41.953 70.5418C46.2546 73.1348 46.0962 72.543 46.0623 73.5159C45.4198 74.2325 42.9507 72.6644 41.707 72.336C45.1955 74.3404 45.215 74.4123 45.2762 74.6386C45.3963 75.1571 44.8106 75.3013 44.4851 75.0866C42.6641 74.348 40.7166 73.4963 38.6405 72.6379C45.4431 76.7334 45.2383 76.0023 45.2237 77.029C44.8006 77.8395 39.8837 75.0197 38.5899 74.6576C39.562 75.2083 40.5472 75.7702 41.4508 76.2939C45.4437 78.7622 45.3389 78.3351 45.2807 79.2259C44.7602 80.1073 39.4505 76.7789 37.8961 76.2324C39.5015 77.3175 46.3507 80.7268 45.3637 81.1616C44.9842 82.1154 37.699 77.9966 36.1897 77.4886C36.4453 77.6295 36.6984 77.7689 36.947 77.9059C44.4451 82.0383 45.2332 82.5532 45.3461 82.9601C45.484 83.5922 44.7335 83.6461 44.3464 83.4409C41.8226 82.4854 38.5164 80.7676 35.6936 79.3896C36.6675 79.9358 37.603 80.458 38.4285 80.9187C44.3974 84.2501 44.4019 84.2667 44.4781 84.5433C44.509 84.6557 44.4938 84.7805 44.4366 84.8815C43.7742 85.5877 42.0488 84.1661 40.8076 83.7352C38.9285 82.8227 36.2874 81.4902 33.9002 80.2877C36.3653 81.7129 38.8406 83.1457 40.8347 84.3133C45.052 86.962 44.8779 86.3125 44.8419 87.2535C44.5971 87.6853 44.1105 87.463 43.0443 86.9762C39.3566 85.2448 35.114 82.9893 30.8927 80.8136C33.8229 82.5141 38.5513 85.2245 43.6715 88.1326C44.1266 88.3769 44.2005 88.4958 44.0692 88.8637C43.3206 89.6653 40.7888 87.8189 39.6184 87.4216C44.0997 90.2561 43.9718 89.773 43.9339 90.7645C43.2319 91.5538 40.8773 89.7227 39.4104 89.1474C36.8619 87.8307 33.1529 85.8292 29.9872 84.1264C34.4429 86.8789 39.8001 89.538 43.4627 92.1733C43.4309 93.29 42.2408 92.3878 41.5454 92.1437C39.2347 91.0944 35.8645 89.4728 33.2219 88.2034C34.6017 88.9843 35.9939 89.7652 37.2081 90.4466C43.6035 94.0353 43.6099 94.0581 43.6863 94.3374C43.7952 95.6588 41.0556 94.1149 40.2323 94.0435C41.8315 95.0613 45.0549 96.2977 43.4091 96.802ZM48.3144 84.3424C48.2792 84.405 48.2587 84.4689 48.25 84.5317C48.2593 84.4667 48.2805 84.4026 48.3144 84.3424ZM48.315 84.3409C48.3148 84.3414 48.3144 84.342 48.3142 84.3424C48.3146 84.3418 48.3148 84.3414 48.315 84.3409Z" fill="#00CBCC"/>
<path d="M110.824 34.0155C110.538 33.984 110.147 33.7009 110.335 33.3692C110.285 33.1392 111.47 33.1291 111.927 33.0732C110.278 32.0517 110.342 32.3859 110.415 31.7606C110.87 31.3182 111.824 31.9054 112.5 31.9181C111.153 31.0699 111.217 31.3664 111.287 30.7596C111.723 30.2959 113.229 31.0433 113.984 31.0748C113.363 30.5792 111.012 29.7133 111.403 29.1406C111.949 28.5606 114.347 29.9345 115.379 30.1418C114.308 29.4485 111.026 27.9879 111.662 27.6038C112.03 27.0167 115.13 28.8322 116.131 29.0685C113.742 27.5499 111.205 26.5784 111.61 25.9347C112.085 25.2729 116.58 27.9096 117.792 28.2561C116.43 27.3695 113.428 25.9425 112.66 25.1394C112.468 23.7055 117.218 26.6149 118.223 26.8585C113.137 24.0037 112.614 23.6106 112.534 23.3184C112.436 22.8476 112.928 22.7479 113.247 22.9712C115.97 24.262 118.744 25.6532 121.916 27.142C118.145 25.0142 110.156 21.0113 113.541 21.4217C116.389 22.7691 119.384 24.2413 122.613 25.7734C119.706 23.9599 115.256 21.7266 112.907 19.9894C112.411 18.1009 121.859 23.9552 123.199 24.4008C119.873 22.3711 116.425 20.8292 113.814 18.9646C113.323 17.1234 122.346 22.5878 123.7 23.0349C119.761 20.7038 113.144 17.1627 113.614 17.0576C113.298 15.2517 121.104 20.0994 122.375 20.5424C121.664 20.1363 120.975 19.7434 120.33 19.3759C113.883 15.7012 113.883 15.7012 113.822 15.4753C113.733 15.0057 114.238 14.9265 114.526 15.16C119.322 17.7261 126.985 21.9336 132.481 24.6597C130.131 23.0802 114.721 14.8993 114.696 14.3838C114.668 13.6841 115.262 13.8737 116.038 14.2291C118.147 15.1706 120.572 16.4314 123.013 17.6648C116.36 13.9368 112.719 12.0059 115.167 12.1891C117.332 13.1291 119.801 14.2915 122.195 15.3419C120.796 14.3871 114.734 11.5405 115.54 11.1223C116.1 10.6204 117.547 11.492 118.364 11.5869C117.652 11.1105 115.662 10.1479 115.54 9.81276C115.479 9.5029 115.88 9.06963 116.055 8.6672C115.678 8.46739 115.287 8.22376 115.341 8.13033L115.681 8.03561L115.985 8.21557C116.086 8.03906 116.013 7.82889 115.883 7.7428C117.189 8.43308 117.028 8.39229 116.357 9.58555C116.853 10.0449 121.827 12.3519 121.213 12.8557C120.753 13.3481 119.064 12.3941 118.289 12.3109C118.557 12.4619 118.833 12.6175 119.107 12.7718C125.564 16.4066 125.918 16.6875 125.994 16.9652C126.215 18.486 120.993 15.3948 120.034 15.1607C120.902 15.6526 121.807 16.1632 122.682 16.6571C130.821 21.2489 131.207 21.5389 131.288 21.8358C131.728 23.5458 124.743 19.1185 123.517 18.723C125.967 20.1406 135.545 25.2866 135.605 26.0519C135.684 27.5546 131.989 25.0447 131.08 24.7575C133.397 26.2636 133.323 25.9417 133.263 26.6149C132.787 27.1259 132.067 26.2901 131.322 26.0349C128.068 24.3434 124.32 22.3416 120.539 20.4004C130.396 26.1471 132.091 26.8169 131.538 27.3045C131.358 27.6226 131.068 27.4894 130.489 27.2249C128.344 26.2168 125.789 24.8876 123.225 23.5951C129.165 26.9888 129.741 27.4795 129.819 27.7667C129.867 28.4173 129.34 28.3148 128.675 27.9756C126.583 26.9914 124.465 25.8553 121.915 24.5387C122.868 25.0943 123.793 25.6348 124.634 26.1283C128.261 28.2553 128.264 28.2671 128.317 28.4652C128.274 29.1872 127.937 28.9947 126.686 28.4559C125.12 27.7648 122.572 26.5491 120.71 25.6579C125.995 28.7446 126.454 28.5334 126.408 29.45C125.764 30.2078 121.241 27.4383 119.889 26.9729C123.168 28.8646 124.327 29.2351 123.962 29.728C123.346 30.3943 119.253 27.9145 117.936 27.5145C122.497 30.1522 122.502 30.1692 122.555 30.3701C122.788 31.8333 117.584 28.7354 116.575 28.4997C117.379 29.064 119.266 29.8365 120.196 30.6888C120.267 31.9168 117.465 30.2145 116.651 30.0466C118.532 31.2319 118.468 30.9275 118.4 31.5681C117.851 32.135 115.713 30.8677 114.686 30.6575C115.211 31.0744 116.59 31.4449 116.275 32.007C115.751 32.4798 114.398 31.766 113.631 31.7336C114.904 32.5244 114.835 32.2094 114.763 32.8045C114.326 33.257 113.329 32.7012 112.691 32.6854C113.469 33.172 113.435 33.019 113.349 33.4866C113.391 33.6607 112.745 33.7404 111.112 33.8638C111.045 33.9616 110.936 34.0155 110.824 34.0155ZM110.521 33.476C110.424 33.6444 110.482 33.837 110.599 33.9318C110.469 33.8215 110.433 33.6293 110.521 33.476ZM116.227 8.35582C116.226 8.35711 116.225 8.35863 116.224 8.36014C116.225 8.35798 116.226 8.35646 116.227 8.35582Z" fill="#00CBCC"/>
<path d="M189 147.874C184.495 146.189 179.905 143.306 174.951 140.828C177.299 142.318 182.091 144.665 185.47 146.984C185.527 148.629 181.217 145.756 179.974 145.328C180.993 146.08 181.173 145.994 181.031 146.6C180.469 147.57 173.36 143.191 171.606 142.525C172.729 143.252 176.021 144.926 176.181 145.354C176.209 145.461 176.194 145.574 176.14 145.669C175.793 146.478 170.427 143.434 169.196 143.064C172.139 144.841 172.021 144.353 171.958 145.153C171.479 145.864 168.22 143.872 167.145 143.576C168.125 144.138 168.137 144.179 168.178 144.332C168.418 145.777 164.113 143.512 163.242 143.397C163.064 144.46 162.105 143.337 161.393 143.068C159.914 142.248 159.911 142.24 159.853 142.028C159.55 140.646 163.396 142.771 164.219 142.867C160.474 140.609 160.594 141.093 160.647 140.244C160.944 139.526 164.718 141.796 165.749 142.069C162.314 140.118 162.284 140.013 162.219 139.777C162.184 138.791 163.176 139.467 163.738 139.697C165.564 140.518 167.709 141.493 169.851 142.455C168.303 141.467 163.349 138.86 163.029 138.295C163.041 136.923 165.348 138.634 166.37 138.983C168.682 140.106 172.023 141.818 174.675 143.155C172.491 141.822 163.316 136.959 164.006 136.929C163.976 136.821 163.991 136.704 164.045 136.608C164.536 136.052 165.149 136.836 165.854 137.076C168.952 138.69 172.193 140.414 175.933 142.344C174.969 141.79 173.992 141.227 173.041 140.675C164.726 135.856 164.671 135.654 164.602 135.399C164.589 134.636 165.09 134.774 166.026 135.252C170.242 137.344 175.538 140.235 180.214 142.675C176.471 140.354 169.171 136.602 166.538 134.558C166.101 132.624 173.727 137.462 175.001 137.878C173.898 137.254 172.834 136.647 171.865 136.085C167.241 133.404 167.169 133.142 167.1 132.888C166.999 132.298 167.549 132.212 168.007 132.521C172.375 134.722 177.23 137.304 182.232 139.768C180.797 138.965 179.21 138.09 177.758 137.29C169.329 132.647 168.173 131.915 168.048 131.466C168.015 131.347 168.029 131.223 168.089 131.119C168.538 130.566 169.236 131.349 169.911 131.554C172.869 132.98 176.238 134.628 179.676 136.273C176.468 134.268 171.509 131.79 168.946 129.873C168.445 127.909 176.783 133.022 178.101 133.435C175.385 131.752 172.628 130.627 170.617 129.06C170.24 127.312 176.872 131.161 178.033 131.448C176.176 130.257 172.214 128.386 171.104 127.284C170.868 125.661 176.019 128.661 177.017 128.886C175.81 128.196 174.216 127.291 173.227 126.72C171.914 125.881 171.979 126.205 172.067 125.546C172.316 124.804 177.008 127.441 178.494 127.86C177.132 127.034 173.338 125.132 173.681 124.983C173.536 123.62 176.819 125.43 177.842 125.594C177.715 125.522 177.59 125.451 177.469 125.383C174.133 123.496 174.132 123.491 174.066 123.251C173.884 122.035 176.84 123.44 177.645 123.443C176.613 122.795 175.701 122.591 176.038 122.043C176.139 121.866 176.146 121.852 177.593 121.586C176.345 120.939 176.487 120.865 177.38 119.659C177.161 119.53 177.118 119.487 177.08 119.343L177.472 119.235L177.693 118.889C178.778 119.402 178.379 119.66 177.664 120.674C178.13 121.037 179.47 121.431 179.098 121.996C179.203 122.163 178.011 122.355 177.535 122.437C179.79 123.7 180.307 124.007 180.241 124.17C180.499 125.347 177.856 124.217 176.912 124.121C177.231 124.303 177.556 124.486 177.863 124.66C181.488 126.711 181.492 126.726 181.559 126.971C181.755 128.326 178.303 126.437 177.458 126.336C182.774 129.494 182.61 128.897 182.591 129.881C181.953 130.571 179.537 129.013 178.301 128.673C183.067 131.585 182.898 130.974 182.871 131.901C182.618 132.689 177.32 129.719 176.084 129.383C182.993 133.404 184.473 133.99 183.992 134.525C183.531 135.308 178.54 132.375 177.205 131.981C184.971 136.578 185.266 136.267 185.235 137.318C184.701 138.182 179.146 134.665 177.537 134.074C179.171 135.024 180.803 135.976 182.223 136.809C186.327 139.216 186.33 139.23 186.391 139.456C186.345 140.541 185.17 139.661 184.479 139.43C182.31 138.463 179.058 136.893 176.554 135.686C183.333 139.54 188.214 141.779 187.497 142.536C186.877 143.604 178.807 138.77 177.007 138.063C180.299 139.985 188.574 144.334 187.849 144.374C187.879 144.481 187.864 144.601 187.81 144.697C187.169 145.401 185.254 143.87 183.978 143.405C181.961 142.4 179.123 140.933 176.561 139.609C179.467 141.395 188.649 146.357 189.408 147.329C189.479 147.591 189.272 147.89 189 147.874ZM147.694 143.232C147.67 143.276 147.654 143.321 147.646 143.365C147.655 143.319 147.67 143.275 147.694 143.232Z" fill="#00CBCC"/>
</g>
<g opacity="0.5">
<path d="M32.275 140.109C14.1099 139.777 14.1128 112.27 32.2756 111.941C50.4401 112.273 50.4372 139.78 32.275 140.109ZM32.275 117.165C20.8477 117.374 20.8494 134.678 32.2754 134.885C43.7023 134.676 43.7006 117.372 32.275 117.165Z" fill="#00CBCC"/>
<path d="M163.382 48.793C150.974 48.5662 150.976 29.777 163.383 29.5521C175.79 29.7787 175.788 48.5682 163.382 48.793ZM163.382 33.1205C155.577 33.2631 155.578 45.0831 163.382 45.2244C171.188 45.082 171.186 33.262 163.382 33.1205Z" fill="#00CBCC"/>
<path d="M195.38 115.722C187.108 115.571 187.11 103.045 195.38 102.895C203.652 103.046 203.651 115.572 195.38 115.722ZM195.38 105.274C190.177 105.369 190.177 113.249 195.38 113.343C200.584 113.248 200.583 105.368 195.38 105.274Z" fill="#00CBCC"/>
</g>
</g>
<path d="M93.7957 73.0067H77.9458V118.253H93.7957V73.0067Z" fill="black"/>
<path d="M113.36 102.102H97.5103V118.253H113.36V102.102Z" fill="black"/>
<path d="M130.883 75.351H115.033V120.597H130.883V75.351Z" fill="black"/>
<path d="M114.077 107.266H106.443V150.524H114.077V107.266Z" fill="url(#paint0_linear_385_1276)"/>
<path d="M130.343 162.869H90.1796C81.1592 162.716 81.1389 149.023 90.1799 148.866H130.343C134.138 148.866 137.214 152.001 137.214 155.868C137.214 159.735 134.138 162.869 130.343 162.869Z" fill="url(#paint1_linear_385_1276)"/>
<path d="M174.381 124.484H45.6195C44.2037 124.484 43.0562 123.314 43.0562 121.872V48.3107C43.0562 46.868 44.2039 45.6987 45.6195 45.6987H174.381C175.796 45.6987 176.944 46.8682 176.944 48.3107V121.872C176.944 123.315 175.796 124.484 174.381 124.484Z" fill="url(#paint2_linear_385_1276)"/>
<path d="M172.2 121.997H47.7995C46.7378 121.997 45.877 121.12 45.877 120.038V50.1444C45.877 49.0625 46.7378 48.1854 47.7995 48.1854H172.2C173.262 48.1854 174.123 49.0625 174.123 50.1444V120.038C174.123 121.12 173.262 121.997 172.2 121.997Z" fill="#E6FDFD"/>
<g opacity="0.8">
<path d="M67.0122 80.9491H59.3784V114.904H67.0122V80.9491Z" fill="url(#paint3_linear_385_1276)"/>
<path d="M77.8784 59.9349H70.2446V114.904H77.8784V59.9349Z" fill="url(#paint4_linear_385_1276)"/>
<path d="M88.106 59.9349H80.4722V114.904H88.106V59.9349Z" fill="url(#paint5_linear_385_1276)"/>
<path d="M98.333 82.0428H90.6992V114.904H98.333V82.0428Z" fill="url(#paint6_linear_385_1276)"/>
<path d="M108.561 69.9804H100.927V114.904H108.561V69.9804Z" fill="url(#paint7_linear_385_1276)"/>
</g>
<g opacity="0.8">
<path d="M119.074 80.9491H111.44V114.904H119.074V80.9491Z" fill="url(#paint8_linear_385_1276)"/>
<path d="M129.939 59.9349H122.306V114.904H129.939V59.9349Z" fill="url(#paint9_linear_385_1276)"/>
<path d="M140.167 82.0428H132.533V114.904H140.167V82.0428Z" fill="url(#paint10_linear_385_1276)"/>
<path d="M150.395 82.0428H142.761V114.904H150.395V82.0428Z" fill="url(#paint11_linear_385_1276)"/>
<path d="M160.622 69.9804H152.988V114.904H160.622V69.9804Z" fill="url(#paint12_linear_385_1276)"/>
</g>
<path d="M59.4219 98.0378C59.4219 98.0378 58.7411 98.2738 58.0645 99.821C54.2221 96.7457 50.0892 94.1222 47.3248 89.9385C46.4445 88.5497 47.357 86.8703 48.2386 85.7625C51.4125 81.6791 54.5245 77.264 58.0088 73.5047C58.3595 77.969 59.6036 80.7471 55.9456 84.5714C54.9017 86.1142 53.0695 87.3836 52.4736 89.1537C52.449 89.7831 53.0958 90.2343 53.6093 90.8659C55.5507 93.2539 57.479 95.6512 59.4219 98.0378Z" fill="url(#paint13_linear_385_1276)"/>
<path d="M105.672 58.3824C89.4177 51.7627 72.3417 69.9491 79.1676 86.0892L52.265 98.9438C51.4385 99.3387 51.0827 100.342 51.4702 101.184C51.8577 102.026 52.842 102.389 53.6685 101.994L80.6099 89.1204C102.751 120.522 140.063 74.926 105.672 58.3824ZM92.6163 95.1795C71.0702 86.7939 82.7256 53.9552 104.549 61.5505C126.094 69.9357 114.439 102.774 92.6163 95.1795Z" fill="#333333"/>
<path d="M104.548 61.5502C82.7212 53.9572 71.0728 86.7984 92.6172 95.1797C114.444 102.772 126.092 69.9311 104.548 61.5502Z" fill="#E6FDFD"/>
<mask id="mask0_385_1276" style="mask-type:luminance" maskUnits="userSpaceOnUse" x="81" y="60" width="35" height="37">
<path d="M98.5823 60.485C75.5221 60.9064 75.5255 95.8267 98.5832 96.2447C121.643 95.8232 121.639 60.903 98.5823 60.485Z" fill="white"/>
</mask>
<g mask="url(#mask0_385_1276)">
<g opacity="0.8">
<path d="M83.648 53.9257H73.958V123.7H83.648V53.9257Z" fill="url(#paint14_linear_385_1276)"/>
<path d="M96.6304 81.9883H86.9404V123.7H96.6304V81.9883Z" fill="url(#paint15_linear_385_1276)"/>
<path d="M109.612 66.6766H99.9224V123.7H109.612V66.6766Z" fill="url(#paint16_linear_385_1276)"/>
</g>
<g opacity="0.8">
<path d="M122.957 80.5997H113.267V123.7H122.957V80.5997Z" fill="url(#paint17_linear_385_1276)"/>
</g>
</g>
<path d="M90.2246 97.5639C91.8191 97.36 88.2366 96.9567 88.0957 96.3348C87.7226 95.9382 88.6542 95.9477 88.5019 95.5421C88.2613 95.4754 87.0681 95.8567 86.8781 95.9523L86.3411 96.4121L86.3565 96.4788L85.9644 96.8745L86.6911 98.0082C87.4715 98.0993 89.2839 97.7413 90.1672 97.9612C90.7487 97.8768 89.7881 97.6062 89.5635 97.5223C89.5992 97.5221 89.976 97.5195 90.2246 97.5639Z" fill="url(#paint18_linear_385_1276)"/>
<path opacity="0.5" d="M58.4395 80.2679C57.7038 83.5674 54.4689 85.8007 52.7107 88.5126C52.0462 89.475 52.9116 90.036 53.609 90.8659C47.1388 88.4882 58.8253 81.6622 57.4948 75.3662L58.3107 76.4097C58.4265 77.7679 58.5146 79.2975 58.4395 80.2679Z" fill="url(#paint19_linear_385_1276)"/>
<path d="M75.1578 62.4412C75.1578 62.4412 75.6984 63.8278 76.2 64.1819C76.2 64.1819 75.0805 65.0472 74.9261 65.0472C74.7717 65.0472 75.1578 62.4412 75.1578 62.4412Z" fill="url(#paint20_linear_385_1276)"/>
<path d="M74.5885 56.8698C74.7498 60.0454 77.1567 66.2825 71.8447 69.0557C68.9382 68.6184 66.4589 67.4696 66.1553 61.7986C66.0507 60.8358 64.8737 60.2599 65.5494 58.7559C66.2252 57.252 66.7586 58.3049 66.7586 58.3049C66.7586 58.3049 67.0053 57.119 67.2844 56.1318C67.5637 55.1446 74.5885 56.8698 74.5885 56.8698Z" fill="url(#paint21_linear_385_1276)"/>
<path d="M74.4535 158.733C74.4535 158.733 77.134 160.734 79.8244 159.916C79.8033 162.617 70.8786 163.075 68.6729 161.801C69.3361 157.902 71.1733 157.458 74.4535 158.733Z" fill="url(#paint22_linear_385_1276)"/>
<path d="M74.2371 156.548C74.2371 156.548 74.2185 157.962 74.2445 158.669C74.256 158.98 71.5369 159.229 70.3384 158.37L70.775 156.67L73.46 155.693L74.2371 156.548Z" fill="url(#paint23_linear_385_1276)"/>
<path d="M56.754 158.361C51.364 162.939 63.5588 164.08 60.1479 159.024L56.754 158.361Z" fill="url(#paint24_linear_385_1276)"/>
<path d="M56.7543 158.361C56.7543 158.361 58.1814 159.848 60.148 159.024C60.2433 158.268 60.4294 157.312 60.6863 156.206C59.9606 156.459 58.6966 156.618 57.0101 155.756C56.8136 157.329 56.7056 158.35 56.7543 158.361Z" fill="url(#paint25_linear_385_1276)"/>
<path d="M69.7671 99.6231C67.2921 110.484 66.0818 130.401 64.2622 140.286C62.7589 147.82 60.6862 156.206 60.6862 156.206C60.6862 156.206 57.8094 158.361 57.0104 155.755C57.4017 152.297 57.9347 134.221 56.7423 119.666C55.5509 105.11 60.4234 98.6311 60.4234 98.6311C60.4234 98.6311 72.0306 90.1743 69.7671 99.6231Z" fill="url(#paint26_linear_385_1276)"/>
<path d="M68.6073 65.1935C68.6073 65.1935 67.5485 71.217 70.0532 71.682C70.0532 71.682 66.9524 75.0479 64.0317 70.4607C64.0317 70.4607 64.6154 67.3174 64.0317 64.8536L68.6073 65.1935Z" fill="url(#paint27_linear_385_1276)"/>
<path d="M72.9082 73.5069C72.9298 73.568 73.6413 75.5613 74.276 77.2256C73.845 75.6917 73.3398 74.1471 72.9082 73.5069Z" fill="url(#paint28_linear_385_1276)"/>
<path opacity="0.3" d="M71.2162 84.7668C71.1906 84.7733 71.101 84.7979 70.9556 84.8338C71.0627 84.8141 71.1506 84.7923 71.2162 84.7668Z" fill="url(#paint29_linear_385_1276)"/>
<path opacity="0.5" d="M68.0366 109.834C67.4759 114.02 66.9505 118.678 66.4539 123.139C63.0742 117.56 65.014 106.834 65.014 106.834L68.0366 109.834Z" fill="url(#paint30_linear_385_1276)"/>
<path d="M69.2694 130.29C67.7418 138.666 70.4257 156.629 70.7757 156.669C72.901 157.734 74.2374 156.547 74.2374 156.547C74.7439 148.701 78.0332 107.007 73.8602 98.4107L68.6733 96.8744C67.4347 98.4886 65.8988 100.748 65.091 104.304C63.9564 110.338 68.3546 125.393 69.2694 130.29Z" fill="url(#paint31_linear_385_1276)"/>
<path d="M75.7329 81.6279C75.7826 83.2195 74.9252 84.4305 74.5428 85.8835C73.6629 89.5147 73.3986 95.7604 73.8222 98.372C72.6765 99.4384 65.1984 100.743 60.4244 98.6309C59.4349 94.9171 57.9066 87.465 57.5176 82.6943C57.4441 79.3694 56.5716 75.0033 58.5637 73.0476C59.8262 72.1584 62.4832 70.4287 64.0326 70.4605C64.0326 70.4605 64.825 71.1937 67.5218 71.2996C69.1088 71.2996 68.7763 70.6331 68.7109 70.4725C69.6394 72.0091 71.85 72.1958 72.898 73.5787C73.3798 74.6891 73.7724 75.85 74.1934 76.9975C74.7221 78.5803 75.8064 79.8203 75.7329 81.6279Z" fill="url(#paint32_linear_385_1276)"/>
<path d="M85.4544 81.8706C85.4704 81.8902 85.4843 81.9099 85.4983 81.9295C85.4247 81.9612 85.3819 81.9787 85.3745 81.9819C85.3958 81.9494 85.4209 81.9174 85.4544 81.8706Z" fill="url(#paint33_linear_385_1276)"/>
<path d="M93.27 71.4875C93.3234 71.5432 93.3853 71.5991 93.4526 71.6537C93.3843 71.5991 93.3234 71.5434 93.27 71.4875Z" fill="url(#paint34_linear_385_1276)"/>
<path d="M85.4983 81.9295C85.4247 81.9612 85.3819 81.9787 85.3745 81.9819C85.396 81.9494 85.4211 81.9174 85.4546 81.8706C85.4704 81.8902 85.4843 81.9099 85.4983 81.9295Z" fill="url(#paint35_linear_385_1276)"/>
<path d="M95.5859 72.2547C95.634 72.2383 95.68 72.2165 95.7225 72.1912C95.6789 72.2165 95.634 72.2372 95.5859 72.2547Z" fill="url(#paint36_linear_385_1276)"/>
<path d="M85.4544 81.8706C85.4704 81.8902 85.4843 81.9099 85.4983 81.9295C85.4247 81.9612 85.3819 81.9787 85.3745 81.9819C85.3958 81.9494 85.4209 81.9174 85.4544 81.8706Z" fill="url(#paint37_linear_385_1276)"/>
<path d="M93.27 71.4875C93.3234 71.5432 93.3853 71.5991 93.4526 71.6537C93.3843 71.5991 93.3234 71.5434 93.27 71.4875Z" fill="url(#paint38_linear_385_1276)"/>
<path opacity="0.5" d="M73.4775 98.547C72.6937 99.4248 64.8492 100.692 60.4249 98.6311C59.7684 96.196 58.5235 90.4583 58.0049 86.7164C59.6498 93.9425 62.3286 100.609 73.4775 98.547Z" fill="url(#paint39_linear_385_1276)"/>
<path d="M74.5425 85.8838C74.299 86.7227 74.1444 87.5874 74.0633 88.4602C72.7102 89.2961 72.4774 92.4515 72.6168 90.6389C72.769 88.66 74.489 85.9669 74.5425 85.8838Z" fill="url(#paint40_linear_385_1276)"/>
<path d="M75.104 91.4073C75.1054 91.399 75.1068 91.3918 75.1068 91.3835C75.1226 91.3835 75.1255 91.3893 75.104 91.4073Z" fill="url(#paint41_linear_385_1276)"/>
<path d="M86.6743 97.7245C86.6794 97.8028 86.7372 97.94 86.691 98.0078C84.1609 97.5913 81.8063 97.0976 79.5864 96.5905C77.4669 96.126 75.2155 96.3819 73.1214 95.7824C69.7651 94.5329 69.7044 90.1374 68.3775 87.2358C66.1809 81.6732 68.805 77.8552 71.9101 73.4231C73.1857 77.86 75.6769 85.8945 75.1066 91.3838C75.0734 91.3825 74.9719 91.415 74.9912 91.4008C75.0181 91.3799 74.9374 91.3943 74.963 91.3995C74.9874 91.4034 75.0554 91.4582 75.0861 91.4739C76.3158 90.2977 85.8586 94.7592 86.8778 95.9525C86.7139 96.5124 86.6358 97.1211 86.6743 97.7245Z" fill="url(#paint42_linear_385_1276)"/>
<path opacity="0.5" d="M80.2768 96.7385C77.3729 95.7783 73.3107 97.0566 71.1933 94.4202C69.3255 91.0292 68.2676 87.2761 67.541 83.3666C70.41 80.782 67.8402 91.2614 72.204 94.0396C75.1314 96.0265 77.3098 95.7032 80.2768 96.7385Z" fill="url(#paint43_linear_385_1276)"/>
<path d="M57.9514 96.2267C57.9514 96.2267 58.3625 96.6434 58.9855 96.9942C59.6085 97.3451 58.614 97.3367 58.2176 97.2191C57.8212 97.1015 55.8749 98.151 55.127 97.5764L57.9514 96.2267Z" fill="url(#paint44_linear_385_1276)"/>
<path d="M71.856 71.1481C75.8247 63.3138 78.0664 50.4643 65.5278 51.2245C61.3683 51.5924 59.1842 55.686 56.4898 58.3809C51.4613 63.929 28.018 62.5096 37.0071 71.751C43.7758 78.0682 38.676 77.267 35.8858 82.3678C34.4712 84.9537 37.4901 86.1478 39.8743 86.4359C42.1353 86.7091 44.6398 86.5956 46.7856 85.9088C48.8484 85.2485 50.3226 83.7322 52.0849 82.641C58.056 78.6972 66.241 87.8057 71.3783 81.4134C73.655 78.1882 71.156 74.4439 71.856 71.1481Z" fill="url(#paint45_linear_385_1276)"/>
<defs>
<linearGradient id="paint0_linear_385_1276" x1="129.351" y1="109.263" x2="95.2499" y2="143.037" gradientUnits="userSpaceOnUse">
<stop stop-color="#007F7F"/>
<stop offset="1" stop-color="#057F80"/>
</linearGradient>
<linearGradient id="paint1_linear_385_1276" x1="132.828" y1="132.629" x2="92.463" y2="172.607" gradientUnits="userSpaceOnUse">
<stop stop-color="#013031"/>
<stop offset="1" stop-color="#00CBCC"/>
</linearGradient>
<linearGradient id="paint2_linear_385_1276" x1="189.008" y1="3.84375" x2="47.8789" y2="143.619" gradientUnits="userSpaceOnUse">
<stop stop-color="#00CBCC"/>
<stop offset="1" stop-color="#033233"/>
</linearGradient>
<linearGradient id="paint3_linear_385_1276" x1="63.0975" y1="106.701" x2="63.4808" y2="73.6006" gradientUnits="userSpaceOnUse">
<stop stop-color="#544B8C"/>
<stop offset="1" stop-color="#9A7DD8"/>
</linearGradient>
<linearGradient id="paint4_linear_385_1276" x1="73.8452" y1="106.825" x2="74.2285" y2="73.725" gradientUnits="userSpaceOnUse">
<stop stop-color="#028586"/>
<stop offset="1" stop-color="#028586"/>
</linearGradient>
<linearGradient id="paint5_linear_385_1276" x1="84.0713" y1="106.943" x2="84.4546" y2="73.8434" gradientUnits="userSpaceOnUse">
<stop stop-color="#028586"/>
<stop offset="1" stop-color="#00CBCC"/>
</linearGradient>
<linearGradient id="paint6_linear_385_1276" x1="94.4203" y1="107.063" x2="94.8036" y2="73.9632" gradientUnits="userSpaceOnUse">
<stop stop-color="#028586"/>
<stop offset="1" stop-color="#9A7DD8"/>
</linearGradient>
<linearGradient id="paint7_linear_385_1276" x1="104.579" y1="107.181" x2="104.963" y2="74.081" gradientUnits="userSpaceOnUse">
<stop stop-color="#028586"/>
<stop offset="1" stop-color="#9A7DD8"/>
</linearGradient>
<linearGradient id="paint8_linear_385_1276" x1="115.159" y1="106.701" x2="115.542" y2="73.6006" gradientUnits="userSpaceOnUse">
<stop stop-color="#028586"/>
<stop offset="1" stop-color="#9A7DD8"/>
</linearGradient>
<linearGradient id="paint9_linear_385_1276" x1="125.906" y1="106.825" x2="126.289" y2="73.725" gradientUnits="userSpaceOnUse">
<stop stop-color="#028586"/>
<stop offset="1" stop-color="#00CBCC"/>
</linearGradient>
<linearGradient id="paint10_linear_385_1276" x1="135.608" y1="115.757" x2="137.62" y2="70.6232" gradientUnits="userSpaceOnUse">
<stop stop-color="#028586"/>
<stop offset="1" stop-color="#00CBCC"/>
</linearGradient>
<linearGradient id="paint11_linear_385_1276" x1="146.482" y1="107.063" x2="146.865" y2="73.9632" gradientUnits="userSpaceOnUse">
<stop stop-color="#028586"/>
<stop offset="1" stop-color="#00CBCC"/>
</linearGradient>
<linearGradient id="paint12_linear_385_1276" x1="156.64" y1="107.181" x2="157.024" y2="74.081" gradientUnits="userSpaceOnUse">
<stop stop-color="#028586" stop-opacity="0.345098"/>
<stop offset="1" stop-color="#00CBCC"/>
</linearGradient>
<linearGradient id="paint13_linear_385_1276" x1="53.8971" y1="109.248" x2="52.5557" y2="80.0991" gradientUnits="userSpaceOnUse">
<stop stop-color="#E75B00"/>
<stop offset="1" stop-color="#FFA345"/>
</linearGradient>
<linearGradient id="paint14_linear_385_1276" x1="78.5265" y1="113.595" x2="79.0131" y2="71.5803" gradientUnits="userSpaceOnUse">
<stop stop-color="#544B8C"/>
<stop offset="1" stop-color="#00CBCC"/>
</linearGradient>
<linearGradient id="paint15_linear_385_1276" x1="91.6639" y1="113.748" x2="92.1504" y2="71.7324" gradientUnits="userSpaceOnUse">
<stop stop-color="#544B8C"/>
<stop offset="1" stop-color="#00CBCC"/>
</linearGradient>
<linearGradient id="paint16_linear_385_1276" x1="104.559" y1="113.897" x2="105.045" y2="71.8817" gradientUnits="userSpaceOnUse">
<stop stop-color="#544B8C"/>
<stop offset="1" stop-color="#00CBCC"/>
</linearGradient>
<linearGradient id="paint17_linear_385_1276" x1="117.987" y1="113.287" x2="118.474" y2="71.272" gradientUnits="userSpaceOnUse">
<stop stop-color="#544B8C"/>
<stop offset="1" stop-color="#00CBCC"/>
</linearGradient>
<linearGradient id="paint18_linear_385_1276" x1="85.454" y1="99.0726" x2="89.9864" y2="96.1073" gradientUnits="userSpaceOnUse">
<stop stop-color="#F0877E"/>
<stop offset="1" stop-color="#FABEB2"/>
</linearGradient>
<linearGradient id="paint19_linear_385_1276" x1="56.1762" y1="109.143" x2="54.8348" y2="79.9943" gradientUnits="userSpaceOnUse">
<stop stop-color="#E75B00"/>
<stop offset="1" stop-color="#FFA345"/>
</linearGradient>
<linearGradient id="paint20_linear_385_1276" x1="75.6529" y1="62.2484" x2="75.5327" y2="64.6475" gradientUnits="userSpaceOnUse">
<stop stop-color="#F0877E"/>
<stop offset="1" stop-color="#FABEB2"/>
</linearGradient>
<linearGradient id="paint21_linear_385_1276" x1="69.9064" y1="50.7637" x2="70.6358" y2="69.0182" gradientUnits="userSpaceOnUse">
<stop stop-color="#F0877E"/>
<stop offset="1" stop-color="#FABEB2"/>
</linearGradient>
<linearGradient id="paint22_linear_385_1276" x1="74.1532" y1="164.942" x2="74.3432" y2="157.11" gradientUnits="userSpaceOnUse">
<stop stop-color="#00C3E7"/>
<stop offset="1" stop-color="#0063B9"/>
</linearGradient>
<linearGradient id="paint23_linear_385_1276" x1="73.1074" y1="154.973" x2="72.1088" y2="159.159" gradientUnits="userSpaceOnUse">
<stop stop-color="#F0877E"/>
<stop offset="1" stop-color="#FABEB2"/>
</linearGradient>
<linearGradient id="paint24_linear_385_1276" x1="57.9641" y1="164.662" x2="58.1572" y2="156.705" gradientUnits="userSpaceOnUse">
<stop stop-color="#00C3E7"/>
<stop offset="1" stop-color="#0063B9"/>
</linearGradient>
<linearGradient id="paint25_linear_385_1276" x1="58.8081" y1="156.274" x2="58.2937" y2="158.687" gradientUnits="userSpaceOnUse">
<stop stop-color="#F0877E"/>
<stop offset="1" stop-color="#FABEB2"/>
</linearGradient>
<linearGradient id="paint26_linear_385_1276" x1="65.88" y1="157.6" x2="61.4733" y2="101.38" gradientUnits="userSpaceOnUse">
<stop stop-color="#00C3E7"/>
<stop offset="1" stop-color="#263238"/>
</linearGradient>
<linearGradient id="paint27_linear_385_1276" x1="67.0424" y1="65.9799" x2="67.0424" y2="73.8466" gradientUnits="userSpaceOnUse">
<stop stop-color="#F0877E"/>
<stop offset="1" stop-color="#FABEB2"/>
</linearGradient>
<linearGradient id="paint28_linear_385_1276" x1="73.1922" y1="77.924" x2="73.7402" y2="74.5479" gradientUnits="userSpaceOnUse">
<stop stop-color="#E75B00"/>
<stop offset="1" stop-color="#FFA345"/>
</linearGradient>
<linearGradient id="paint29_linear_385_1276" x1="71.0734" y1="84.8802" x2="71.0905" y2="84.7748" gradientUnits="userSpaceOnUse">
<stop stop-color="#E75B00"/>
<stop offset="1" stop-color="#FFA345"/>
</linearGradient>
<linearGradient id="paint30_linear_385_1276" x1="69.6411" y1="157.306" x2="65.2344" y2="101.086" gradientUnits="userSpaceOnUse">
<stop stop-color="#00C3E7"/>
<stop offset="1" stop-color="#0063B9"/>
</linearGradient>
<linearGradient id="paint31_linear_385_1276" x1="73.9822" y1="157.007" x2="69.5755" y2="100.787" gradientUnits="userSpaceOnUse">
<stop stop-color="#00C3E7"/>
<stop offset="1" stop-color="#263238"/>
</linearGradient>
<linearGradient id="paint32_linear_385_1276" x1="67.7761" y1="108.513" x2="66.4381" y2="79.4374" gradientUnits="userSpaceOnUse">
<stop stop-color="#E75B00"/>
<stop offset="1" stop-color="#FFA345"/>
</linearGradient>
<linearGradient id="paint33_linear_385_1276" x1="85.295" y1="82.016" x2="85.5358" y2="81.8691" gradientUnits="userSpaceOnUse">
<stop stop-color="#F0877E"/>
<stop offset="1" stop-color="#FABEB2"/>
</linearGradient>
<linearGradient id="paint34_linear_385_1276" x1="93.2945" y1="71.6134" x2="93.42" y2="71.5368" gradientUnits="userSpaceOnUse">
<stop stop-color="#F0877E"/>
<stop offset="1" stop-color="#FABEB2"/>
</linearGradient>
<linearGradient id="paint35_linear_385_1276" x1="85.4473" y1="82.0228" x2="85.4239" y2="81.8863" gradientUnits="userSpaceOnUse">
<stop stop-color="#E75B00"/>
<stop offset="1" stop-color="#FFA345"/>
</linearGradient>
<linearGradient id="paint36_linear_385_1276" x1="95.6573" y1="72.24" x2="95.649" y2="72.1952" gradientUnits="userSpaceOnUse">
<stop stop-color="#F0877E"/>
<stop offset="1" stop-color="#FABEB2"/>
</linearGradient>
<linearGradient id="paint37_linear_385_1276" x1="85.3666" y1="82.0795" x2="85.514" y2="81.8299" gradientUnits="userSpaceOnUse">
<stop stop-color="#F0877E"/>
<stop offset="1" stop-color="#FABEB2"/>
</linearGradient>
<linearGradient id="paint38_linear_385_1276" x1="93.3331" y1="71.6207" x2="93.3872" y2="71.529" gradientUnits="userSpaceOnUse">
<stop stop-color="#F0877E"/>
<stop offset="1" stop-color="#FABEB2"/>
</linearGradient>
<linearGradient id="paint39_linear_385_1276" x1="66.4455" y1="108.522" x2="65.113" y2="79.5667" gradientUnits="userSpaceOnUse">
<stop stop-color="#E75B00"/>
<stop offset="1" stop-color="#FFA345"/>
</linearGradient>
<linearGradient id="paint40_linear_385_1276" x1="74.4386" y1="108.302" x2="73.0973" y2="79.1538" gradientUnits="userSpaceOnUse">
<stop stop-color="#E75B00"/>
<stop offset="1" stop-color="#FFA345"/>
</linearGradient>
<linearGradient id="paint41_linear_385_1276" x1="75.9426" y1="109.446" x2="74.5583" y2="78.2017" gradientUnits="userSpaceOnUse">
<stop stop-color="#E75B00"/>
<stop offset="1" stop-color="#FFA345"/>
</linearGradient>
<linearGradient id="paint42_linear_385_1276" x1="78.0388" y1="108.137" x2="76.6974" y2="78.9882" gradientUnits="userSpaceOnUse">
<stop stop-color="#E75B00"/>
<stop offset="1" stop-color="#FFA345"/>
</linearGradient>
<linearGradient id="paint43_linear_385_1276" x1="74.7148" y1="108.237" x2="73.3797" y2="79.224" gradientUnits="userSpaceOnUse">
<stop stop-color="#E75B00"/>
<stop offset="1" stop-color="#FFA345"/>
</linearGradient>
<linearGradient id="paint44_linear_385_1276" x1="57.0234" y1="98.0713" x2="57.3668" y2="96.3532" gradientUnits="userSpaceOnUse">
<stop stop-color="#F0877E"/>
<stop offset="1" stop-color="#FABEB2"/>
</linearGradient>
<linearGradient id="paint45_linear_385_1276" x1="60.4473" y1="42.5418" x2="52.6503" y2="76.6645" gradientUnits="userSpaceOnUse">
<stop stop-color="#C2728D"/>
<stop offset="1" stop-color="#11486D"/>
</linearGradient>
</defs>
</svg>
