<svg width="213" height="178" viewBox="0 0 213 178" fill="none" xmlns="http://www.w3.org/2000/svg">
<path d="M113.389 51.7246H99.6104V66.9897H113.389V51.7246Z" fill="#028586"/>
<path d="M116.624 47.0989H96.377V51.7246H116.624V47.0989Z" fill="#19C3C4"/>
<path d="M144.631 64.4107L133.183 57.3141L124.001 69.9964L135.448 77.093L144.631 64.4107Z" fill="#028586"/>
<path d="M150.1 62.2336L133.279 51.8058L130.497 55.6489L147.318 66.0767L150.1 62.2336Z" fill="#19C3C4"/>
<path d="M77.5407 77.0926L88.9883 69.996L79.806 57.3138L68.3584 64.4104L77.5407 77.0926Z" fill="#028586"/>
<path d="M65.6721 66.0757L82.4932 55.6479L79.7107 51.8048L62.8896 62.2326L65.6721 66.0757Z" fill="#19C3C4"/>
<path d="M145.072 142.307C166.376 122.595 166.376 90.6342 145.072 70.9216C123.768 51.2091 89.2286 51.2091 67.925 70.9216C46.6215 90.6342 46.6215 122.595 67.925 142.307C89.2286 162.02 123.768 162.02 145.072 142.307Z" fill="#19C3C4"/>
<path d="M106.5 150.26C132.55 150.26 153.668 130.719 153.668 106.615C153.668 82.51 132.55 62.9694 106.5 62.9694C80.4502 62.9694 59.3325 82.51 59.3325 106.615C59.3325 130.719 80.4502 150.26 106.5 150.26Z" fill="white"/>
<path d="M106.5 70.3727C107.742 70.3727 108.75 69.4406 108.75 68.2909C108.75 67.1412 107.742 66.2091 106.5 66.2091C105.257 66.2091 104.25 67.1412 104.25 68.2909C104.25 69.4406 105.257 70.3727 106.5 70.3727Z" fill="#02ADAF"/>
<path d="M108.75 144.938C108.75 146.088 107.742 147.02 106.5 147.02C105.257 147.02 104.25 146.088 104.25 144.938C104.25 143.789 105.257 142.856 106.5 142.856C107.742 142.857 108.75 143.789 108.75 144.938Z" fill="#02ADAF"/>
<path d="M147.917 108.696C149.159 108.696 150.167 107.764 150.167 106.615C150.167 105.465 149.159 104.533 147.917 104.533C146.674 104.533 145.667 105.465 145.667 106.615C145.667 107.764 146.674 108.696 147.917 108.696Z" fill="#02ADAF"/>
<path d="M65.0833 108.696C66.3258 108.696 67.3331 107.764 67.3331 106.615C67.3331 105.465 66.3258 104.533 65.0833 104.533C63.8408 104.533 62.8335 105.465 62.8335 106.615C62.8335 107.764 63.8408 108.696 65.0833 108.696Z" fill="#02ADAF"/>
<path d="M137.376 78.0438L132.693 82.3776" stroke="#028586" stroke-width="2" stroke-miterlimit="10" stroke-linecap="round"/>
<path d="M80.3071 130.852L75.6235 135.185" stroke="#028586" stroke-width="2" stroke-miterlimit="10" stroke-linecap="round"/>
<path d="M75.6235 78.0438L80.3071 82.3776" stroke="#028586" stroke-width="2" stroke-miterlimit="10" stroke-linecap="round"/>
<path d="M132.693 130.852L137.376 135.185" stroke="#028586" stroke-width="2" stroke-miterlimit="10" stroke-linecap="round"/>
<path d="M104.014 104.233L128.646 87.1279L108.945 109.031C107.567 110.564 105.052 110.641 103.566 109.196C102.081 107.751 102.291 105.43 104.014 104.233Z" fill="#028586"/>
<path d="M79.5152 38.0581H11.2994C10.4573 38.0581 9.77441 37.4262 9.77441 36.647V36.3819C9.77441 35.6026 10.4573 34.9708 11.2994 34.9708H79.5152C80.3573 34.9708 81.0402 35.6026 81.0402 36.3819V36.647C81.0402 37.4262 80.3573 38.0581 79.5152 38.0581Z" fill="#028586"/>
<path d="M79.5152 157.092H11.2994C10.4573 157.092 9.77441 156.46 9.77441 155.681V155.416C9.77441 154.637 10.4573 154.005 11.2994 154.005H79.5152C80.3573 154.005 81.0402 154.637 81.0402 155.416V155.681C81.0402 156.46 80.3573 157.092 79.5152 157.092Z" fill="#028586"/>
<path d="M68.5246 118.467C65.7122 114.257 62.0458 111.391 57.9944 108.282C54.9995 105.984 47.6136 100.383 47.8172 96.0313C47.6136 91.6797 54.9995 86.079 57.9944 83.7809C62.0463 80.6717 65.7122 77.8052 68.5246 73.596C71.2334 69.5414 73.0385 65.0215 74.3002 60.4154C74.673 59.0553 78.0918 38.0576 77.1718 38.0576C77.1708 38.0576 45.4077 38.0576 45.4077 38.0576C45.4077 38.0576 13.6445 38.0576 13.6435 38.0576C12.723 38.0576 16.1423 59.0553 16.5151 60.4154C17.7773 65.0215 19.5819 69.5414 22.2907 73.596C25.1031 77.8052 28.7695 80.6717 32.8209 83.7809C35.8158 86.079 43.2017 91.6797 42.9981 96.0313C43.2017 100.383 35.8158 105.984 32.8209 108.282C28.769 111.39 25.1031 114.257 22.2907 118.467C19.5819 122.521 17.7768 127.041 16.5151 131.647C16.1423 133.007 12.7235 154.005 13.6435 154.005C13.6445 154.005 45.4077 154.005 45.4077 154.005C45.4077 154.005 77.1708 154.005 77.1718 154.005C78.0923 154.005 74.673 133.007 74.3002 131.647C73.038 127.041 71.2334 122.521 68.5246 118.467Z" fill="#00CBCC" fill-opacity="0.27"/>
<path d="M57.2228 81.8474C61.0262 78.87 64.4672 76.1244 67.1075 72.0931C69.6507 68.2101 71.3444 63.8814 72.5292 59.4701C72.6086 59.1735 72.8368 57.8997 73.1312 56.1117C70.5915 56.0173 68.0128 56.2376 65.4972 56.5844C60.7688 57.2363 56.0868 58.3048 51.3086 58.4426C44.4999 58.6388 37.8126 56.9407 31.2481 55.2572C26.4896 54.0368 21.7316 52.8163 16.9731 51.5964C17.5722 55.5496 18.1501 58.9591 18.2876 59.4701C19.4724 63.8814 21.1661 68.2101 23.7093 72.0931C26.3491 76.1244 29.7906 78.8696 33.5941 81.8474C36.4055 84.0483 44.5971 89.4122 44.4058 93.5795V126.373C24.5199 127.247 19.3709 154.005 19.3709 154.005H45.4086H71.4464C71.4464 154.005 66.2974 127.248 46.4115 126.373V93.5799C46.2197 89.4122 54.4113 84.0483 57.2228 81.8474Z" fill="#00CBCC"/>
<path d="M24.2102 131.647C25.4724 127.041 27.277 122.521 29.9859 118.467C32.7983 114.257 36.4646 111.391 40.5161 108.282C42.6456 106.648 46.9923 103.344 49.255 100.007C48.3354 98.651 47.758 97.2891 47.8167 96.0313C47.7576 94.7739 48.3349 93.4116 49.255 92.0552C46.9923 88.7183 42.6456 85.4147 40.5161 83.781C36.4641 80.6717 32.7983 77.8052 29.9859 73.596C27.277 69.5414 25.4719 65.0215 24.2102 60.4154C23.8375 59.0554 20.4186 38.0581 21.3387 38.0581C16.9066 38.0581 13.643 38.0581 13.643 38.0581C12.7225 38.0581 16.1419 59.0558 16.5146 60.4154C17.7768 65.0215 19.5814 69.5414 22.2903 73.596C25.1026 77.8052 28.769 80.6717 32.8204 83.781C35.8153 86.079 43.2012 91.6797 42.9976 96.0313C43.2012 100.383 35.8153 105.984 32.8204 108.282C28.7685 111.39 25.1026 114.257 22.2903 118.467C19.5814 122.521 17.7763 127.041 16.5146 131.647C16.1419 133.007 12.723 154.005 13.643 154.005C13.643 154.005 16.9066 154.005 21.3387 154.005C20.4181 154.005 23.8375 133.007 24.2102 131.647Z" fill="#00CBCC" fill-opacity="0.27"/>
<path opacity="0.5" d="M68.5243 118.467C65.7119 114.257 62.0455 111.391 57.9941 108.282C54.9993 105.984 47.6133 100.383 47.8169 96.0313C47.6133 91.6797 54.9988 86.079 57.9941 83.781C62.046 80.6717 65.7119 77.8052 68.5243 73.596C71.2331 69.5414 73.0382 65.0215 74.2999 60.4154C74.6727 59.0554 78.0915 38.0581 77.1715 38.0581C77.1715 38.0581 76.7193 38.0581 75.9305 38.0581C76.851 38.0581 73.4316 59.0558 73.0589 60.4154C71.7967 65.0215 69.9921 69.5414 67.2833 73.596C64.4709 77.8052 60.8045 80.6717 56.7531 83.781C53.7582 86.079 46.3723 91.6797 46.5759 96.0313C46.3723 100.383 53.7577 105.984 56.7531 108.282C60.805 111.39 64.4709 114.257 67.2833 118.467C69.9921 122.521 71.7972 127.041 73.0589 131.647C73.4316 133.007 76.8505 154.005 75.9305 154.005C76.7193 154.005 77.1715 154.005 77.1715 154.005C78.092 154.005 74.6727 133.007 74.2999 131.647C73.0377 127.041 71.2331 122.521 68.5243 118.467Z" fill="#00CBCC" fill-opacity="0.27"/>
<path d="M213 157.092H0V159.622H213V157.092Z" fill="#028586"/>
<path d="M181.445 129.68H159.279C158.365 129.68 157.624 128.995 157.624 128.149V127.645C157.624 126.799 158.365 126.114 159.279 126.114H181.445C182.359 126.114 183.1 126.799 183.1 127.645V128.149C183.1 128.995 182.359 129.68 181.445 129.68Z" fill="#23263D"/>
<path d="M161.492 129.68L156.97 157.092H158.277L164.394 129.68H161.492Z" fill="#424874"/>
<path d="M179.232 129.68L183.754 157.092H182.446L176.33 129.68H179.232Z" fill="#424874"/>
<path d="M158.605 81.1271C158.605 81.8895 157.937 82.5076 157.113 82.5076C156.289 82.5076 155.621 81.8895 155.621 81.1271C155.621 80.3647 156.289 79.7465 157.113 79.7465C157.937 79.7465 158.605 80.3647 158.605 81.1271Z" fill="#784940"/>
<path d="M169.138 82.6253L160.125 84.6929L164.754 89.3465L169.138 82.6253Z" fill="#616885"/>
<path d="M167.554 79.2442L168.538 83.5456L180.836 87.0089C182.835 87.5718 184.345 89.0989 184.774 90.9918L189.507 111.146C189.908 112.915 188.448 114.578 186.495 114.578H146.535L151.044 91.557C151.424 89.8735 152.672 88.4693 154.384 87.7995L164.619 83.7956L165.294 79.2442H167.554Z" fill="#784940"/>
<path opacity="0.5" d="M163.81 85.897C166.069 85.5019 167.737 83.875 168.163 81.91L167.554 79.2447H165.294L164.619 83.7961L160.372 85.4577C161.401 85.9281 162.595 86.1092 163.81 85.897Z" fill="#784940"/>
<path d="M148.938 102.302H154.15L155.699 114.578H146.533L148.938 102.302Z" fill="#59362F"/>
<path opacity="0.4" d="M153.439 102.302L152.262 114.578H155.699L154.151 102.302H153.439Z" fill="#59362F"/>
<path d="M159.717 85.7136L164.754 89.3461L169.699 83.8727L181.257 87.1274C183.027 87.6261 184.428 88.8853 185.018 90.5081L189.213 102.052H178.537L180.588 109.826L162.209 110.576V114.577H155.7L154.151 102.301H147.085L149.764 91.9247C150.182 90.3033 151.41 88.9624 153.069 88.3132L159.717 85.7136Z" fill="#99DDDD"/>
<path d="M178.071 100.147V109.929L180.588 109.826L178.071 100.147Z" fill="#A6B1E1"/>
<path d="M154.151 102.302H147.085L147.521 100.614H153.938L154.151 102.302Z" fill="#F4EEFF"/>
<path d="M164.754 89.3466C165.061 91.0953 165.315 92.85 165.56 94.6051C165.806 96.3602 166.008 98.1195 166.235 99.8764C166.422 101.637 166.63 103.396 166.797 105.159L167.037 107.804C167.099 108.688 167.179 109.57 167.226 110.455C167.067 109.581 166.941 108.704 166.797 107.829L166.419 105.197C166.174 103.442 165.97 101.683 165.744 99.9253C165.559 98.1642 165.349 96.4054 165.183 94.6425C165.018 92.8796 164.859 91.1158 164.754 89.3466Z" fill="#22242E"/>
<path d="M162.209 110.576L155.115 109.308L146.95 112.734H162.209V110.576Z" fill="#784940"/>
<path d="M147.724 109.308L131.5 110.92V114.578H146.534L147.724 109.308Z" fill="white" stroke="black" stroke-miterlimit="10"/>
<path d="M151.665 112.734H124.368L119.75 95.456H147.047L151.665 112.734Z" fill="#8F8F8F"/>
<path d="M166.732 112.734H124.368V114.578H166.732V112.734Z" fill="#968FB0"/>
<path d="M155.115 109.308C154.884 108.347 154.707 107.379 154.539 106.411C154.365 105.442 154.23 104.47 154.094 103.498C153.97 102.524 153.847 101.551 153.762 100.573L153.636 99.1054C153.612 98.6145 153.571 98.1249 153.562 97.6322C153.683 98.1126 153.771 98.5962 153.877 99.078L154.139 100.53C154.312 101.498 154.449 102.47 154.583 103.442C154.706 104.416 154.83 105.39 154.914 106.368C155.004 107.345 155.086 108.324 155.115 109.308Z" fill="#22242E"/>
<path d="M164.753 89.3465L162.794 91.5971L159.716 85.7135L160.125 84.6929L164.753 89.3465Z" fill="#F4EEFF"/>
<path d="M164.754 89.3465L167.625 91.5971L169.699 83.8727L169.138 82.6253L164.754 89.3465Z" fill="#F4EEFF"/>
<path d="M178.071 100.147H188.521L189.213 102.052H178.538L178.071 100.147Z" fill="#F4EEFF"/>
<path d="M171.885 116.7L173.077 121.898C173.575 124.069 171.786 126.113 169.388 126.113H144.285L147.123 150.965H140.109L131.553 122.651C130.65 119.661 133.078 116.7 136.433 116.7L171.885 116.7Z" fill="#23263D"/>
<path d="M183.642 116.7L184.834 121.898C185.332 124.069 183.543 126.113 181.145 126.113H156.042L158.88 150.965H151.867L143.31 122.651C142.407 119.661 144.835 116.7 148.19 116.7L183.642 116.7Z" fill="#424874"/>
<path d="M140.11 150.965L127.964 157.092H148.808L147.124 150.965H140.11Z" fill="#7E86AB"/>
<path d="M151.867 150.965L139.72 157.092H160.564L158.88 150.965H151.867Z" fill="#A6B1E1"/>
<path d="M169.424 78.2816C169.424 79.0467 168.758 79.6635 167.931 79.6635C167.822 79.6635 167.712 79.653 167.615 79.6316C167.597 79.5043 167.574 79.3711 167.552 79.2438L167.121 77.1232C167.356 76.9799 167.632 76.9001 167.93 76.9001C168.758 76.9001 169.424 77.5215 169.424 78.2816Z" fill="#784940"/>
<path d="M163.187 85.1684C160.213 85.6885 157.347 83.8791 156.785 81.1275L156.007 77.3207C155.445 74.5692 157.401 71.9166 160.374 71.397C163.348 70.8769 166.215 72.6863 166.776 75.4378L167.554 79.2447C168.116 81.9962 166.161 84.6483 163.187 85.1684Z" fill="#784940"/>
<path d="M167.432 78.6447L165.99 76.4329L165.699 74.5026C165.699 74.5026 162.997 76.0656 159.01 75.0651C159.01 75.0651 158.139 76.7627 156.007 77.3207L156.559 78.282L156.785 81.1275C156.785 81.1275 154.921 78.3787 154.634 76.6281C154.348 74.8776 155.023 72.2515 156.51 71.4389C156.51 71.4389 159.576 67.3753 164.631 70.0009C169.686 72.6265 167.432 78.6447 167.432 78.6447Z" fill="#212121"/>
<path d="M180.588 109.826C180.202 108.724 179.868 107.61 179.542 106.495C179.211 105.38 178.918 104.257 178.624 103.134C178.342 102.009 178.061 100.884 177.817 99.7501L177.453 98.0493C177.349 97.4785 177.229 96.9114 177.14 96.3375C177.338 96.8877 177.505 97.4443 177.688 97.9977L178.186 99.6693C178.517 100.784 178.811 101.907 179.104 103.03C179.386 104.155 179.667 105.281 179.91 106.414C180.159 107.547 180.4 108.681 180.588 109.826Z" fill="#22242E"/>
<path d="M203.697 114.578H104.604V116.7H203.697V114.578Z" fill="#028586"/>
<path d="M112.111 116.7L103.881 157.092H106.413L115.886 116.7H112.111Z" fill="#424874"/>
<path d="M196.191 116.7L204.421 157.092H201.889L192.417 116.7H196.191Z" fill="#424874"/>
<path d="M197.454 21.0935H165.354V58.7729H197.454V21.0935Z" fill="#62E0E0"/>
<path d="M174.84 26.4069H169.923V30.956H174.84V26.4069Z" fill="#00CBCC"/>
<path d="M170.184 26.9388L172.409 28.8604L175.545 25.2274L172.409 30.2264L169.218 28.3376L170.184 26.9388Z" fill="white"/>
<path d="M193.59 26.4069H177.634V27.2121H193.59V26.4069Z" fill="#00CBCC"/>
<path d="M188.544 28.6812H177.634V29.4864H188.544V28.6812Z" fill="#00CBCC"/>
<path d="M174.84 34.5182H169.923V39.0673H174.84V34.5182Z" fill="#00CBCC"/>
<path d="M170.184 35.0502L172.409 36.9723L175.545 33.3389L172.409 38.3378L169.218 36.4495L170.184 35.0502Z" fill="white"/>
<path d="M193.59 34.5182H177.634V35.3234H193.59V34.5182Z" fill="#00CBCC"/>
<path d="M188.544 36.7925H177.634V37.5977H188.544V36.7925Z" fill="#00CBCC"/>
<path d="M174.84 42.63H169.923V47.1791H174.84V42.63Z" fill="#00CBCC"/>
<path d="M170.184 43.1616L172.409 45.0837L175.545 41.4507L172.409 46.4492L169.218 44.5608L170.184 43.1616Z" fill="white"/>
<path d="M193.59 42.63H177.634V43.4353H193.59V42.63Z" fill="#00CBCC"/>
<path d="M188.544 44.9044H177.634V45.7096H188.544V44.9044Z" fill="#00CBCC"/>
<path d="M119.971 19.645H113.231V36.5147H119.971V19.645Z" fill="#3AD8D8"/>
<path d="M129.838 15.6192H123.098V36.5143H129.838V15.6192Z" fill="#3AD8D8"/>
<path d="M139.704 24.4569H132.965V36.5147H139.704V24.4569Z" fill="#3AD8D8"/>
<path d="M149.572 12.399H142.832V36.5147H149.572V12.399Z" fill="#3AD8D8"/>
<path d="M110.359 9.17847V36.5146H152.642" stroke="#028586" stroke-miterlimit="10"/>
<path d="M93.0719 12.399H66.3887V25.1887H93.0719V12.399Z" fill="#00CBCC"/>
<path d="M66.3887 25.1887L79.7303 16.5052L93.0719 25.1887H66.3887Z" fill="#028586"/>
<path d="M66.3887 12.399L79.7303 20.6113L93.0719 12.399H66.3887Z" fill="#028586"/>
<path d="M66.3887 12.399L79.7303 4.02576L93.0719 12.399H66.3887Z" fill="#00CBCC"/>
<path d="M79.7301 0H69.8369V14.5215L79.7301 20.6113L89.6232 14.5215V0H79.7301Z" fill="#4CB1B1"/>
<path d="M74.2256 3.38159H87.2063" stroke="white" stroke-miterlimit="10"/>
<path d="M72.2539 6.01184H87.2068" stroke="white" stroke-miterlimit="10"/>
<path d="M72.2539 8.64154H87.2068" stroke="white" stroke-miterlimit="10"/>
<path d="M72.2539 11.2717H87.2068" stroke="white" stroke-miterlimit="10"/>
<path d="M72.2539 13.9019H82.2762" stroke="white" stroke-miterlimit="10"/>
<path d="M21.1816 16.5577C21.1816 12.2823 27.2546 8.81628 34.7461 8.81628C42.2376 8.81628 48.3105 12.2823 48.3105 16.5577C48.3105 20.833 42.2376 24.299 34.7461 24.299C32.9104 24.299 31.1606 24.0896 29.5636 23.7128L26.3489 26.6696L27.3286 23.038C23.6282 21.6556 21.1816 19.27 21.1816 16.5577Z" fill="#028586"/>
<path d="M55.6934 14.3559C55.6934 10.0805 49.6204 6.6145 42.1289 6.6145C34.6374 6.6145 28.5645 10.0805 28.5645 14.3559C28.5645 18.6312 34.6374 22.0973 42.1289 22.0973C43.9646 22.0973 45.7144 21.8878 47.3114 21.511L50.5261 24.4683L49.5464 20.8367C53.2468 19.4538 55.6934 17.0686 55.6934 14.3559Z" fill="#00CBCC"/>
<path d="M37.9146 16.334C37.9146 16.8373 37.4738 17.2447 36.9304 17.2447C36.3866 17.2447 35.9463 16.8368 35.9463 16.334C35.9463 15.8308 36.3871 15.4234 36.9304 15.4234C37.4738 15.4229 37.9146 15.8308 37.9146 16.334Z" fill="white"/>
<path d="M43.1128 16.334C43.1128 16.8373 42.672 17.2447 42.1287 17.2447C41.5853 17.2447 41.1445 16.8368 41.1445 16.334C41.1445 15.8308 41.5853 15.4234 42.1287 15.4234C42.672 15.4234 43.1128 15.8308 43.1128 16.334Z" fill="white"/>
<path d="M48.3111 16.334C48.3111 16.8373 47.8703 17.2447 47.3269 17.2447C46.7836 17.2447 46.3428 16.8368 46.3428 16.334C46.3428 15.8308 46.7836 15.4234 47.3269 15.4234C47.8703 15.4229 48.3111 15.8308 48.3111 16.334Z" fill="white"/>
<path d="M69.8369 49.8043C69.8369 49.8043 68.941 64.7852 60.356 73.3734" stroke="white" stroke-width="4" stroke-miterlimit="10" stroke-linecap="round"/>
<path d="M55.6934 110.455C55.6934 110.455 66.0406 116.957 69.2894 127.262" stroke="white" stroke-width="4" stroke-miterlimit="10" stroke-linecap="round"/>
<path d="M184.308 71.5242C184.308 73.0088 183.008 74.2119 181.404 74.2119C179.799 74.2119 178.499 73.0084 178.499 71.5242C178.499 70.0401 179.8 68.8365 181.404 68.8365C183.008 68.8365 184.308 70.0396 184.308 71.5242Z" stroke="#00CBCC" stroke-miterlimit="10"/>
<path d="M191.448 137.873C191.448 139.358 190.147 140.561 188.543 140.561C186.939 140.561 185.639 139.357 185.639 137.873C185.639 136.389 186.939 135.185 188.543 135.185C190.147 135.185 191.448 136.389 191.448 137.873Z" stroke="#00CBCC" stroke-miterlimit="10"/>
<path d="M30.794 98.6797C30.794 100.164 29.4934 101.367 27.8895 101.367C26.2855 101.367 24.9849 100.164 24.9849 98.6797C24.9849 97.1956 26.2851 95.9921 27.8895 95.9921C29.4939 95.9921 30.794 97.1956 30.794 98.6797Z" stroke="#00CBCC" stroke-miterlimit="10"/>
<path d="M99.2813 36.5146C99.2813 37.9992 97.9807 39.2023 96.3768 39.2023C94.7724 39.2023 93.4722 37.9988 93.4722 36.5146C93.4722 35.0301 94.7729 33.827 96.3768 33.827C97.9812 33.827 99.2813 35.0301 99.2813 36.5146Z" stroke="#00CBCC" stroke-miterlimit="10"/>
<path d="M153.963 47.9036C153.963 48.9534 153.043 49.8043 151.909 49.8043C150.774 49.8043 149.854 48.9534 149.854 47.9036C149.854 46.8538 150.774 46.0029 151.909 46.0029C153.043 46.0034 153.963 46.8543 153.963 47.9036Z" stroke="#00CBCC" stroke-miterlimit="10"/>
<path d="M197.55 81.7896L195.554 83.6364L193.558 81.7896L192.417 82.8462L194.412 84.693L192.417 86.5399L193.558 87.5965L195.554 85.7497L197.55 87.5965L198.692 86.5399L196.696 84.693L198.692 82.8462L197.55 81.7896Z" fill="#00CBCC"/>
<path d="M172.358 145.192L170.362 147.039L168.367 145.192L167.224 146.249L169.22 148.096L167.224 149.943L168.367 150.999L170.362 149.152L172.358 150.999L173.5 149.943L171.504 148.096L173.5 146.249L172.358 145.192Z" fill="#DCD6F7"/>
<path d="M164.205 6.27502L162.21 8.12186L160.214 6.27502L159.072 7.33166L161.068 9.1785L159.072 11.0253L160.214 12.082L162.21 10.2351L164.205 12.082L165.347 11.0253L163.351 9.1785L165.347 7.33166L164.205 6.27502Z" fill="#00CBCC"/>
<path d="M15.83 83.5397L13.8341 85.3865L11.8382 83.5397L10.6963 84.5963L12.6922 86.4431L10.6963 88.29L11.8382 89.3466L13.8341 87.4998L15.83 89.3466L16.9719 88.29L14.976 86.4431L16.9719 84.5963L15.83 83.5397Z" fill="#00CBCC"/>
<path opacity="0.5" d="M119.75 95.4559C119.75 95.4559 126.845 110.043 151.664 112.734H124.368L119.75 95.4559Z" fill="#028586"/>
</svg>
